<?xml version="1.0" encoding="utf-8"?>
<!-- Generator: Adobe Adobe Illustrator 24.2.0, SVG Export Plug-In . SVG Version: 6.00 Build 0)  -->
<svg version="1.1" xmlns="http://www.w3.org/2000/svg" xmlns:xlink="http://www.w3.org/1999/xlink" x="0px" y="0px" width="2080px"
	 height="890px" viewBox="0 0 2080 890" style="enable-background:new 0 0 2080 890;" xml:space="preserve">
<style type="text/css">
	.st0{fill:#95CFFF;stroke:#3985BF;stroke-width:11;stroke-miterlimit:10;}
	.st1{fill:#95CFFF;stroke:#3985BF;stroke-miterlimit:10;}
</style>
<g id="Layer_4">
	<path class="st0" d="M1730.52,377.18c65.52,30.71,123.69,80.34,167.16,142.63c-38.27-4.04-77.76,19.47-95.77,57.02
		c48.19,56.03,91.18,117.51,128.1,183.17c-95.84-36.94-195.2-62.74-295.89-76.84c-16.29-2.28-24.83-28.2-13.68-41.53"/>
	<path class="st0" d="M360.86,377.18c-69.26,30.71-130.74,80.34-176.69,142.63c40.46-4.04,82.2,19.47,101.23,57.02
		C234.47,632.86,189.02,694.34,150,760c101.31-36.94,206.33-62.74,312.77-76.84c17.22-2.28,26.25-28.2,14.46-41.53"/>
</g>
<g id="Layer_3">
	<path class="st0" d="M370.43,543.47c-26.06-3.63-29.62,30.56-11.88,40.39c29.54,14.15,59.09,28.3,88.63,42.45
		c18.45,8.83,30.23,32.18,27.34,54.17c18.02-63.4,36.05-126.8,54.07-190.2c4.14-14.56-9.9-31.16-23.32-27.56
		c-34.32,9.19-68.63,18.37-102.95,27.56"/>
	<path class="st0" d="M1710.33,551.88c2.3,0.71,25.32,3.02,28.37,10.78c3.05,7.76-1.28,15.66-8.64,18.01
		c-43.57,13.94-83.87,40.2-116,75.58c-12.03-49.11-24.06-98.21-36.1-147.32c33.19,1.2,66.17,9.41,96.62,24.05"/>
</g>
<g id="Layer_2">
	<path class="st0" d="M1728.76,230.29c-509.88-197.88-1376.75-8.83-1376.75-8.83l11.32,322.38
		c282.98-14.17,844.93-127.1,1363.23,11.96l15.42-303.98C1742.5,241.43,1743.82,236.14,1728.76,230.29z"/>
</g>
<g id="Layer_5">
</g>
</svg>
