<?xml version="1.0" encoding="utf-8"?>
<!-- Generator: Adobe Adobe Illustrator 24.2.0, SVG Export Plug-In . SVG Version: 6.00 Build 0)  -->
<svg version="1.1" xmlns="http://www.w3.org/2000/svg" xmlns:xlink="http://www.w3.org/1999/xlink" x="0px" y="0px" width="2080px"
	 height="880px" viewBox="0 0 2080 880" style="enable-background:new 0 0 2080 880;" xml:space="preserve">
<style type="text/css">
	.st0{fill:#FFEBAB;stroke:#EBA701;stroke-width:11;stroke-miterlimit:10;}
	.st1{fill:#FFEBAB;stroke:#EBA701;stroke-miterlimit:10;}
</style>
<g id="Layer_4">
</g>
<g id="Layer_3">
</g>
<g id="Layer_2">
	<path class="st0" d="M1746.04,344.75c66.99,31.2,126.47,81.64,170.91,144.93c-39.13-4.1-79.51,19.79-97.92,57.94
		c49.27,56.93,93.23,119.41,130.97,186.12c-98-37.54-199.58-63.75-302.54-78.08c-16.66-2.32-25.39-28.66-13.99-42.2"/>
	<path class="st0" d="M345.6,344.75c-70.81,31.2-133.68,81.64-180.66,144.93c41.36-4.1,84.04,19.79,103.51,57.94
		C216.37,604.55,169.9,667.02,130,733.74c103.59-37.54,210.97-63.75,319.8-78.08c17.61-2.32,26.84-28.66,14.79-42.2"/>
	<path class="st0" d="M355.38,513.72c-26.65-3.69-30.28,31.05-12.15,41.04c30.21,14.38,60.41,28.75,90.62,43.13
		c18.86,8.98,30.91,32.7,27.96,55.04c18.43-64.42,36.86-128.84,55.28-193.27c4.23-14.8-10.12-31.66-23.85-28.01
		c-35.09,9.34-70.17,18.67-105.26,28.01"/>
	<path class="st0" d="M1725.39,522.26c2.36,0.72,25.88,3.06,29.01,10.95c3.12,7.89-1.31,15.91-8.83,18.3
		c-44.55,14.17-85.75,40.85-118.61,76.8c-12.3-49.9-24.61-99.8-36.91-149.7c33.94,1.22,67.66,9.56,98.8,24.44"/>
	<path class="st0" d="M1744.24,195.49C1222.9-5.58,336.55,186.52,336.55,186.52l11.57,327.57
		c289.34-14.4,863.91-129.15,1393.86,12.15l15.76-308.88C1758.29,206.81,1759.63,201.43,1744.24,195.49z"/>
</g>
<g id="Layer_5">
</g>
</svg>
