<?xml version="1.0" encoding="utf-8"?>
<!-- Generator: Adobe Illustrator 27.6.1, SVG Export Plug-In . SVG Version: 6.00 Build 0)  -->
<svg version="1.1" id="Layer_4" xmlns="http://www.w3.org/2000/svg" xmlns:xlink="http://www.w3.org/1999/xlink" x="0px" y="0px"
	 viewBox="0 0 1098.1 1952.2" style="enable-background:new 0 0 1098.1 1952.2;" xml:space="preserve">
<style type="text/css">
	.st0{fill:#FFECAC;}
</style>
<path class="st0" d="M35.5,1868c5.5-7,10.6-14.4,15.3-21.9s10-15.2,13.8-23.3c8.2-17.6,18.4-34.3,27.3-51.5
	c8.9-17.2,18.1-35.7,27.2-53.6c4.5-8.8,7.6-17.9,11.5-26.9c3.6-8.3,7.2-16.6,10.6-25c28.9-70.7,49.5-144.7,59-220.6
	c1.1-9.1,2.6-18.4,2.6-27.6c0-9.9,1.4-19.7,2.1-29.6c1.4-20.7,1.6-41.4,0.9-62.1c-0.6-20.7-2.1-41.4-3.9-62.1
	c-0.4-4.2-0.3-8.6-1.2-12.6c-1-5-2.2-9.6-2.6-14.7c-0.8-9.4-1.9-18.8-3.4-28.2c-3-19.6-7.4-38.8-11.8-58c-2.1-9.1-4.2-18.2-6.4-27.3
	c-1.1-4.5-2.2-9.1-3.2-13.7c-0.8-3.9-2.6-7.1-3.7-11c-9.8-37-21.8-73.3-35.5-109c-26.8-69.8-60.3-136.7-95.7-202.5
	c-4.4-8.2-8.8-16.3-13.3-24.5c-1.5-2.8-5.9-0.3-4.3,2.5C56.4,830,90.7,896,119,964.8c14.2,34.5,26.8,69.7,37.5,105.5
	c5.1,17,10.3,34,14.4,51.2c4.5,18.6,9.1,37.2,13,56c4.1,19.2,7.3,38.5,9,58.1c0.4,4,0,8.7,1.2,12.6c1.5,4.9,2.1,9.6,2.6,14.7
	c0.9,10.2,1.7,20.3,2.4,30.5c1.3,20.3,2.1,40.6,1.9,61c-0.1,10.2-0.4,20.3-1,30.5c-0.6,10.2-2.3,19.6-2.3,29.4
	c0,18.8-3.3,37.9-6.2,56.5s-6.6,37.1-10.8,55.5c-8.5,36.7-19.5,72.8-32.6,108.1c-6.8,18.2-14.1,36.3-21.9,54.1
	c-3.8,8.6-6.8,17.6-11.1,26c-4.3,8.4-8.9,17.6-13.3,26.5c-8.8,17.5-17.7,35.1-27.2,52.2c-8.9,16.1-17,32.6-26.7,48.2
	c-5,8-10.2,15.9-16.1,23.4C30.1,1866.9,33.6,1870.5,35.5,1868L35.5,1868L35.5,1868z"/>
<path class="st0" d="M24.5,1007.4c17.3,31.6,31.1,65.1,41.2,99.7c10,34.4,16.5,69.8,19.2,105.5c2.8,37.5,1.4,75.2-2.9,112.5
	c-4.3,37.8-11.7,75.2-20.3,112.3c-1.1,4.9-2.3,9.8-3.5,14.7c-0.3,1.4-1,2.3-1.7,3.5c-1,1.8-1.1,4.1-1.5,6.1c-2,9.1-4.4,18.1-7,27
	c-5.1,17.5-10.9,34.8-16.3,52.2c-1.3,4.3-2.6,8.6-3.9,13c-0.9,3.1,3.9,4.4,4.8,1.3c5.1-17.8,11.1-35.2,16.5-52.9
	c2.7-8.8,5.3-17.7,7.6-26.6c1.2-4.7,2.3-9.4,3.4-14.2c0.4-1.8,0.6-3.2,1.6-4.8s1.3-3.2,1.7-5c8.9-37.4,16.8-75.1,21.9-113.3
	c5-37.8,7.2-76,5.3-114.2c-1.8-36-7.5-71.9-16.7-106.7c-9.3-34.9-22.3-68.9-38.8-101c-2-4-4.1-7.9-6.3-11.8
	C27.3,1002,22.9,1004.5,24.5,1007.4L24.5,1007.4L24.5,1007.4z"/>
<path class="st0" d="M1094.7,1045.4c-40.8-56.6-88.8-107.3-133.5-160.8c-44.3-53-86.3-109.7-110.6-174.9
	c-12.6-33.8-20.8-70-21.7-106.2c-1.1-40.9,9.1-80.9,23.4-118.9s33-74.9,49.7-112.3c14.2-31.8,27.5-63.9,42.8-95.2
	c29.6-60.2,67.7-120.8,127.6-154.9c7.6-4.3,15.5-8.2,23.5-11.5c2.9-1.2,1.7-6.1-1.3-4.8c-64.4,26.7-108.1,82.6-140.5,142.3
	c-16.5,30.4-30.5,62-44.3,93.6c-16.3,37.2-34,73.8-50.1,111.1c-16,37.2-29.7,75.8-34.3,116.2c-4.3,37.8,0.7,76.4,10.9,112.9
	c18.9,67.5,57.7,126.8,100.9,181.1c44.5,55.9,94.3,107.5,137.8,164.2c5.2,6.8,10.3,13.6,15.3,20.6
	C1092.3,1050.5,1096.6,1048,1094.7,1045.4L1094.7,1045.4L1094.7,1045.4z"/>
<path class="st0" d="M1094.8,910.1c-23.7-45.1-55.9-84.9-84.7-126.6c-28.6-41.5-54.5-86.2-63-136.6c-2.3-13.7-3.5-27.8-2.9-41.7
	c0.6-15,3.4-29.8,7.2-44.3c7.5-28.6,18.9-55.9,26.7-84.4c8.4-30.5,7.5-61.7,6.5-93c-1-32.3-1.1-64.5,9.2-95.5
	c16.1-48.3,40.8-97,85.9-124.1c5.5-3.3,11.2-6.2,17.1-8.8c2.9-1.3,0.4-5.6-2.5-4.3c-48.2,20.8-79.3,66.7-97.7,114.1
	c-5.2,13.5-10.1,27.5-13,41.7c-3.2,15.6-4.3,31.5-4.4,47.3c-0.3,32.3,3.3,64.8-0.7,97c-1.9,15.3-6.6,30.3-11.4,44.9
	c-4.7,14.4-9.8,28.6-14.4,43c-9.1,28.7-15,57.4-12.9,87.6c3.6,51.8,26.3,98.8,54.2,141.8c28.2,43.3,61.4,83.3,87.4,128
	c3.2,5.4,6.2,10.9,9.1,16.4C1092,915.5,1096.3,913,1094.8,910.1L1094.8,910.1L1094.8,910.1z"/>
<path class="st0" d="M1093.7,447.6c-15.1,16.8-27.3,36-36.1,56.7c-8.8,20.7-14.1,42-16.7,64c-2.7,22.3-2.4,45,0.3,67.3
	c2.7,22.5,7.7,44.8,14.9,66.3c7.1,21.2,16.2,41.7,27.4,61c1.3,2.3,2.7,4.6,4.1,6.9c1.7,2.7,6,0.2,4.3-2.5
	c-11.4-18.7-20.8-38.5-28.3-59.1s-13.1-42.7-16.4-64.8c-3.2-21.8-4.1-44.1-2.2-66.1s6.4-43.1,14.1-63.4
	c7.7-20.4,18.7-39.7,32.7-56.5c1.8-2.2,3.6-4.3,5.5-6.4C1099.3,448.7,1095.8,445.2,1093.7,447.6L1093.7,447.6L1093.7,447.6z"/>
</svg>
