<?xml version="1.0" encoding="UTF-8"?>
<svg id="Layer_1_copy" data-name="Layer 1 copy" xmlns="http://www.w3.org/2000/svg" viewBox="0 0 1941.5 4584.81">
  <defs>
    <style>
      .cls-1 {
        fill: #1876bd;
      }
    </style>
  </defs>
  <g id="Accents">
    <g id="Layer_3" data-name="Layer 3">
      <path class="cls-1" d="m8.24,4439.68c105.79,1.42,211.87,1.42,317.38-10.52,34.98-3.98,70.53-2.27,105.79-3.7,29.58-1.14,59.44-3.41,88.73-6.83,114.32-12.8,227.23-40.1,335.86-79.91,216.99-79.63,419.47-207.6,590.39-373.4,156.41-151.86,289.22-339.56,362.03-554.84,67.97-201.06,75.65-423.17,2.84-623.95-90.15-248.84-282.11-433.98-489.43-567.64-69.68-44.93-142.19-84.75-216.14-120.58-67.12-32.42-131.96-62-176.32-129.11-26.16-39.53-46.92-83.61-45.79-133.09.85-36.12,10.81-71.67,23.04-105.22,32.99-91,82.76-174.9,125.98-260.5,54.03-107.21,103.23-217.84,135.37-335.29,37.54-137.64,50.62-282.11,35.55-424.88-9.1-86.17-27.3-170.92-53.18-252.82-10.52-33.27-21.61-66.55-36.97-97.83-21.04-42.66-50.34-81.9-90.44-104.37-47.49-26.73-102.38-27.3-154.14-17.92-85.6,15.93-167.5,57.45-243.44,101.53-129.97,75.36-251.97,167.22-369.99,262.21-76.22,61.43-151.29,124.85-225.24,189.4-8.53,7.39,3.41,20.48,11.94,13.08,139.35-121.72,282.11-240.31,432.56-345.82,93.85-65.69,191.68-129.11,296.9-171.49,98.97-39.81,223.53-65.12,299.18,35.26,43.51,57.73,64.27,136.51,82.47,206.18,39.25,150.16,51.19,308.28,28.44,462.7-18.49,126.27-59.15,247.13-110.63,361.74-43.23,95.84-94.7,186.84-140.2,281.26-31.57,65.69-66.83,140.49-63.42,216.99,2.28,50.91,26.45,98.11,54.6,137.64,41.81,59.15,98.68,89.58,159.83,118.59,246,116.88,492.28,281.83,641.01,531.81,108.64,182.86,148.45,400.99,109.77,614.85-39.25,218.69-149.02,416.63-286.09,579.58-151.29,180.02-339.28,323.63-543.47,423.74-104.09,50.91-213.29,90.44-325.06,116.6-55.74,13.08-111.76,22.47-168.36,28.15-65.69,6.83-131.67,3.98-197.37,10.81-100.67,10.24-201.92,10.24-302.87,8.82-12.23.28-12.23,18.77-1.14,18.77h0Z"/>
      <path class="cls-1" d="m27.29,4276.72c308.85-22.47,619.97-103.52,891.27-269.03,191.96-117.17,381.37-286.95,462.7-516.17,32.42-91.29,43.8-191.11,26.45-287.52-16.49-92.14-60.86-169.21-134.8-218.98-79.63-53.75-175.75-73.37-267.33-86.74-106.93-15.64-215-21.33-322.5-33.56-194.52-21.61-429.71-65.41-527.26-275.29-76.22-164.09,60.86-322.5,153-438.53,71.38-90.15,143.9-179.45,207.89-276.14,73.94-111.2,135.94-231.78,179.16-360.89,30.43-91.29,47.78-185.71,65.41-280.69,18.2-97.83,32.14-197.08,38.11-296.62,3.41-55.46,4.27-111.48-.85-166.94-4.27-46.64-12.23-94.42-32.42-136.51-14.22-30.15-38.96-61.43-70.53-70.24-28.15-7.68-59.44,7.39-83.89,20.76-42.09,23.04-79.91,54.32-116.03,86.74-49.2,44.36-94.99,92.99-138.21,143.9-96.98,113.76-183.43,239.74-252.25,375.96-32.14,63.7-60.29,129.68-81.34,198.79-3.41,11.38,12.8,16.21,16.21,4.83,44.93-145.61,119.73-279.84,203.91-402.41,78.49-114.04,167.5-222.68,269.32-312.83,35.26-31.28,73.09-61.71,114.89-82.76,24.17-12.23,52.33-23.32,77.35-7.96,31.57,19.05,49.2,56.02,60.01,92.14,14.22,48.63,18.49,100.1,19.62,151.01,3.7,178.03-28.72,358.05-65.41,530.95-29.86,141.06-82.76,275-152.43,398.14-60.01,105.79-131.39,202.77-205.9,296.9-60.01,75.93-123.42,149.87-175.75,232.63-38.68,61.14-72.8,132.53-69.39,209.03,3.7,88.16,56.59,170.06,116.6,225.8,73.66,68.25,166.94,104.94,260.22,127.41,205.9,49.48,420.9,33.27,625.94,87.02,81.62,21.33,165.8,57.73,219.26,131.96,53.18,74.23,67.4,177.17,60.01,268.46-18.2,224.38-170.35,411.51-329.04,540.91-230.07,187.7-511.9,294.63-793.44,346.67-81.9,15.07-164.66,25.31-247.42,31.28-11.94.86-11.94,19.06-1.14,18.49h0Z"/>
      <path class="cls-1" d="m5.96,3651.64c40.38,13.37,81.62,23.32,122.86,31.28,51.47,9.95,103.8,16.49,156.13,19.91,56.59,3.7,113.47,3.41,170.06-1.99,57.45-5.4,114.89-15.93,170.06-34.41,53.47-17.63,105.22-42.66,151.01-77.35,22.75-17.06,44.08-36.69,63.42-58.3,9.67-10.81,18.49-22.18,27.02-33.84,10.52-14.5,19.62-29.29,25.03-46.92,11.09-36.12,6.26-76.78-9.38-110.34-7.96-17.35-19.05-31.85-32.7-44.36-13.94-12.51-29.29-23.32-45.79-32.14-65.41-34.98-139.92-38.39-211.3-44.65-19.91-1.71-39.81-3.41-60.01-3.7-22.18-.28-44.36.57-66.55,1.99-45.22,2.84-91,6.83-135.65,14.22-87.59,14.79-174.05,35.83-258.79,63.7-20.48,6.83-41.24,13.93-61.43,21.61-10.24,3.98-5.97,21.61,4.55,17.63,82.47-30.71,166.94-54.6,252.54-72.52,21.61-4.55,42.94-8.53,64.56-12.23,21.9-3.7,43.8-5.97,65.69-8.25,43.8-4.27,87.88-7.96,131.96-7.96,37.82.28,75.93,4.55,113.76,8.25,34.7,3.41,69.39,7.96,102.95,17.92,32.7,9.67,64.56,25.03,91,48.63,6.54,5.97,12.8,11.94,18.2,19.34,5.12,7.39,9.67,15.36,13.37,23.6,6.83,15.64,11.09,32.7,11.94,49.77.85,17.63-1.42,35.55-7.68,52.04-5.69,14.5-14.79,27.02-23.89,39.25-17.06,22.75-36.4,43.23-57.16,61.71-41.24,36.4-90.15,64.27-140.2,83.89-52.04,20.48-107.21,33.56-161.53,40.95-56.02,7.39-112.62,9.67-168.93,7.68-52.04-1.71-104.94-7.11-155.28-15.36-43.51-7.11-87.02-16.49-129.68-29.01-8.53-2.56-17.06-5.12-25.31-7.96-10.81-3.41-15.36,14.5-4.83,17.92h0Z"/>
      <path class="cls-1" d="m42.65,1586.12c29.58-65.41,64.84-127.41,100.1-188.83,9.1-16.21,18.49-32.14,27.59-48.35,8.53-15.36,16.49-31,27.87-43.8,2.56-2.84,5.4-5.4,7.39-8.82,1.99-3.98,3.7-7.96,5.97-11.94,3.98-7.68,8.25-15.36,13.08-22.47,8.82-13.93,18.49-27.59,28.15-40.67,19.62-27.02,39.25-53.75,58.58-81.05,18.77-26.16,37.82-52.33,58.3-77.35,20.76-25.31,42.94-49.48,67.12-70.81,21.9-19.62,48.06-34.98,76.78-38.11,26.45-2.84,54.6,5.4,69.96,30.43,13.94,22.75,15.93,51.19,15.64,77.64-.57,68.25-15.36,135.65-39.53,198.5-6.26,15.93-13.08,31.85-20.48,47.21-3.7,7.68-7.68,15.36-11.66,23.04-1.99,3.7-3.98,7.39-5.97,11.09-2.28,4.27-5.69,7.68-8.82,11.09-5.69,6.26-9.1,14.79-13.37,22.18-3.98,7.11-8.25,14.22-12.8,21.33-9.1,14.22-18.77,27.87-29.01,40.95-4.83,6.26-10.52,11.94-13.08,19.91-.85,2.56-1.42,4.55-2.84,6.54-2.56,3.7-5.69,7.11-8.53,10.52-11.09,13.65-22.47,27.3-33.84,40.95-22.18,26.73-44.93,52.9-67.68,78.78-44.65,51.19-90.15,102.1-133.95,154.14-44.08,52.04-86.45,105.22-125.98,161.53-9.67,13.65-19.05,27.87-28.44,41.81-2.56,3.98-.57,10.24,3.13,12.51,4.27,2.56,8.82.85,11.66-3.41,38.39-58.58,80.77-114.04,125.13-167.5,44.36-53.75,90.15-105.51,135.94-157.55,23.04-26.16,46.07-52.61,68.82-79.34,23.04-26.73,46.36-53.47,67.68-81.9,2.28-3.13,3.7-6.83,4.83-10.52,1.14-3.13,2.56-4.83,4.55-7.39,5.4-6.83,10.81-13.65,15.93-20.76,10.24-13.93,19.91-28.15,29.01-43.23,4.55-7.39,8.53-15.07,12.51-22.47,1.99-3.7,5.12-6.54,7.96-9.38,3.41-3.7,5.69-7.96,8.25-12.51,8.25-15.36,15.93-31,23.04-47.21,28.44-63.42,47.78-131.67,53.47-202.2,2.56-30.71,3.7-62.85-3.98-92.99-3.7-14.22-9.67-27.3-17.92-38.96-9.1-12.51-21.33-20.76-35.26-26.16-27.87-10.52-58.87-5.97-85.6,6.26-29.58,13.37-53.75,36.69-76.78,60.57-45.5,47.21-82.76,102.1-121.72,155.56-20.48,28.15-41.81,55.74-60.86,85.03-4.55,7.39-9.1,14.5-13.37,22.18-3.98,7.11-6.83,14.5-11.94,20.48-12.23,13.65-20.76,29.29-29.86,45.5-36.12,63.99-73.94,127.12-106.93,193.1-7.96,15.64-15.36,31.57-22.75,47.78-1.99,4.55-1.14,9.95,3.13,12.51,3.41,2.56,9.1,1.14,11.38-3.41h0Z"/>
    </g>
  </g>
</svg>