<?xml version="1.0" encoding="utf-8"?>
<!-- Generator: Adobe Illustrator 27.6.1, SVG Export Plug-In . SVG Version: 6.00 Build 0)  -->
<svg version="1.1" id="Layer_1" xmlns="http://www.w3.org/2000/svg" xmlns:xlink="http://www.w3.org/1999/xlink" x="0px" y="0px"
	 viewBox="0 0 1920 1080" style="enable-background:new 0 0 1920 1080;" xml:space="preserve">
<style type="text/css">
	.st0{fill:#7EC7E0;}
	.st1{fill:#EDED8A;}
</style>
<g id="Layer_3">
	<path class="st0" d="M1919.5,148.2c-262.9,4.2-1897.3-1-1920.8,1.8c0,0-0.4,263.4-0.4,387.3c230.1,20.7,409.8,179.3,621,251.4
		c121,37.7,261.2,40,337.3-61.4c225.8-300.9,708.8-289.3,933.6-15.1c46.3,74.6,27.6-11.4,28.5-18
		C1919.5,681.1,1919.2,176,1919.5,148.2z"/>
	<rect class="st0" width="1920" height="225.3"/>
</g>
<g id="Layer_2_00000059311783595010822220000009179793734492961726_">
	<g>
		<g>
			<path class="st1" d="M-1.2,310c110.4,55.2,222.1,108,336,155.7c86.8,36.4,175,69.9,265.2,97.1c67.5,20.4,136.2,37.3,206.1,47.2
				c54.1,7.7,108.9,11.1,163.5,7.9c45.6-2.7,90.9-10,135.1-21.8c41.2-10.9,81.3-25.5,120.7-41.6c40.6-16.5,80.7-34.4,121.1-51.4
				c44.5-18.7,89.6-36.2,135.5-51c54.3-17.5,109.8-31.2,165.9-41.1c69.8-12.3,140.5-18.6,211.3-20.8c20-0.6,40-0.9,60-0.8
				c6.4,0,6.4-10,0-10c-74.5-0.1-149,3.9-222.8,14c-59.3,8.1-118.1,20.1-175.7,36.5c-48.3,13.7-95.6,30.5-142.2,49.3
				c-41.4,16.6-82.2,34.8-123.3,52.2c-38.9,16.5-78.3,32.3-118.7,45.1c-42,13.2-85.1,23.1-128.8,28.1c-51.1,5.9-102.7,5.7-153.9,1
				c-65.6-6-130.3-19.3-193.9-36.2c-84.2-22.4-166.7-51.2-247.7-83C304.2,444,198.3,396,93.8,345.6c-30.1-14.5-60.1-29.3-90-44.3
				C-1.9,298.5-7,307.1-1.2,310L-1.2,310z"/>
		</g>
	</g>
	<g>
		<g>
			<path class="st1" d="M1917.6,443c-131.8-14.2-261.6,17.5-383.7,65.1c-124,48.3-241.5,111.5-364.4,162.4
				c-60.1,24.9-122.9,50.1-187.5,60.1c-65.5,10.1-132.4,9.3-197.9-0.1C655.4,712,533.7,662.7,414.8,612.2
				C295,561.2,175.4,507,48.3,476.6c-15.3-3.6-30.6-6.9-46.1-9.8c-6.3-1.2-9,8.5-2.7,9.6c129.3,24.2,250.9,76.3,371.2,127.7
				C490,655,610.3,707.3,738,732.6c62.7,12.4,126.9,18,190.8,13.8c32.2-2.2,65.1-5.8,96.3-14.5c31.6-8.8,62.8-19.2,93.6-30.7
				c124.9-46.6,242.8-109.8,365.3-162c121.7-51.8,250.9-93.3,384.6-89.5c16.4,0.5,32.7,1.6,49,3.4
				C1923.9,453.7,1923.9,443.7,1917.6,443L1917.6,443z"/>
		</g>
	</g>
</g>
<g id="Layer_4">
	<path class="st1" d="M201.3,237.3c-12,6.7-24.2,13.3-35.1,21.8c-3,2.3-6.1,4.5-8.9,7c-0.9,0.7-0.7,0.9-3.1,2.1
		c-0.1,0-0.2,0-0.3,0.1c-0.1-0.1-0.2-0.1-0.4-0.2c-2.2-1.4-5.9-4.7-11.1-7.6c-5-2.9-10.1-6-15.9-6.7c-5.8-0.8-11.5-2.3-17.3-1.8
		c-10.1,0.6-20.1,1.1-30.1,2.2c-2.2,0.3-4.3,1.1-6.5,1.8c0.6,0,1.3-0.1,1.9-0.1c5-0.5,9.9,0.8,14.8,1.4c7.1,1,14.2,1.8,21.3,2.5
		c3.4,0.5,6.7,1.6,9.9,2.6c2.5,0.7,5.1,1.2,7.5,2.2c2.7,1.3,5.2,3,7.8,4.5c2.6,1.6,5.3,3.3,7.8,5.1c5.2,4.3,9.7,6.9,16.4,2.9
		c2.7-1.8,5.1-4,7.5-6.1c-0.4,0.3-0.7,0.5-1.1,0.8c4.6-3.5,9.1-7,13.5-10.7c2.6-2.1,11-8.2,16.7-12.6c5-3.9,11.5-9,15.6-12.4
		c3.8-2.7,10.5-7.4,15.2-10.8C218.5,228.8,209.6,232.4,201.3,237.3z"/>
	<path class="st1" d="M247.9,293.4c-0.2,0-0.3,0-0.5,0c-1-0.1-2.7-0.5-4.3-1.4c-4.9-2.5-10.2-4.2-15.7-5c-3.7-0.4-7.3,0.9-10.9,1.5
		c-0.6,0.1-1.1,0.2-1.7,0.3c0.1,0,0.1,0,0.2,0c4.3,0.7,8.9,0.2,13,2c2.6,1.2,6.4,3.1,9.4,4.7c2.8,1.6,5.4,3.6,8.7,4.1
		c10.7,1.4,24.3-16.3,33-21.8C267.7,281.2,257,290.9,247.9,293.4z"/>
	<path class="st1" d="M1804.6,323c-14.1-2.5-34.6-3.2-45.5,8.5c-10.3-13.5-24.9-25.8-45.8-25.8c13.3,6.2,25.9,18.5,37.1,29.8
		c4.9,5,6.8,7,11.4,4.9c15-6.8,41.6-16.3,57.6-11.1C1815.3,325.7,1809.7,324.4,1804.6,323z"/>
</g>
</svg>
