<?xml version="1.0" encoding="utf-8"?>
<!-- Generator: Adobe Illustrator 27.6.1, SVG Export Plug-In . SVG Version: 6.00 Build 0)  -->
<svg version="1.1" id="Layer_1" xmlns="http://www.w3.org/2000/svg" xmlns:xlink="http://www.w3.org/1999/xlink" x="0px" y="0px"
	 viewBox="0 0 1941.5 6387.7" style="enable-background:new 0 0 1941.5 6387.7;" xml:space="preserve">
<style type="text/css">
	.st0{fill:#1876BD;}
</style>
<g id="Layer_8">
	<g id="Layer_4">
		<path class="st0" d="M13.9,2977.4c0,0,39.4-26.6,47.9-33.8s17.9-14.6,24.7-22.3c14.7-16.8,32.8-32.8,48.8-49.2
			c16.5-17,32.3-34.1,48.5-51.2c8-8.4,13.5-17.1,20.6-25.7c6.5-7.9,12.8-15.9,18.9-23.9c51.5-67.6,88.4-138.4,105.3-210.9
			c2-8.7,4.7-17.6,4.7-26.4c0-9.5,2.5-18.9,3.7-28.3c2.5-19.8,2.8-39.6,1.7-59.3c-1.1-19.8-3.7-39.6-6.9-59.3
			c-0.6-4-0.6-8.2-2.1-12.1c-1.8-4.7-3.9-9.2-4.6-14.1c-1.4-9-3.5-18-6-26.9c-5.3-18.7-13.2-37-21.1-55.5
			c-3.7-8.7-7.5-17.4-11.5-26.1c-2-4.4-4-8.7-5.7-13.1c-1.5-3.7-4.7-6.8-6.5-10.5c-17.5-35.4-38.9-70.1-63.4-104.2
			C163,2057.9,103.3,1993.9,40.1,1931c-7.9-7.8-15.8-15.6-23.7-23.4c-2.8-2.7-10.5-0.3-7.7,2.4c63.6,62.3,124.8,125.4,175.2,191.2
			c25.3,33,47.9,66.6,67,100.8c9.1,16.3,18.3,32.5,25.8,48.9c8,17.8,16.2,35.6,23.3,53.5c7.3,18.3,13,36.8,16.1,55.5
			c0.6,3.8,0,8.4,2.1,12c2.8,4.7,3.8,9.1,4.6,14.1c1.6,9.7,3,19.4,4.2,29.1c2.4,19.4,3.8,38.8,3.5,58.3c-0.2,9.7-0.8,19.4-1.9,29.1
			c-1,9.3-4,18.8-4,28.1c0,18-5.9,36.3-11.2,54c-5.3,17.8-11.8,35.5-19.3,53c-15.2,35.1-34.8,69.6-58.1,103.3
			c-12.1,17.4-25.1,34.7-39,51.7c-6.8,8.3-12.1,16.8-19.7,24.8c-8,8.4-15.9,16.9-23.8,25.3c-15.8,16.8-31.6,33.5-48.6,49.9
			c-15.9,15.4-30.3,31.1-47.7,46.1c-8.9,7.7-35.5,24.4-45.9,31.6C7.4,2972.7,13.9,2977.3,13.9,2977.4L13.9,2977.4z"/>
		<path class="st0" d="M14.7,2141.9c30.9,30.2,55.6,62.2,73.6,95.3c17.9,32.9,29.5,66.7,34.2,100.9c5,35.8,2.6,71.9-5.1,107.6
			c-7.8,36.2-21,71.9-36.3,107.4c-2,4.7-4.1,9.4-6.2,14c-0.6,1.4-1.8,2.2-3,3.4c-1.7,1.7-2,4-2.8,5.9c-3.6,8.7-7.8,17.3-12.4,25.9
			c-9,16.7-19.5,33.2-29.1,49.9c-2.4,4.1-18.7,19.3-20.9,23.4c-1.6,3,7,4.2,8.6,1.3c9.1-17,33.8-44.7,43.5-61.6
			c4.9-8.4,9.5-16.9,13.6-25.4c2.2-4.5,4.2-9,6-13.6c0.7-1.7,1.1-3.1,2.8-4.6c1.7-1.5,2.3-3,3-4.7c15.9-35.8,30-71.8,39.1-108.3
			c9-36.1,12.9-72.7,9.4-109.1c-3.3-34.4-13.3-68.7-29.9-102c-16.6-33.4-39.7-65.8-69.2-96.5c-3.6-3.8-7.4-7.6-11.2-11.3
			C19.7,2136.8,11.9,2139.2,14.7,2141.9L14.7,2141.9L14.7,2141.9z"/>
		<path class="st0" d="M1925.6,2178.3c-72.8-54.1-158.6-102.6-238.3-153.7c-79.1-50.6-154-104.8-197.5-167.2
			c-22.5-32.3-37.1-66.9-38.8-101.5c-1.9-39.1,16.2-77.3,41.8-113.6c25.8-36.7,59-71.6,88.8-107.3c25.3-30.4,49.1-61.1,76.5-90.9
			c52.9-57.6,120.9-115.5,227.8-148.1c13.6-4.1,27.6-7.8,42-11c5.2-1.2,2.9-5.8-2.4-4.6c-115,25.5-193,78.9-250.8,136
			c-29.4,29-54.4,59.2-79,89.5c-29,35.6-60.8,70.5-89.4,106.2c-28.6,35.6-53.1,72.4-61.3,111.1c-7.7,36.1,1.2,73,19.4,107.9
			c33.8,64.5,103,121.2,180.2,173.1c79.5,53.4,168.4,102.7,246.1,156.9c9.3,6.5,18.4,13,27.3,19.7
			C1921.2,2183.2,1929,2180.8,1925.6,2178.3L1925.6,2178.3L1925.6,2178.3z"/>
		<path class="st0" d="M1925.7,2049c-42.3-43.1-99.7-81.1-151.2-121.1c-51.1-39.7-97.3-82.4-112.4-130.6
			c-4.1-13.1-6.2-26.6-5.2-39.8c1.1-14.3,6-28.5,12.8-42.3c13.4-27.3,33.7-53.5,47.7-80.7c15-29.2,13.3-59,11.6-88.9
			c-1.8-30.8-2-61.6,16.4-91.2c28.7-46.2,72.9-92.7,153.4-118.7c9.8-3.2,20.1-5.9,30.6-8.4c5.3-1.2,0.7-5.3-4.5-4.1
			c-86.1,19.8-141.6,63.7-174.5,109.1c-9.4,12.9-18.1,26.3-23.3,39.8c-5.8,14.9-7.6,30.1-7.9,45.2c-0.5,30.9,5.9,61.9-1.2,92.7
			c-3.4,14.7-11.9,28.9-20.3,42.9c-8.3,13.7-17.5,27.3-25.7,41.1c-16.3,27.4-26.8,54.9-23,83.7c6.5,49.5,46.9,94.5,96.7,135.5
			c50.3,41.4,109.6,79.6,156.1,122.3c5.6,5.2,11.1,10.4,16.2,15.7C1920.7,2054.1,1928.4,2051.7,1925.7,2049L1925.7,2049L1925.7,2049
			z"/>
		<path class="st0" d="M1923.7,1606.8c-26.9,16-48.7,34.4-64.5,54.2c-15.5,19.5-25.2,40.2-29.9,61.2c-4.8,21.3-4.3,43,0.5,64.3
			c4.8,21.5,13.8,42.8,26.7,63.4c12.7,20.2,29,39.8,48.8,58.3c2.4,2.2,11.8,11.4,14.3,13.6c3,2.6,10.7,0.2,7.7-2.4
			c-20.3-17.9-44.2-43.8-57.5-63.5c-13.6-20-23.5-40.8-29.3-61.9c-5.7-20.9-7.3-42.1-4-63.2c3.2-20.7,11.5-41.2,25.2-60.6
			c13.8-19.5,33.4-37.9,58.3-54c3.2-2.1,6.5-4.1,9.9-6.1C1933.8,1607.9,1927.5,1604.5,1923.7,1606.8L1923.7,1606.8L1923.7,1606.8z"
			/>
	</g>
</g>
<g id="Accents">
	<g id="Layer_2_00000094601656263058606560000003857376975613662358_">
		<path class="st0" d="M1897.2,5426.2c-54.8-7.4-109.2-22.2-159.9-41.3c-46.3-17.4-89.9-39.9-129.2-67.2
			c-77.4-53.8-137-125-171.8-205.3c-16.9-39-28.1-79.9-33.3-121.2c-2.6-20.8-3.7-41.6-3.3-62.5c0.2-10.3,0.7-20.6,1.6-30.9
			c1-11.6,1.5-23.5,3.4-35c2.1-12.4,4-24.7,6.7-37c1.2-5.6,2.5-11.1,4-16.7c1.3-4.9,3.6-9.2,5-14.1c5.5-19.3,12.1-38.3,19.9-57
			c15.5-37.4,35.7-73.3,60.3-107c50.3-69,118.1-126.7,195.3-173.4c11.6-7,23.5-13.4,35.7-19.6c1.5-0.8,1.8-3,0-3.7
			c-3.1-1.3-14.5-5.1-13.8,1.6c0.6,5.9,10.2,3.8,13.8,2.2c1.6-0.8,1.7-3,0-3.7c-28.9-13-46.5-37-53.4-64c-7.6-30.1-1.7-61.7,7.4-91
			c19.7-63.9,60.5-121,117.7-164.9c7.8-6,15.8-12,24.4-17.2c8.6-5.2,17.6-10.4,26.8-14.7c8.8-4.1,17.2-8.9,26.4-12.3
			c11.4-4.3,23.3-7.7,35.1-11.2c3-0.9,1.7-5.1-1.3-4.2c-37.6,10.9-73.2,26.1-103.7,48.2c-16,11.6-31,24-45,37.4
			c-12.1,11.6-22.6,24-32.9,36.9c-23.1,28.7-39.8,62.7-50.7,96.2c-9.7,29.6-16.3,61.7-10.1,92.4c6.1,30.1,24.8,57.8,56.9,72.2v-3.7
			c-1,0.5-5.8,1-6.3,1.6c-1.1,0.6-0.6,0.8,1.4,0.5c1.7,0.4,3.3,0.9,4.8,1.6v-3.7c-83.9,42.9-158.3,101.9-214.4,170.6
			c-26.2,32.1-48.3,66.5-66,102.7c-9.2,18.7-17.1,37.8-23.9,57.2c-7.3,21-14.7,42-19,63.5c-17.4,85.5-15,173.9,14.7,257.2
			c29.1,81.6,82.8,156.1,155.8,214c77.9,61.8,174.9,102,277.5,123.4c14,2.9,28.1,5.3,42.3,7.3
			C1899,5430.7,1900.4,5426.6,1897.2,5426.2L1897.2,5426.2L1897.2,5426.2z"/>
		<path class="st0" d="M1925.5,5360.7c-53.2-9.9-104.2-25.6-152.5-47.3c-11.5-5.2-22.8-10.6-33.9-16.4
			c-11.8-6.1-24.2-12.1-34.7-19.7c-9.4-6.8-19.9-12.4-29.7-18.8c-10.4-6.7-20.6-13.8-30.4-21.1c-18.8-13.9-36.5-28.9-53.3-44.6
			c-8.7-8.1-17.9-16.2-25.6-24.9c-3.6-4-6.5-8.4-10.2-12.4c-4.5-4.9-8.8-9.8-13.1-14.8c-29.4-34.5-53.4-72.6-69.5-113.2
			c-16.7-42.3-24.3-86.5-22.3-131.1c2.3-49.2,21.2-94.9,45.7-138.8c11.2-20.1,22.8-40,37.5-58.5c13.4-16.8,28.8-32.5,45.4-47.1
			c33.4-29.3,71.6-54,110.4-77.7c75.5-46,157.3-89.7,205-160.4c5.8-8.7,11-17.6,15.7-26.8c0.6-1.2,0.2-2.9-1.5-3.2
			c-4.1-0.7-12.4-2.9-16.4-0.7c-2.5,1.4-2.2,3.5-0.3,5.2c4.7,4,15,3.9,18.2-1.3c0.7-1.1,0.2-3-1.5-3.2c-17.1-2.3-34.1-2.8-51.4-2.3
			c-12.1,0.4-24.3,0.9-36.5,0.5c-27.4-0.9-54.2-8.1-68.7-29.8c-34.1-51.2,18.3-108.2,67.2-134.5c30.4-16.4,64.3-26.5,98.6-34.7
			c3.1-0.7,1.8-4.9-1.3-4.2c-62.8,15.1-129.2,38.8-163.3,89.9c-15,22.4-22.5,49.7-11.7,74.6c9.9,22.9,31.6,37.3,59.3,41.4
			c14.7,2.2,29.8,2,44.6,1.6c20.8-0.6,41-1,61.7,1.8c-0.5-1-1-2.1-1.5-3.2c-2.1,3.3-5.9,1.4-9.1,1c-0.4,0-1.2-0.8-1.5-0.7
			c-0.2,0.6-0.4,1.2-0.6,1.8c0.6-0.1,1.1-0.2,1.7-0.1c3.4,0.8,7.5,0.6,11,1.2c-0.5-1-1-2.1-1.5-3.2
			c-40.1,79.4-123,127.9-202.6,175.8c-38.9,23.4-77.6,47.3-112.3,75.3c-35.6,28.7-65.5,61.5-87.5,99c-25,42.6-47.3,86.3-55.1,134
			c-7.3,44.8-2.7,91,10.7,134.5c12.7,41.3,33.6,80.5,60.4,116.4c27.4,36.7,59.6,70.4,96.1,100.7c17.9,14.9,36.9,28.8,56.8,41.7
			c21.6,14,43.2,27.7,66.5,39.6c22.8,11.6,46.3,22.1,70.6,31.3c11.2,4.2,22.6,8.2,34,11.9c13.2,4.2,26.6,7.4,40,11
			s27.1,6.3,40.8,8.9C1927.3,5365.5,1928.6,5361.3,1925.5,5360.7L1925.5,5360.7L1925.5,5360.7z"/>
		<path class="st0" d="M1916,4604.3c-7.4,4.1-14.6,8.3-22,12.2c-3.4,1.8-7.1,3.4-10.5,5.3c-2.9,1.7-5.5,3.8-8.2,5.8
			c-6.1,4.6-12.9,8.5-19.2,12.8c-5.9,4.1-11.7,8.3-17.3,12.6c-22.2,17.2-41.8,36.7-58.8,57.9c-4.4,5.6-8.7,11.2-12.8,17
			c-4,5.6-7,11.6-10.7,17.3c-7.9,12.4-15.1,25.2-21.4,38.2c-12.6,26-21.9,53.3-27.6,81c-5.7,27.6-7.9,55.7-6.9,83.6
			c0.5,14.2,1.8,28.3,3.9,42.4c1.1,7.1,2.3,14.2,3.7,21.2c0.7,3.5,1.4,6.9,2.2,10.4c0.4,1.7,0.8,3.5,1.2,5.2
			c0.6,2.5,0.6,4.7,0.9,7.2c0.8,6.5,3.5,13.2,5.3,19.5c1.9,6.6,3.9,13.1,6,19.7c4.2,13,8.8,25.9,14.1,38.6
			c10.4,25.3,23.3,49.9,39,73.1c4.1,6,8.3,11.9,12.7,17.8c2.3,3.1,4.8,6.1,7.1,9.1c2.1,2.8,3.2,5.9,5.4,8.6
			c9.6,12.4,20.4,24.1,31.1,35.8c21.1,23,45.6,43.5,71.7,62.4c6.3,4.6,12.7,9,19.2,13.4c2.5,1.7,6.1-1.3,3.6-3.1
			c-26-17.7-50.9-36.5-73.2-57.6c-11.7-11.1-22.3-22.9-32.8-34.8c-5.2-6-10.5-12-15.3-18.2c-2-2.6-3.1-5.5-4.9-8.1
			c-2.1-2.9-4.5-5.7-6.7-8.6c-34.5-45.2-56.6-95.6-71.8-148c-2-6.8-4.9-13.9-5.5-20.9c-0.6-6.8-2.6-13.3-4-20
			c-3-14.3-5.2-28.8-6.6-43.3c-2.6-27.6-2.2-55.5,1.7-83.1c3.8-27.5,11.2-54.7,21.8-80.9c5.5-13.5,11.8-26.7,19-39.6
			c3.5-6.2,7.2-12.4,11-18.4c3.7-5.8,6.7-11.8,10.7-17.4c15.5-22,33.6-42.5,54.5-60.9c10.5-9.2,21.7-17.9,33.4-25.9
			c6.1-4.2,12.8-8,18.7-12.4c2.7-2,5.2-4.2,8.2-5.9c3.8-2.2,7.9-3.9,11.8-6c7-3.7,13.8-7.7,20.7-11.5
			C1921.3,4606.5,1918.7,4602.8,1916,4604.3L1916,4604.3L1916,4604.3z"/>
	</g>
	<g id="Layer_3">
		<path class="st0" d="M2.9,5087.1c37.2,0.5,74.5,0.5,111.6-3.7c12.3-1.4,24.8-0.8,37.2-1.3c10.4-0.4,20.9-1.2,31.2-2.4
			c40.2-4.5,79.9-14.1,118.1-28.1c76.3-28,147.5-73,207.6-131.3c55-53.4,101.7-119.4,127.3-195.1c23.9-70.7,26.6-148.8,1-219.4
			c-31.7-87.5-99.2-152.6-172.1-199.6c-24.5-15.8-50-29.8-76-42.4c-23.6-11.4-46.4-21.8-62-45.4c-9.2-13.9-16.5-29.4-16.1-46.8
			c0.3-12.7,3.8-25.2,8.1-37c11.6-32,29.1-61.5,44.3-91.6c19-37.7,36.3-76.6,47.6-117.9c13.2-48.4,17.8-99.2,12.5-149.4
			c-3.2-30.3-9.6-60.1-18.7-88.9c-3.7-11.7-7.6-23.4-13-34.4c-7.4-15-17.7-28.8-31.8-36.7c-16.7-9.4-36-9.6-54.2-6.3
			c-30.1,5.6-58.9,20.2-85.6,35.7c-45.7,26.5-88.6,58.8-130.1,92.2c-26.8,21.6-53.2,43.9-79.2,66.6c-3,2.6,1.2,7.2,4.2,4.6
			c49-42.8,99.2-84.5,152.1-121.6c33-23.1,67.4-45.4,104.4-60.3c34.8-14,78.6-22.9,105.2,12.4c15.3,20.3,22.6,48,29,72.5
			c13.8,52.8,18,108.4,10,162.7c-6.5,44.4-20.8,86.9-38.9,127.2c-15.2,33.7-33.3,65.7-49.3,98.9c-11.1,23.1-23.5,49.4-22.3,76.3
			c0.8,17.9,9.3,34.5,19.2,48.4c14.7,20.8,34.7,31.5,56.2,41.7c86.5,41.1,173.1,99.1,225.4,187c38.2,64.3,52.2,141,38.6,216.2
			c-13.8,76.9-52.4,146.5-100.6,203.8c-53.2,63.3-119.3,113.8-191.1,149c-36.6,17.9-75,31.8-114.3,41c-19.6,4.6-39.3,7.9-59.2,9.9
			c-23.1,2.4-46.3,1.4-69.4,3.8c-35.4,3.6-71,3.6-106.5,3.1C-1,5080.6-1,5087.1,2.9,5087.1L2.9,5087.1L2.9,5087.1z"/>
		<path class="st0" d="M9.6,5029.8c108.6-7.9,218-36.4,313.4-94.6c67.5-41.2,134.1-100.9,162.7-181.5c11.4-32.1,15.4-67.2,9.3-101.1
			c-5.8-32.4-21.4-59.5-47.4-77c-28-18.9-61.8-25.8-94-30.5c-37.6-5.5-75.6-7.5-113.4-11.8c-68.4-7.6-151.1-23-185.4-96.8
			c-26.8-57.7,21.4-113.4,53.8-154.2c25.1-31.7,50.6-63.1,73.1-97.1c26-39.1,47.8-81.5,63-126.9c10.7-32.1,16.8-65.3,23-98.7
			c6.4-34.4,11.3-69.3,13.4-104.3c1.2-19.5,1.5-39.2-0.3-58.7c-1.5-16.4-4.3-33.2-11.4-48c-5-10.6-13.7-21.6-24.8-24.7
			c-9.9-2.7-20.9,2.6-29.5,7.3c-14.8,8.1-28.1,19.1-40.8,30.5c-17.3,15.6-33.4,32.7-48.6,50.6c-34.1,40-64.5,84.3-88.7,132.2
			c-11.3,22.4-21.2,45.6-28.6,69.9c-1.2,4,4.5,5.7,5.7,1.7c15.8-51.2,42.1-98.4,71.7-141.5c27.6-40.1,58.9-78.3,94.7-110
			c12.4-11,25.7-21.7,40.4-29.1c8.5-4.3,18.4-8.2,27.2-2.8c11.1,6.7,17.3,19.7,21.1,32.4c5,17.1,6.5,35.2,6.9,53.1
			c1.3,62.6-10.1,125.9-23,186.7c-10.5,49.6-29.1,96.7-53.6,140c-21.1,37.2-46.2,71.3-72.4,104.4c-21.1,26.7-43.4,52.7-61.8,81.8
			c-13.6,21.5-25.6,46.6-24.4,73.5c1.3,31,19.9,59.8,41,79.4c25.9,24,58.7,36.9,91.5,44.8c72.4,17.4,148,11.7,220.1,30.6
			c28.7,7.5,58.3,20.3,77.1,46.4c18.7,26.1,23.7,62.3,21.1,94.4c-6.4,78.9-59.9,144.7-115.7,190.2c-80.9,66-180,103.6-279,121.9
			c-28.8,5.3-57.9,8.9-87,11C5.8,5023.6,5.8,5030,9.6,5029.8L9.6,5029.8L9.6,5029.8z"/>
		<path class="st0" d="M2.1,4810c14.2,4.7,28.7,8.2,43.2,11c18.1,3.5,36.5,5.8,54.9,7c19.9,1.3,39.9,1.2,59.8-0.7
			c20.2-1.9,40.4-5.6,59.8-12.1c18.8-6.2,37-15,53.1-27.2c8-6,15.5-12.9,22.3-20.5c3.4-3.8,6.5-7.8,9.5-11.9
			c3.7-5.1,6.9-10.3,8.8-16.5c3.9-12.7,2.2-27-3.3-38.8c-2.8-6.1-6.7-11.2-11.5-15.6c-4.9-4.4-10.3-8.2-16.1-11.3
			c-23-12.3-49.2-13.5-74.3-15.7c-7-0.6-14-1.2-21.1-1.3c-7.8-0.1-15.6,0.2-23.4,0.7c-15.9,1-32,2.4-47.7,5
			c-30.8,5.2-61.2,12.6-91,22.4c-7.2,2.4-14.5,4.9-21.6,7.6c-3.6,1.4-2.1,7.6,1.6,6.2c29-10.8,58.7-19.2,88.8-25.5
			c7.6-1.6,15.1-3,22.7-4.3c7.7-1.3,15.4-2.1,23.1-2.9c15.4-1.5,30.9-2.8,46.4-2.8c13.3,0.1,26.7,1.6,40,2.9
			c12.2,1.2,24.4,2.8,36.2,6.3c11.5,3.4,22.7,8.8,32,17.1c2.3,2.1,4.5,4.2,6.4,6.8c1.8,2.6,3.4,5.4,4.7,8.3
			c2.4,5.5,3.9,11.5,4.2,17.5c0.3,6.2-0.5,12.5-2.7,18.3c-2,5.1-5.2,9.5-8.4,13.8c-6,8-12.8,15.2-20.1,21.7
			c-14.5,12.8-31.7,22.6-49.3,29.5c-18.3,7.2-37.7,11.8-56.8,14.4c-19.7,2.6-39.6,3.4-59.4,2.7c-18.3-0.6-36.9-2.5-54.6-5.4
			c-15.3-2.5-30.6-5.8-45.6-10.2c-3-0.9-6-1.8-8.9-2.8C0,4802.5-1.6,4808.8,2.1,4810L2.1,4810L2.1,4810z"/>
		<path class="st0" d="M15,4083.7c10.4-23,22.8-44.8,35.2-66.4c3.2-5.7,6.5-11.3,9.7-17c3-5.4,5.8-10.9,9.8-15.4
			c0.9-1,1.9-1.9,2.6-3.1c0.7-1.4,1.3-2.8,2.1-4.2c1.4-2.7,2.9-5.4,4.6-7.9c3.1-4.9,6.5-9.7,9.9-14.3c6.9-9.5,13.8-18.9,20.6-28.5
			c6.6-9.2,13.3-18.4,20.5-27.2c7.3-8.9,15.1-17.4,23.6-24.9c7.7-6.9,16.9-12.3,27-13.4c9.3-1,19.2,1.9,24.6,10.7
			c4.9,8,5.6,18,5.5,27.3c-0.2,24-5.4,47.7-13.9,69.8c-2.2,5.6-4.6,11.2-7.2,16.6c-1.3,2.7-2.7,5.4-4.1,8.1
			c-0.7,1.3-1.4,2.6-2.1,3.9c-0.8,1.5-2,2.7-3.1,3.9c-2,2.2-3.2,5.2-4.7,7.8c-1.4,2.5-2.9,5-4.5,7.5c-3.2,5-6.6,9.8-10.2,14.4
			c-1.7,2.2-3.7,4.2-4.6,7c-0.3,0.9-0.5,1.6-1,2.3c-0.9,1.3-2,2.5-3,3.7c-3.9,4.8-7.9,9.6-11.9,14.4c-7.8,9.4-15.8,18.6-23.8,27.7
			c-15.7,18-31.7,35.9-47.1,54.2c-15.5,18.3-30.4,37-44.3,56.8c-3.4,4.8-6.7,9.8-10,14.7c-0.9,1.4-0.2,3.6,1.1,4.4
			c1.5,0.9,3.1,0.3,4.1-1.2c13.5-20.6,28.4-40.1,44-58.9c15.6-18.9,31.7-37.1,47.8-55.4c8.1-9.2,16.2-18.5,24.2-27.9
			c8.1-9.4,16.3-18.8,23.8-28.8c0.8-1.1,1.3-2.4,1.7-3.7c0.4-1.1,0.9-1.7,1.6-2.6c1.9-2.4,3.8-4.8,5.6-7.3c3.6-4.9,7-9.9,10.2-15.2
			c1.6-2.6,3-5.3,4.4-7.9c0.7-1.3,1.8-2.3,2.8-3.3c1.2-1.3,2-2.8,2.9-4.4c2.9-5.4,5.6-10.9,8.1-16.6c10-22.3,16.8-46.3,18.8-71.1
			c0.9-10.8,1.3-22.1-1.4-32.7c-1.3-5-3.4-9.6-6.3-13.7c-3.2-4.4-7.5-7.3-12.4-9.2c-9.8-3.7-20.7-2.1-30.1,2.2
			c-10.4,4.7-18.9,12.9-27,21.3c-16,16.6-29.1,35.9-42.8,54.7c-7.2,9.9-14.7,19.6-21.4,29.9c-1.6,2.6-3.2,5.1-4.7,7.8
			c-1.4,2.5-2.4,5.1-4.2,7.2c-4.3,4.8-7.3,10.3-10.5,16c-12.7,22.5-26,44.7-37.6,67.9c-2.8,5.5-5.4,11.1-8,16.8
			c-0.7,1.6-0.4,3.5,1.1,4.4C12.2,4085.8,14.2,4085.3,15,4083.7L15,4083.7L15,4083.7z"/>
	</g>
</g>
</svg>
