<?xml version="1.0" encoding="utf-8"?>
<!-- Generator: Adobe Adobe Illustrator 24.2.0, SVG Export Plug-In . SVG Version: 6.00 Build 0)  -->
<svg version="1.1" xmlns="http://www.w3.org/2000/svg" xmlns:xlink="http://www.w3.org/1999/xlink" x="0px" y="0px"
	 width="255.12px" height="255.12px" viewBox="0 0 255.12 255.12" style="enable-background:new 0 0 255.12 255.12;"
	 xml:space="preserve">
<style type="text/css">
	.st0{display:none;}
	.st1{display:inline;fill:#FFEAE1;}
	.st2{display:inline;fill:#FFFFFF;}
	.st3{enable-background:new    ;}
	.st4{fill:#EDA901;}
	.st5{fill:#FFECAC;}
	.st6{fill:#FFECAC;stroke:#FFECAC;stroke-miterlimit:10;}
	.st7{display:none;enable-background:new    ;}
	.st8{display:inline;}
	.st9{fill:#FFFFFF;}
	.st10{fill:#FFFFFF;stroke:#FFFFFF;stroke-miterlimit:10;}
</style>
<g id="Layer_3" class="st0">
	<rect x="14.17" y="16.86" class="st1" width="226.77" height="226.77"/>
</g>
<g id="Layer_4" class="st0">
	<circle class="st2" cx="127.56" cy="132.2" r="99.21"/>
</g>
<g id="Artboard_1_1_" class="st3">
	<g id="logo">
		<path id="_x34_" class="st4" d="M153.9,201.19c-3.2,0-6.51-0.33-9.89-1.1c-14.28-3.25-26.1-13.63-35.14-30.84
			c-8.22-16.25-17.49-24.85-27.57-25.61c-14.53-1.13-26.61,14.53-27.59,15.84c11.29,28.44,40.09,48.67,73.85,48.67
			c12.51,0,24.34-2.79,34.85-7.73C159.7,200.89,156.86,201.19,153.9,201.19z"/>
		<path id="_x33_" class="st4" d="M81.65,139.04c11.93,0.89,22.54,10.36,31.55,28.18c8.35,15.91,19.1,25.47,31.92,28.39
			c15.04,3.42,29.13-3.21,34.86-6.47c10.81-9.17,18.96-21.13,23.22-34.7c-6.31,3.94-17.01,9.21-29.2,9.21
			c-2.72,0-5.51-0.26-8.34-0.86c-14.32-3.02-26.44-13.79-36-32.01c-10-16.4-22.29-25.94-36.48-28.24
			c-19.77-3.19-37.71,8.71-42.24,12.02c-1.52,5.85-2.35,11.96-2.35,18.25c0,7.45,1.15,14.64,3.26,21.44
			C56.45,148.95,67.76,137.97,81.65,139.04z"/>
		<path id="_x32_" class="st5" d="M119.61,68.42c16.26,3.58,29.84,13.7,40.37,30.09c14.59,22.92,25.82,27.85,32.67,27.96
			c0.08,0,0.16,0,0.24,0c7.28,0,11.67-5.27,12.5-6.36c-6.32-35.58-38.75-62.68-77.83-62.68c-16.5,0-31.81,4.84-44.48,13.09
			C92.99,67.52,106.01,65.42,119.61,68.42z"/>
		<path id="_x31_" class="st6" d="M206.24,126.64c-2.88,2.37-7.36,4.93-13.34,4.93c-0.11,0-0.22,0-0.33,0
			c-11.92-0.19-24.42-10.42-37.15-30.4c-9.75-15.17-22.2-24.51-37.01-27.77c-21.93-4.82-42.89,5.07-48.76,8.19
			c-7.18,7.39-12.82,16.14-16.45,25.82c8.32-5.05,23.67-12.17,40.75-9.42c15.68,2.53,29.12,12.82,39.96,30.6
			c8.95,17.04,19.96,26.99,32.8,29.7c17.48,3.7,33.57-7.18,38.09-10.6l0.22-0.16c0.99-4.76,1.52-9.68,1.52-14.71
			C206.53,130.72,206.41,128.67,206.24,126.64z"/>
	</g>
</g>
<g id="Artboard_1_copy" class="st7">
	<g id="logo_copy" class="st8">
		<path id="_x34__1_" class="st9" d="M153.9,201.19c-3.2,0-6.51-0.33-9.89-1.1c-14.28-3.25-26.1-13.63-35.14-30.84
			c-8.22-16.25-17.49-24.85-27.57-25.61c-14.53-1.13-26.61,14.53-27.59,15.84c11.29,28.44,40.09,48.67,73.85,48.67
			c12.51,0,24.34-2.79,34.85-7.73C159.7,200.89,156.86,201.19,153.9,201.19z"/>
		<path id="_x33__1_" class="st9" d="M81.65,139.04c11.93,0.89,22.54,10.36,31.55,28.18c8.35,15.91,19.1,25.47,31.92,28.39
			c15.04,3.42,29.13-3.21,34.86-6.47c10.81-9.17,18.96-21.13,23.22-34.7c-6.31,3.94-17.01,9.21-29.2,9.21
			c-2.72,0-5.51-0.26-8.34-0.86c-14.32-3.02-26.44-13.79-36-32.01c-10-16.4-22.29-25.94-36.48-28.24
			c-19.77-3.19-37.71,8.71-42.24,12.02c-1.52,5.85-2.35,11.96-2.35,18.25c0,7.45,1.15,14.64,3.26,21.44
			C56.45,148.95,67.76,137.97,81.65,139.04z"/>
		<path id="_x32__1_" class="st9" d="M119.61,68.42c16.26,3.58,29.84,13.7,40.37,30.09c14.59,22.92,25.82,27.85,32.67,27.96
			c0.08,0,0.16,0,0.24,0c7.28,0,11.67-5.27,12.5-6.36c-6.32-35.58-38.75-62.68-77.83-62.68c-16.5,0-31.81,4.84-44.48,13.09
			C92.99,67.52,106.01,65.42,119.61,68.42z"/>
		<path id="_x31__1_" class="st10" d="M206.24,126.64c-2.88,2.37-7.36,4.93-13.34,4.93c-0.11,0-0.22,0-0.33,0
			c-11.92-0.19-24.42-10.42-37.15-30.4c-9.75-15.17-22.2-24.51-37.01-27.77c-21.93-4.82-42.89,5.07-48.76,8.19
			c-7.18,7.39-12.82,16.14-16.45,25.82c8.32-5.05,23.67-12.17,40.75-9.42c15.68,2.53,29.12,12.82,39.96,30.6
			c8.95,17.04,19.96,26.99,32.8,29.7c17.48,3.7,33.57-7.18,38.09-10.6l0.22-0.16c0.99-4.76,1.52-9.68,1.52-14.71
			C206.53,130.72,206.41,128.67,206.24,126.64z"/>
	</g>
</g>
</svg>
