<?xml version="1.0" encoding="UTF-8"?>
<svg id="Layer_2" data-name="Layer 2" xmlns="http://www.w3.org/2000/svg" viewBox="0 0 1920 565.84">
  <defs>
    <style>
      .cls-1 {
        fill: #42a5cc;
      }

      .cls-2 {
        fill: #58abd1;
      }
    </style>
  </defs>
  <path class="cls-1" d="m1920,7.03c-124.22-36.84-270.19,76.8-262.67,206.14-87.15-43.53-200.79-26.43-271.27,40.84-27.1-71.04-133.12-95.21-188.34-42.93-63.48-106.81-203.59-161.17-322.5-125.11-118.9,36.06-205.22,159.09-198.68,283.17-59.12-13.96-125.01,33.11-131,93.56-5.98,60.45-8.62,103.14,52.12,103.14h1322.32"/>
  <path class="cls-1" d="m601.79,565.84c-38.17-71.03-114.58-124.1-195.16-126.9s-161.24,39.89-204.25,108.1c-28.17-32.97-73.75-50.13-116.67-43.94-42.92,6.19-85.72,17.04-85.72,62.75"/>
  <path class="cls-2" d="m389.66,306.48c7.3,10.55-99.04,64.15-172.08,24.61-98.51-53.32-124.19,26.54-116.06,27.73,197.12,28.96,312.77,7.04,476.01-4.39,34.52-2.42,67.31-39.9,53.23-71.51-19.97-44.84-77.09-37.59-98.17-10.15-13.34-115.73-188.3-31.85-142.93,33.7Z"/>
</svg>