<?xml version="1.0" encoding="utf-8"?>
<!-- Generator: Adobe Illustrator 27.6.1, SVG Export Plug-In . SVG Version: 6.00 Build 0)  -->
<svg version="1.1" id="Layer_1" xmlns="http://www.w3.org/2000/svg" xmlns:xlink="http://www.w3.org/1999/xlink" x="0px" y="0px"
	 viewBox="0 0 4930 9272.6" style="enable-background:new 0 0 4930 9272.6;" xml:space="preserve">
<style type="text/css">
	.st0{fill:url(#SVGID_1_);}
	.st1{display:none;}
	.st2{display:inline;opacity:0.8588;fill:#F9EBAB;enable-background:new    ;}
	
		.st3{display:inline;opacity:0.8588;fill:url(#SVGID_00000127039724958633983930000002295743302770638739_);enable-background:new    ;}
	
		.st4{display:inline;opacity:0.349;fill:url(#SVGID_00000133515393393219533930000010975240580087289499_);enable-background:new    ;}
	
		.st5{display:inline;opacity:0.349;fill:url(#SVGID_00000127751352622333703920000011766648582238689700_);enable-background:new    ;}
	
		.st6{display:inline;opacity:0.349;fill:url(#SVGID_00000183957526171759550020000014833429755140976315_);enable-background:new    ;}
	
		.st7{display:inline;opacity:0.349;fill:url(#SVGID_00000178924174024829150600000003269016949355881095_);enable-background:new    ;}
	.st8{display:inline;}
	.st9{fill:url(#SVGID_00000139261017743116996960000003537147798677803156_);}
	.st10{fill:#C8E1E7;}
	
		.st11{display:inline;opacity:0.8784;fill:url(#SVGID_00000059288039555742769470000012026273540705988013_);enable-background:new    ;}
	
		.st12{display:inline;opacity:0.8784;fill:url(#SVGID_00000124863670555252776130000009281906711314150845_);enable-background:new    ;}
	
		.st13{display:inline;opacity:0.8784;fill:url(#SVGID_00000140701175651464710030000014369682468372239037_);enable-background:new    ;}
	
		.st14{display:inline;opacity:0.8784;fill:url(#SVGID_00000014601712868703387660000015261342187664912557_);enable-background:new    ;}
	
		.st15{display:inline;opacity:0.8784;fill:url(#SVGID_00000020362649254920178030000008820002272301969585_);enable-background:new    ;}
	
		.st16{display:inline;opacity:0.6706;fill:url(#SVGID_00000151518998776427349730000013114962583925409425_);enable-background:new    ;}
	.st17{display:inline;fill:#67AFD3;}
	.st18{display:inline;opacity:0.4196;fill:#C8E1E7;enable-background:new    ;}
	.st19{display:inline;opacity:0.4;fill:#C8E1E7;enable-background:new    ;}
	.st20{display:inline;opacity:0.4706;fill:#67AFD3;enable-background:new    ;}
	.st21{display:inline;opacity:0.349;fill:#72A336;enable-background:new    ;}
	.st22{display:inline;opacity:0.349;fill:#C8E1E7;enable-background:new    ;}
	.st23{fill:#F7EB9C;}
	.st24{display:inline;fill:#FFFFFF;stroke:#FFFFFF;stroke-miterlimit:10;}
	.st25{display:inline;fill:#C8E1E7;}
	
		.st26{display:inline;opacity:0.7294;fill:url(#SVGID_00000177447444200306897170000005876056557604853660_);enable-background:new    ;}
	.st27{display:inline;fill:url(#SVGID_00000042738172031498785560000016416447633203691702_);}
	.st28{display:inline;fill:url(#SVGID_00000165207621643786195670000013147154505178061698_);}
	
		.st29{display:inline;opacity:0.2118;fill:url(#SVGID_00000157991967627469931930000005037219195060977055_);enable-background:new    ;}
	.st30{fill:#FFFFFF;stroke:#67AFD3;stroke-miterlimit:10;}
</style>
<g id="BG">
	
		<linearGradient id="SVGID_1_" gradientUnits="userSpaceOnUse" x1="2465.0054" y1="-1187.9227" x2="2465.0054" y2="10429.002" gradientTransform="matrix(1 0 0 1 0 566)">
		<stop  offset="9.106862e-02" style="stop-color:#8ECCE2"/>
		<stop  offset="1" style="stop-color:#67AFD3"/>
	</linearGradient>
	<path class="st0" d="M4930,9272.6c0-3966.8,0-4736.6,0-9272.6C2979.8,0,1897.4,0,0,0c0,3959.2,0,9272.6,0,9272.6
		S3015.9,9272.6,4930,9272.6z"/>
</g>
<g id="Nubes_bg" class="st1">
	<path class="st2" d="M2940,7000.5c0-103.5-31.8-142.4-115.9-129.8c-84.1,12.6-150,98.6-140.4,183.1
		c-44.8-30.4-115.3,24.9-96.5,75.6c-70.6,32.6-124.7,99.1-142.2,175c-69.3-9.2-137.6,58.7-128.8,128
		c-91.1,127.8-179.9,326.4-212.9,479.8c746.7,0,836.7,0,836.7,0"/>
	<path class="st2" d="M2267.3,7543.4c-68.1-1.8-127.2-19.6-195.3-21.4c24.7-136.3-112-184.2-148.3-60.3
		c-44.3-44.3-99.2-41.1-135.5-30c0-203.5-183.3-183.3-229.3-80.8c-36.5-72.7-87.2-141.5-134.7-101.6
		c29.4-116.6-63.1-189.1-137.1-186.6c-71.5,2.4-195.5,86.3-144.8,209.3c-23.1-43.8-69-52.2-98.7-17.2c-29.7,35-32.9,106.2-6.8,146.5
		c-54.5-33.2-125.1,2.5-152.5,77.3c21.1,27.4,42.2,54.8,63.4,82.2c-50.2-15.9-106.1,14.3-136.1,73.6c-30,59.2-32.4,144.1-5.9,206.6
		c468.7,61,939.8,82.9,1410.3,65.5"/>
	
		<linearGradient id="SVGID_00000081642248685518590560000014346113742676305340_" gradientUnits="userSpaceOnUse" x1="390.6108" y1="6718.1675" x2="87.9001" y2="7051.1489" gradientTransform="matrix(1 0 0 1 0 566)">
		<stop  offset="0" style="stop-color:#F9EBAB"/>
		<stop  offset="1" style="stop-color:#F9ECAC"/>
	</linearGradient>
	
		<path style="display:inline;opacity:0.8588;fill:url(#SVGID_00000081642248685518590560000014346113742676305340_);enable-background:new    ;" d="
		M371.5,7259.3c9.4-37.5-4.8-79.9-34.9-104.3s-74.5-29.3-109.3-12.3c-5.6-40.5-68.4-57.1-93.3-24.6c-4.8-4.8-9.6-9.5-14.4-14.3
		c-2.9-18.5-23.2-32.2-41.4-28c-18.2,4.2-30.5,25.5-25,43.3c-23.1-12.7-30.1-13.5-53.2-26.2c0,328.2,0,482.7,0,819.3
		c126.2,0,228.1,0,384.2,0"/>
</g>
<g id="Nubes_bg_highlights" class="st1">
	
		<linearGradient id="SVGID_00000099635543552755843540000014254738574976649142_" gradientUnits="userSpaceOnUse" x1="22.8763" y1="6618.6084" x2="386.4594" y2="6618.6084" gradientTransform="matrix(1 0 0 1 0 566)">
		<stop  offset="0" style="stop-color:#FFFFFF"/>
		<stop  offset="1" style="stop-color:#FFFFFF"/>
	</linearGradient>
	
		<path style="display:inline;opacity:0.349;fill:url(#SVGID_00000099635543552755843540000014254738574976649142_);enable-background:new    ;" d="
		M372.3,7280.1c53.6-131.9-55.9-179.1-145.9-142.5c-7.4-53.1-85.5-39.3-94.8-22c-20.6-57.9-56.9-44.4-72.9-26.2
		c23.4-7.7,53.5,15,38.7,38.7c-14.9-11.6-37.1-12.7-53.1-2.6s-24.5,30.6-20.4,49.1c75.7-34.4,139.9-32.7,228.8,93.5
		c13-19.2,38.7-28.8,61-22.8c22.4,6,39.8,27.1,41.5,50.2C362,7287.8,376.2,7289.2,372.3,7280.1z"/>
	
		<linearGradient id="SVGID_00000057117151625667842560000000876859555564954813_" gradientUnits="userSpaceOnUse" x1="1130.9836" y1="6789.0024" x2="2155.4998" y2="6789.0024" gradientTransform="matrix(1 0 0 1 0 566)">
		<stop  offset="0" style="stop-color:#FFFFFF"/>
		<stop  offset="1" style="stop-color:#FFFFFF"/>
	</linearGradient>
	
		<path style="display:inline;opacity:0.349;fill:url(#SVGID_00000057117151625667842560000000876859555564954813_);enable-background:new    ;" d="
		M1426.1,7241.2c10.3-87.2-9.9-163-135.5-178.5c-87.2-10.8-166.8,83.8-159.1,171.3c37.3-28.6,139.6-9.8,158.3,93.7
		c34.4-26.4,88.3-22.4,118.5,8.7c68.8-40.9,170.9-4.3,198,71.1c64.1-14.8,135,37.9,139.4,103.5c46.5,17.4,93,34.8,139.6,52.2
		c19.8-42.8,95.7-37.3,109.2,7.9c55.1-11,115.8,22.3,135.9,74.8c-36.5,12.5-78.7-28.5-67.3-65.3c11.4-36.8,69.3-46.8,92.4-15.9
		c-44.3-12.4-78.1-55.6-79.3-101.6c-1.1-38.9-37-73.5-75.9-73.2c-38.9,0.3-74.2,35.6-74.6,74.6c-26.9-39.7-91.3-49.7-136.2-32.9
		c5.3-51.8-14.4-118.7-64.7-143.5c-50.3-24.8-142.7-8.2-167.6,59.3C1561.1,7299.5,1473.1,7217.5,1426.1,7241.2z"/>
	
		<linearGradient id="SVGID_00000119075226729836031870000017651512113649833615_" gradientUnits="userSpaceOnUse" x1="2699.7542" y1="6249.3203" x2="3043.8652" y2="6635.938" gradientTransform="matrix(1 0 0 1 0 566)">
		<stop  offset="0" style="stop-color:#FFFFFF"/>
		<stop  offset="0.2568" style="stop-color:#FFFEFC"/>
		<stop  offset="0.4528" style="stop-color:#FEFCF4"/>
		<stop  offset="0.6287" style="stop-color:#FDF9E5"/>
		<stop  offset="0.7928" style="stop-color:#FBF4D1"/>
		<stop  offset="0.9473" style="stop-color:#FAEEB7"/>
		<stop  offset="1" style="stop-color:#F9ECAC"/>
	</linearGradient>
	
		<path style="display:inline;opacity:0.349;fill:url(#SVGID_00000119075226729836031870000017651512113649833615_);enable-background:new    ;" d="
		M2940,6929.6c-25.8-86.2-190.9-88.3-244.9,46.8c46.4-107,227.8-55.8,244.9,120.6C2940.1,7095.8,2940.2,6930.4,2940,6929.6z"/>
	
		<linearGradient id="SVGID_00000074425789884549230520000006170766141692367506_" gradientUnits="userSpaceOnUse" x1="2628.8765" y1="6463.3262" x2="2855.332" y2="6712.73" gradientTransform="matrix(1 0 0 1 0 566)">
		<stop  offset="0" style="stop-color:#FFFFFF"/>
		<stop  offset="0.2695" style="stop-color:#FFFEFC"/>
		<stop  offset="0.4636" style="stop-color:#FEFCF4"/>
		<stop  offset="0.6341" style="stop-color:#FDF9E6"/>
		<stop  offset="0.7909" style="stop-color:#FCF5D3"/>
		<stop  offset="0.9371" style="stop-color:#FAEFB9"/>
		<stop  offset="1" style="stop-color:#F9ECAC"/>
	</linearGradient>
	
		<path style="display:inline;opacity:0.349;fill:url(#SVGID_00000074425789884549230520000006170766141692367506_);enable-background:new    ;" d="
		M2682.9,7053.2c-18.3-13.5-48.7-8.6-67,4.8c-5.9,4.3-27.7,22.6-27.7,40.8c26.3-12.3,76.1,27.4,97.1,47.5s35.6,46.1,56.5,66.3
		c54.1,1.8,108.1,3.6,162.2,5.5c-37.7-12-75.8-24.1-110.2-43.6s-65.5-47.2-82.1-83.1C2692.3,7090.7,2674.1,7067.8,2682.9,7053.2z"/>
</g>
<g id="Nubes_medio" class="st1">
	<g class="st8">
		<g>
			
				<linearGradient id="SVGID_00000090294881186522489930000009864744949236846250_" gradientUnits="userSpaceOnUse" x1="700.0365" y1="7424.041" x2="9.4699" y2="8406.4941" gradientTransform="matrix(1 0 0 1 0 566)">
				<stop  offset="0" style="stop-color:#C9E2E8"/>
				<stop  offset="1" style="stop-color:#F9ECAC"/>
			</linearGradient>
			<path style="fill:url(#SVGID_00000090294881186522489930000009864744949236846250_);" d="M1765.9,7704.6c-29.5-2-59-4-88.5-6
				c-15.1-61.1-79.5-98.3-130.5-75.5c32.3-73.1,5.2-173.7-57.1-212.4c-62.3-38.7-149.2-8.8-183.3,63.2
				c-78.9-129.2-218.6-225.6-356.4-239.4c-19.5-40.8-40.7-80.8-69.5-113c-35-39.2-83.7-65.9-131.6-57.1c-48,8.7-90.7,61-84.9,117.1
				c-14.9-49.9-64.3-82.2-108.6-70.9c-44.3,11.3-77.8,64.5-73.4,117c-68.8-9-140.2,25.6-185,86.6c-7.7-19.9-24.9-35.2-43.9-35.5
				c-22.5-0.4-43.1,20.3-48.5,45.2C201.9,7221,0,7222.9,0,7364.3c0,339.5-3.3,413.3,0,547.9c120.4,0,189.3-2.9,343.2-14.3
				c13.3-1,25.6-6.7,36.9-16c2.3,0.2,4.7,0.3,7,0.5c35.4-6,71.2-3.5,106.8-0.4c31.5,2.3,63,4.7,94.5,7.7
				c20.6-0.3,37.9,0.6,50.5,16.4c121.8-13.9,247.4-15.8,368.8-1.2c68.1,8.2,248.6,7.7,252.6,7.3c138.3-12.2,465.9-3.2,537.9-0.6
				c30.7,1.1,61.4-4,92.1-4.1c11.3-0.1,22.6,0.3,33.9,1c2.8-3.3,4.5-6.8,4.9-10.6C1943.8,7778.1,1867.8,7728.6,1765.9,7704.6z"/>
		</g>
	</g>
	<g class="st8">
		<g>
			<path class="st10" d="M2746.3,7524.6c30.6-14.7,64.2-32.5,74.8-64.8c10.6-32.3-24.1-75.1-53.3-57.7c17.6-20.2,18.1-53.3,0.9-73.9
				c-17.2-20.6-49.7-26.3-72.8-12.7c-1.3-6.3-3.2-12.5-5.5-18.5c-0.1-41.6-22.9-84-61.1-101.3c-7-3.2-14.3-5.4-21.7-6.8
				c-80.1-367.3-485.5-71.1-345.9,57.3c-78-7.1-156.3,52.5-170.3,129.5c-0.9,5.2-1.6,10.5-1.9,15.8c-47.4,4.8-92.4,29.9-113.8,72.1
				c-31.5,62.3,8.4,152.8,77.8,160.5c0,0-197.3,23.3-250.3,67.6c-78.1,27.2-151.8,68.2-217.4,124.6c-137.3,118.1-241.1-4.4-391.9,96
				c580.4,0,991.4,0,1613.4,0c16.9,0.8,132.8,0,132.8,0c0-126.7,0-279.8,0-295.2C2892.4,7556.8,2823.3,7522.5,2746.3,7524.6z"/>
		</g>
	</g>
</g>
<g id="Nubes_Medio_Highlights" class="st1">
	
		<linearGradient id="SVGID_00000059284791313878517930000011410662857897439914_" gradientUnits="userSpaceOnUse" x1="1184.1602" y1="6352.3135" x2="406.5796" y2="6964.1802" gradientTransform="matrix(1 0 0 1 0 566)">
		<stop  offset="0" style="stop-color:#F9EBAB"/>
		<stop  offset="0.1351" style="stop-color:#F3E9B0"/>
		<stop  offset="0.3486" style="stop-color:#E2E4BB"/>
		<stop  offset="0.6139" style="stop-color:#C4DBCB"/>
		<stop  offset="0.918" style="stop-color:#9BCFDD"/>
		<stop  offset="1" style="stop-color:#8ECCE2"/>
	</linearGradient>
	
		<path style="display:inline;opacity:0.8784;fill:url(#SVGID_00000059284791313878517930000011410662857897439914_);enable-background:new    ;" d="
		M568.9,7422.9c-14.8-2.9-29.8-4.8-44.8-5.6C538.9,7419.5,553.9,7421.8,568.9,7422.9z"/>
	
		<linearGradient id="SVGID_00000036934363734211892450000008357459095851691158_" gradientUnits="userSpaceOnUse" x1="1550.6926" y1="6572.6694" x2="706.569" y2="7562.335" gradientTransform="matrix(1 0 0 1 0 566)">
		<stop  offset="0" style="stop-color:#FFFFFF"/>
		<stop  offset="0.1752" style="stop-color:#FEFDF8"/>
		<stop  offset="0.4512" style="stop-color:#FDF9E4"/>
		<stop  offset="0.7917" style="stop-color:#FBF1C3"/>
		<stop  offset="1" style="stop-color:#F9ECAC"/>
	</linearGradient>
	
		<path style="display:inline;opacity:0.8784;fill:url(#SVGID_00000036934363734211892450000008357459095851691158_);enable-background:new    ;" d="
		M1550,7615.5c31-66.9-3.6-167.7-65.4-207.8s-135.8,0.8-184.2,56.4c-57.8-144.2-235.6-240.9-355-230.1
		c-4.2-91.2-100.3-185.7-190.5-171.4c-24.4,3.9-43.8,15.1-59.3,31.4c0.9,1,1.7,2.1,2.5,3.2c42.6,65.6-64,180.9-65.6,196.2
		c32.2-8.2,63.4,27.9,58.5,60.8c-4.9,32.9-35.5,57.2-67.8,65.1c-17.7,4.4-36,4.8-54.2,3.5c38.9,7.8,76.3,22.8,110.1,43.6
		c102.3-40.6,165.1,31.4,98,91.1c11.3,15.8,21.2,32.7,29.4,50.4c5.5-5.8,11.5-10.9,18-15.4c0.1-0.3,0.2-0.5,0.3-0.8
		c1.9-4.7,3.5-10,6.1-14.4c4.4-7.6,11-14.1,18-19.4c14.2-10.8,31.8-14,49-9.5c14,3.6,27.4,11.9,37.7,22.4
		c34.1,6.5,65.8,24.3,86,52.7c9.5-34.3,45.9-59,81.3-55.1s65.6,35.7,67.6,71.3c38.1-37.4,96.7,23.8,143.8,2.9
		c61-27,53.2,28.1,51.9,32c41.5-18.3,39.9-4.7,63.4,38.9c11.2,8,20.9,18.1,28.8,30.1c11.6,17.7,18.6,38.9,21.9,59.8
		c1.6,10.2,2.5,20.4,2.9,30.6c81.4-7.9,224.6,69.1,313.4,63.6C1809.9,7784.3,1655.2,7591.8,1550,7615.5z"/>
	
		<linearGradient id="SVGID_00000036937441710944998140000000080198924488922256_" gradientUnits="userSpaceOnUse" x1="700.1407" y1="6928.7676" x2="411.6158" y2="7050.2441" gradientTransform="matrix(1 0 0 1 0 566)">
		<stop  offset="0" style="stop-color:#F9EBAB"/>
		<stop  offset="0.1092" style="stop-color:#E5E5B9"/>
		<stop  offset="0.2967" style="stop-color:#C7DCCA"/>
		<stop  offset="0.4826" style="stop-color:#AFD5D5"/>
		<stop  offset="0.664" style="stop-color:#9DD0DD"/>
		<stop  offset="0.8389" style="stop-color:#92CDE1"/>
		<stop  offset="1" style="stop-color:#8ECCE2"/>
	</linearGradient>
	
		<path style="display:inline;opacity:0.8784;fill:url(#SVGID_00000036937441710944998140000000080198924488922256_);enable-background:new    ;" d="
		M657.7,7583.9c-26.3-72.6-109-119.8-185-105.6c5.6,11.8,11.2,23.6,16.8,35.4c-29-23.5-36,2.2-72.4,10.4
		c86.8,32.4,135.4,43.6,207.9,101.3c10.7,8.5,28.7,5.4,35.8-6.3C668,7607.4,660.4,7591.3,657.7,7583.9z"/>
	
		<linearGradient id="SVGID_00000094594796088899910450000002852278619894062491_" gradientUnits="userSpaceOnUse" x1="684.9113" y1="6487.0791" x2="443.5837" y2="6728.4067" gradientTransform="matrix(1 0 0 1 0 566)">
		<stop  offset="0" style="stop-color:#FFFFFF"/>
		<stop  offset="0.2455" style="stop-color:#FDFAE8"/>
		<stop  offset="0.7497" style="stop-color:#FAF0BD"/>
		<stop  offset="1" style="stop-color:#F9ECAC"/>
	</linearGradient>
	
		<path style="display:inline;opacity:0.8784;fill:url(#SVGID_00000094594796088899910450000002852278619894062491_);enable-background:new    ;" d="
		M644.6,7150.3c-17.8,24.8-27,48.6-44.8,73.5c4.7-46.5-59.2-84.6-102-65.8C552.1,7081.9,615.6,7106.5,644.6,7150.3z"/>
	
		<linearGradient id="SVGID_00000169540890912445099740000007567196320577096892_" gradientUnits="userSpaceOnUse" x1="2174.2095" y1="6746.7329" x2="1927.5137" y2="7211.5273" gradientTransform="matrix(1 0 0 1 0 566)">
		<stop  offset="0" style="stop-color:#FFFFFF"/>
		<stop  offset="0.1761" style="stop-color:#FFFEFA"/>
		<stop  offset="0.4112" style="stop-color:#FDFAEB"/>
		<stop  offset="0.6798" style="stop-color:#FBF4D2"/>
		<stop  offset="0.9713" style="stop-color:#FAECB0"/>
		<stop  offset="1" style="stop-color:#F9ECAC"/>
	</linearGradient>
	
		<path style="display:inline;opacity:0.8784;fill:url(#SVGID_00000169540890912445099740000007567196320577096892_);enable-background:new    ;" d="
		M2090.9,7390.8c-34.9,2.2-76.3,25.1-100.4,50.3c-24.1,25.2-35.5,59.7-21.9,100.1c2.9,8.7-11.9-17,213.6-17
		c-31.5-1.1-63-17.6-81.1-43.4C2082.9,7455.1,2077.6,7420.8,2090.9,7390.8z"/>
	
		<linearGradient id="SVGID_00000162331539626677424720000000365589703216016262_" gradientUnits="userSpaceOnUse" x1="2800.5708" y1="6329.9268" x2="2322.2991" y2="7358.374" gradientTransform="matrix(1 0 0 1 0 566)">
		<stop  offset="0" style="stop-color:#FFFFFF"/>
		<stop  offset="0.1773" style="stop-color:#FFFEFA"/>
		<stop  offset="0.4092" style="stop-color:#FDFAEB"/>
		<stop  offset="0.6714" style="stop-color:#FCF5D3"/>
		<stop  offset="0.9541" style="stop-color:#FAEDB2"/>
		<stop  offset="1" style="stop-color:#F9ECAC"/>
	</linearGradient>
	
		<path style="display:inline;opacity:0.6706;fill:url(#SVGID_00000162331539626677424720000000365589703216016262_);enable-background:new    ;" d="
		M2249.9,7255.1c-25-11-56.1-6.6-77.1,10.9s-30.9,47.3-24.6,73.9c23.9-4,47.7-8,71.6-12c-15.9,24.9-16.7,58.8-1.8,84.4
		c14.9,25.6,44.7,41.8,74.2,40.2c-9.9-37.5,19.2-80.3,57.7-84.9c38.5-4.6,76.9,30,76.2,68.8c0.8-11.1,11.1-20.6,22.2-20.4
		c11.1,0.2,21.2,9.9,21.7,20.9c52.2-4.9,106.1,20.1,136.1,63.1c-3.2-16.4,5-34.4,19.5-42.7c14.5-8.3,34.2-6.2,46.7,4.9
		c62.3,55.4,67.7,163,11.4,224.5c52.2-34.2,126.6-29.7,174.4,10.3c4.3-10.7,24.6-5.2,22.8,6.2c39.5-31.8,30.3-98.9-5.9-134.4
		c-36.2-35.4-89.2-46.8-139.4-53.7c35.7,12.9,80-10.6,89.3-47.4c9.2-36.8-14.8-66.2-52.4-71.7c40-75.1-49.5-107.7-83.5-86.3
		c17.6-60.6-41-109.9-81.2-120.9c-6.8-210.7-320.5-236.8-340.2-54c-5.4,49.7,21.2,102,70.6,95.1
		C2310.6,7239.8,2283.3,7249.6,2249.9,7255.1z"/>
</g>
<g id="Nubes_frente" class="st1">
	<path class="st17" d="M919.5,7707.5C902.8,7579.2,714.3,7366,503,7450.7c-113.5,45.5-187.8,186-167.1,316.1
		c-13.4-38.4-49.6-65.9-87.3-66.2c-37.7-0.3-74.2,26.7-88.1,65c-32.6-36.9-87.4-47.9-129.8-25.9c-6.7,3.5-8,4.7-13.9,9.6
		c0,15.2-0.7,69.2,0,72.1c19.6-1.1,1132.1,76.4,1263.7,76.4C1260.8,7692.8,956.7,7588,919.5,7707.5z"/>
	<path class="st17" d="M2700.7,7823.5c-42.4-137.4-161-246.4-293.8-262.1c-149.6-17.7-304.5,83.7-360.6,236.1
		c-23.2-56.6-90-86.5-142.9-63.9c-40.4,17.2-66.7,42.7-69.4,89.5C1847.3,7823,2693.4,7823.5,2700.7,7823.5z"/>
	<path class="st17" d="M2940,7862.1c-10.4-21-36.1-19.2-46.2,0.5c-35.6-175.4-233.8-126.6-254.9-39.1
		c-164-86.2-402.3-78.7-633.4-10.1c-38.6-34.1-130.7-36.8-170.1-3.5c-37.6-42.5-72.2-54.4-128.5-62.1
		c-56.3-7.7-119.5,19.9-140.2,72.8s-19.2,92.2,37.5,91.6c0,0,873.8,0,1335.7,0c0.2-0.8-0.2-2.1,0-2.8
		C2939.5,7907.7,2940,7862.1,2940,7862.1z"/>
	<path class="st17" d="M1634.5,7912.5c-118.2-104.6-204.7-107.8-356.9-23.5c-137.5-233-399.8-96.1-665.7-96.1
		c-51.9-88-187.3-48.9-283.7-15.2c-96.4,33.7-171.9,33.2-157.8,134.4C170.4,7912.2,1348.7,7912.5,1634.5,7912.5z"/>
	<path class="st17" d="M216.9,7801.9c29.8-14.3,119.7,110.4,86.6,110.4C26.2,7912.4,0,7912.2,0,7912.2c0-45.9,0-170.2,0-293.2
		c0-29.6,112.7-66.1,157.9,143.8"/>
</g>
<g id="Nubes_frente_highlights" class="st1">
	<path class="st18" d="M914.2,7681.9c-39.4,17.8-88.9,32-128.3,49.8c-59.8-138.8-206.3-235.6-357.5-236.2
		c63.8-74.7,185.7-76.4,278.1-44.6C798.9,7482.7,883.3,7566.4,914.2,7681.9z"/>
	<path class="st18" d="M1208.8,7868.1c24.3,0,65,7.4,68.3,7.4c0-59.7-70.7-129.7-103.2-154.7c-75.3-57.9-207.9-90.3-250.3-23.6
		C1037.6,7650.4,1182.6,7752.1,1208.8,7868.1z"/>
	<path class="st18" d="M2681.4,7773.5c-37.2-67.4-61.2-112.8-124.1-157.2c-62.9-44.4-127.2-63.8-203.7-54.6
		c-76.5,9.2-183.5,39.5-216,109.4c219.5-37.7,392.1,45.2,468.7,121.9C2641.6,7766.6,2682.7,7763.6,2681.4,7773.5z"/>
	<path class="st19" d="M160.4,7765.6c-3-77.4-100.7-242.1-160.4-143.6c58.4,8.6,115.2,82.2,68.5,132.2
		c55.3,7.7,85.6,25.6,107.4,76.9c50.6-54.3,124.3-59.4,152.3-16.2C320.9,7631,160.4,7716.1,160.4,7765.6z"/>
	<path class="st20" d="M1548.9,7852.3c-81.9-45.3-198.1-22.5-261.6,46.2c102.8-46.8,191.4-29.1,303.3-1.8
		C1590.6,7896.7,1561.4,7859.1,1548.9,7852.3z"/>
	<path class="st21" d="M1586.6,7791.4c-3.2,3.7-6.3,7.4-9.1,11.3c2.5-1.3,5.2-2.5,8-3.2c0.7-0.3,1.4-0.6,2.1-0.8
		C1587,7796.2,1586.6,7793.8,1586.6,7791.4z"/>
	<path class="st22" d="M2043.1,7790.2c-19.6-51.7-74.6-64.2-122.1-59.2s-75.2,32.3-85.5,78.9c-80.8-80.8-163.8-78.5-218.1-44.5
		c13.7-2.2,27.8-1.3,41.5,0.9c15.5,2.4,30.1,7.7,44.5,13.8c3.7,1.6,7.2,3.3,10.6,5.2c4.9,1.3,9.7,2.9,14.4,4.8
		c18.4,7.7,34.7,18.9,48.2,33.6c8.4,9.2,14.8,20,20.1,31.2c1.5,3.2,3.1,6.6,4.4,10.2c10.5-1.8,22.5-2.2,37.4,0.2
		c1.2-7,3.6-13.8,6.5-20.5c0.7-1.6,1.4-3.3,2.2-4.9c0.1-0.1,0.1-0.2,0.1-0.3c0.9-2.9,0.6-1.3,0,0c-0.1,0.4-0.3,0.9-0.4,1.5
		c1-3.3,2.6-6.5,4.1-9.6c1.8-3.7,4-7.1,6.5-10.4c12.8-16.9,29.8-27,51.1-29.2c17.3-1.8,36.7,3.8,50.7,14
		c8.9,6.6,16.4,14.5,22.8,23.3c7.9,8.7,14.8,18.6,20.2,28.8c1.6,2.9,3,5.9,4.3,8.9c1,2.4,2,4.8,3,7.2l0,0c0-0.2,0.1,0,0.5,0.7
		c0.4,0.6,0.7,1.3,1.1,2c0.3,0.6,0.6,1.1,0.8,1.7c7.8-4.4,13.4-9,15.2-13.2C2034.9,7848.1,2048.6,7804.8,2043.1,7790.2z"/>
</g>
<g id="Sol">
	<ellipse class="st23" cx="4248.6" cy="536.8" rx="145.6" ry="144.3"/>
</g>
<g id="Estrellas" class="st1">
	<circle class="st24" cx="539.6" cy="6805.1" r="6.8"/>
	<circle class="st24" cx="170.4" cy="6984.2" r="5.5"/>
	<circle class="st24" cx="1358" cy="6523.8" r="13.5"/>
	<circle class="st24" cx="1609.3" cy="7205.7" r="5"/>
	<circle class="st24" cx="2213.7" cy="6794.1" r="8.5"/>
	<circle class="st24" cx="2785.2" cy="6746" r="13.5"/>
	<circle class="st24" cx="942.2" cy="6932.4" r="14"/>
	<circle class="st24" cx="1527.3" cy="6715.4" r="2.5"/>
	<circle class="st24" cx="121.9" cy="6595.8" r="5.5"/>
	<ellipse class="st24" cx="372.8" cy="6877" rx="1.3" ry="1.2"/>
	<circle class="st24" cx="2040.8" cy="7109" r="10"/>
	<ellipse class="st24" cx="2361.6" cy="6994.1" rx="4.9" ry="8.7"/>
	<circle class="st24" cx="2627.3" cy="6888.8" r="1.5"/>
	<circle class="st24" cx="32.5" cy="6642.5" r="2.8"/>
	<ellipse class="st24" cx="1108" cy="6692.2" rx="7" ry="6"/>
	<circle class="st24" cx="1437.1" cy="7007.8" r="5"/>
	<circle class="st24" cx="2364.1" cy="6423.6" r="2.4"/>
</g>
<g id="Nubes_top" class="st1">
	<path class="st25" d="M201,6322.2c60.2,12.2-188.9-27.8-7.2,58.1c93.7,44.2-79.5,98.5-193.9,163.8c0.2,4.2,0.1,75,0,82.3
		c183.6-57,348.3-115.2,355.7-80.2c5.8,27.5-168.1,116-236.9,184.8c130.1-4.1,229.5-119.8,341.5-172.2c68.7-32.1,136-23,215.2-36.6
		c79.2-13.6,139.4-54.7,123.3-113.5c82.3,9.9,170-31.9,191.3-91.2L201,6322.2z"/>
	
		<linearGradient id="SVGID_00000107551416798169656140000002594356216738137011_" gradientUnits="userSpaceOnUse" x1="519.9634" y1="5980.0239" x2="-8.7368" y2="6847.9883" gradientTransform="matrix(1 0 0 1 0 566)">
		<stop  offset="0" style="stop-color:#C8E1E7"/>
		<stop  offset="0.219" style="stop-color:#C4DFE7"/>
		<stop  offset="0.494" style="stop-color:#B7DAE6"/>
		<stop  offset="0.7976" style="stop-color:#A1D2E4"/>
		<stop  offset="1" style="stop-color:#8ECCE2"/>
	</linearGradient>
	
		<path style="display:inline;opacity:0.7294;fill:url(#SVGID_00000107551416798169656140000002594356216738137011_);enable-background:new    ;" d="
		M629.8,6504.2c-66.2,18.1-341.2,205.5-396.9,237.7c46.5-3.6,131.5-25.4,106.2,15.2c-91.4,147.1-361.7,184.6-339.4,240.6
		c31,78,757.4-343.2,703.4-343.2C395,6682.4,661.8,6495.5,629.8,6504.2z"/>
	
		<linearGradient id="SVGID_00000090261298605686208960000000829246339272317589_" gradientUnits="userSpaceOnUse" x1="365.7259" y1="6135.5405" x2="98.3458" y2="6574.4976" gradientTransform="matrix(1 0 0 1 0 566)">
		<stop  offset="0" style="stop-color:#C8E1E7"/>
		<stop  offset="0.2491" style="stop-color:#CBE2E8"/>
		<stop  offset="0.4913" style="stop-color:#D5E8EC"/>
		<stop  offset="0.7308" style="stop-color:#E5F0F3"/>
		<stop  offset="0.9672" style="stop-color:#FBFDFD"/>
		<stop  offset="1" style="stop-color:#FFFFFF"/>
	</linearGradient>
	<path style="display:inline;fill:url(#SVGID_00000090261298605686208960000000829246339272317589_);" d="M241,6923.4
		c21.1-39.1,42.3-78.1,63.4-117.2c-56.4,48.4-112.8,96.8-169.2,145.1c46.1-2.4,87.6-29.5,119.7-62.6c32.1-33.1,56.8-72.6,85.6-108.5
		c28.9-36,63.6-69.5,107.2-84.5c-24.5-14.1-56.9-2.3-76.5,18c-19.6,20.3-30.1,47.4-43.4,72.4s-31.5,49.7-58.3,58.4"/>
	
		<linearGradient id="SVGID_00000147189159503141331780000001737188102979015042_" gradientUnits="userSpaceOnUse" x1="369.0894" y1="6063.1426" x2="259.1133" y2="6243.6899" gradientTransform="matrix(1 0 0 1 0 566)">
		<stop  offset="0" style="stop-color:#C8E1E7"/>
		<stop  offset="0.2206" style="stop-color:#CDE3E9"/>
		<stop  offset="0.4975" style="stop-color:#DAEAEE"/>
		<stop  offset="0.8033" style="stop-color:#EFF6F7"/>
		<stop  offset="1" style="stop-color:#FFFFFF"/>
	</linearGradient>
	<path style="display:inline;fill:url(#SVGID_00000147189159503141331780000001737188102979015042_);" d="M354.2,6711.5
		c-29.3,5.2-58.6,10.4-87.9,15.5c48.2-31.8,96.4-63.6,144.5-95.4C389.5,6660,368.2,6688.3,354.2,6711.5z"/>
	
		<linearGradient id="SVGID_00000181057187997653291130000003540209099344949693_" gradientUnits="userSpaceOnUse" x1="326.5749" y1="5826.585" x2="16.8634" y2="6335.0366" gradientTransform="matrix(1 0 0 1 0 566)">
		<stop  offset="0" style="stop-color:#FFFFFF"/>
		<stop  offset="0.1449" style="stop-color:#FBFDFE"/>
		<stop  offset="0.3269" style="stop-color:#EEF7FA"/>
		<stop  offset="0.5287" style="stop-color:#DAEDF5"/>
		<stop  offset="0.7449" style="stop-color:#BCE0ED"/>
		<stop  offset="0.9703" style="stop-color:#94CFE3"/>
		<stop  offset="1" style="stop-color:#8ECCE2"/>
	</linearGradient>
	
		<path style="display:inline;opacity:0.2118;fill:url(#SVGID_00000181057187997653291130000003540209099344949693_);enable-background:new    ;" d="
		M0,6626.3c119.6-57.9,237.3-87.7,370.1-94.1c-81.5,63.3-162.9,126.6-244.4,189.9c138.4-58.2,266.9-140.2,378-241.2
		c19.8-18,0.4-58.3-26-54.1c-95.4,15.1-190.9,30.2-286.3,45.3c33.5,7.6,70.1-16,79.5-49.1c9.4-33-7.3-70.8-36.7-88.6
		s-68.6-16-98,1.8c31.4,4.9,79.9,35.8,83.8,67.3s-37.3,60.9-66.6,73.3c-61.4,26-91.9,44.9-153.3,70.8"/>
</g>
<g id="Pajaritos">
	<path class="st30" d="M3676.1,687.2c-18.8-3.3-39.2-1.6-55.9,9.1c-6.1,3.9-11.7,8.8-17.1,13.9c-2.6-2.6-5.2-5-8-7.5
		c-9.8-8.3-20.7-15-31.7-21.1c-9.3-5.3-18.9-9.5-28.7-13.2c-6.7-1.8-13.5-2.6-20.1-3.7c-2.4-0.3-4.8-0.7-7.2-0.8
		c1.1,0.4,2.3,0.8,3.4,1.2c7.1,2.4,14,5.2,21,8c4.6,2.3,8.8,5.3,13.3,7.9c9.4,5.6,18.1,12.4,27.1,18.5c9.8,6.9,14.4,9.9,21.9,17.8
		c0.5,0.5,1.8,1.9,2.3,2.3c0.4,0.5,0.7,1.1,1.1,1.6c2,2.9,6,3.9,9,2.3c2.7-1.5,4.8-4.2,7.2-6.3c8.4-7.9,16.5-14,29-17.8
		c13.9-4.6,23.7-4.8,39.3-4.8c10.1,0.1,20.1,0.4,30.2,1.8C3700.5,692,3688.4,689.1,3676.1,687.2z"/>
	<path class="st30" d="M3785.8,794.3c-3.3-0.7-6.7-1.1-9.9-1.4c-7.9-0.5-15.8-0.1-23.5,1.9c-5.6,1.5-10.3,4.6-15.1,7.6
		c-0.5-0.5-1.1-1.1-1.4-1.5c-4.1-3.7-8-7.6-12.5-10.5c-3.5-1.8-7.2-3-10.8-4.4c-8.3-3-17.1-5.2-26-3.8c-1,0.1-1.9,0.3-2.9,0.5
		c1.5,0.3,3,0.5,4.5,0.8c2.9,0.7,5.4,1.8,8.2,2.6c1.6,0.7,3.3,1.5,5,2.4c5.9,3.3,11.8,6.7,17.6,10.5c3.5,3.5,6.9,7.2,10.2,11.2
		c5,6.7,10.5,5.7,16.2,0.7c2.9-2.3,5.9-4.2,9.1-5.9c4.6-2.4,19.2-6.5,28.4-7.8c3.5-0.7,7.9-0.1,11.7,0
		C3791.6,796.5,3788.7,795.3,3785.8,794.3z"/>
	<path class="st30" d="M1287.6,1245.9c-11.2,1.6-22,4.8-32.7,8.4c-5.2,1.9-10.8,3.7-15.1,7.1c-0.3,0.1-0.4,0.3-0.7,0.4
		c0,0-0.1,0-0.3,0.1c-0.1,0-0.4-0.1-0.7-0.1c-0.5-0.3-2.2-1-2.9-1.2c-4.9-3-20.8-6.1-30.5-6.8c-7.5-0.4-14.8,0.5-22,2.2
		c-1.1,0.3-2.2,0.5-3.3,0.8c0.3,0,0.5,0,0.8,0c8.6-0.1,17.3,0.5,25.6,2.7c7.2,2.3,14.6,4.1,21.6,6.9c-0.3-0.1-0.7-0.3-1.1-0.4
		c4.4,1.6,8.6,5.2,13.3,4.6c2.4-0.3,4.6-1.8,6.3-3.4c1-0.5,3.4-2.2,4.1-2.4C1262.4,1258.1,1274.8,1251.7,1287.6,1245.9z"/>
	<path class="st30" d="M4401.7,1180c-24.8-14.2-55.7-17.1-82.7-8c-3-31.7-40.8-54.7-70.4-42.9c28.6,4.4,53.2,28.3,58.2,56.9
		C4336.1,1182.3,4365.3,1178.7,4401.7,1180z"/>
	<path class="st30" d="M3727.2,1573.9c-11.7,7.5-23.3,14.8-35,22.3c-5.3-14.3-26.4-19.3-37.6-9c7.1-18,34.8-22.6,47.4-7.9
		C3711.3,1576.7,3720.4,1574.3,3727.2,1573.9z"/>
	<path class="st30" d="M1947.3,646.6c-29.7-23.8-79.5-15.2-99.6,17c33.6-21.2,80.6-18.1,111.2,7.1c35.4-36.9,46.4-36.2,83-56.6
		C2011.7,608,1969.7,637.5,1947.3,646.6z"/>
</g>
<g id="Pajaritos_00000126312365434069024940000002520519476853288120_">
	<path class="st30" d="M1820.1,2591.6c-18.6-4.1-39.1-3.4-56.3,6.6c-6.3,3.7-12.1,8.3-17.7,13.1c-2.5-2.7-4.9-5.3-7.7-7.8
		c-9.4-8.7-20-15.9-30.7-22.5c-9-5.7-18.5-10.4-28.1-14.5c-6.6-2.1-13.3-3.2-20-4.6c-2.4-0.4-4.7-0.9-7.2-1.1
		c1.1,0.5,2.3,0.9,3.3,1.4c7,2.8,13.8,5.8,20.6,8.9c4.5,2.5,8.6,5.7,13,8.5c9.1,6,17.5,13.2,26.2,19.7c9.5,7.4,14,10.6,21.1,18.8
		c0.5,0.6,1.7,2,2.2,2.4c0.4,0.6,0.6,1.1,1,1.7c1.9,2.9,5.8,4.2,8.9,2.7c2.8-1.4,4.9-4,7.5-5.9c8.8-7.5,17.1-13.3,29.7-16.5
		c14.1-4,23.9-3.7,39.5-3c10.1,0.6,20.1,1.3,30.1,3.1C1844.3,2597.4,1832.3,2594,1820.1,2591.6z"/>
	<path class="st30" d="M1925,2703.4c-3.2-0.8-6.6-1.4-9.9-1.8c-7.9-0.9-15.8-0.8-23.6,0.9c-5.6,1.2-10.5,4.2-15.4,6.9
		c-0.5-0.6-1-1.1-1.3-1.6c-3.9-3.9-7.7-8-12-11c-3.5-1.9-7.1-3.3-10.5-4.8c-8.2-3.4-16.9-5.9-25.8-5c-1,0.1-1.9,0.2-2.9,0.4
		c1.5,0.3,3,0.7,4.5,1c2.8,0.8,5.4,2,8,2.9c1.6,0.8,3.2,1.6,4.9,2.7c5.7,3.5,11.5,7.2,17.1,11.2c3.4,3.7,6.6,7.5,9.7,11.6
		c4.7,6.9,10.2,6.2,16.1,1.4c3-2.2,6-4,9.4-5.4c4.7-2.2,19.5-5.7,28.8-6.5c3.6-0.5,7.9,0.2,11.7,0.5
		C1930.6,2705.9,1927.8,2704.5,1925,2703.4z"/>
	<path class="st30" d="M1613.4,1713.3c-11.2,1.1-22.2,3.8-33,7c-5.3,1.7-10.9,3.2-15.4,6.4c-0.3,0.1-0.4,0.3-0.7,0.4
		c0,0-0.1,0-0.3,0.1c-0.1,0-0.4-0.2-0.7-0.2c-0.5-0.3-2.1-1-2.8-1.3c-4.8-3.2-20.5-7-30.2-8.1c-7.5-0.7-14.8-0.1-22.1,1.2
		c-1.1,0.2-2.2,0.4-3.3,0.7c0.3,0,0.5,0,0.8,0c8.6,0.2,17.2,1.3,25.4,3.8c7.1,2.6,14.4,4.7,21.3,7.9c-0.3-0.1-0.7-0.3-1.1-0.5
		c4.3,1.8,8.3,5.5,13.1,5.2c2.5-0.2,4.7-1.6,6.4-3.1c1-0.5,3.5-2,4.2-2.3C1587.7,1724.4,1600.4,1718.6,1613.4,1713.3z"/>
	<path class="st30" d="M2523.2,3116c-24.1-15.2-54.9-19.6-82.3-11.7c-1.6-31.8-38.4-56.5-68.4-45.9c28.4,5.6,51.9,30.6,55.7,59.4
		C2457.6,3115.4,2487,3113,2523.2,3116z"/>
	<path class="st30" d="M1832,3479.7c-12,7-23.9,13.8-35.9,20.8c-4.7-14.5-25.5-20.5-37.1-10.6c7.9-17.6,35.8-21,47.7-5.8
		C1815.9,3481.8,1825.2,3479.8,1832,3479.7z"/>
	<path class="st30" d="M2987.9,1929.2c-28.6-25.1-78.7-18.7-100.3,12.6c34.5-19.7,81.3-14.5,110.8,12c37-35.3,48-34.1,85.4-52.9
		C3053.9,1893.5,3010.7,1921.1,2987.9,1929.2z"/>
</g>
<g id="Pajaritos_00000079486835856269976410000003134572586521532295_">
	<path class="st30" d="M-429.4,2484.1c-18.6-4.1-39.1-3.4-56.3,6.6c-6.3,3.7-12.1,8.3-17.7,13.1c-2.5-2.7-4.9-5.3-7.7-7.8
		c-9.4-8.7-20-15.9-30.7-22.5c-9-5.7-18.5-10.4-28.1-14.5c-6.6-2.1-13.3-3.2-20-4.6c-2.4-0.4-4.7-0.9-7.2-1.1
		c1.1,0.5,2.3,0.9,3.3,1.4c7,2.8,13.8,5.8,20.6,8.9c4.5,2.5,8.6,5.7,13,8.5c9.1,6,17.5,13.2,26.2,19.7c9.5,7.4,14,10.6,21.1,18.8
		c0.5,0.6,1.7,2,2.2,2.4c0.4,0.6,0.6,1.1,1,1.7c1.9,2.9,5.8,4.2,8.9,2.7c2.8-1.4,4.9-4,7.5-5.9c8.8-7.5,17.1-13.3,29.7-16.5
		c14.1-4,23.9-3.7,39.5-3c10.1,0.6,20.1,1.3,30.1,3.1C-405.3,2489.9-417.2,2486.5-429.4,2484.1z"/>
	<path class="st30" d="M-324.5,2595.9c-3.2-0.8-6.6-1.4-9.9-1.8c-7.9-0.9-15.8-0.8-23.6,0.9c-5.6,1.2-10.5,4.2-15.4,6.9
		c-0.5-0.6-1-1.1-1.3-1.6c-3.9-3.9-7.7-8-12-11c-3.5-1.9-7.1-3.3-10.5-4.8c-8.2-3.4-16.9-5.9-25.8-5c-1,0.1-1.9,0.2-2.9,0.4
		c1.5,0.3,3,0.7,4.5,1c2.8,0.8,5.4,2,8,2.9c1.6,0.8,3.2,1.6,4.9,2.7c5.7,3.5,11.5,7.2,17.1,11.2c3.4,3.7,6.6,7.5,9.7,11.6
		c4.7,6.9,10.2,6.2,16.1,1.4c3-2.2,6-4,9.4-5.4c4.7-2.2,19.5-5.7,28.8-6.5c3.6-0.5,7.9,0.2,11.7,0.5
		C-318.9,2598.4-321.7,2597-324.5,2595.9z"/>
	<path class="st30" d="M-636.1,1605.8c-11.2,1.1-22.2,3.8-33,7c-5.3,1.7-10.9,3.2-15.4,6.4c-0.3,0.1-0.4,0.3-0.7,0.4
		c0,0-0.1,0-0.3,0.1c-0.1,0-0.4-0.2-0.7-0.2c-0.5-0.3-2.1-1-2.8-1.3c-4.8-3.2-20.5-7-30.2-8.1c-7.5-0.7-14.8-0.1-22.1,1.2
		c-1.1,0.2-2.2,0.4-3.3,0.7c0.3,0,0.5,0,0.8,0c8.6,0.2,17.2,1.3,25.4,3.8c7.1,2.6,14.4,4.7,21.3,7.9c-0.3-0.1-0.7-0.3-1.1-0.5
		c4.3,1.8,8.3,5.5,13.1,5.2c2.5-0.2,4.7-1.6,6.4-3.1c1-0.5,3.5-2,4.2-2.3C-661.8,1616.9-649.1,1611.1-636.1,1605.8z"/>
	<path class="st30" d="M273.7,3008.4c-24.1-15.2-54.9-19.6-82.3-11.7c-1.6-31.8-38.4-56.5-68.4-45.9c28.4,5.6,51.9,30.6,55.7,59.4
		C208,3007.9,237.4,3005.5,273.7,3008.4z"/>
	<path class="st30" d="M-417.6,3372.1c-12,7-23.9,13.8-35.9,20.8c-4.7-14.5-25.5-20.5-37.1-10.6c7.9-17.6,35.8-21,47.7-5.8
		C-433.6,3374.3-424.4,3372.3-417.6,3372.1z"/>
	<path class="st30" d="M738.3,1821.7c-28.6-25.1-78.7-18.7-100.3,12.6c34.5-19.7,81.3-14.5,110.8,12c37-35.3,48-34.1,85.4-52.9
		C804.4,1786,761.2,1813.6,738.3,1821.7z"/>
</g>
</svg>
