<?xml version="1.0" encoding="utf-8"?>
<!-- Generator: Adobe Illustrator 27.6.1, SVG Export Plug-In . SVG Version: 6.00 Build 0)  -->
<svg version="1.1" id="Layer_1" xmlns="http://www.w3.org/2000/svg" xmlns:xlink="http://www.w3.org/1999/xlink" x="0px" y="0px"
	 viewBox="0 0 2940 1590" style="enable-background:new 0 0 2940 1590;" xml:space="preserve">
<style type="text/css">
	.st0{fill:url(#SVGID_1_);}
	.st1{display:none;}
	.st2{display:inline;fill:#43A0CB;}
	
		.st3{display:inline;opacity:0.3882;fill:url(#SVGID_00000001652174521706346870000007652349928031185332_);enable-background:new    ;}
	
		.st4{display:inline;opacity:0.3294;fill:url(#SVGID_00000010312322161806589130000003524293739704574648_);enable-background:new    ;}
	
		.st5{display:inline;opacity:0.3804;fill:url(#SVGID_00000064314802375475957820000001909135940156519814_);enable-background:new    ;}
	
		.st6{display:inline;opacity:0.3412;fill:url(#SVGID_00000049188535003262845850000005849687214641066924_);enable-background:new    ;}
	.st7{display:inline;}
	.st8{fill:#8ECCE2;}
	
		.st9{display:inline;opacity:0.8784;fill:url(#SVGID_00000144299083219678315930000016451808859880862858_);enable-background:new    ;}
	
		.st10{display:inline;opacity:0.8784;fill:url(#SVGID_00000069363708947209190080000010482672745994879918_);enable-background:new    ;}
	
		.st11{display:inline;opacity:0.8784;fill:url(#SVGID_00000029021476636191374270000004700195101963708604_);enable-background:new    ;}
	
		.st12{display:inline;opacity:0.8784;fill:url(#SVGID_00000158707680871056729270000004709890174097620651_);enable-background:new    ;}
	
		.st13{display:inline;opacity:0.8784;fill:url(#SVGID_00000049920187325580499580000013147086840384777102_);enable-background:new    ;}
	
		.st14{display:inline;opacity:0.6706;fill:url(#SVGID_00000026878762003643646160000013827150322766300848_);enable-background:new    ;}
	.st15{display:inline;fill:#317FB0;}
	.st16{display:inline;opacity:0.4196;fill:#72A336;enable-background:new    ;}
	.st17{display:inline;opacity:0.4;fill:#72A336;enable-background:new    ;}
	.st18{display:inline;opacity:0.4706;fill:#72A336;enable-background:new    ;}
	.st19{display:inline;opacity:0.349;fill:#72A336;enable-background:new    ;}
	.st20{opacity:0.1686;fill:#F7EB9C;enable-background:new    ;}
	.st21{fill:#F7EB9C;}
	.st22{fill:#F7EB9C;stroke:#F6E88C;stroke-miterlimit:10;}
	.st23{display:inline;fill:#44A0C8;}
	
		.st24{display:inline;opacity:0.7294;fill:url(#SVGID_00000114780392263728539880000016313522156409445563_);enable-background:new    ;}
	.st25{display:inline;fill:url(#SVGID_00000052101638389342573520000016687809255031252105_);}
	.st26{display:inline;fill:url(#SVGID_00000153702105695929201420000015268381700429428388_);}
	
		.st27{display:inline;opacity:9.020000e-02;fill:url(#SVGID_00000131358293285774066340000012408431350059892149_);enable-background:new    ;}
</style>
<g id="BG">
	
		<linearGradient id="SVGID_1_" gradientUnits="userSpaceOnUse" x1="1470" y1="1650.3767" x2="1470" y2="-126.3783" gradientTransform="matrix(1 0 0 -1 0 1590)">
		<stop  offset="7.161111e-02" style="stop-color:#356AAB"/>
		<stop  offset="0.8972" style="stop-color:#247FAD"/>
	</linearGradient>
	<path class="st0" d="M2940,1590c0-680.2,0-812.2,0-1590C1777,0,1131.5,0,0,0c0,678.9,0,1590,0,1590S1798.5,1590,2940,1590z"/>
</g>
<g id="Nubes_bg" class="st1">
	<path class="st2" d="M2940,678.3c0-103.5-31.8-142.4-115.9-129.8s-150,98.6-140.4,183.1c-44.8-30.4-115.3,24.9-96.5,75.6
		c-70.6,32.6-124.7,99.1-142.2,175c-69.3-9.2-137.6,58.7-128.8,128c-91.1,127.8-179.9,326.4-212.9,479.8c746.7,0,836.7,0,836.7,0"/>
	<path class="st2" d="M2267.3,1221.2c-68.1-1.8-127.2-19.6-195.3-21.4c24.7-136.3-112-184.2-148.3-60.3
		c-44.3-44.3-99.2-41.1-135.5-30c0-203.5-183.3-183.3-229.3-80.8c-36.5-72.7-87.2-141.5-134.7-101.6
		c29.4-116.6-63.1-189.1-137.1-186.6c-71.5,2.4-195.5,86.3-144.8,209.3c-23.1-43.8-69-52.2-98.7-17.2s-32.9,106.2-6.8,146.5
		c-54.5-33.2-125.1,2.5-152.5,77.3c21.1,27.4,42.2,54.8,63.4,82.2c-50.2-15.9-106.1,14.3-136.1,73.6c-30,59.2-32.4,144.1-5.9,206.6
		c468.7,61,939.8,82.9,1410.3,65.5"/>
	<path class="st2" d="M371.5,937.1c9.4-37.5-4.8-79.9-34.9-104.3s-74.5-29.3-109.3-12.3c-5.6-40.5-68.4-57.1-93.3-24.6
		c-4.8-4.8-9.6-9.5-14.4-14.3c-2.9-18.5-23.2-32.2-41.4-28s-30.5,25.5-25,43.3C30.1,784.2,23.1,783.4,0,770.7
		c0,328.2,0,482.7,0,819.3c126.2,0,228.1,0,384.2,0"/>
</g>
<g id="Nubes_bg_highlights" class="st1">
	
		<linearGradient id="SVGID_00000046307553759054752190000004574587576510971320_" gradientUnits="userSpaceOnUse" x1="22.904" y1="727.5729" x2="386.4314" y2="727.5729" gradientTransform="matrix(1 0 0 -1 0 1590)">
		<stop  offset="0" style="stop-color:#F9EBAB"/>
		<stop  offset="1" style="stop-color:#BFE8A5"/>
	</linearGradient>
	
		<path style="display:inline;opacity:0.3882;fill:url(#SVGID_00000046307553759054752190000004574587576510971320_);enable-background:new    ;" d="
		M372.3,957.9c53.6-131.9-55.9-179.1-145.9-142.5c-7.4-53.1-85.5-39.3-94.8-22C111,735.5,74.7,749,58.7,767.2
		c23.4-7.7,53.5,15,38.7,38.7c-14.9-11.6-37.1-12.7-53.1-2.6s-24.5,30.6-20.4,49.1c75.7-34.4,139.9-32.7,228.8,93.5
		c13-19.2,38.7-28.8,61-22.8c22.4,6,39.8,27.1,41.5,50.2C362,965.6,376.2,967,372.3,957.9z"/>
	
		<linearGradient id="SVGID_00000047746043310905446030000012015144018792542631_" gradientUnits="userSpaceOnUse" x1="1130.9911" y1="556.8228" x2="2155.48" y2="556.8228" gradientTransform="matrix(1 0 0 -1 0 1590)">
		<stop  offset="0" style="stop-color:#F9EBAB"/>
		<stop  offset="1" style="stop-color:#BFE8A5"/>
	</linearGradient>
	
		<path style="display:inline;opacity:0.3294;fill:url(#SVGID_00000047746043310905446030000012015144018792542631_);enable-background:new    ;" d="
		M1444.6,916.3c10.3-87.2-66.2-174.6-154-175.9c-87.8-1.3-166.8,83.8-159.1,171.3c37.3-28.6,139.6-9.8,158.3,93.7
		c34.4-26.4,88.3-22.4,118.5,8.7c68.8-40.9,170.9-4.3,198,71c64.1-14.8,135,37.9,139.4,103.5c46.5,17.4,93,34.8,139.6,52.2
		c19.8-42.8,95.7-37.3,109.2,7.9c55.1-11,115.8,22.3,135.9,74.8c-36.5,12.5-78.7-28.5-67.3-65.3c11.4-36.8,69.3-46.8,92.4-15.9
		c-44.3-12.4-78.1-55.6-79.3-101.6c-1.1-38.9-37-73.5-75.9-73.2s-74.2,35.6-74.6,74.6c-26.9-39.7-82.1-57.4-127.1-40.7
		c16.8-53.4-10.4-117.2-60.6-142s-117.4-7.8-149.7,38c2.8-26.3-27.8-49.8-52.5-40.3C1524.5,905.6,1449.8,882.3,1444.6,916.3z"/>
	
		<linearGradient id="SVGID_00000147937736071973028610000015901047315195824830_" gradientUnits="userSpaceOnUse" x1="2699.7473" y1="1096.8527" x2="3043.8584" y2="710.2349" gradientTransform="matrix(1 0 0 -1 0 1590)">
		<stop  offset="0" style="stop-color:#F9EBAB"/>
		<stop  offset="0.2223" style="stop-color:#F7EAAD"/>
		<stop  offset="0.392" style="stop-color:#F0E8B2"/>
		<stop  offset="0.5444" style="stop-color:#E3E4BA"/>
		<stop  offset="0.6866" style="stop-color:#D1DFC5"/>
		<stop  offset="0.8216" style="stop-color:#BAD8D1"/>
		<stop  offset="0.9495" style="stop-color:#9CD0DD"/>
		<stop  offset="1" style="stop-color:#8ECCE2"/>
	</linearGradient>
	
		<path style="display:inline;opacity:0.3804;fill:url(#SVGID_00000147937736071973028610000015901047315195824830_);enable-background:new    ;" d="
		M2940,607.4c-25.8-86.2-190.9-88.3-244.9,46.8c46.4-107,227.8-55.8,244.9,120.6C2940.1,773.6,2940.2,608.2,2940,607.4z"/>
	
		<linearGradient id="SVGID_00000030455650407054761560000017060142856204257694_" gradientUnits="userSpaceOnUse" x1="2632.9734" y1="875.1973" x2="2853.5542" y2="632.2635" gradientTransform="matrix(1 0 0 -1 0 1590)">
		<stop  offset="0" style="stop-color:#F9EBAB"/>
		<stop  offset="0.235" style="stop-color:#F7EAAD"/>
		<stop  offset="0.4043" style="stop-color:#F0E8B2"/>
		<stop  offset="0.5529" style="stop-color:#E4E4B9"/>
		<stop  offset="0.6897" style="stop-color:#D3DFC4"/>
		<stop  offset="0.8184" style="stop-color:#BCD8D0"/>
		<stop  offset="0.9393" style="stop-color:#9FD1DC"/>
		<stop  offset="1" style="stop-color:#8ECCE2"/>
	</linearGradient>
	
		<path style="display:inline;opacity:0.3412;fill:url(#SVGID_00000030455650407054761560000017060142856204257694_);enable-background:new    ;" d="
		M2685.8,731.3c-20.5-9.8-46.7-6-63.6,9.1c-16.9,15.1-23.6,40.7-16.1,62.2c26.3-12.3,58.1,1.4,79.1,21.5
		c21,20.1,35.6,46.1,56.5,66.3c54.1,1.8,108.1,3.6,162.2,5.5c-37.7-12-75.8-24.1-110.2-43.6s-65.5-47.2-82.1-83.1
		C2692.3,768.5,2677.1,745.9,2685.8,731.3z"/>
</g>
<g id="Nubes_medio" class="st1">
	<g class="st7">
		<g>
			<path class="st8" d="M1765.9,1382.4c-29.5-2-59-4-88.5-6c-15.1-61.1-79.5-98.3-130.5-75.5c32.3-73.1,5.2-173.7-57.1-212.4
				c-62.3-38.7-149.2-8.8-183.3,63.2c-78.9-129.2-218.6-225.6-356.4-239.4c-19.5-40.8-40.7-80.8-69.5-113
				c-35-39.2-83.7-65.9-131.6-57.1c-48,8.7-90.7,61-84.9,117.1c-14.9-49.9-64.3-82.2-108.6-70.9s-77.8,64.5-73.4,117
				c-68.8-9-140.2,25.6-185,86.6c-7.7-19.9-24.9-35.2-43.9-35.5c-22.5-0.4-43.1,20.3-48.5,45.2C201.9,898.8,0,900.7,0,1042.1
				c0,339.5-3.3,413.3,0,547.9c120.4,0,189.3-2.9,343.2-14.3c13.3-1,25.6-6.7,36.9-16c2.3,0.2,4.7,0.3,7,0.5
				c35.4-6,71.2-3.5,106.8-0.4c31.5,2.3,63,4.7,94.5,7.7c20.6-0.3,37.9,0.6,50.5,16.4c121.8-13.9,247.4-15.8,368.8-1.2
				c68.1,8.2,248.6,7.7,252.6,7.3c138.3-12.2,465.9-3.2,537.9-0.6c30.7,1.1,61.4-4,92.1-4.1c11.3-0.1,22.6,0.3,33.9,1
				c2.8-3.3,4.5-6.8,4.9-10.6C1943.8,1455.9,1867.8,1406.4,1765.9,1382.4z"/>
		</g>
	</g>
	<g class="st7">
		<g>
			<path class="st8" d="M2746.3,1202.4c30.6-14.7,64.2-32.5,74.8-64.8c10.6-32.3-24.1-75.1-53.3-57.7c17.6-20.2,18.1-53.3,0.9-73.9
				s-49.7-26.3-72.8-12.7c-1.3-6.3-3.2-12.5-5.5-18.5c-0.1-41.6-22.9-84-61.1-101.3c-7-3.2-14.3-5.4-21.7-6.8
				c-80.1-367.3-485.5-71.1-345.9,57.3c-78-7.1-156.3,52.5-170.3,129.5c-0.9,5.2-1.6,10.5-1.9,15.8c-47.4,4.8-92.4,29.9-113.8,72.1
				c-31.5,62.3,8.4,152.8,77.8,160.5c0,0-197.3,23.3-250.3,67.6c-78.1,27.2-151.8,68.2-217.4,124.6c-137.3,118.1-241.1-4.4-391.9,96
				c580.4,0,991.4,0,1613.4,0c16.9,0.8,132.8,0,132.8,0c0-126.7,0-279.8,0-295.2C2892.4,1234.6,2823.3,1200.3,2746.3,1202.4z"/>
		</g>
	</g>
</g>
<g id="Nubes_Medio_Highlights" class="st1">
	
		<linearGradient id="SVGID_00000109723366284689820180000008168778008543306170_" gradientUnits="userSpaceOnUse" x1="1184.137" y1="993.8947" x2="406.5564" y2="382.028" gradientTransform="matrix(1 0 0 -1 0 1590)">
		<stop  offset="0" style="stop-color:#F9EBAB"/>
		<stop  offset="0.1351" style="stop-color:#F3E9B0"/>
		<stop  offset="0.3486" style="stop-color:#E2E4BB"/>
		<stop  offset="0.6139" style="stop-color:#C4DBCB"/>
		<stop  offset="0.918" style="stop-color:#9BCFDD"/>
		<stop  offset="1" style="stop-color:#8ECCE2"/>
	</linearGradient>
	
		<path style="display:inline;opacity:0.8784;fill:url(#SVGID_00000109723366284689820180000008168778008543306170_);enable-background:new    ;" d="
		M568.9,1100.7c-14.8-2.9-29.8-4.8-44.8-5.6C538.9,1097.3,553.9,1099.6,568.9,1100.7z"/>
	
		<linearGradient id="SVGID_00000138549110267464167270000014672068685933986452_" gradientUnits="userSpaceOnUse" x1="1565.8252" y1="760.602" x2="580.8247" y2="-299.3584" gradientTransform="matrix(1 0 0 -1 0 1590)">
		<stop  offset="0" style="stop-color:#F9EBAB"/>
		<stop  offset="1" style="stop-color:#8ECCE2"/>
	</linearGradient>
	
		<path style="display:inline;opacity:0.8784;fill:url(#SVGID_00000138549110267464167270000014672068685933986452_);enable-background:new    ;" d="
		M1550,1293.3c31-66.9-3.6-167.7-65.4-207.8s-135.8,0.8-184.2,56.4c-57.8-144.2-235.6-240.9-355-230.1
		c-4.2-91.2-100.3-185.7-190.5-171.4c-24.4,3.9-43.8,15.1-59.3,31.4c0.9,1,1.7,2.1,2.5,3.2c42.6,65.6-64,180.9-65.6,196.2
		c32.2-8.2,63.4,27.9,58.5,60.8c-4.9,32.9-35.5,57.2-67.8,65.1c-17.7,4.4-36,4.8-54.2,3.5c38.9,7.8,76.3,22.8,110.1,43.6
		c102.3-40.6,165.1,31.4,98,91.1c11.3,15.8,21.2,32.7,29.4,50.4c5.5-5.8,11.5-10.9,18-15.4c0.1-0.3,0.2-0.5,0.3-0.8
		c1.9-4.7,3.5-10,6.1-14.4c4.4-7.6,11-14.1,18-19.4c14.2-10.8,31.8-14,49-9.5c14,3.6,27.4,11.9,37.7,22.4
		c34.1,6.5,65.8,24.3,86,52.7c9.5-34.3,45.9-59,81.3-55.1s65.6,35.7,67.6,71.3c38.1-37.4,96.7,23.8,143.8,2.9
		c61-27,53.2,28.1,51.9,32c41.5-18.3,39.9-4.7,63.4,38.9c11.2,8,20.9,18.1,28.8,30.1c11.6,17.7,18.6,38.9,21.9,59.8
		c1.6,10.2,2.5,20.4,2.9,30.6c81.4-7.9,224.6,69.1,313.4,63.6C1809.9,1462.1,1655.2,1269.6,1550,1293.3z"/>
	
		<linearGradient id="SVGID_00000143591081418996587340000006437804145651307408_" gradientUnits="userSpaceOnUse" x1="701.1505" y1="431.0683" x2="388.1722" y2="299.2968" gradientTransform="matrix(1 0 0 -1 0 1590)">
		<stop  offset="0" style="stop-color:#F9EBAB"/>
		<stop  offset="0.1092" style="stop-color:#E5E5B9"/>
		<stop  offset="0.2967" style="stop-color:#C7DCCA"/>
		<stop  offset="0.4826" style="stop-color:#AFD5D5"/>
		<stop  offset="0.664" style="stop-color:#9DD0DD"/>
		<stop  offset="0.8389" style="stop-color:#92CDE1"/>
		<stop  offset="1" style="stop-color:#8ECCE2"/>
	</linearGradient>
	
		<path style="display:inline;opacity:0.8784;fill:url(#SVGID_00000143591081418996587340000006437804145651307408_);enable-background:new    ;" d="
		M657.7,1261.7c-26.3-72.6-109-119.8-185-105.6c5.6,11.8,11.2,23.6,16.8,35.4c-29-23.5-69-32.8-105.4-24.6
		c86.8,32.4,168.4,78.6,240.9,136.3c10.7,8.5,28.7,5.4,35.8-6.3C668,1285.2,660.4,1269.1,657.7,1261.7z"/>
	
		<linearGradient id="SVGID_00000104684559864443760270000006216244114744310457_" gradientUnits="userSpaceOnUse" x1="684.8621" y1="859.149" x2="443.5345" y2="617.8214" gradientTransform="matrix(1 0 0 -1 0 1590)">
		<stop  offset="0" style="stop-color:#F9EBAB;stop-opacity:0.8196"/>
		<stop  offset="0.4462" style="stop-color:#C6DBCB;stop-opacity:0.9001"/>
		<stop  offset="0.817" style="stop-color:#9ED0DC;stop-opacity:0.967"/>
		<stop  offset="1" style="stop-color:#8ECCE2"/>
	</linearGradient>
	
		<path style="display:inline;opacity:0.8784;fill:url(#SVGID_00000104684559864443760270000006216244114744310457_);enable-background:new    ;" d="
		M644.6,828.1c-17.8,24.8-27,48.6-44.8,73.5c4.7-46.5-59.2-84.6-102-65.8C552.1,759.7,615.6,784.3,644.6,828.1z"/>
	
		<linearGradient id="SVGID_00000142160425271981915480000015787102670883001006_" gradientUnits="userSpaceOnUse" x1="2169.2341" y1="602.087" x2="1843.6589" y2="-53.8868" gradientTransform="matrix(1 0 0 -1 0 1590)">
		<stop  offset="0" style="stop-color:#F9EBAB"/>
		<stop  offset="5.980000e-02" style="stop-color:#F2E9B0"/>
		<stop  offset="0.5084" style="stop-color:#BED9CF"/>
		<stop  offset="0.8336" style="stop-color:#9CD0DD"/>
		<stop  offset="1" style="stop-color:#8ECCE2"/>
	</linearGradient>
	
		<path style="display:inline;opacity:0.8784;fill:url(#SVGID_00000142160425271981915480000015787102670883001006_);enable-background:new    ;" d="
		M2090.9,1068.6c-34.9,2.2-76.3,25.1-100.4,50.3s-35.5,59.7-21.9,100.1c2.9,8.7-11.9-17,213.6-17c-31.5-1.1-63-17.6-81.1-43.4
		C2082.9,1132.9,2077.6,1098.6,2090.9,1068.6z"/>
	
		<linearGradient id="SVGID_00000108286284273546196530000012982431357743529088_" gradientUnits="userSpaceOnUse" x1="2673.6619" y1="848.6707" x2="2301.7207" y2="-215.9277" gradientTransform="matrix(1 0 0 -1 0 1590)">
		<stop  offset="0" style="stop-color:#F9EBAB"/>
		<stop  offset="1" style="stop-color:#8ECCE2"/>
	</linearGradient>
	
		<path style="display:inline;opacity:0.6706;fill:url(#SVGID_00000108286284273546196530000012982431357743529088_);enable-background:new    ;" d="
		M2249.9,932.9c-25-11-56.1-6.6-77.1,10.9c-21,17.5-30.9,47.3-24.6,73.9c23.9-4,47.7-8,71.6-12c-15.9,24.9-16.7,58.8-1.8,84.4
		c14.9,25.6,44.7,41.8,74.2,40.2c-9.9-37.5,19.2-80.3,57.7-84.9c38.5-4.6,76.9,30,76.2,68.8c0.8-11.1,11.1-20.6,22.2-20.4
		s21.2,9.9,21.7,20.9c52.2-4.9,106.1,20.1,136.1,63.1c-3.2-16.4,5-34.4,19.5-42.7c14.5-8.3,34.2-6.2,46.7,4.9
		c62.3,55.4,67.7,163,11.4,224.5c52.2-34.2,126.6-29.7,174.4,10.3c4.3-10.7,24.6-5.2,22.8,6.2c39.5-31.8,30.3-98.9-5.9-134.4
		c-36.2-35.4-89.2-46.8-139.4-53.7c35.7,12.9,80-10.6,89.3-47.4c9.2-36.8-14.8-66.2-52.4-71.7c40-75.1-49.5-107.7-83.5-86.3
		c17.6-60.6-41-109.9-81.2-120.9c-6.8-210.7-320.5-236.8-340.2-54c-5.4,49.7,21.2,102,70.6,95.1
		C2310.6,917.6,2283.3,927.4,2249.9,932.9z"/>
</g>
<g id="Nubes_frente" class="st1">
	<path class="st15" d="M919.5,1385.3c-16.7-128.3-205.2-341.5-416.5-256.8c-113.5,45.5-187.8,186-167.1,316.1
		c-13.4-38.4-49.6-65.9-87.3-66.2s-74.2,26.7-88.1,65c-32.6-36.9-87.4-47.9-129.8-25.9c-6.7,3.5-8,4.7-13.9,9.6
		c0,15.2-0.7,69.2,0,72.1c19.6-1.1,1132.1,76.4,1263.7,76.4C1260.8,1370.6,956.7,1265.8,919.5,1385.3z"/>
	<path class="st15" d="M2700.7,1501.3c-42.4-137.4-161-246.4-293.8-262.1c-149.6-17.7-304.5,83.7-360.6,236.1
		c-23.2-56.6-90-86.5-142.9-63.9c-40.4,17.2-66.7,42.7-69.4,89.5C1847.3,1500.8,2693.4,1501.3,2700.7,1501.3z"/>
	<path class="st15" d="M2940,1539.9c-10.4-21-36.1-19.2-46.2,0.5c-35.6-175.4-233.8-126.6-254.9-39.1
		c-164-86.2-402.3-78.7-633.4-10.1c-38.6-34.1-130.7-36.8-170.1-3.5c-37.6-42.5-72.2-54.4-128.5-62.1s-119.5,19.9-140.2,72.8
		s-19.2,92.2,37.5,91.6c0,0,873.8,0,1335.7,0c0.2-0.8-0.2-2.1,0-2.8C2939.5,1585.5,2940,1539.9,2940,1539.9z"/>
	<path class="st15" d="M1634.5,1590.3c-118.2-104.6-204.7-107.8-356.9-23.5c-137.5-233-399.8-96.1-665.7-96.1
		c-51.9-88-187.3-48.9-283.7-15.2c-96.4,33.7-171.9,33.2-157.8,134.4C170.4,1590,1348.7,1590.3,1634.5,1590.3z"/>
	<path class="st15" d="M216.9,1479.7c29.8-14.3,119.7,110.4,86.6,110.4C26.2,1590.2,0,1590,0,1590c0-45.9,0-170.2,0-293.2
		c0-29.6,112.7-66.1,157.9,143.8"/>
</g>
<g id="Nubes_frente_highlights" class="st1">
	<path class="st16" d="M904.1,1356.2c-39.4,17.8-78.8,35.5-118.2,53.3c-59.8-138.8-206.3-235.6-357.5-236.2
		c77.8-59.2,185.7-76.4,278.1-44.6S873.2,1240.7,904.1,1356.2z"/>
	<path class="st16" d="M1208.8,1545.9c24.3,0,65,7.4,68.3,7.4c0-59.7-70.7-129.7-103.2-154.7c-75.3-57.9-207.9-90.3-250.3-23.6
		C1037.6,1328.2,1182.6,1429.9,1208.8,1545.9z"/>
	<path class="st16" d="M2681.4,1451.3c-37.2-67.4-61.2-112.8-124.1-157.2c-62.9-44.4-127.2-63.8-203.7-54.6
		c-76.5,9.2-183.5,39.5-216,109.4c219.5-37.7,392.1,45.2,468.7,121.9C2641.6,1444.4,2682.7,1441.4,2681.4,1451.3z"/>
	<path class="st17" d="M160.4,1443.4C157.4,1366,59.7,1201.3,0,1299.8c58.4,8.6,115.2,82.2,68.5,132.2
		c55.3,7.7,85.6,25.6,107.4,76.9c50.6-54.3,124.3-59.4,152.3-16.2C320.9,1308.8,160.4,1393.9,160.4,1443.4z"/>
	<path class="st18" d="M1548.9,1530.1c-81.9-45.3-198.1-22.5-261.6,46.2c102.8-46.8,191.4-29.1,303.3-1.8
		C1590.6,1574.5,1561.4,1536.9,1548.9,1530.1z"/>
	<path class="st19" d="M1586.6,1469.2c-3.2,3.7-6.3,7.4-9.1,11.3c2.5-1.3,5.2-2.5,8-3.2c0.7-0.3,1.4-0.6,2.1-0.8
		C1587,1474,1586.6,1471.6,1586.6,1469.2z"/>
	<path class="st19" d="M2043.1,1468c-19.6-51.7-74.6-64.2-122.1-59.2c-47.5,5-75.2,32.3-85.5,78.9c-80.8-80.8-163.8-78.5-218.1-44.5
		c13.7-2.2,27.8-1.3,41.5,0.9c15.5,2.4,30.1,7.7,44.5,13.8c3.7,1.6,7.2,3.3,10.6,5.2c4.9,1.3,9.7,2.9,14.4,4.8
		c18.4,7.7,34.7,18.9,48.2,33.6c8.4,9.2,14.8,20,20.1,31.2c1.5,3.2,3.1,6.6,4.4,10.2c10.5-1.8,22.5-2.2,37.4,0.2
		c1.2-7,3.6-13.8,6.5-20.5c0.7-1.6,1.4-3.3,2.2-4.9c0.1-0.1,0.1-0.2,0.1-0.3c0.9-2.9,0.6-1.3,0,0c-0.1,0.4-0.3,0.9-0.4,1.5
		c1-3.3,2.6-6.5,4.1-9.6c1.8-3.7,4-7.1,6.5-10.4c12.8-16.9,29.8-27,51.1-29.2c17.3-1.8,36.7,3.8,50.7,14
		c8.9,6.6,16.4,14.5,22.8,23.3c7.9,8.7,14.8,18.6,20.2,28.8c1.6,2.9,3,5.9,4.3,8.9c1,2.4,2,4.8,3,7.2c0,0,0,0,0,0
		c0-0.2,0.1,0,0.5,0.7c0.4,0.6,0.7,1.3,1.1,2c0.3,0.6,0.6,1.1,0.8,1.7c7.8-4.4,13.4-9,15.2-13.2
		C2034.9,1525.9,2048.6,1482.6,2043.1,1468z"/>
</g>
<g id="Luna">
	<ellipse class="st20" cx="2521.6" cy="357.4" rx="107" ry="106"/>
	<path class="st21" d="M2603.4,425.8c-22.8,32.3-87.3,49.4-130.7,25.9c119.3,11.7,180.1-102.2,93.8-187.7
		C2601.6,276.3,2658.4,348,2603.4,425.8z"/>
</g>
<g id="Estrellas">
	<circle class="st22" cx="539.6" cy="482.9" r="6.8"/>
	<circle class="st22" cx="170.4" cy="662" r="5.5"/>
	<circle class="st22" cx="1358" cy="201.6" r="13.5"/>
	<circle class="st22" cx="1609.3" cy="883.5" r="5"/>
	<circle class="st22" cx="2213.7" cy="471.9" r="8.5"/>
	<circle class="st22" cx="2785.2" cy="423.8" r="13.5"/>
	<circle class="st22" cx="942.2" cy="610.2" r="14"/>
	<circle class="st22" cx="1527.3" cy="393.2" r="2.5"/>
	<circle class="st22" cx="121.9" cy="273.6" r="5.5"/>
	<ellipse class="st22" cx="372.8" cy="554.8" rx="1.3" ry="1.2"/>
	<circle class="st22" cx="2040.8" cy="786.8" r="10"/>
	<ellipse class="st22" cx="2361.6" cy="671.9" rx="4.9" ry="8.7"/>
	<circle class="st22" cx="2627.3" cy="566.6" r="1.5"/>
	<circle class="st22" cx="32.5" cy="320.3" r="2.8"/>
	<ellipse class="st22" cx="1108" cy="370" rx="7" ry="6"/>
	<circle class="st22" cx="1437.1" cy="685.6" r="5"/>
	<circle class="st22" cx="2364.1" cy="101.4" r="2.4"/>
</g>
<g id="Nubes_top" class="st1">
	<path class="st23" d="M201,0c60.2,12.2-188.9-27.8-7.2,58.1c93.7,44.2-79.5,98.5-193.9,163.8c0.2,4.2,0.1,75,0,82.3
		C183.5,247.2,348.2,189,355.6,224c5.8,27.5-168.1,116-236.9,184.8c130.1-4.1,229.5-119.8,341.5-172.2c68.7-32.1,136-23,215.2-36.6
		s139.4-54.7,123.3-113.5C881,96.4,968.7,54.6,990-4.7L201,0z"/>
	
		<linearGradient id="SVGID_00000037650647735145012510000012264293131084434875_" gradientUnits="userSpaceOnUse" x1="519.9406" y1="1366.1687" x2="-8.7595" y2="498.2045" gradientTransform="matrix(1 0 0 -1 0 1590)">
		<stop  offset="0" style="stop-color:#45A1C9"/>
		<stop  offset="0.1968" style="stop-color:#4AA4CB"/>
		<stop  offset="0.4441" style="stop-color:#58ACCF"/>
		<stop  offset="0.7182" style="stop-color:#6FBAD7"/>
		<stop  offset="1" style="stop-color:#8ECCE2"/>
	</linearGradient>
	
		<path style="display:inline;opacity:0.7294;fill:url(#SVGID_00000037650647735145012510000012264293131084434875_);enable-background:new    ;" d="
		M629.8,182c-66.2,18.1-341.2,205.5-396.9,237.7c46.5-3.6,131.5-25.4,106.2,15.2C247.7,582-22.6,619.5-0.3,675.5
		c31,78,757.4-343.2,703.4-343.2C395,360.2,661.8,173.3,629.8,182z"/>
	
		<linearGradient id="SVGID_00000166669192025228432400000005904820039273819784_" gradientUnits="userSpaceOnUse" x1="365.7734" y1="1210.6093" x2="98.3933" y2="771.6526" gradientTransform="matrix(1 0 0 -1 0 1590)">
		<stop  offset="0" style="stop-color:#45A1C9"/>
		<stop  offset="0.1968" style="stop-color:#4AA4CB"/>
		<stop  offset="0.4441" style="stop-color:#58ACCF"/>
		<stop  offset="0.7182" style="stop-color:#6FBAD7"/>
		<stop  offset="1" style="stop-color:#8ECCE2"/>
	</linearGradient>
	<path style="display:inline;fill:url(#SVGID_00000166669192025228432400000005904820039273819784_);" d="M241,601.2
		c21.1-39.1,42.3-78.1,63.4-117.2c-56.4,48.4-112.8,96.8-169.2,145.1c46.1-2.4,87.6-29.5,119.7-62.6s56.8-72.6,85.6-108.5
		c28.9-36,63.6-69.5,107.2-84.5c-24.5-14.1-56.9-2.3-76.5,18s-30.1,47.4-43.4,72.4s-31.5,49.7-58.3,58.4"/>
	
		<linearGradient id="SVGID_00000183970074750543158180000017409260978773366455_" gradientUnits="userSpaceOnUse" x1="369.1399" y1="1283.0054" x2="259.1639" y2="1102.4584" gradientTransform="matrix(1 0 0 -1 0 1590)">
		<stop  offset="0" style="stop-color:#4397BC"/>
		<stop  offset="0.1969" style="stop-color:#489ABE"/>
		<stop  offset="0.4442" style="stop-color:#56A4C5"/>
		<stop  offset="0.7183" style="stop-color:#6FB5D1"/>
		<stop  offset="1" style="stop-color:#8ECCE2"/>
	</linearGradient>
	<path style="display:inline;fill:url(#SVGID_00000183970074750543158180000017409260978773366455_);" d="M354.2,389.3
		c-29.3,5.2-58.6,10.4-87.9,15.5c48.2-31.8,96.4-63.6,144.5-95.4C389.5,337.8,368.2,366.1,354.2,389.3z"/>
	
		<linearGradient id="SVGID_00000090280449796483773670000012858070948325693117_" gradientUnits="userSpaceOnUse" x1="326.5388" y1="1519.6161" x2="16.8274" y2="1011.1644" gradientTransform="matrix(1 0 0 -1 0 1590)">
		<stop  offset="0" style="stop-color:#8ECCE2"/>
		<stop  offset="1" style="stop-color:#8ECCE2"/>
	</linearGradient>
	
		<path style="display:inline;opacity:9.020000e-02;fill:url(#SVGID_00000090280449796483773670000012858070948325693117_);enable-background:new    ;" d="
		M0,304.1c119.6-57.9,237.3-87.7,370.1-94.1c-81.5,63.3-162.9,126.6-244.4,189.9c138.4-58.2,266.9-140.2,378-241.2
		c19.8-18,0.4-58.3-26-54.1c-95.4,15.1-190.9,30.2-286.3,45.3c33.5,7.6,70.1-16,79.5-49.1c9.4-33-7.3-70.8-36.7-88.6
		s-68.6-16-98,1.8c31.4,4.9,79.9,35.8,83.8,67.3s-37.3,60.9-66.6,73.3C92,180.6,61.5,199.5,0.1,225.4"/>
</g>
</svg>
