<?xml version="1.0" encoding="UTF-8"?>
<svg id="Layer_1_copy" data-name="Layer 1 copy" xmlns="http://www.w3.org/2000/svg" viewBox="0 0 1941.5 4999.66">
  <defs>
    <style>
      .cls-1 {
        fill: #ffecac;
      }
    </style>
  </defs>
  <g id="Accents">
    <g id="Layer_2" data-name="Layer 2">
      <path class="cls-1" d="m1825.3,4796.93c-180.5-24.37-359.68-73.12-526.67-136.03-152.5-57.31-296.11-131.42-425.55-221.34-254.94-177.2-451.24-411.72-565.87-676.21-55.66-128.46-92.55-263.17-109.68-399.2-8.56-68.51-12.19-137.02-10.87-205.86.66-33.93,2.31-67.85,5.27-101.78,3.29-38.21,4.94-77.4,11.2-115.28,6.92-40.84,13.18-81.36,22.07-121.87,3.95-18.45,8.23-36.56,13.18-55.01,4.28-16.14,11.86-30.3,16.47-46.44,18.12-63.57,39.85-126.15,65.55-187.74,51.05-123.19,117.59-241.43,198.61-352.43,165.68-227.27,388.99-417.32,643.27-571.14,38.21-23.06,77.4-44.14,117.59-64.56,4.94-2.63,5.93-9.88,0-12.19-10.21-4.28-47.76-16.8-45.45,5.27,1.98,19.43,33.6,12.52,45.45,7.25,5.27-2.63,5.6-9.88,0-12.19-95.19-42.82-153.16-121.87-175.89-210.8-25.03-99.14-5.6-203.23,24.37-299.73,64.89-210.47,199.27-398.54,387.68-543.14,25.69-19.76,52.04-39.53,80.37-56.65,28.33-17.13,57.97-34.25,88.27-48.42,28.99-13.5,56.65-29.31,86.96-40.51,37.55-14.16,76.74-25.36,115.61-36.89,9.88-2.96,5.6-16.8-4.28-13.83-123.85,35.9-241.1,85.97-341.56,158.76-52.7,38.21-102.11,79.05-148.22,123.19-39.85,38.21-74.44,79.05-108.36,121.54-76.09,94.53-131.09,206.52-166.99,316.86-31.95,97.5-53.69,203.23-33.27,304.34,20.09,99.14,81.69,190.38,187.41,237.81v-12.19c-3.29,1.65-19.1,3.29-20.75,5.27-3.62,1.98-1.98,2.63,4.61,1.65,5.6,1.32,10.87,2.96,15.81,5.27v-12.19c-276.35,141.3-521.4,335.63-706.18,561.92-86.3,105.73-159.09,219.03-217.39,338.27-30.3,61.59-56.32,124.5-78.72,188.4-24.04,69.17-48.42,138.34-62.58,209.15-57.31,281.62-49.41,572.78,48.42,847.16,95.85,268.77,272.72,514.16,513.17,704.86,256.58,203.55,576.08,335.96,914.02,406.45,46.11,9.55,92.55,17.46,139.33,24.04,9.55.99,14.16-12.52,3.62-13.83h0Z"/>
      <path class="cls-1" d="m1918.52,4581.19c-175.23-32.61-343.21-84.32-502.3-155.79-37.88-17.13-75.1-34.91-111.66-54.02-38.87-20.09-79.71-39.85-114.29-64.89-30.96-22.4-65.55-40.84-97.82-61.92-34.26-22.07-67.85-45.45-100.13-69.5-61.92-45.78-120.22-95.19-175.56-146.9-28.66-26.68-58.96-53.36-84.32-82.01-11.86-13.18-21.41-27.67-33.6-40.84-14.82-16.14-28.99-32.28-43.15-48.75-96.84-113.63-175.89-239.13-228.92-372.85-55.01-139.33-80.04-284.91-73.45-431.81,7.58-162.05,69.83-312.58,150.52-457.17,36.89-66.2,75.1-131.75,123.52-192.68,44.14-55.33,94.86-107.05,149.54-155.14,110.01-96.51,235.83-177.86,363.63-255.93,248.68-151.51,518.11-295.45,675.22-528.32,19.1-28.66,36.23-57.97,51.71-88.27,1.98-3.95.66-9.55-4.94-10.54-13.5-2.31-40.84-9.55-54.02-2.31-8.23,4.61-7.25,11.53-.99,17.13,15.48,13.18,49.41,12.85,59.95-4.28,2.31-3.62.66-9.88-4.94-10.54-56.32-7.58-112.32-9.22-169.3-7.58-39.85,1.32-80.04,2.96-120.22,1.65-90.25-2.96-178.52-26.68-226.28-98.15-112.32-168.64,60.28-356.39,221.34-443.01,100.13-54.02,211.79-87.28,324.76-114.29,10.21-2.31,5.93-16.14-4.28-13.83-206.85,49.74-425.55,127.8-537.87,296.11-49.41,73.78-74.11,163.7-38.54,245.71,32.61,75.43,104.08,122.86,195.32,136.36,48.42,7.25,98.15,6.59,146.9,5.27,68.51-1.98,135.04-3.29,203.22,5.93-1.65-3.29-3.29-6.92-4.94-10.54-6.92,10.87-19.43,4.61-29.97,3.29-1.32,0-3.95-2.63-4.94-2.31-.66,1.98-1.32,3.95-1.98,5.93,1.98-.33,3.62-.66,5.6-.33,11.2,2.63,24.7,1.98,36.23,3.95-1.65-3.29-3.29-6.92-4.94-10.54-132.08,261.52-405.13,421.27-667.32,579.04-128.13,77.07-255.6,155.79-369.89,248.02-117.26,94.53-215.74,202.57-288.2,326.08-82.34,140.31-155.79,284.25-181.49,441.36-24.04,147.56-8.89,299.73,35.24,443.01,41.83,136.03,110.67,265.15,198.94,383.39,90.25,120.88,196.31,231.88,316.53,331.68,58.96,49.08,121.54,94.86,187.09,137.35,71.15,46.11,142.29,91.24,219.03,130.43,75.1,38.21,152.5,72.79,232.54,103.09,36.89,13.83,74.44,27.01,111.99,39.2,43.48,13.83,87.61,24.37,131.75,36.23s89.26,20.75,134.39,29.31c11.2,1.32,15.48-12.51,5.27-14.49h0Z"/>
      <path class="cls-1" d="m1887.22,2089.79c-24.37,13.5-48.09,27.34-72.46,40.18-11.2,5.93-23.39,11.2-34.58,17.46-9.55,5.6-18.12,12.52-27.01,19.1-20.09,15.15-42.49,28-63.24,42.16-19.43,13.5-38.54,27.34-56.98,41.5-73.12,56.65-137.68,120.88-193.67,190.71-14.49,18.45-28.66,36.89-42.16,55.99-13.18,18.45-23.06,38.21-35.24,56.98-26.02,40.84-49.74,83-70.49,125.82-41.5,85.64-72.13,175.56-90.91,266.79-18.77,90.91-26.02,183.46-22.73,275.36,1.65,46.77,5.93,93.21,12.85,139.66,3.62,23.39,7.58,46.77,12.19,69.83,2.31,11.53,4.61,22.73,7.25,34.25,1.32,5.6,2.64,11.53,3.95,17.13,1.98,8.23,1.98,15.48,2.96,23.72,2.64,21.41,11.53,43.48,17.46,64.23,6.26,21.74,12.85,43.15,19.76,64.89,13.83,42.82,28.99,85.31,46.44,127.14,34.26,83.33,76.74,164.36,128.46,240.77,13.5,19.76,27.34,39.2,41.83,58.63,7.58,10.21,15.81,20.09,23.39,29.97,6.92,9.22,10.54,19.43,17.79,28.33,31.62,40.84,67.19,79.38,102.44,117.92,69.5,75.76,150.2,143.28,236.16,205.53,20.75,15.15,41.83,29.64,63.24,44.14,8.23,5.6,20.09-4.28,11.86-10.21-85.64-58.3-167.65-120.22-241.1-189.72-38.54-36.56-73.45-75.43-108.04-114.62-17.13-19.76-34.58-39.53-50.39-59.95-6.59-8.56-10.21-18.12-16.14-26.68-6.92-9.55-14.82-18.78-22.07-28.33-113.63-148.88-186.43-314.88-236.49-487.48-6.59-22.4-16.14-45.78-18.12-68.84-1.98-22.4-8.56-43.81-13.18-65.88-9.88-47.1-17.13-94.86-21.74-142.62-8.56-90.91-7.25-182.8,5.6-273.71,12.52-90.58,36.89-180.17,71.8-266.46,18.12-44.47,38.87-87.94,62.58-130.43,11.53-20.42,23.71-40.84,36.23-60.6,12.19-19.1,22.07-38.87,35.24-57.31,51.05-72.46,110.67-139.98,179.51-200.59,34.58-30.3,71.47-58.96,110.01-85.31,20.09-13.83,42.16-26.35,61.59-40.84,8.89-6.59,17.13-13.83,27.01-19.43,12.52-7.25,26.02-12.85,38.87-19.76,23.06-12.19,45.45-25.36,68.18-37.88,9.55-4.28.99-16.47-7.9-11.53h0Z"/>
    </g>
  </g>
</svg>