<?xml version="1.0" encoding="utf-8"?>
<!-- Generator: Adobe Adobe Illustrator 24.2.0, SVG Export Plug-In . SVG Version: 6.00 Build 0)  -->
<svg version="1.1" xmlns="http://www.w3.org/2000/svg" xmlns:xlink="http://www.w3.org/1999/xlink" x="0px" y="0px" width="2940px"
	 height="1590px" viewBox="0 0 2940 1590" style="enable-background:new 0 0 2940 1590;" xml:space="preserve">
<style type="text/css">
	.st0{fill:url(#SVGID_1_);}
	.st1{fill:#43A0CB;}
	.st2{opacity:0.3882;fill:url(#SVGID_2_);}
	.st3{opacity:0.3294;fill:url(#SVGID_3_);}
	.st4{opacity:0.3804;fill:url(#SVGID_4_);}
	.st5{opacity:0.6196;fill:url(#SVGID_5_);}
	.st6{opacity:0.3412;fill:url(#SVGID_6_);}
	.st7{fill:#8ECCE2;}
	.st8{opacity:0.8784;fill:url(#SVGID_7_);}
	.st9{opacity:0.8784;fill:url(#SVGID_8_);}
	.st10{opacity:0.8784;fill:url(#SVGID_9_);}
	.st11{opacity:0.8784;fill:url(#SVGID_10_);}
	.st12{opacity:0.8784;fill:url(#SVGID_11_);}
	.st13{opacity:0.6706;fill:url(#SVGID_12_);}
	.st14{fill:#317FB0;}
	.st15{opacity:0.4196;fill:#72A336;}
	.st16{opacity:0.4;fill:#72A336;}
	.st17{opacity:0.4706;fill:#72A336;}
	.st18{opacity:0.349;fill:#72A336;}
	.st19{opacity:0.1686;fill:#F7EB9C;}
	.st20{fill:#F7EB9C;}
	.st21{fill:#F7EB9C;stroke:#F6E88C;stroke-miterlimit:10;}
	.st22{fill:#44A0C8;}
	.st23{opacity:0.7294;fill:url(#SVGID_13_);}
	.st24{fill:url(#SVGID_14_);}
	.st25{fill:url(#SVGID_15_);}
	.st26{opacity:0.0902;fill:url(#SVGID_16_);}
</style>
<g id="BG">
	<linearGradient id="SVGID_1_" gradientUnits="userSpaceOnUse" x1="1470" y1="-60.3767" x2="1470" y2="1716.3783">
		<stop  offset="0" style="stop-color:#356AAB"/>
		<stop  offset="0.1216" style="stop-color:#3772A5"/>
		<stop  offset="0.3724" style="stop-color:#458893"/>
		<stop  offset="0.7269" style="stop-color:#6AAC6A"/>
		<stop  offset="1" style="stop-color:#8BCE39"/>
	</linearGradient>
	<path class="st0" d="M2940,1590c0-680.17,0-812.25,0-1590C1777.01,0,1131.53,0,0,0c0,678.86,0,1590,0,1590S1798.54,1590,2940,1590z
		"/>
</g>
<g id="Nubes_bg">
	<path class="st1" d="M2940,678.34c0-103.49-31.78-142.42-115.85-129.81c-84.07,12.61-150.03,98.6-140.42,183.07
		c-44.77-30.41-115.33,24.87-96.51,75.62c-70.63,32.64-124.68,99.14-142.18,174.96c-69.27-9.24-137.62,58.66-128.84,127.99
		c-91.13,127.78-179.85,326.42-212.9,479.85c746.73,0,836.7,0,836.7,0"/>
	<path class="st1" d="M2267.34,1221.2c-68.09-1.79-127.19-19.58-195.28-21.37c24.66-136.29-112.02-184.15-148.28-60.31
		c-44.32-44.32-99.17-41.13-135.48-30.03c0-203.49-183.33-183.3-229.32-80.82c-36.53-72.67-87.22-141.48-134.74-101.62
		c29.42-116.58-63.11-189.13-137.14-186.6c-71.54,2.44-195.52,86.27-144.82,209.31c-23.09-43.83-69.03-52.2-98.67-17.2
		c-29.64,35-32.94,106.24-6.79,146.46c-54.54-33.23-125.09,2.52-152.49,77.28c21.12,27.42,42.25,54.83,63.37,82.25
		c-50.18-15.89-106.07,14.34-136.1,73.59c-30.02,59.25-32.44,144.1-5.88,206.6c468.66,61.01,939.84,82.89,1410.31,65.48"/>
	<path class="st1" d="M371.53,937.1c9.39-37.54-4.79-79.93-34.88-104.26c-30.09-24.33-74.52-29.32-109.26-12.28
		c-5.65-40.55-68.35-57.12-93.29-24.64c-4.8-4.76-9.61-9.51-14.41-14.27c-2.89-18.49-23.22-32.24-41.45-28.04
		s-30.5,25.45-25.02,43.34C30.14,784.2,23.07,783.43,0,770.67c0,328.19,0,482.75,0,819.33c126.24,0,228.14,0,384.22,0"/>
</g>
<g id="Nubes_bg_highlights">
	<linearGradient id="SVGID_2_" gradientUnits="userSpaceOnUse" x1="22.9055" y1="862.4254" x2="386.4333" y2="862.4254">
		<stop  offset="0" style="stop-color:#F9EBAB"/>
		<stop  offset="1" style="stop-color:#BFE8A5"/>
	</linearGradient>
	<path class="st2" d="M372.26,957.92C425.9,826,316.33,778.79,226.35,815.47c-7.44-53.13-85.53-39.3-94.76-22.04
		c-20.56-57.9-56.88-44.42-72.87-26.24c23.43-7.71,53.52,14.96,38.69,38.65c-14.89-11.6-37.13-12.69-53.08-2.6
		c-15.95,10.09-24.5,30.64-20.41,49.07c75.7-34.39,139.85-32.67,228.79,93.52c12.99-19.18,38.67-28.75,61.04-22.76
		c22.38,5.99,39.83,27.11,41.51,50.21C362.02,965.64,376.24,967.04,372.26,957.92z"/>
	<linearGradient id="SVGID_3_" gradientUnits="userSpaceOnUse" x1="1130.9963" y1="1033.1693" x2="2155.489" y2="1033.1693">
		<stop  offset="0" style="stop-color:#F9EBAB"/>
		<stop  offset="1" style="stop-color:#BFE8A5"/>
	</linearGradient>
	<path class="st3" d="M1444.64,916.32c10.3-87.22-66.22-174.59-154.04-175.86c-87.82-1.27-166.85,83.83-159.08,171.32
		c37.27-28.62,139.62-9.77,158.3,93.69c34.36-26.39,88.33-22.41,118.47,8.72c68.84-40.92,170.89-4.31,198.02,71.05
		c64.11-14.78,135.02,37.9,139.38,103.54c46.52,17.39,93.03,34.79,139.55,52.18c19.83-42.79,95.7-37.32,109.18,7.88
		c55.11-11.03,115.75,22.33,135.94,74.78c-36.5,12.48-78.66-28.46-67.27-65.31c11.4-36.85,69.31-46.84,92.39-15.93
		c-44.3-12.4-78.05-55.63-79.33-101.61c-1.09-38.94-37-73.54-75.95-73.19s-74.22,35.61-74.6,74.56
		c-26.86-39.71-82.13-57.42-127.07-40.7c16.82-53.45-10.36-117.17-60.58-142.01s-117.36-7.8-149.65,37.99
		c2.79-26.28-27.83-49.8-52.51-40.33C1524.46,905.61,1449.82,882.29,1444.64,916.32z"/>
	<linearGradient id="SVGID_4_" gradientUnits="userSpaceOnUse" x1="2699.7468" y1="493.1478" x2="3043.8579" y2="879.7656">
		<stop  offset="0" style="stop-color:#F9EBAB"/>
		<stop  offset="0.2223" style="stop-color:#F7EAAD"/>
		<stop  offset="0.392" style="stop-color:#F0E8B2"/>
		<stop  offset="0.5444" style="stop-color:#E3E4BA"/>
		<stop  offset="0.6866" style="stop-color:#D1DFC5"/>
		<stop  offset="0.8216" style="stop-color:#BAD8D1"/>
		<stop  offset="0.9495" style="stop-color:#9CD0DD"/>
		<stop  offset="1" style="stop-color:#8ECCE2"/>
	</linearGradient>
	<path class="st4" d="M2940,607.43c-25.79-86.15-190.85-88.28-244.88,46.78c46.42-107.04,227.84-55.77,244.88,120.56
		C2940.07,773.6,2940.24,608.24,2940,607.43z"/>
	<linearGradient id="SVGID_5_" gradientUnits="userSpaceOnUse" x1="2632.9758" y1="714.8005" x2="2853.5566" y2="957.7342">
		<stop  offset="0" style="stop-color:#F9EBAB"/>
		<stop  offset="0.235" style="stop-color:#F7EAAD"/>
		<stop  offset="0.4043" style="stop-color:#F0E8B2"/>
		<stop  offset="0.5529" style="stop-color:#E4E4B9"/>
		<stop  offset="0.6897" style="stop-color:#D3DFC4"/>
		<stop  offset="0.8184" style="stop-color:#BCD8D0"/>
		<stop  offset="0.9393" style="stop-color:#9FD1DC"/>
		<stop  offset="1" style="stop-color:#8ECCE2"/>
	</linearGradient>
	<path style="opacity:0.3412;fill:url(#SVGID_5_);" d="M2685.83,731.33c-20.49-9.76-46.67-5.99-63.58,9.14
		c-16.91,15.13-23.55,40.73-16.12,62.17c26.34-12.31,58.12,1.38,79.14,21.46c21.02,20.08,35.62,46.11,56.54,66.3
		c54.05,1.82,108.11,3.64,162.16,5.46c-37.73-11.99-75.78-24.11-110.23-43.62c-34.45-19.51-65.49-47.2-82.1-83.14
		C2692.26,768.48,2677.08,745.89,2685.83,731.33z"/>
</g>
<g id="Nubes_medio">
	<g>
		<g>
			<path class="st7" d="M1765.91,1382.39c-29.49-2.01-58.99-4.03-88.48-6.04c-15.11-61.08-79.54-98.34-130.51-75.47
				c32.28-73.13,5.25-173.67-57.09-212.36c-62.34-38.68-149.15-8.78-183.35,63.15c-78.94-129.17-218.57-225.6-356.44-239.43
				c-19.53-40.83-40.72-80.79-69.55-113.05c-34.98-39.15-83.66-65.89-131.61-57.14c-47.95,8.74-90.74,61.04-84.93,117.11
				c-14.87-49.91-64.26-82.15-108.61-70.91s-77.75,64.46-73.44,117.04c-68.83-8.97-140.16,25.64-185.03,86.63
				c-7.73-19.87-24.94-35.17-43.87-35.54c-22.47-0.43-43.12,20.27-48.46,45.25C201.88,898.82,0,900.65,0,1042.14
				c0,339.48-3.3,413.3,0,547.86c120.43,0,189.27-2.94,343.24-14.31c13.33-0.98,25.62-6.67,36.88-15.97
				c2.34,0.17,4.67,0.35,7.01,0.51c35.37-6,71.25-3.53,106.78-0.42c31.51,2.33,63.02,4.67,94.48,7.65
				c20.58-0.34,37.86,0.58,50.5,16.38c121.75-13.9,247.41-15.81,368.82-1.16c68.14,8.22,248.61,7.67,252.57,7.32
				c138.27-12.25,465.91-3.2,537.9-0.59c30.69,1.11,61.4-4.01,92.12-4.14c11.31-0.05,22.62,0.29,33.91,0.97
				c2.8-3.3,4.46-6.82,4.92-10.55C1943.77,1455.95,1867.78,1406.37,1765.91,1382.39z"/>
		</g>
	</g>
	<g>
		<g>
			<path class="st7" d="M2746.29,1202.41c30.64-14.65,64.23-32.51,74.81-64.79c10.58-32.27-24.14-75.12-53.31-57.74
				c17.63-20.18,18.05-53.27,0.93-73.89c-17.12-20.62-49.72-26.3-72.8-12.68c-1.33-6.33-3.19-12.53-5.51-18.54
				c-0.06-41.58-22.86-83.96-61.14-101.31c-6.99-3.17-14.27-5.39-21.68-6.75c-80.1-367.34-485.5-71.06-345.95,57.28
				c-77.96-7.13-156.33,52.48-170.28,129.51c-0.95,5.23-1.58,10.48-1.92,15.75c-47.38,4.82-92.4,29.88-113.76,72.07
				c-31.53,62.28,8.44,152.83,77.82,160.52c0,0-197.33,23.33-250.34,67.58c-78.06,27.17-151.83,68.2-217.39,124.59
				c-137.34,118.14-241.13-4.37-391.95,95.99c580.45,0,991.45,0,1613.39,0c16.94,0.75,132.79,0,132.79,0c0-126.74,0-279.79,0-295.21
				C2892.43,1234.61,2823.32,1200.26,2746.29,1202.41z"/>
		</g>
	</g>
</g>
<g id="Nubes_Medio_Highlights">
	<linearGradient id="SVGID_6_" gradientUnits="userSpaceOnUse" x1="1184.1365" y1="596.1047" x2="406.5559" y2="1207.9713">
		<stop  offset="0" style="stop-color:#F9EBAB"/>
		<stop  offset="0.1351" style="stop-color:#F3E9B0"/>
		<stop  offset="0.3486" style="stop-color:#E2E4BB"/>
		<stop  offset="0.6139" style="stop-color:#C4DBCB"/>
		<stop  offset="0.918" style="stop-color:#9BCFDD"/>
		<stop  offset="1" style="stop-color:#8ECCE2"/>
	</linearGradient>
	<path style="opacity:0.8784;fill:url(#SVGID_6_);" d="M568.89,1100.69c-14.77-2.94-29.76-4.85-44.85-5.62
		C538.86,1097.35,553.89,1099.61,568.89,1100.69z"/>
	<linearGradient id="SVGID_7_" gradientUnits="userSpaceOnUse" x1="1565.8204" y1="829.3936" x2="580.8199" y2="1889.3538">
		<stop  offset="0" style="stop-color:#F9EBAB"/>
		<stop  offset="1" style="stop-color:#8ECCE2"/>
	</linearGradient>
	<path class="st8" d="M1550.02,1293.3c31.04-66.9-3.59-167.71-65.45-207.85c-61.86-40.14-135.76,0.84-184.2,56.45
		c-57.77-144.23-235.55-240.92-354.99-230.09c-4.23-91.2-100.35-185.74-190.51-171.42c-24.4,3.88-43.78,15.11-59.29,31.43
		c0.88,0.99,1.7,2.06,2.45,3.21c42.57,65.59-64.01,180.89-65.59,196.23c32.22-8.24,63.42,27.9,58.52,60.8
		c-4.9,32.9-35.55,57.17-67.84,65.12c-17.73,4.37-35.95,4.82-54.22,3.51c38.9,7.75,76.3,22.78,110.13,43.64
		c102.3-40.61,165.12,31.44,97.99,91.14c11.3,15.83,21.17,32.67,29.37,50.38c5.51-5.76,11.53-10.88,17.96-15.38
		c0.1-0.27,0.19-0.53,0.3-0.8c1.94-4.74,3.54-10.03,6.1-14.45c4.43-7.64,11.02-14.06,17.99-19.36c14.17-10.78,31.8-14.01,48.97-9.54
		c14,3.64,27.38,11.93,37.66,22.38c34.08,6.49,65.75,24.27,85.98,52.71c9.54-34.32,45.91-58.97,81.32-55.12
		c35.41,3.85,65.63,35.74,67.58,71.31c38.09-37.45,96.66,23.77,143.8,2.9c61.02-27.01,53.19,28.06,51.95,31.98
		c41.46-18.35,39.89-4.69,63.43,38.93c11.21,8.04,20.89,18.07,28.76,30.05c11.64,17.72,18.62,38.94,21.88,59.79
		c1.6,10.19,2.54,20.37,2.89,30.56c81.41-7.9,224.58,69.13,313.38,63.58C1809.88,1462.14,1655.25,1269.64,1550.02,1293.3z"/>
	<linearGradient id="SVGID_8_" gradientUnits="userSpaceOnUse" x1="701.1507" y1="1158.9323" x2="388.1725" y2="1290.7037">
		<stop  offset="0" style="stop-color:#F9EBAB"/>
		<stop  offset="0.1092" style="stop-color:#E5E5B9"/>
		<stop  offset="0.2967" style="stop-color:#C7DCCA"/>
		<stop  offset="0.4826" style="stop-color:#AFD5D5"/>
		<stop  offset="0.664" style="stop-color:#9DD0DD"/>
		<stop  offset="0.8389" style="stop-color:#92CDE1"/>
		<stop  offset="1" style="stop-color:#8ECCE2"/>
	</linearGradient>
	<path class="st9" d="M657.71,1261.72c-26.34-72.59-109.05-119.83-184.95-105.64c5.61,11.8,11.22,23.6,16.83,35.4
		c-29-23.5-68.97-32.83-105.38-24.59c86.78,32.39,168.4,78.58,240.85,136.3c10.72,8.54,28.67,5.37,35.82-6.33
		C668.03,1285.16,660.37,1269.05,657.71,1261.72z"/>
	<linearGradient id="SVGID_9_" gradientUnits="userSpaceOnUse" x1="684.8625" y1="730.8514" x2="443.5349" y2="972.1791">
		<stop  offset="0" style="stop-color:#F9EBAB;stop-opacity:0.8196"/>
		<stop  offset="0.4462" style="stop-color:#C6DBCB;stop-opacity:0.9001"/>
		<stop  offset="0.817" style="stop-color:#9ED0DC;stop-opacity:0.967"/>
		<stop  offset="1" style="stop-color:#8ECCE2"/>
	</linearGradient>
	<path class="st10" d="M644.57,828.06c-17.78,24.82-27,48.64-44.78,73.46c4.72-46.55-59.17-84.59-102.04-65.85
		C552.14,759.74,615.64,784.33,644.57,828.06z"/>
	<linearGradient id="SVGID_10_" gradientUnits="userSpaceOnUse" x1="2169.2317" y1="987.9118" x2="1843.6564" y2="1643.8856">
		<stop  offset="0" style="stop-color:#F9EBAB"/>
		<stop  offset="0.0598" style="stop-color:#F2E9B0"/>
		<stop  offset="0.5084" style="stop-color:#BED9CF"/>
		<stop  offset="0.8336" style="stop-color:#9CD0DD"/>
		<stop  offset="1" style="stop-color:#8ECCE2"/>
	</linearGradient>
	<path class="st11" d="M2090.88,1068.62c-34.87,2.18-76.32,25.09-100.45,50.35c-24.13,25.26-35.48,59.7-21.87,100.09
		c2.92,8.67-11.88-17.01,213.62-17.01c-31.47-1.09-63.04-17.64-81.15-43.39C2082.9,1132.91,2077.65,1098.56,2090.88,1068.62z"/>
	<linearGradient id="SVGID_11_" gradientUnits="userSpaceOnUse" x1="2673.6594" y1="741.3284" x2="2301.7183" y2="1805.9269">
		<stop  offset="0" style="stop-color:#F9EBAB"/>
		<stop  offset="1" style="stop-color:#8ECCE2"/>
	</linearGradient>
	<path style="opacity:0.6706;fill:url(#SVGID_11_);" d="M2249.85,932.93c-25.04-10.99-56.13-6.6-77.14,10.91
		c-21.01,17.51-30.94,47.29-24.65,73.9c23.85-4.01,47.7-8.02,71.55-12.04c-15.95,24.94-16.67,58.83-1.79,84.42
		c14.88,25.6,44.67,41.75,74.24,40.23c-9.85-37.49,19.24-80.27,57.72-84.91c38.49-4.64,76.9,30.01,76.24,68.77
		c0.77-11.05,11.09-20.56,22.16-20.43s21.17,9.88,21.68,20.94c52.17-4.95,106.14,20.07,136.08,63.08
		c-3.21-16.39,5.03-34.39,19.53-42.67c14.51-8.28,34.2-6.21,46.67,4.89c62.27,55.44,67.72,163.01,11.37,224.46
		c52.2-34.15,126.57-29.74,174.37,10.34c4.27-10.74,24.55-5.24,22.81,6.18c39.46-31.81,30.32-98.95-5.9-134.4
		c-36.22-35.45-89.19-46.76-139.4-53.67c35.7,12.95,80.03-10.6,89.28-47.44c9.25-36.83-14.77-66.2-52.36-71.65
		c39.98-75.13-49.47-107.73-83.51-86.29c17.63-60.61-41.03-109.86-81.21-120.88c-6.81-210.66-320.51-236.81-340.25-54.02
		c-5.36,49.66,21.17,102.03,70.63,95.07C2310.64,917.57,2283.3,927.39,2249.85,932.93z"/>
</g>
<g id="Nubes_frente">
	<path class="st14" d="M919.46,1385.35c-16.7-128.27-205.23-341.55-416.53-256.81c-113.53,45.53-187.8,186.01-167.15,316.12
		c-13.38-38.42-49.65-65.91-87.29-66.17c-37.64-0.26-74.22,26.73-88.05,64.96c-32.6-36.94-87.38-47.86-129.83-25.89
		c-6.71,3.47-7.99,4.73-13.85,9.64c0,15.2-0.72,69.19,0,72.12c19.61-1.08,1132.11,76.37,1263.66,76.37
		C1260.78,1370.61,956.72,1265.81,919.46,1385.35z"/>
	<path class="st14" d="M2700.7,1501.31c-42.35-137.37-160.99-246.41-293.78-262.11c-149.61-17.68-304.47,83.72-360.55,236.1
		c-23.21-56.6-90.02-86.48-142.95-63.92c-40.36,17.2-66.74,42.73-69.44,89.47C1847.34,1500.85,2693.41,1501.31,2700.7,1501.31z"/>
	<path class="st14" d="M2940,1539.87c-10.39-21.01-36.1-19.24-46.2,0.54c-35.6-175.36-233.83-126.59-254.92-39.13
		c-163.96-86.17-402.33-78.72-633.37-10.05c-38.61-34.13-130.74-36.84-170.06-3.53c-37.61-42.53-72.22-54.45-128.48-62.06
		s-119.54,19.89-140.17,72.78c-20.63,52.89-19.25,92.24,37.52,91.57c0,0,873.82,0,1335.68,0c0.21-0.79-0.19-2.06,0-2.83
		C2939.51,1585.51,2940,1539.87,2940,1539.87z"/>
	<path class="st14" d="M1634.47,1590.33c-118.18-104.55-204.66-107.79-356.86-23.46c-137.54-233.03-399.82-96.09-665.74-96.09
		c-51.93-87.98-187.29-48.92-283.74-15.22c-96.45,33.7-171.94,33.25-157.78,134.43C170.35,1590,1348.71,1590.33,1634.47,1590.33z"/>
	<path class="st14" d="M216.87,1479.74c29.82-14.34,119.69,110.42,86.6,110.42C26.21,1590.17,0,1590,0,1590
		c0-45.91,0-170.25,0-293.17c0-29.63,112.74-66.06,157.9,143.85"/>
</g>
<g id="Nubes_frente_highlights">
	<path class="st15" d="M904.07,1356.19c-39.39,17.77-78.78,35.54-118.17,53.31c-59.83-138.82-206.34-235.62-357.51-236.19
		c77.84-59.15,185.69-76.43,278.11-44.55S873.2,1240.72,904.07,1356.19z"/>
	<path class="st15" d="M1208.77,1545.95c24.34,0,65.03,7.37,68.31,7.37c0-59.71-70.73-129.68-103.2-154.68
		c-75.26-57.95-207.94-90.32-250.3-23.56C1037.6,1328.21,1182.55,1429.89,1208.77,1545.95z"/>
	<path class="st15" d="M2681.37,1451.26c-37.23-67.41-61.23-112.8-124.15-157.19c-62.92-44.39-127.24-63.82-203.7-54.64
		c-76.46,9.18-183.54,39.54-215.99,109.37c219.53-37.68,392.05,45.18,468.73,121.86
		C2641.56,1444.43,2682.72,1441.36,2681.37,1451.26z"/>
	<path class="st16" d="M160.45,1443.45C157.4,1365.98,59.71,1201.3,0,1299.82c58.41,8.58,115.16,82.21,68.47,132.25
		c55.27,7.69,85.55,25.55,107.38,76.9c50.62-54.26,124.26-59.43,152.32-16.22C320.94,1308.75,160.45,1393.89,160.45,1443.45z"/>
	<path class="st17" d="M1548.95,1530.05c-81.88-45.35-198.13-22.51-261.62,46.25c102.84-46.76,191.42-29.1,303.32-1.78
		C1590.64,1574.52,1561.41,1536.95,1548.95,1530.05z"/>
	<path class="st18" d="M1586.64,1469.16c-3.25,3.65-6.27,7.44-9.05,11.33c2.53-1.34,5.24-2.54,7.97-3.21
		c0.69-0.29,1.38-0.56,2.07-0.84C1586.96,1474.04,1586.63,1471.56,1586.64,1469.16z"/>
	<path class="st18" d="M2043.06,1468c-19.58-51.65-74.59-64.23-122.08-59.24c-47.49,5-75.18,32.32-85.53,78.94
		c-80.77-80.77-163.81-78.52-218.06-44.47c13.71-2.21,27.79-1.26,41.53,0.89c15.48,2.43,30.11,7.66,44.46,13.82
		c3.65,1.57,7.17,3.3,10.58,5.18c4.9,1.28,9.71,2.9,14.42,4.85c18.41,7.66,34.67,18.87,48.21,33.58
		c8.45,9.18,14.81,19.97,20.13,31.22c1.53,3.24,3.06,6.64,4.45,10.15c10.5-1.76,22.53-2.22,37.42,0.16
		c1.22-6.99,3.63-13.84,6.52-20.54c0.71-1.64,1.42-3.29,2.21-4.89c0.05-0.09,0.09-0.19,0.13-0.29c0.91-2.91,0.56-1.27,0,0
		c-0.13,0.4-0.27,0.87-0.45,1.46c0.98-3.26,2.63-6.5,4.13-9.56c1.81-3.69,4-7.13,6.48-10.4c12.85-16.94,29.81-27.02,51.07-29.22
		c17.34-1.79,36.7,3.75,50.69,14.04c8.94,6.58,16.37,14.52,22.79,23.31c7.9,8.74,14.81,18.58,20.25,28.77
		c1.55,2.91,2.96,5.88,4.29,8.9c1.01,2.4,2.02,4.79,3.03,7.19c0,0.01,0.01,0.02,0.01,0.03c-0.04-0.2,0.11,0,0.48,0.68
		c0.38,0.64,0.74,1.3,1.07,1.97c0.29,0.57,0.56,1.14,0.83,1.71c7.85-4.41,13.39-9.04,15.2-13.15
		C2034.89,1525.9,2048.59,1482.58,2043.06,1468z"/>
</g>
<g id="Luna">
	<ellipse class="st19" cx="2521.65" cy="357.42" rx="107" ry="106"/>
	<path class="st20" d="M2603.37,425.83c-22.81,32.27-87.31,49.41-130.69,25.86c119.27,11.7,180.13-102.22,93.8-187.74
		C2601.65,276.33,2658.41,347.97,2603.37,425.83z"/>
</g>
<g id="Estrellas">
	<circle class="st21" cx="539.61" cy="482.91" r="6.85"/>
	<circle class="st21" cx="170.35" cy="662.03" r="5.5"/>
	<circle class="st21" cx="1358" cy="201.62" r="13.5"/>
	<circle class="st21" cx="1609.32" cy="883.51" r="5"/>
	<circle class="st21" cx="2213.66" cy="471.92" r="8.5"/>
	<circle class="st21" cx="2785.2" cy="423.78" r="13.5"/>
	<circle class="st21" cx="942.16" cy="610.25" r="14"/>
	<circle class="st21" cx="1527.34" cy="393.21" r="2.5"/>
	<circle class="st21" cx="121.86" cy="273.56" r="5.5"/>
	<ellipse class="st21" cx="372.81" cy="554.82" rx="1.31" ry="1.22"/>
	<circle class="st21" cx="2040.8" cy="786.77" r="10"/>
	<ellipse class="st21" cx="2361.62" cy="671.94" rx="4.87" ry="8.67"/>
	<circle class="st21" cx="2627.32" cy="566.62" r="1.5"/>
	<circle class="st21" cx="32.48" cy="320.32" r="2.75"/>
	<ellipse class="st21" cx="1107.99" cy="369.99" rx="7" ry="6"/>
	<circle class="st21" cx="1437.1" cy="685.62" r="5"/>
	<circle class="st21" cx="2364.05" cy="101.43" r="2.43"/>
</g>
<g id="Nubes_top">
	<path class="st22" d="M201.04,0c60.19,12.25-188.94-27.75-7.16,58.12c93.66,44.24-79.5,98.47-193.89,163.77
		c0.18,4.24,0.12,75.03,0,82.26c183.56-56.91,348.25-115.13,355.66-80.12c5.81,27.46-168.09,116-236.86,184.81
		c130.11-4.14,229.49-119.78,341.52-172.18c68.73-32.14,135.96-22.98,215.23-36.62c79.27-13.64,139.36-54.67,123.32-113.48
		C881.04,96.44,968.69,54.59,990-4.71L201.04,0z"/>
	<linearGradient id="SVGID_12_" gradientUnits="userSpaceOnUse" x1="519.9438" y1="223.8332" x2="-8.7562" y2="1091.7975">
		<stop  offset="0" style="stop-color:#45A1C9"/>
		<stop  offset="0.1968" style="stop-color:#4AA4CB"/>
		<stop  offset="0.4441" style="stop-color:#58ACCF"/>
		<stop  offset="0.7182" style="stop-color:#6FBAD7"/>
		<stop  offset="1" style="stop-color:#8ECCE2"/>
	</linearGradient>
	<path style="opacity:0.7294;fill:url(#SVGID_12_);" d="M629.81,182.04C563.6,200.1,288.65,387.52,232.91,419.7
		c46.54-3.6,131.47-25.35,106.25,15.2C247.68,582.04-22.61,619.49-0.32,675.49c31.05,78,757.37-343.23,703.41-343.23
		C394.99,360.18,661.76,173.33,629.81,182.04z"/>
	<linearGradient id="SVGID_13_" gradientUnits="userSpaceOnUse" x1="365.7797" y1="379.3946" x2="98.3996" y2="818.3512">
		<stop  offset="0" style="stop-color:#45A1C9"/>
		<stop  offset="0.1968" style="stop-color:#4AA4CB"/>
		<stop  offset="0.4441" style="stop-color:#58ACCF"/>
		<stop  offset="0.7182" style="stop-color:#6FBAD7"/>
		<stop  offset="1" style="stop-color:#8ECCE2"/>
	</linearGradient>
	<path style="fill:url(#SVGID_13_);" d="M241.02,601.18c21.13-39.06,42.25-78.13,63.38-117.19
		c-56.39,48.38-112.77,96.75-169.16,145.13c46.05-2.39,87.61-29.48,119.69-62.61s56.77-72.57,85.64-108.52
		c28.87-35.96,63.57-69.51,107.19-84.46c-24.49-14.06-56.9-2.31-76.49,18.03c-19.59,20.34-30.14,47.42-43.38,72.36
		s-31.48,49.72-58.34,58.44"/>
	<linearGradient id="SVGID_14_" gradientUnits="userSpaceOnUse" x1="369.1385" y1="306.9938" x2="259.1625" y2="487.5408">
		<stop  offset="0" style="stop-color:#4397BC"/>
		<stop  offset="0.1969" style="stop-color:#489ABE"/>
		<stop  offset="0.4442" style="stop-color:#56A4C5"/>
		<stop  offset="0.7183" style="stop-color:#6FB5D1"/>
		<stop  offset="1" style="stop-color:#8ECCE2"/>
	</linearGradient>
	<path class="st24" d="M354.19,389.28c-29.29,5.18-58.58,10.37-87.87,15.55c48.18-31.79,96.36-63.59,144.55-95.38
		C389.55,337.8,368.24,366.13,354.19,389.28z"/>
	<linearGradient id="SVGID_15_" gradientUnits="userSpaceOnUse" x1="326.5338" y1="70.3808" x2="16.8224" y2="578.8325">
		<stop  offset="0" style="stop-color:#8ECCE2"/>
		<stop  offset="1" style="stop-color:#8ECCE2"/>
	</linearGradient>
	<path style="opacity:0.0902;fill:url(#SVGID_15_);" d="M0,304.15c119.63-57.88,237.34-87.69,370.08-94.15
		c-81.47,63.31-162.95,126.63-244.42,189.94c138.44-58.23,266.87-140.19,377.99-241.23c19.77-17.98,0.44-58.26-25.96-54.09
		c-95.43,15.11-190.86,30.21-286.29,45.32c33.48,7.65,70.08-16.03,79.49-49.05c9.41-33.02-7.3-70.78-36.66-88.58
		s-68.6-16.03-97.97,1.75c31.38,4.9,79.95,35.8,83.81,67.33s-37.31,60.95-66.58,73.28c-61.5,25.9-91.94,44.81-153.43,70.71"/>
</g>
</svg>
