<?xml version="1.0" encoding="utf-8"?>
<!-- Generator: Adobe Illustrator 27.6.1, SVG Export Plug-In . SVG Version: 6.00 Build 0)  -->
<svg version="1.1" id="Layer_1" xmlns="http://www.w3.org/2000/svg" xmlns:xlink="http://www.w3.org/1999/xlink" x="0px" y="0px"
	 viewBox="0 0 4930 8192" style="enable-background:new 0 0 4930 8192;" xml:space="preserve">
<style type="text/css">
	.st0{fill:url(#SVGID_1_);}
	.st1{display:none;}
	.st2{display:inline;opacity:0.8588;fill:#F9EBAB;enable-background:new    ;}
	
		.st3{display:inline;opacity:0.8588;fill:url(#SVGID_00000008113868460812454110000013994745342190839182_);enable-background:new    ;}
	
		.st4{display:inline;opacity:0.349;fill:url(#SVGID_00000052099009983250208560000000663661082887529397_);enable-background:new    ;}
	
		.st5{display:inline;opacity:0.349;fill:url(#SVGID_00000011025705395717363920000015155080946340958376_);enable-background:new    ;}
	
		.st6{display:inline;opacity:0.349;fill:url(#SVGID_00000155854764050860463390000011640262231421363590_);enable-background:new    ;}
	
		.st7{display:inline;opacity:0.349;fill:url(#SVGID_00000036210531739260734790000016943288188077852547_);enable-background:new    ;}
	.st8{display:inline;}
	.st9{fill:url(#SVGID_00000147195080848864312770000012378644072269411459_);}
	.st10{fill:#C8E1E7;}
	
		.st11{display:inline;opacity:0.8784;fill:url(#SVGID_00000134224041952185438170000014466659223374804125_);enable-background:new    ;}
	
		.st12{display:inline;opacity:0.8784;fill:url(#SVGID_00000146473010801124895660000006192084530878700475_);enable-background:new    ;}
	
		.st13{display:inline;opacity:0.8784;fill:url(#SVGID_00000034067230757999422670000009780504648384308406_);enable-background:new    ;}
	
		.st14{display:inline;opacity:0.8784;fill:url(#SVGID_00000000207837499765352070000005292005522721349250_);enable-background:new    ;}
	
		.st15{display:inline;opacity:0.8784;fill:url(#SVGID_00000150079076344036941530000003524583460940970628_);enable-background:new    ;}
	
		.st16{display:inline;opacity:0.6706;fill:url(#SVGID_00000071522918055338970560000001785849771519134080_);enable-background:new    ;}
	.st17{display:inline;fill:#67AFD3;}
	.st18{display:inline;opacity:0.4196;fill:#C8E1E7;enable-background:new    ;}
	.st19{display:inline;opacity:0.4;fill:#C8E1E7;enable-background:new    ;}
	.st20{display:inline;opacity:0.4706;fill:#67AFD3;enable-background:new    ;}
	.st21{display:inline;opacity:0.349;fill:#72A336;enable-background:new    ;}
	.st22{display:inline;opacity:0.349;fill:#C8E1E7;enable-background:new    ;}
	.st23{display:inline;fill:#FFFFFF;stroke:#FFFFFF;stroke-width:0.8835;stroke-miterlimit:8.8346;}
	.st24{display:inline;fill:#C8E1E7;}
	
		.st25{display:inline;opacity:0.7294;fill:url(#SVGID_00000065795833403289695080000018438548395500670113_);enable-background:new    ;}
	.st26{display:inline;fill:url(#SVGID_00000134958516039332594140000010564517199358516363_);}
	.st27{display:inline;fill:url(#SVGID_00000121981078098542117630000004627453529204902804_);}
	
		.st28{display:inline;opacity:0.2118;fill:url(#SVGID_00000147910121555662737570000012544668666411945621_);enable-background:new    ;}
	.st29{fill:#FFFFFF;stroke:#67AFD3;stroke-width:0.8835;stroke-miterlimit:8.8346;}
</style>
<g id="BG">
	
		<linearGradient id="SVGID_1_" gradientUnits="userSpaceOnUse" x1="2224.2659" y1="9852.6846" x2="2224.2659" y2="-1764.2397" gradientTransform="matrix(0.8835 0 0 -0.8835 499.9432 8155.0381)">
		<stop  offset="9.106862e-02" style="stop-color:#8ECCE2"/>
		<stop  offset="1" style="stop-color:#67AFD3"/>
	</linearGradient>
	<path class="st0" d="M4642.7,8192c0-3504.5,0-4184.6,0-8192C2919.8,0,1963.5,0,287.3,0c0,3497.8,0,8192,0,8192
		S2951.7,8192,4642.7,8192z"/>
</g>
<g id="Nubes_bg" class="st1">
	<path class="st2" d="M2884.6,6184.7c0-91.4-28.1-125.8-102.4-114.7c-74.3,11.1-132.5,87.1-124,161.8c-39.6-26.9-101.9,22-85.3,66.8
		c-62.4,28.8-110.2,87.6-125.6,154.6c-61.2-8.1-121.6,51.9-113.8,113.1c-80.5,112.9-158.9,288.4-188.1,423.9
		c659.7,0,739.2,0,739.2,0"/>
	<path class="st2" d="M2290.3,6664.3c-60.2-1.6-112.4-17.3-172.5-18.9c21.8-120.4-98.9-162.7-131-53.3
		c-39.1-39.1-87.6-36.3-119.7-26.5c0-179.8-161.9-161.9-202.6-71.4c-32.2-64.2-77-125-119-89.8c26-103-55.7-167.1-121.1-164.9
		c-63.2,2.1-172.7,76.2-127.9,184.9c-20.4-38.7-61-46.1-87.2-15.2c-26.2,30.9-29.1,93.8-6,129.4c-48.1-29.3-110.5,2.2-134.7,68.3
		c18.6,24.2,37.3,48.4,56,72.6c-44.3-14-93.7,12.6-120.2,65c-26.5,52.3-28.6,127.3-5.2,182.5c414.1,53.9,830.3,73.2,1245.9,57.9"/>
	
		<linearGradient id="SVGID_00000000925219754282668450000000943525255814514351_" gradientUnits="userSpaceOnUse" x1="149.8869" y1="1946.5856" x2="-152.8238" y2="1613.604" gradientTransform="matrix(0.8835 0 0 -0.8835 499.9432 8155.0381)">
		<stop  offset="0" style="stop-color:#F9EBAB"/>
		<stop  offset="1" style="stop-color:#F9ECAC"/>
	</linearGradient>
	
		<path style="display:inline;opacity:0.8588;fill:url(#SVGID_00000000925219754282668450000000943525255814514351_);enable-background:new    ;" d="
		M615.5,6413.3c8.3-33.1-4.2-70.6-30.8-92.1c-26.6-21.6-65.8-25.9-96.6-10.9c-4.9-35.8-60.4-50.4-82.4-21.7
		c-4.2-4.2-8.5-8.4-12.7-12.6c-2.6-16.3-20.5-28.4-36.6-24.7c-16.1,3.7-26.9,22.5-22.1,38.3c-20.4-11.2-26.6-11.9-47-23.1
		c0,290,0,426.4,0,723.8c111.5,0,201.5,0,339.4,0"/>
</g>
<g id="Nubes_bg_highlights" class="st1">
	
		<linearGradient id="SVGID_00000158747277739899343770000018293073438533497493_" gradientUnits="userSpaceOnUse" x1="-217.8579" y1="2046.1327" x2="145.7251" y2="2046.1327" gradientTransform="matrix(0.8835 0 0 -0.8835 499.9432 8155.0381)">
		<stop  offset="0" style="stop-color:#FFFFFF"/>
		<stop  offset="1" style="stop-color:#FFFFFF"/>
	</linearGradient>
	
		<path style="display:inline;opacity:0.349;fill:url(#SVGID_00000158747277739899343770000018293073438533497493_);enable-background:new    ;" d="
		M616.2,6431.7c47.4-116.5-49.4-158.2-128.9-125.9c-6.5-46.9-75.5-34.7-83.8-19.4c-18.2-51.2-50.3-39.2-64.4-23.1
		c20.7-6.8,47.3,13.3,34.2,34.2c-13.2-10.2-32.8-11.2-46.9-2.3c-14.1,8.9-21.6,27-18,43.4c66.9-30.4,123.6-28.9,202.1,82.6
		c11.5-17,34.2-25.4,53.9-20.1c19.8,5.3,35.2,23.9,36.7,44.4C607.1,6438.5,619.6,6439.7,616.2,6431.7z"/>
	
		<linearGradient id="SVGID_00000085948909810731979940000009263300264222311101_" gradientUnits="userSpaceOnUse" x1="890.2494" y1="1875.7386" x2="1914.7656" y2="1875.7386" gradientTransform="matrix(0.8835 0 0 -0.8835 499.9432 8155.0381)">
		<stop  offset="0" style="stop-color:#FFFFFF"/>
		<stop  offset="1" style="stop-color:#FFFFFF"/>
	</linearGradient>
	
		<path style="display:inline;opacity:0.349;fill:url(#SVGID_00000085948909810731979940000009263300264222311101_);enable-background:new    ;" d="
		M1547.2,6397.3c9.1-77-8.7-144-119.7-157.7c-77-9.5-147.4,74-140.6,151.3c33-25.3,123.3-8.7,139.9,82.8
		c30.4-23.3,78-19.8,104.7,7.7c60.8-36.1,151-3.8,174.9,62.8c56.6-13.1,119.3,33.5,123.2,91.4c41.1,15.4,82.2,30.7,123.3,46.1
		c17.5-37.8,84.5-33,96.5,7c48.7-9.7,102.3,19.7,120.1,66.1c-32.2,11-69.5-25.2-59.5-57.7c10.1-32.5,61.2-41.3,81.6-14
		c-39.1-11-69-49.1-70.1-89.8c-1-34.4-32.7-64.9-67.1-64.7c-34.4,0.3-65.6,31.5-65.9,65.9c-23.8-35.1-80.7-43.9-120.3-29.1
		c4.7-45.8-12.7-104.9-57.2-126.8c-44.4-21.9-126.1-7.2-148.1,52.4C1666.4,6448.8,1588.7,6376.4,1547.2,6397.3z"/>
	
		<linearGradient id="SVGID_00000178203251833302886460000006635174469145417143_" gradientUnits="userSpaceOnUse" x1="2459.0095" y1="2415.4326" x2="2803.1206" y2="2028.8149" gradientTransform="matrix(0.8835 0 0 -0.8835 499.9432 8155.0381)">
		<stop  offset="0" style="stop-color:#FFFFFF"/>
		<stop  offset="0.2568" style="stop-color:#FFFEFC"/>
		<stop  offset="0.4528" style="stop-color:#FEFCF4"/>
		<stop  offset="0.6287" style="stop-color:#FDF9E5"/>
		<stop  offset="0.7928" style="stop-color:#FBF4D1"/>
		<stop  offset="0.9473" style="stop-color:#FAEEB7"/>
		<stop  offset="1" style="stop-color:#F9ECAC"/>
	</linearGradient>
	
		<path style="display:inline;opacity:0.349;fill:url(#SVGID_00000178203251833302886460000006635174469145417143_);enable-background:new    ;" d="
		M2884.6,6122c-22.8-76.2-168.7-78-216.4,41.3c41-94.5,201.3-49.3,216.4,106.5C2884.7,6268.9,2884.8,6122.8,2884.6,6122z"/>
	
		<linearGradient id="SVGID_00000091728636796026553660000018374802314359843741_" gradientUnits="userSpaceOnUse" x1="2388.1318" y1="2201.4268" x2="2614.5874" y2="1952.0228" gradientTransform="matrix(0.8835 0 0 -0.8835 499.9432 8155.0381)">
		<stop  offset="0" style="stop-color:#FFFFFF"/>
		<stop  offset="0.2695" style="stop-color:#FFFEFC"/>
		<stop  offset="0.4636" style="stop-color:#FEFCF4"/>
		<stop  offset="0.6341" style="stop-color:#FDF9E6"/>
		<stop  offset="0.7909" style="stop-color:#FCF5D3"/>
		<stop  offset="0.9371" style="stop-color:#FAEFB9"/>
		<stop  offset="1" style="stop-color:#F9ECAC"/>
	</linearGradient>
	
		<path style="display:inline;opacity:0.349;fill:url(#SVGID_00000091728636796026553660000018374802314359843741_);enable-background:new    ;" d="
		M2657.5,6231.2c-16.2-11.9-43-7.6-59.2,4.2c-5.2,3.8-24.5,20-24.5,36c23.2-10.9,67.2,24.2,85.8,42c18.6,17.8,31.5,40.7,49.9,58.6
		c47.8,1.6,95.5,3.2,143.3,4.9c-33.3-10.6-67-21.3-97.4-38.5c-30.4-17.2-57.9-41.7-72.5-73.4
		C2665.8,6264.4,2649.7,6244.1,2657.5,6231.2z"/>
</g>
<g id="Nubes_medio" class="st1">
	<g class="st8">
		<g>
			
				<linearGradient id="SVGID_00000146463601477909944280000005920703905561560511_" gradientUnits="userSpaceOnUse" x1="459.3119" y1="1240.7146" x2="-231.2547" y2="258.2614" gradientTransform="matrix(0.8835 0 0 -0.8835 499.9432 8155.0381)">
				<stop  offset="0" style="stop-color:#C9E2E8"/>
				<stop  offset="1" style="stop-color:#F9ECAC"/>
			</linearGradient>
			<path style="fill:url(#SVGID_00000146463601477909944280000005920703905561560511_);" d="M1847.4,6806.7
				c-26.1-1.8-52.1-3.5-78.2-5.3c-13.3-54-70.2-86.8-115.3-66.7c28.5-64.6,4.6-153.5-50.4-187.6c-55-34.2-131.8-7.8-161.9,55.8
				c-69.7-114.1-193.1-199.3-314.9-211.5c-17.2-36-36-71.4-61.4-99.8c-30.9-34.6-73.9-58.2-116.3-50.4c-42.4,7.7-80.1,53.9-75,103.5
				c-13.2-44.1-56.8-72.6-95.9-62.6c-39.1,10-68.7,57-64.8,103.4c-60.8-8-123.9,22.6-163.4,76.5c-6.8-17.6-22-31.1-38.8-31.4
				c-19.9-0.4-38.1,17.9-42.8,39.9c-2.5-90.9-180.8-89.2-180.8,35.7c0,299.9-2.9,365.1,0,484c106.4,0,167.2-2.6,303.2-12.6
				c11.8-0.9,22.6-5.9,32.6-14.1c2,0.2,4.2,0.3,6.2,0.4c31.3-5.3,62.9-3.1,94.4-0.4c27.8,2,55.7,4.2,83.5,6.8
				c18.2-0.3,33.5,0.5,44.6,14.5c107.6-12.3,218.6-14,325.8-1.1c60.2,7.2,219.6,6.8,223.2,6.4c122.2-10.8,411.6-2.8,475.2-0.5
				c27.1,1,54.2-3.5,81.4-3.6c10-0.1,20,0.3,29.9,0.9c2.5-2.9,4-6,4.3-9.4C2004.5,6871.7,1937.4,6827.9,1847.4,6806.7z"/>
		</g>
	</g>
	<g class="st8">
		<g>
			<path class="st10" d="M2713.5,6647.7c27-13,56.7-28.7,66.1-57.2s-21.3-66.3-47.1-51c15.5-17.8,16-47.1,0.8-65.3
				c-15.2-18.2-43.9-23.2-64.3-11.2c-1.1-5.6-2.8-11-4.9-16.3c-0.1-36.8-20.2-74.2-54-89.5c-6.2-2.8-12.6-4.8-19.2-6
				c-70.8-324.5-428.9-62.8-305.6,50.6c-68.9-6.3-138.1,46.4-150.5,114.4c-0.8,4.6-1.4,9.3-1.7,14c-41.9,4.2-81.6,26.4-100.5,63.7
				c-27.8,55,7.4,135,68.7,141.8c0,0-174.3,20.6-221.1,59.7c-69,24-134.1,60.3-192.1,110.1c-121.3,104.3-213-3.9-346.2,84.8
				c512.8,0,875.9,0,1425.4,0c14.9,0.7,117.3,0,117.3,0c0-111.9,0-247.2,0-260.8C2842.6,6676.2,2781.5,6645.9,2713.5,6647.7z"/>
		</g>
	</g>
</g>
<g id="Nubes_Medio_Highlights" class="st1">
	
		<linearGradient id="SVGID_00000043458602853780514820000013406909231164635813_" gradientUnits="userSpaceOnUse" x1="943.4362" y1="2312.4358" x2="165.8556" y2="1700.5692" gradientTransform="matrix(0.8835 0 0 -0.8835 499.9432 8155.0381)">
		<stop  offset="0" style="stop-color:#F9EBAB"/>
		<stop  offset="0.1351" style="stop-color:#F3E9B0"/>
		<stop  offset="0.3486" style="stop-color:#E2E4BB"/>
		<stop  offset="0.6139" style="stop-color:#C4DBCB"/>
		<stop  offset="0.918" style="stop-color:#9BCFDD"/>
		<stop  offset="1" style="stop-color:#8ECCE2"/>
	</linearGradient>
	
		<path style="display:inline;opacity:0.8784;fill:url(#SVGID_00000043458602853780514820000013406909231164635813_);enable-background:new    ;" d="
		M789.9,6557.9c-13.1-2.6-26.3-4.2-39.6-4.9C763.4,6554.9,776.6,6556.9,789.9,6557.9z"/>
	
		<linearGradient id="SVGID_00000000192472577109691100000005760848458204529076_" gradientUnits="userSpaceOnUse" x1="1309.9689" y1="2092.084" x2="465.8453" y2="1102.4183" gradientTransform="matrix(0.8835 0 0 -0.8835 499.9432 8155.0381)">
		<stop  offset="0" style="stop-color:#FFFFFF"/>
		<stop  offset="0.1752" style="stop-color:#FEFDF8"/>
		<stop  offset="0.4512" style="stop-color:#FDF9E4"/>
		<stop  offset="0.7917" style="stop-color:#FBF1C3"/>
		<stop  offset="1" style="stop-color:#F9ECAC"/>
	</linearGradient>
	
		<path style="display:inline;opacity:0.8784;fill:url(#SVGID_00000000192472577109691100000005760848458204529076_);enable-background:new    ;" d="
		M1656.6,6728c27.4-59.1-3.2-148.2-57.8-183.6c-54.6-35.4-120,0.7-162.7,49.8c-51.1-127.4-208.1-212.8-313.6-203.3
		c-3.7-80.6-88.6-164.1-168.3-151.4c-21.6,3.4-38.7,13.3-52.4,27.7c0.8,0.9,1.5,1.9,2.2,2.8c37.6,58-56.5,159.8-58,173.3
		c28.4-7.2,56,24.6,51.7,53.7c-4.3,29.1-31.4,50.5-59.9,57.5c-15.6,3.9-31.8,4.2-47.9,3.1c34.4,6.9,67.4,20.1,97.3,38.5
		c90.4-35.9,145.9,27.7,86.6,80.5c10,14,18.7,28.9,26,44.5c4.9-5.1,10.2-9.6,15.9-13.6c0.1-0.3,0.2-0.4,0.3-0.7
		c1.7-4.2,3.1-8.8,5.4-12.7c3.9-6.7,9.7-12.5,15.9-17.1c12.5-9.5,28.1-12.4,43.3-8.4c12.4,3.2,24.2,10.5,33.3,19.8
		c30.1,5.7,58.1,21.5,76,46.6c8.4-30.3,40.6-52.1,71.8-48.7c31.3,3.4,58,31.5,59.7,63c33.7-33,85.4,21,127,2.6
		c53.9-23.9,47,24.8,45.9,28.3c36.7-16.2,35.3-4.2,56,34.4c9.9,7.1,18.5,16,25.4,26.6c10.2,15.6,16.4,34.4,19.3,52.8
		c1.4,9,2.2,18,2.6,27c71.9-7,198.4,61,276.9,56.2C1886.2,6877.1,1749.6,6707.1,1656.6,6728z"/>
	
		<linearGradient id="SVGID_00000067921123845036444120000004869783324273728672_" gradientUnits="userSpaceOnUse" x1="459.4139" y1="1735.9772" x2="170.889" y2="1614.5006" gradientTransform="matrix(0.8835 0 0 -0.8835 499.9432 8155.0381)">
		<stop  offset="0" style="stop-color:#F9EBAB"/>
		<stop  offset="0.1092" style="stop-color:#E5E5B9"/>
		<stop  offset="0.2967" style="stop-color:#C7DCCA"/>
		<stop  offset="0.4826" style="stop-color:#AFD5D5"/>
		<stop  offset="0.664" style="stop-color:#9DD0DD"/>
		<stop  offset="0.8389" style="stop-color:#92CDE1"/>
		<stop  offset="1" style="stop-color:#8ECCE2"/>
	</linearGradient>
	
		<path style="display:inline;opacity:0.8784;fill:url(#SVGID_00000067921123845036444120000004869783324273728672_);enable-background:new    ;" d="
		M868.3,6700.1c-23.2-64.1-96.3-105.8-163.4-93.3c4.9,10.4,9.9,20.8,14.8,31.3c-25.6-20.8-31.8,1.9-64,9.2
		c76.7,28.6,119.6,38.5,183.7,89.5c9.5,7.5,25.4,4.8,31.6-5.6C877.4,6720.9,870.7,6706.6,868.3,6700.1z"/>
	
		<linearGradient id="SVGID_00000009564964133102942980000017631828154339706031_" gradientUnits="userSpaceOnUse" x1="444.1876" y1="2177.6729" x2="202.86" y2="1936.3451" gradientTransform="matrix(0.8835 0 0 -0.8835 499.9432 8155.0381)">
		<stop  offset="0" style="stop-color:#FFFFFF"/>
		<stop  offset="0.2455" style="stop-color:#FDFAE8"/>
		<stop  offset="0.7497" style="stop-color:#FAF0BD"/>
		<stop  offset="1" style="stop-color:#F9ECAC"/>
	</linearGradient>
	
		<path style="display:inline;opacity:0.8784;fill:url(#SVGID_00000009564964133102942980000017631828154339706031_);enable-background:new    ;" d="
		M856.7,6317c-15.7,21.9-23.9,42.9-39.6,64.9c4.2-41.1-52.3-74.7-90.1-58.1C775,6256.6,831.1,6278.3,856.7,6317z"/>
	
		<linearGradient id="SVGID_00000031173370280870728120000002067304924385672847_" gradientUnits="userSpaceOnUse" x1="1933.4838" y1="1918.0249" x2="1686.788" y2="1453.2305" gradientTransform="matrix(0.8835 0 0 -0.8835 499.9432 8155.0381)">
		<stop  offset="0" style="stop-color:#FFFFFF"/>
		<stop  offset="0.1761" style="stop-color:#FFFEFA"/>
		<stop  offset="0.4112" style="stop-color:#FDFAEB"/>
		<stop  offset="0.6798" style="stop-color:#FBF4D2"/>
		<stop  offset="0.9713" style="stop-color:#FAECB0"/>
		<stop  offset="1" style="stop-color:#F9ECAC"/>
	</linearGradient>
	
		<path style="display:inline;opacity:0.8784;fill:url(#SVGID_00000031173370280870728120000002067304924385672847_);enable-background:new    ;" d="
		M2134.5,6529.5c-30.8,1.9-67.4,22.2-88.7,44.4c-21.3,22.3-31.4,52.7-19.3,88.4c2.6,7.7-10.5-15,188.7-15
		c-27.8-1-55.7-15.5-71.6-38.3C2127.4,6586.3,2122.7,6556,2134.5,6529.5z"/>
	
		<linearGradient id="SVGID_00000003817004893174935660000002543030127603747743_" gradientUnits="userSpaceOnUse" x1="2559.8445" y1="2334.832" x2="2081.5728" y2="1306.3846" gradientTransform="matrix(0.8835 0 0 -0.8835 499.9432 8155.0381)">
		<stop  offset="0" style="stop-color:#FFFFFF"/>
		<stop  offset="0.1773" style="stop-color:#FFFEFA"/>
		<stop  offset="0.4092" style="stop-color:#FDFAEB"/>
		<stop  offset="0.6714" style="stop-color:#FCF5D3"/>
		<stop  offset="0.9541" style="stop-color:#FAEDB2"/>
		<stop  offset="1" style="stop-color:#F9ECAC"/>
	</linearGradient>
	
		<path style="display:inline;opacity:0.6706;fill:url(#SVGID_00000003817004893174935660000002543030127603747743_);enable-background:new    ;" d="
		M2275,6409.6c-22.1-9.7-49.6-5.8-68.1,9.6s-27.3,41.8-21.7,65.3c21.1-3.5,42.1-7.1,63.3-10.6c-14,22-14.8,51.9-1.6,74.6
		s39.5,36.9,65.6,35.5c-8.7-33.1,17-70.9,51-75c34-4.1,67.9,26.5,67.3,60.8c0.7-9.8,9.8-18.2,19.6-18c9.8,0.2,18.7,8.7,19.2,18.5
		c46.1-4.3,93.7,17.8,120.2,55.7c-2.8-14.5,4.4-30.4,17.2-37.7c12.8-7.3,30.2-5.5,41.3,4.3c55,48.9,59.8,144,10.1,198.3
		c46.1-30.2,111.8-26.2,154.1,9.1c3.8-9.5,21.7-4.6,20.1,5.5c34.9-28.1,26.8-87.4-5.2-118.7c-32-31.3-78.8-41.3-123.2-47.4
		c31.5,11.4,70.7-9.4,78.9-41.9c8.1-32.5-13.1-58.5-46.3-63.3c35.3-66.3-43.7-95.1-73.8-76.2c15.5-53.5-36.2-97.1-71.7-106.8
		c-6-186.1-283.1-209.2-300.6-47.7c-4.8,43.9,18.7,90.1,62.4,84C2328.6,6396.1,2304.5,6404.8,2275,6409.6z"/>
</g>
<g id="Nubes_frente" class="st1">
	<path class="st17" d="M1099.6,6809.3c-14.8-113.3-181.3-301.7-368-226.9c-100.3,40.2-165.9,164.3-147.6,279.3
		c-11.8-33.9-43.8-58.2-77.1-58.5c-33.3-0.3-65.6,23.6-77.8,57.4c-28.8-32.6-77.2-42.3-114.7-22.9c-5.9,3.1-7.1,4.2-12.3,8.5
		c0,13.4-0.6,61.1,0,63.7c17.3-1,1000.2,67.5,1116.4,67.5C1401.1,6796.3,1132.5,6703.7,1099.6,6809.3z"/>
	<path class="st17" d="M2673.2,6911.8c-37.5-121.4-142.2-217.7-259.6-231.6c-132.2-15.6-269,73.9-318.6,208.6
		c-20.5-50-79.5-76.4-126.2-56.5c-35.7,15.2-58.9,37.7-61.3,79.1C1919.3,6911.3,2666.8,6911.8,2673.2,6911.8z"/>
	<path class="st17" d="M2884.6,6945.9c-9.2-18.6-31.9-17-40.8,0.4c-31.5-155-206.6-111.8-225.2-34.5
		c-144.9-76.2-355.4-69.5-559.6-8.9c-34.1-30.1-115.5-32.5-150.3-3.1c-33.2-37.5-63.8-48.1-113.5-54.9s-105.6,17.6-123.9,64.3
		c-18.3,46.7-17,81.5,33.1,80.9c0,0,772,0,1180,0c0.2-0.7-0.2-1.9,0-2.5C2884.2,6986.2,2884.6,6945.9,2884.6,6945.9z"/>
	<path class="st17" d="M1731.3,6990.4c-104.4-92.4-180.8-95.2-315.3-20.8c-121.5-205.8-353.2-84.9-588.1-84.9
		c-45.9-77.7-165.5-43.2-250.6-13.4c-85.2,29.8-151.9,29.3-139.4,118.7C437.8,6990.1,1478.8,6990.4,1731.3,6990.4z"/>
	<path class="st17" d="M478.9,6892.7c26.3-12.6,105.8,97.5,76.5,97.5c-245,0.1-268.1-0.1-268.1-0.1c0-40.6,0-150.4,0-259
		c0-26.2,99.6-58.4,139.5,127"/>
</g>
<g id="Nubes_frente_highlights" class="st1">
	<path class="st18" d="M1094.9,6786.7c-34.8,15.7-78.5,28.3-113.3,44C928.7,6708,799.3,6622.5,665.7,6622
		c56.4-66,164.1-67.5,245.7-39.4C993.1,6610.7,1067.6,6684.6,1094.9,6786.7z"/>
	<path class="st18" d="M1355.2,6951.2c21.5,0,57.4,6.5,60.3,6.5c0-52.7-62.5-114.6-91.2-136.7c-66.5-51.2-183.7-79.8-221.1-20.8
		C1203.9,6758.8,1332,6848.7,1355.2,6951.2z"/>
	<path class="st18" d="M2656.2,6867.6c-32.9-59.5-54.1-99.7-109.6-138.9c-55.6-39.2-112.4-56.4-180-48.2
		c-67.6,8.1-162.1,34.9-190.8,96.7c193.9-33.3,346.4,39.9,414.1,107.7C2621,6861.5,2657.3,6858.9,2656.2,6867.6z"/>
	<path class="st19" d="M429,6860.6c-2.7-68.4-89-213.9-141.7-126.9c51.6,7.6,101.8,72.6,60.5,116.8c48.9,6.8,75.6,22.6,94.9,67.9
		c44.7-48,109.8-52.5,134.6-14.3C570.8,6741.7,429,6816.9,429,6860.6z"/>
	<path class="st20" d="M1655.7,6937.2c-72.4-40-175-19.9-231.1,40.8c90.8-41.3,169.1-25.7,268-1.6
		C1692.5,6976.4,1666.7,6943.2,1655.7,6937.2z"/>
	<path class="st21" d="M1689,6883.4c-2.8,3.3-5.6,6.5-8,10c2.2-1.1,4.6-2.2,7.1-2.8c0.6-0.3,1.2-0.5,1.9-0.7
		C1689.3,6887.7,1689,6885.5,1689,6883.4z"/>
	<path class="st22" d="M2092.3,6882.4c-17.3-45.7-65.9-56.7-107.9-52.3c-42,4.4-66.4,28.5-75.5,69.7
		c-71.4-71.4-144.7-69.4-192.7-39.3c12.1-1.9,24.6-1.1,36.7,0.8c13.7,2.1,26.6,6.8,39.3,12.2c3.3,1.4,6.4,2.9,9.4,4.6
		c4.3,1.1,8.6,2.6,12.7,4.2c16.3,6.8,30.7,16.7,42.6,29.7c7.4,8.1,13.1,17.7,17.8,27.6c1.3,2.8,2.7,5.8,3.9,9
		c9.3-1.6,19.9-1.9,33,0.2c1.1-6.2,3.2-12.2,5.7-18.1c0.6-1.4,1.2-2.9,1.9-4.3c0.1-0.1,0.1-0.2,0.1-0.3c0.8-2.6,0.5-1.1,0,0
		c-0.1,0.4-0.3,0.8-0.4,1.3c0.9-2.9,2.3-5.7,3.6-8.5c1.6-3.3,3.5-6.3,5.7-9.2c11.3-14.9,26.3-23.9,45.1-25.8
		c15.3-1.6,32.4,3.4,44.8,12.4c7.9,5.8,14.5,12.8,20.1,20.6c7,7.7,13.1,16.4,17.8,25.4c1.4,2.6,2.7,5.2,3.8,7.9
		c0.9,2.1,1.8,4.2,2.7,6.4l0,0c0-0.2,0.1,0,0.4,0.6c0.4,0.5,0.6,1.1,1,1.8c0.3,0.5,0.5,1,0.7,1.5c6.9-3.9,11.8-8,13.4-11.7
		C2085,6933.5,2097.1,6895.3,2092.3,6882.4z"/>
</g>
<g id="Estrellas" class="st1">
	<circle class="st23" cx="764" cy="6012.1" r="6"/>
	<circle class="st23" cx="437.8" cy="6170.3" r="4.9"/>
	<circle class="st23" cx="1487" cy="5763.5" r="11.9"/>
	<circle class="st23" cx="1709" cy="6366" r="4.4"/>
	<circle class="st23" cx="2243" cy="6002.3" r="7.5"/>
	<circle class="st23" cx="2747.9" cy="5959.8" r="11.9"/>
	<circle class="st23" cx="1119.7" cy="6124.5" r="12.4"/>
	<circle class="st23" cx="1636.6" cy="5932.8" r="2.2"/>
	<circle class="st23" cx="395" cy="5827.1" r="4.9"/>
	<ellipse class="st23" cx="616.6" cy="6075.6" rx="1.1" ry="1.1"/>
	<circle class="st23" cx="2090.2" cy="6280.5" r="8.8"/>
	<ellipse class="st23" cx="2373.7" cy="6179" rx="4.3" ry="7.7"/>
	<circle class="st23" cx="2608.4" cy="6086" r="1.3"/>
	<circle class="st23" cx="316" cy="5868.4" r="2.5"/>
	<ellipse class="st23" cx="1266.1" cy="5912.3" rx="6.2" ry="5.3"/>
	<circle class="st23" cx="1556.9" cy="6191.1" r="4.4"/>
	<circle class="st23" cx="2375.9" cy="5675" r="2.1"/>
</g>
<g id="Nubes_top" class="st1">
	<path class="st24" d="M464.8,5585.4c53.2,10.8-166.9-24.6-6.4,51.3c82.8,39-70.2,87-171.3,144.7c0.2,3.7,0.1,66.3,0,72.7
		c162.2-50.4,307.7-101.8,314.2-70.9c5.1,24.3-148.5,102.5-209.3,163.3c114.9-3.6,202.8-105.8,301.7-152.1
		c60.7-28.4,120.2-20.3,190.1-32.3s123.2-48.3,108.9-100.3c72.7,8.7,150.2-28.2,169-80.6L464.8,5585.4z"/>
	
		<linearGradient id="SVGID_00000168111299503325525010000016501880631932121278_" gradientUnits="userSpaceOnUse" x1="279.2389" y1="2684.7324" x2="-249.4614" y2="1816.7682" gradientTransform="matrix(0.8835 0 0 -0.8835 499.9432 8155.0381)">
		<stop  offset="0" style="stop-color:#C8E1E7"/>
		<stop  offset="0.219" style="stop-color:#C4DFE7"/>
		<stop  offset="0.494" style="stop-color:#B7DAE6"/>
		<stop  offset="0.7976" style="stop-color:#A1D2E4"/>
		<stop  offset="1" style="stop-color:#8ECCE2"/>
	</linearGradient>
	
		<path style="display:inline;opacity:0.7294;fill:url(#SVGID_00000168111299503325525010000016501880631932121278_);enable-background:new    ;" d="
		M843.7,5746.2c-58.5,16-301.4,181.6-350.6,210c41.1-3.2,116.2-22.4,93.8,13.4c-80.7,130-319.5,163.1-299.8,212.6
		c27.4,68.9,669.1-303.2,621.4-303.2C636.2,5903.7,871.9,5738.5,843.7,5746.2z"/>
	
		<linearGradient id="SVGID_00000091000618034299396140000005067757198093186198_" gradientUnits="userSpaceOnUse" x1="125.001" y1="2529.2161" x2="-142.3792" y2="2090.259" gradientTransform="matrix(0.8835 0 0 -0.8835 499.9432 8155.0381)">
		<stop  offset="0" style="stop-color:#C8E1E7"/>
		<stop  offset="0.2491" style="stop-color:#CBE2E8"/>
		<stop  offset="0.4913" style="stop-color:#D5E8EC"/>
		<stop  offset="0.7308" style="stop-color:#E5F0F3"/>
		<stop  offset="0.9672" style="stop-color:#FBFDFD"/>
		<stop  offset="1" style="stop-color:#FFFFFF"/>
	</linearGradient>
	<path style="display:inline;fill:url(#SVGID_00000091000618034299396140000005067757198093186198_);" d="M500.2,6116.6
		c18.6-34.5,37.4-69,56-103.5c-49.8,42.8-99.7,85.5-149.5,128.2c40.7-2.1,77.4-26.1,105.8-55.3c28.4-29.2,50.2-64.1,75.6-95.9
		c25.5-31.8,56.2-61.4,94.7-74.7c-21.6-12.5-50.3-2-67.6,15.9s-26.6,41.9-38.3,64c-11.8,22.1-27.8,43.9-51.5,51.6"/>
	
		<linearGradient id="SVGID_00000161599100393980207900000013454064444221615489_" gradientUnits="userSpaceOnUse" x1="128.3646" y1="2601.614" x2="18.3885" y2="2421.0667" gradientTransform="matrix(0.8835 0 0 -0.8835 499.9432 8155.0381)">
		<stop  offset="0" style="stop-color:#C8E1E7"/>
		<stop  offset="0.2206" style="stop-color:#CDE3E9"/>
		<stop  offset="0.4975" style="stop-color:#DAEAEE"/>
		<stop  offset="0.8033" style="stop-color:#EFF6F7"/>
		<stop  offset="1" style="stop-color:#FFFFFF"/>
	</linearGradient>
	<path style="display:inline;fill:url(#SVGID_00000161599100393980207900000013454064444221615489_);" d="M600.2,5929.4
		c-25.9,4.6-51.8,9.2-77.7,13.7c42.6-28.1,85.2-56.2,127.7-84.3C631.4,5883.9,612.6,5908.9,600.2,5929.4z"/>
	
		<linearGradient id="SVGID_00000111898359417911214210000003187164044349383326_" gradientUnits="userSpaceOnUse" x1="85.8494" y1="2838.1721" x2="-223.8621" y2="2329.7205" gradientTransform="matrix(0.8835 0 0 -0.8835 499.9432 8155.0381)">
		<stop  offset="0" style="stop-color:#FFFFFF"/>
		<stop  offset="0.1449" style="stop-color:#FBFDFE"/>
		<stop  offset="0.3269" style="stop-color:#EEF7FA"/>
		<stop  offset="0.5287" style="stop-color:#DAEDF5"/>
		<stop  offset="0.7449" style="stop-color:#BCE0ED"/>
		<stop  offset="0.9703" style="stop-color:#94CFE3"/>
		<stop  offset="1" style="stop-color:#8ECCE2"/>
	</linearGradient>
	
		<path style="display:inline;opacity:0.2118;fill:url(#SVGID_00000111898359417911214210000003187164044349383326_);enable-background:new    ;" d="
		M287.3,5854.1c105.7-51.2,209.6-77.5,327-83.1c-72,55.9-143.9,111.8-215.9,167.8c122.3-51.4,235.8-123.9,333.9-213.1
		c17.5-15.9,0.4-51.5-23-47.8c-84.3,13.3-168.7,26.7-252.9,40c29.6,6.7,61.9-14.1,70.2-43.4c8.3-29.2-6.4-62.5-32.4-78.3
		c-26-15.7-60.6-14.1-86.6,1.6c27.7,4.3,70.6,31.6,74,59.5c3.4,27.8-33,53.8-58.8,64.8c-54.2,23-81.2,39.7-135.4,62.5"/>
</g>
<g id="Pajaritos">
	<path class="st29" d="M3535,607.1c-16.6-2.9-34.6-1.4-49.4,8c-5.4,3.4-10.3,7.8-15.1,12.3c-2.3-2.3-4.6-4.4-7.1-6.6
		c-8.7-7.3-18.3-13.3-28-18.6c-8.2-4.7-16.7-8.4-25.4-11.7c-5.9-1.6-11.9-2.3-17.8-3.3c-2.1-0.3-4.2-0.6-6.4-0.7c1,0.4,2,0.7,3,1.1
		c6.3,2.1,12.4,4.6,18.6,7.1c4.1,2,7.8,4.7,11.8,7c8.3,4.9,16,11,23.9,16.3c8.7,6.1,12.7,8.7,19.3,15.7c0.4,0.4,1.6,1.7,2,2
		c0.4,0.4,0.6,1,1,1.4c1.8,2.6,5.3,3.4,8,2c2.4-1.3,4.2-3.7,6.4-5.6c7.4-7,14.6-12.4,25.6-15.7c12.3-4.1,20.9-4.2,34.7-4.2
		c8.9,0.1,17.8,0.4,26.7,1.6C3556.5,611.4,3545.8,608.8,3535,607.1z"/>
	<path class="st29" d="M3631.9,701.7c-2.9-0.6-5.9-1-8.7-1.2c-7-0.4-14-0.1-20.8,1.7c-4.9,1.3-9.1,4.1-13.3,6.7
		c-0.4-0.4-1-1-1.2-1.3c-3.6-3.3-7.1-6.7-11-9.3c-3.1-1.6-6.4-2.7-9.5-3.9c-7.3-2.7-15.1-4.6-23-3.4c-0.9,0.1-1.7,0.3-2.6,0.4
		c1.3,0.3,2.7,0.4,4,0.7c2.6,0.6,4.8,1.6,7.2,2.3c1.4,0.6,2.9,1.3,4.4,2.1c5.2,2.9,10.4,5.9,15.5,9.3c3.1,3.1,6.1,6.4,9,9.9
		c4.4,5.9,9.3,5,14.3,0.6c2.6-2,5.2-3.7,8-5.2c4.1-2.1,17-5.7,25.1-6.9c3.1-0.6,7-0.1,10.3,0C3637,703.7,3634.4,702.6,3631.9,701.7z
		"/>
	<path class="st29" d="M1424.8,1100.7c-9.9,1.4-19.4,4.2-28.9,7.4c-4.6,1.7-9.5,3.3-13.3,6.3c-0.3,0.1-0.4,0.3-0.6,0.4
		c0,0-0.1,0-0.3,0.1c-0.1,0-0.4-0.1-0.6-0.1c-0.4-0.3-1.9-0.9-2.6-1.1c-4.3-2.7-18.4-5.4-26.9-6c-6.6-0.4-13.1,0.4-19.4,1.9
		c-1,0.3-1.9,0.4-2.9,0.7c0.3,0,0.4,0,0.7,0c7.6-0.1,15.3,0.4,22.6,2.4c6.4,2,12.9,3.6,19.1,6.1c-0.3-0.1-0.6-0.3-1-0.4
		c3.9,1.4,7.6,4.6,11.8,4.1c2.1-0.3,4.1-1.6,5.6-3c0.9-0.4,3-1.9,3.6-2.1C1402.5,1111.5,1413.5,1105.8,1424.8,1100.7z"/>
	<path class="st29" d="M4176,1042.5c-21.9-12.5-49.2-15.1-73.1-7.1c-2.7-28-36-48.3-62.2-37.9c25.3,3.9,47,25,51.4,50.3
		C4118,1044.5,4143.8,1041.3,4176,1042.5z"/>
	<path class="st29" d="M3580.1,1390.5c-10.3,6.6-20.6,13.1-30.9,19.7c-4.7-12.6-23.3-17.1-33.2-8c6.3-15.9,30.7-20,41.9-7
		C3566.1,1393,3574.1,1390.8,3580.1,1390.5z"/>
	<path class="st29" d="M2007.6,571.2c-26.2-21-70.2-13.4-88,15c29.7-18.7,71.2-16,98.2,6.3c31.3-32.6,41-32,73.3-50
		C2064.5,537.1,2027.4,563.2,2007.6,571.2z"/>
</g>
<g id="Pajaritos_00000126312365434069024940000002520519476853288120_">
	<path class="st29" d="M1895.3,2289.6c-16.4-3.6-34.5-3-49.7,5.8c-5.6,3.3-10.7,7.3-15.6,11.6c-2.2-2.4-4.3-4.7-6.8-6.9
		c-8.3-7.7-17.7-14-27.1-19.9c-8-5-16.3-9.2-24.8-12.8c-5.8-1.9-11.8-2.8-17.7-4.1c-2.1-0.4-4.2-0.8-6.4-1c1,0.4,2,0.8,2.9,1.2
		c6.2,2.5,12.2,5.1,18.2,7.9c4,2.2,7.6,5,11.5,7.5c8,5.3,15.5,11.7,23.1,17.4c8.4,6.5,12.4,9.4,18.6,16.6c0.4,0.5,1.5,1.8,1.9,2.1
		c0.4,0.5,0.5,1,0.9,1.5c1.7,2.6,5.1,3.7,7.9,2.4c2.5-1.2,4.3-3.5,6.6-5.2c7.8-6.6,15.1-11.8,26.2-14.6c12.5-3.5,21.1-3.3,34.9-2.7
		c8.9,0.5,17.8,1.1,26.6,2.7C1916.6,2294.7,1906,2291.7,1895.3,2289.6z"/>
	<path class="st29" d="M1987.9,2388.4c-2.8-0.7-5.8-1.2-8.7-1.6c-7-0.8-14-0.7-20.8,0.8c-4.9,1.1-9.3,3.7-13.6,6.1
		c-0.4-0.5-0.9-1-1.1-1.4c-3.4-3.4-6.8-7.1-10.6-9.7c-3.1-1.7-6.3-2.9-9.3-4.2c-7.2-3-14.9-5.2-22.8-4.4c-0.9,0.1-1.7,0.2-2.6,0.4
		c1.3,0.3,2.7,0.6,4,0.9c2.5,0.7,4.8,1.8,7.1,2.6c1.4,0.7,2.8,1.4,4.3,2.4c5,3.1,10.2,6.4,15.1,9.9c3,3.3,5.8,6.6,8.6,10.2
		c4.2,6.1,9,5.5,14.2,1.2c2.7-1.9,5.3-3.5,8.3-4.8c4.2-1.9,17.2-5,25.4-5.7c3.2-0.4,7,0.2,10.3,0.4
		C1992.9,2390.6,1990.4,2389.3,1987.9,2388.4z"/>
	<path class="st29" d="M1712.6,1513.6c-9.9,1-19.6,3.4-29.2,6.2c-4.7,1.5-9.6,2.8-13.6,5.7c-0.3,0.1-0.4,0.3-0.6,0.4
		c0,0-0.1,0-0.3,0.1c-0.1,0-0.4-0.2-0.6-0.2c-0.4-0.3-1.9-0.9-2.5-1.1c-4.2-2.8-18.1-6.2-26.7-7.2c-6.6-0.6-13.1-0.1-19.5,1.1
		c-1,0.2-1.9,0.4-2.9,0.6c0.3,0,0.4,0,0.7,0c7.6,0.2,15.2,1.1,22.4,3.4c6.3,2.3,12.7,4.2,18.8,7c-0.3-0.1-0.6-0.3-1-0.4
		c3.8,1.6,7.3,4.9,11.6,4.6c2.2-0.2,4.2-1.4,5.7-2.7c0.9-0.4,3.1-1.8,3.7-2C1689.9,1523.4,1701.2,1518.3,1712.6,1513.6z"/>
	<path class="st29" d="M2516.4,2752.9c-21.3-13.4-48.5-17.3-72.7-10.3c-1.4-28.1-33.9-49.9-60.4-40.6c25.1,4.9,45.9,27,49.2,52.5
		C2458.5,2752.3,2484.4,2750.2,2516.4,2752.9z"/>
	<path class="st29" d="M1905.8,3074.2c-10.6,6.2-21.1,12.2-31.7,18.4c-4.2-12.8-22.5-18.1-32.8-9.4c7-15.5,31.6-18.6,42.1-5.1
		C1891.5,3076,1899.8,3074.3,1905.8,3074.2z"/>
	<path class="st29" d="M2927,1704.4c-25.3-22.2-69.5-16.5-88.6,11.1c30.5-17.4,71.8-12.8,97.9,10.6c32.7-31.2,42.4-30.1,75.4-46.7
		C2985.3,1672.8,2947.1,1697.2,2927,1704.4z"/>
</g>
<g id="Pajaritos_00000079486835856269976410000003134572586521532295_">
	<path class="st29" d="M-92.1,2194.6c-16.4-3.6-34.5-3-49.7,5.8c-5.6,3.3-10.7,7.3-15.6,11.6c-2.2-2.4-4.3-4.7-6.8-6.9
		c-8.3-7.7-17.7-14-27.1-19.9c-8-5-16.3-9.2-24.8-12.8c-5.8-1.9-11.8-2.8-17.7-4.1c-2.1-0.4-4.2-0.8-6.4-1c1,0.4,2,0.8,2.9,1.2
		c6.2,2.5,12.2,5.1,18.2,7.9c4,2.2,7.6,5,11.5,7.5c8,5.3,15.5,11.7,23.1,17.4c8.4,6.5,12.4,9.4,18.6,16.6c0.4,0.5,1.5,1.8,1.9,2.1
		c0.4,0.5,0.5,1,0.9,1.5c1.7,2.6,5.1,3.7,7.9,2.4c2.5-1.2,4.3-3.5,6.6-5.2c7.8-6.6,15.1-11.8,26.2-14.6c12.5-3.5,21.1-3.3,34.9-2.7
		c8.9,0.5,17.8,1.1,26.6,2.7C-70.8,2199.7-81.3,2196.7-92.1,2194.6z"/>
	<path class="st29" d="M0.6,2293.4c-2.8-0.7-5.8-1.2-8.7-1.6c-7-0.8-14-0.7-20.8,0.8c-4.9,1.1-9.3,3.7-13.6,6.1
		c-0.4-0.5-0.9-1-1.1-1.4c-3.4-3.4-6.8-7.1-10.6-9.7c-3.1-1.7-6.3-2.9-9.3-4.2c-7.2-3-14.9-5.2-22.8-4.4c-0.9,0.1-1.7,0.2-2.6,0.4
		c1.3,0.3,2.7,0.6,4,0.9c2.5,0.7,4.8,1.8,7.1,2.6c1.4,0.7,2.8,1.4,4.3,2.4c5,3.1,10.2,6.4,15.1,9.9c3,3.3,5.8,6.6,8.6,10.2
		c4.2,6.1,9,5.5,14.2,1.2c2.7-1.9,5.3-3.5,8.3-4.8c4.2-1.9,17.2-5,25.4-5.7c3.2-0.4,7,0.2,10.3,0.4
		C5.5,2295.6,3.1,2294.4,0.6,2293.4z"/>
	<path class="st29" d="M-274.7,1418.7c-9.9,1-19.6,3.4-29.2,6.2c-4.7,1.5-9.6,2.8-13.6,5.7c-0.3,0.1-0.4,0.3-0.6,0.4
		c0,0-0.1,0-0.3,0.1c-0.1,0-0.4-0.2-0.6-0.2c-0.4-0.3-1.9-0.9-2.5-1.1c-4.2-2.8-18.1-6.2-26.7-7.2c-6.6-0.6-13.1-0.1-19.5,1.1
		c-1,0.2-1.9,0.4-2.9,0.6c0.3,0,0.4,0,0.7,0c7.6,0.2,15.2,1.1,22.4,3.4c6.3,2.3,12.7,4.2,18.8,7c-0.3-0.1-0.6-0.3-1-0.4
		c3.8,1.6,7.3,4.9,11.6,4.6c2.2-0.2,4.2-1.4,5.7-2.7c0.9-0.4,3.1-1.8,3.7-2C-297.4,1428.5-286.2,1423.3-274.7,1418.7z"/>
	<path class="st29" d="M529.1,2657.8c-21.3-13.4-48.5-17.3-72.7-10.3c-1.4-28.1-33.9-49.9-60.4-40.6c25.1,4.9,45.9,27,49.2,52.5
		C471,2657.4,497,2655.2,529.1,2657.8z"/>
	<path class="st29" d="M-81.7,2979.1c-10.6,6.2-21.1,12.2-31.7,18.4c-4.2-12.8-22.5-18.1-32.8-9.4c7-15.5,31.6-18.6,42.1-5.1
		C-95.8,2981.1-87.7,2979.3-81.7,2979.1z"/>
	<path class="st29" d="M939.5,1609.4c-25.3-22.2-69.5-16.5-88.6,11.1c30.5-17.4,71.8-12.8,97.9,10.6c32.7-31.2,42.4-30.1,75.4-46.7
		C997.9,1577.9,959.8,1602.2,939.5,1609.4z"/>
</g>
</svg>
