<?xml version="1.0" encoding="utf-8"?>
<!-- Generator: Adobe Illustrator 27.6.1, SVG Export Plug-In . SVG Version: 6.00 Build 0)  -->
<svg version="1.1" id="Layer_1" xmlns="http://www.w3.org/2000/svg" xmlns:xlink="http://www.w3.org/1999/xlink" x="0px" y="0px"
	 viewBox="0 0 4930 8192" style="enable-background:new 0 0 4930 8192;" xml:space="preserve">
<style type="text/css">
	.st0{fill:url(#SVGID_1_);}
	.st1{display:none;}
	.st2{display:inline;fill:#43A0CB;}
	
		.st3{display:inline;opacity:0.3882;fill:url(#SVGID_00000060028937092180146110000005506583545980587966_);enable-background:new    ;}
	
		.st4{display:inline;opacity:0.3294;fill:url(#SVGID_00000057851606509475215730000004832893461237726375_);enable-background:new    ;}
	
		.st5{display:inline;opacity:0.3804;fill:url(#SVGID_00000002361460678674988530000007773197040192454538_);enable-background:new    ;}
	
		.st6{display:inline;opacity:0.3412;fill:url(#SVGID_00000140011619092375993820000018293006131382559395_);enable-background:new    ;}
	.st7{display:inline;}
	.st8{fill:#8ECCE2;}
	
		.st9{display:inline;opacity:0.8784;fill:url(#SVGID_00000137850821794681589240000007063198721600475318_);enable-background:new    ;}
	
		.st10{display:inline;opacity:0.8784;fill:url(#SVGID_00000110460051469603981780000011882425206514316943_);enable-background:new    ;}
	
		.st11{display:inline;opacity:0.8784;fill:url(#SVGID_00000015323926848129999440000002697284440705618307_);enable-background:new    ;}
	
		.st12{display:inline;opacity:0.8784;fill:url(#SVGID_00000074442602166150317970000011270394769203133332_);enable-background:new    ;}
	
		.st13{display:inline;opacity:0.8784;fill:url(#SVGID_00000070118084945818131520000013159654159317153666_);enable-background:new    ;}
	
		.st14{display:inline;opacity:0.6706;fill:url(#SVGID_00000152944216318117136430000006182390010914672805_);enable-background:new    ;}
	.st15{display:inline;fill:#317FB0;}
	.st16{display:inline;opacity:0.4196;fill:#72A336;enable-background:new    ;}
	.st17{display:inline;opacity:0.4;fill:#72A336;enable-background:new    ;}
	.st18{display:inline;opacity:0.4706;fill:#72A336;enable-background:new    ;}
	.st19{display:inline;opacity:0.349;fill:#72A336;enable-background:new    ;}
	.st20{fill:#F7EB9C;stroke:#F6E88C;stroke-width:0.8835;stroke-miterlimit:8.8346;}
	.st21{fill:#F7EB9C;stroke:#F6E88C;stroke-width:0.8834;stroke-miterlimit:8.8345;}
	.st22{display:inline;fill:#44A0C8;}
	
		.st23{display:inline;opacity:0.7294;fill:url(#SVGID_00000065056910318852790260000015316348893910243769_);enable-background:new    ;}
	.st24{display:inline;fill:url(#SVGID_00000095311446402203739250000002154709890331822486_);}
	.st25{display:inline;fill:url(#SVGID_00000031173017087179413590000004893522640201261473_);}
	
		.st26{display:inline;opacity:9.020000e-02;fill:url(#SVGID_00000100340631730883036610000011247231201697308593_);enable-background:new    ;}
	.st27{fill:#F7EB9C;stroke:#F6E88C;stroke-width:0.8835;stroke-miterlimit:8.8351;}
</style>
<g id="BG">
	
		<linearGradient id="SVGID_1_" gradientUnits="userSpaceOnUse" x1="2213.2659" y1="9666.8828" x2="2213.2659" y2="-785.2956" gradientTransform="matrix(0.8835 0 0 -0.8835 499.9432 8155.0381)">
		<stop  offset="0.1455" style="stop-color:#356AAB"/>
		<stop  offset="0.7634" style="stop-color:#247FAD"/>
	</linearGradient>
	<path class="st0" d="M4652,8192c0-3535.1,0-4221.2,0-8263.5c-1737.9,0-2702.6,0-4393.5,0c0,3528.4,0,8263.5,0,8263.5
		S2946.1,8192,4652,8192z"/>
</g>
<g id="Nubes_bg" class="st1">
	<path class="st2" d="M2884.6,6184.7c0-91.4-28.1-125.8-102.4-114.7c-74.3,11.1-132.5,87.1-124,161.8c-39.6-26.9-101.9,22-85.3,66.8
		c-62.4,28.8-110.2,87.6-125.6,154.6c-61.2-8.1-121.6,51.9-113.8,113.1c-80.5,112.9-158.9,288.4-188.1,423.9
		c659.7,0,739.2,0,739.2,0"/>
	<path class="st2" d="M2290.3,6664.3c-60.2-1.6-112.4-17.3-172.5-18.9c21.8-120.4-98.9-162.7-131-53.3
		c-39.1-39.1-87.6-36.3-119.7-26.5c0-179.8-161.9-161.9-202.6-71.4c-32.2-64.2-77-125-119-89.8c26-103-55.7-167.1-121.1-164.9
		c-63.2,2.1-172.7,76.2-127.9,184.9c-20.4-38.7-61-46.1-87.2-15.2c-26.2,30.9-29.1,93.8-6,129.4c-48.1-29.3-110.5,2.2-134.7,68.3
		c18.6,24.2,37.3,48.4,56,72.6c-44.3-14-93.7,12.6-120.2,65c-26.5,52.3-28.6,127.3-5.2,182.5c414.1,53.9,830.3,73.2,1245.9,57.9"/>
	<path class="st2" d="M615.5,6413.3c8.3-33.1-4.2-70.6-30.8-92.1c-26.6-21.6-65.8-25.9-96.6-10.9c-4.9-35.8-60.4-50.4-82.4-21.7
		c-4.2-4.2-8.5-8.4-12.7-12.6c-2.6-16.3-20.5-28.4-36.6-24.7c-16.1,3.7-26.9,22.5-22.1,38.3c-20.4-11.2-26.6-11.9-47-23.1
		c0,290,0,426.4,0,723.8c111.5,0,201.5,0,339.4,0"/>
</g>
<g id="Nubes_bg_highlights" class="st1">
	
		<linearGradient id="SVGID_00000140015085446135653830000012679410303629574297_" gradientUnits="userSpaceOnUse" x1="-217.8579" y1="2046.1327" x2="145.7251" y2="2046.1327" gradientTransform="matrix(0.8835 0 0 -0.8835 499.9432 8155.0381)">
		<stop  offset="0" style="stop-color:#F9EBAB"/>
		<stop  offset="1" style="stop-color:#BFE8A5"/>
	</linearGradient>
	
		<path style="display:inline;opacity:0.3882;fill:url(#SVGID_00000140015085446135653830000012679410303629574297_);enable-background:new    ;" d="
		M616.2,6431.7c47.4-116.5-49.4-158.2-128.9-125.9c-6.5-46.9-75.5-34.7-83.8-19.4c-18.2-51.2-50.3-39.2-64.4-23.1
		c20.7-6.8,47.3,13.3,34.2,34.2c-13.2-10.2-32.8-11.2-46.9-2.3c-14.1,8.9-21.6,27-18,43.4c66.9-30.4,123.6-28.9,202.1,82.6
		c11.5-17,34.2-25.4,53.9-20.1c19.8,5.3,35.2,23.9,36.7,44.4C607.1,6438.5,619.6,6439.7,616.2,6431.7z"/>
	
		<linearGradient id="SVGID_00000072266054754429330680000017477755806639184770_" gradientUnits="userSpaceOnUse" x1="890.2459" y1="1875.4734" x2="1914.7656" y2="1875.4734" gradientTransform="matrix(0.8835 0 0 -0.8835 499.9432 8155.0381)">
		<stop  offset="0" style="stop-color:#F9EBAB"/>
		<stop  offset="1" style="stop-color:#BFE8A5"/>
	</linearGradient>
	
		<path style="display:inline;opacity:0.3294;fill:url(#SVGID_00000072266054754429330680000017477755806639184770_);enable-background:new    ;" d="
		M1563.5,6394.9c9.1-77-58.5-154.3-136.1-155.4s-147.4,74-140.6,151.3c33-25.3,123.3-8.7,139.9,82.8c30.4-23.3,78-19.8,104.7,7.7
		c60.8-36.1,151-3.8,174.9,62.7c56.6-13.1,119.3,33.5,123.2,91.4c41.1,15.4,82.2,30.7,123.3,46.1c17.5-37.8,84.5-33,96.5,7
		c48.7-9.7,102.3,19.7,120.1,66.1c-32.2,11-69.5-25.2-59.5-57.7c10.1-32.5,61.2-41.3,81.6-14c-39.1-11-69-49.1-70.1-89.8
		c-1-34.4-32.7-64.9-67.1-64.7c-34.4,0.3-65.6,31.5-65.9,65.9c-23.8-35.1-72.5-50.7-112.3-36c14.8-47.2-9.2-103.5-53.5-125.5
		s-103.7-6.9-132.3,33.6c2.5-23.2-24.6-44-46.4-35.6C1634.1,6385.5,1568.1,6364.9,1563.5,6394.9z"/>
	
		<linearGradient id="SVGID_00000084492877709811797640000018144101221116072860_" gradientUnits="userSpaceOnUse" x1="2459.0095" y1="2415.4326" x2="2803.1206" y2="2028.8149" gradientTransform="matrix(0.8835 0 0 -0.8835 499.9432 8155.0381)">
		<stop  offset="0" style="stop-color:#F9EBAB"/>
		<stop  offset="0.2223" style="stop-color:#F7EAAD"/>
		<stop  offset="0.392" style="stop-color:#F0E8B2"/>
		<stop  offset="0.5444" style="stop-color:#E3E4BA"/>
		<stop  offset="0.6866" style="stop-color:#D1DFC5"/>
		<stop  offset="0.8216" style="stop-color:#BAD8D1"/>
		<stop  offset="0.9495" style="stop-color:#9CD0DD"/>
		<stop  offset="1" style="stop-color:#8ECCE2"/>
	</linearGradient>
	
		<path style="display:inline;opacity:0.3804;fill:url(#SVGID_00000084492877709811797640000018144101221116072860_);enable-background:new    ;" d="
		M2884.6,6122c-22.8-76.2-168.7-78-216.4,41.3c41-94.5,201.3-49.3,216.4,106.5C2884.7,6268.9,2884.8,6122.8,2884.6,6122z"/>
	
		<linearGradient id="SVGID_00000024709693159556003340000002863901906290768063_" gradientUnits="userSpaceOnUse" x1="2392.2012" y1="2193.7463" x2="2612.782" y2="1950.8123" gradientTransform="matrix(0.8835 0 0 -0.8835 499.9432 8155.0381)">
		<stop  offset="0" style="stop-color:#F9EBAB"/>
		<stop  offset="0.235" style="stop-color:#F7EAAD"/>
		<stop  offset="0.4043" style="stop-color:#F0E8B2"/>
		<stop  offset="0.5529" style="stop-color:#E4E4B9"/>
		<stop  offset="0.6897" style="stop-color:#D3DFC4"/>
		<stop  offset="0.8184" style="stop-color:#BCD8D0"/>
		<stop  offset="0.9393" style="stop-color:#9FD1DC"/>
		<stop  offset="1" style="stop-color:#8ECCE2"/>
	</linearGradient>
	
		<path style="display:inline;opacity:0.3412;fill:url(#SVGID_00000024709693159556003340000002863901906290768063_);enable-background:new    ;" d="
		M2660.1,6231.5c-18.1-8.7-41.3-5.3-56.2,8c-14.9,13.3-20.8,36-14.2,55c23.2-10.9,51.3,1.2,69.9,19c18.6,17.8,31.5,40.7,49.9,58.6
		c47.8,1.6,95.5,3.2,143.3,4.9c-33.3-10.6-67-21.3-97.4-38.5c-30.4-17.2-57.9-41.7-72.5-73.4
		C2665.8,6264.4,2652.4,6244.4,2660.1,6231.5z"/>
</g>
<g id="Nubes_medio" class="st1">
	<g class="st7">
		<g>
			<path class="st8" d="M1847.4,6806.7c-26.1-1.8-52.1-3.5-78.2-5.3c-13.3-54-70.2-86.8-115.3-66.7c28.5-64.6,4.6-153.5-50.4-187.6
				c-55-34.2-131.8-7.8-161.9,55.8c-69.7-114.1-193.1-199.3-314.9-211.5c-17.2-36-36-71.4-61.4-99.8
				c-30.9-34.6-73.9-58.2-116.3-50.4c-42.4,7.7-80.1,53.9-75,103.5c-13.2-44.1-56.8-72.6-95.9-62.6c-39.1,10-68.7,57-64.8,103.4
				c-60.8-8-123.9,22.6-163.4,76.5c-6.8-17.6-22-31.1-38.8-31.4c-19.9-0.4-38.1,17.9-42.8,39.9c-2.5-90.9-180.8-89.2-180.8,35.7
				c0,299.9-2.9,365.1,0,484c106.4,0,167.2-2.6,303.2-12.6c11.8-0.9,22.6-5.9,32.6-14.1c2,0.2,4.2,0.3,6.2,0.4
				c31.3-5.3,62.9-3.1,94.4-0.4c27.8,2,55.7,4.2,83.5,6.8c18.2-0.3,33.5,0.5,44.6,14.5c107.6-12.3,218.6-14,325.8-1.1
				c60.2,7.2,219.6,6.8,223.2,6.4c122.2-10.8,411.6-2.8,475.2-0.5c27.1,1,54.2-3.5,81.4-3.6c10-0.1,20,0.3,29.9,0.9
				c2.5-2.9,4-6,4.3-9.4C2004.5,6871.7,1937.4,6827.9,1847.4,6806.7z"/>
		</g>
	</g>
	<g class="st7">
		<g>
			<path class="st8" d="M2713.5,6647.7c27-13,56.7-28.7,66.1-57.2s-21.3-66.3-47.1-51c15.5-17.8,16-47.1,0.8-65.3
				c-15.2-18.2-43.9-23.2-64.3-11.2c-1.1-5.6-2.8-11-4.9-16.3c-0.1-36.8-20.2-74.2-54-89.5c-6.2-2.8-12.6-4.8-19.2-6
				c-70.8-324.5-428.9-62.8-305.6,50.6c-68.9-6.3-138.1,46.4-150.5,114.4c-0.8,4.6-1.4,9.3-1.7,14c-41.9,4.2-81.6,26.4-100.5,63.7
				c-27.8,55,7.4,135,68.7,141.8c0,0-174.3,20.6-221.1,59.7c-69,24-134.1,60.3-192.1,110.1c-121.3,104.3-213-3.9-346.2,84.8
				c512.8,0,875.9,0,1425.4,0c14.9,0.7,117.3,0,117.3,0c0-111.9,0-247.2,0-260.8C2842.6,6676.2,2781.5,6645.9,2713.5,6647.7z"/>
		</g>
	</g>
</g>
<g id="Nubes_Medio_Highlights" class="st1">
	
		<linearGradient id="SVGID_00000026867648463405800970000015100875619461865144_" gradientUnits="userSpaceOnUse" x1="943.4362" y1="2312.4358" x2="165.8555" y2="1700.5691" gradientTransform="matrix(0.8835 0 0 -0.8835 499.9432 8155.0381)">
		<stop  offset="0" style="stop-color:#F9EBAB"/>
		<stop  offset="0.1351" style="stop-color:#F3E9B0"/>
		<stop  offset="0.3486" style="stop-color:#E2E4BB"/>
		<stop  offset="0.6139" style="stop-color:#C4DBCB"/>
		<stop  offset="0.918" style="stop-color:#9BCFDD"/>
		<stop  offset="1" style="stop-color:#8ECCE2"/>
	</linearGradient>
	
		<path style="display:inline;opacity:0.8784;fill:url(#SVGID_00000026867648463405800970000015100875619461865144_);enable-background:new    ;" d="
		M789.9,6557.9c-13.1-2.6-26.3-4.2-39.6-4.9C763.4,6554.9,776.6,6556.9,789.9,6557.9z"/>
	
		<linearGradient id="SVGID_00000158742670863780733770000003822598794677301120_" gradientUnits="userSpaceOnUse" x1="1325.1742" y1="2079.1079" x2="340.1736" y2="1019.148" gradientTransform="matrix(0.8835 0 0 -0.8835 499.9432 8155.0381)">
		<stop  offset="0" style="stop-color:#F9EBAB"/>
		<stop  offset="1" style="stop-color:#8ECCE2"/>
	</linearGradient>
	
		<path style="display:inline;opacity:0.8784;fill:url(#SVGID_00000158742670863780733770000003822598794677301120_);enable-background:new    ;" d="
		M1656.6,6728c27.4-59.1-3.2-148.2-57.8-183.6c-54.6-35.4-120,0.7-162.7,49.8c-51.1-127.4-208.1-212.8-313.6-203.3
		c-3.7-80.6-88.6-164.1-168.3-151.4c-21.6,3.4-38.7,13.3-52.4,27.7c0.8,0.9,1.5,1.9,2.2,2.8c37.6,58-56.5,159.8-58,173.3
		c28.4-7.2,56,24.6,51.7,53.7c-4.3,29.1-31.4,50.5-59.9,57.5c-15.6,3.9-31.8,4.2-47.9,3.1c34.4,6.9,67.4,20.1,97.3,38.5
		c90.4-35.9,145.9,27.7,86.6,80.5c10,14,18.7,28.9,26,44.5c4.9-5.1,10.2-9.6,15.9-13.6c0.1-0.3,0.2-0.4,0.3-0.7
		c1.7-4.2,3.1-8.8,5.4-12.7c3.9-6.7,9.7-12.5,15.9-17.1c12.5-9.5,28.1-12.4,43.3-8.4c12.4,3.2,24.2,10.5,33.3,19.8
		c30.1,5.7,58.1,21.5,76,46.6c8.4-30.3,40.6-52.1,71.8-48.7c31.3,3.4,58,31.5,59.7,63c33.7-33,85.4,21,127,2.6
		c53.9-23.9,47,24.8,45.9,28.3c36.7-16.2,35.3-4.2,56,34.4c9.9,7.1,18.5,16,25.4,26.6c10.2,15.6,16.4,34.4,19.3,52.8
		c1.4,9,2.2,18,2.6,27c71.9-7,198.4,61,276.9,56.2C1886.2,6877.1,1749.6,6707.1,1656.6,6728z"/>
	
		<linearGradient id="SVGID_00000011025736304253064120000013388172563248505023_" gradientUnits="userSpaceOnUse" x1="460.4169" y1="1749.6506" x2="147.4385" y2="1617.8792" gradientTransform="matrix(0.8835 0 0 -0.8835 499.9432 8155.0381)">
		<stop  offset="0" style="stop-color:#F9EBAB"/>
		<stop  offset="0.1092" style="stop-color:#E5E5B9"/>
		<stop  offset="0.2967" style="stop-color:#C7DCCA"/>
		<stop  offset="0.4826" style="stop-color:#AFD5D5"/>
		<stop  offset="0.664" style="stop-color:#9DD0DD"/>
		<stop  offset="0.8389" style="stop-color:#92CDE1"/>
		<stop  offset="1" style="stop-color:#8ECCE2"/>
	</linearGradient>
	
		<path style="display:inline;opacity:0.8784;fill:url(#SVGID_00000011025736304253064120000013388172563248505023_);enable-background:new    ;" d="
		M868.3,6700.1c-23.2-64.1-96.3-105.8-163.4-93.3c4.9,10.4,9.9,20.8,14.8,31.3c-25.6-20.8-61-29-93.1-21.7
		c76.7,28.6,148.8,69.4,212.8,120.4c9.5,7.5,25.4,4.8,31.6-5.6C877.4,6720.9,870.7,6706.6,868.3,6700.1z"/>
	
		<linearGradient id="SVGID_00000039133745208548719640000012868670502866444727_" gradientUnits="userSpaceOnUse" x1="444.1876" y1="2177.6729" x2="202.86" y2="1936.3451" gradientTransform="matrix(0.8835 0 0 -0.8835 499.9432 8155.0381)">
		<stop  offset="0" style="stop-color:#F9EBAB;stop-opacity:0.8196"/>
		<stop  offset="0.4462" style="stop-color:#C6DBCB;stop-opacity:0.9001"/>
		<stop  offset="0.817" style="stop-color:#9ED0DC;stop-opacity:0.967"/>
		<stop  offset="1" style="stop-color:#8ECCE2"/>
	</linearGradient>
	
		<path style="display:inline;opacity:0.8784;fill:url(#SVGID_00000039133745208548719640000012868670502866444727_);enable-background:new    ;" d="
		M856.7,6317c-15.7,21.9-23.9,42.9-39.6,64.9c4.2-41.1-52.3-74.7-90.1-58.1C775,6256.6,831.1,6278.3,856.7,6317z"/>
	
		<linearGradient id="SVGID_00000158029253848712430920000007673169711595387562_" gradientUnits="userSpaceOnUse" x1="1928.5187" y1="1920.661" x2="1602.9436" y2="1264.6874" gradientTransform="matrix(0.8835 0 0 -0.8835 499.9432 8155.0381)">
		<stop  offset="0" style="stop-color:#F9EBAB"/>
		<stop  offset="5.980000e-02" style="stop-color:#F2E9B0"/>
		<stop  offset="0.5084" style="stop-color:#BED9CF"/>
		<stop  offset="0.8336" style="stop-color:#9CD0DD"/>
		<stop  offset="1" style="stop-color:#8ECCE2"/>
	</linearGradient>
	
		<path style="display:inline;opacity:0.8784;fill:url(#SVGID_00000158029253848712430920000007673169711595387562_);enable-background:new    ;" d="
		M2134.5,6529.5c-30.8,1.9-67.4,22.2-88.7,44.4c-21.3,22.3-31.4,52.7-19.3,88.4c2.6,7.7-10.5-15,188.7-15
		c-27.8-1-55.7-15.5-71.6-38.3C2127.4,6586.3,2122.7,6556,2134.5,6529.5z"/>
	
		<linearGradient id="SVGID_00000098934662630067083280000010128876146985896091_" gradientUnits="userSpaceOnUse" x1="2433.0798" y1="2167.2009" x2="2061.1387" y2="1102.6023" gradientTransform="matrix(0.8835 0 0 -0.8835 499.9432 8155.0381)">
		<stop  offset="0" style="stop-color:#F9EBAB"/>
		<stop  offset="1" style="stop-color:#8ECCE2"/>
	</linearGradient>
	
		<path style="display:inline;opacity:0.6706;fill:url(#SVGID_00000098934662630067083280000010128876146985896091_);enable-background:new    ;" d="
		M2275,6409.6c-22.1-9.7-49.6-5.8-68.1,9.6s-27.3,41.8-21.7,65.3c21.1-3.5,42.1-7.1,63.3-10.6c-14,22-14.8,51.9-1.6,74.6
		s39.5,36.9,65.6,35.5c-8.7-33.1,17-70.9,51-75c34-4.1,67.9,26.5,67.3,60.8c0.7-9.8,9.8-18.2,19.6-18c9.8,0.2,18.7,8.7,19.2,18.5
		c46.1-4.3,93.7,17.8,120.2,55.7c-2.8-14.5,4.4-30.4,17.2-37.7c12.8-7.3,30.2-5.5,41.3,4.3c55,48.9,59.8,144,10.1,198.3
		c46.1-30.2,111.8-26.2,154.1,9.1c3.8-9.5,21.7-4.6,20.1,5.5c34.9-28.1,26.8-87.4-5.2-118.7c-32-31.3-78.8-41.3-123.2-47.4
		c31.5,11.4,70.7-9.4,78.9-41.9c8.1-32.5-13.1-58.5-46.3-63.3c35.3-66.3-43.7-95.1-73.8-76.2c15.5-53.5-36.2-97.1-71.7-106.8
		c-6-186.1-283.1-209.2-300.6-47.7c-4.8,43.9,18.7,90.1,62.4,84C2328.6,6396.1,2304.5,6404.8,2275,6409.6z"/>
</g>
<g id="Nubes_frente" class="st1">
	<path class="st15" d="M1099.6,6809.3c-14.8-113.3-181.3-301.7-368-226.9c-100.3,40.2-165.9,164.3-147.6,279.3
		c-11.8-33.9-43.8-58.2-77.1-58.5c-33.3-0.3-65.6,23.6-77.8,57.4c-28.8-32.6-77.2-42.3-114.7-22.9c-5.9,3.1-7.1,4.2-12.3,8.5
		c0,13.4-0.6,61.1,0,63.7c17.3-1,1000.2,67.5,1116.4,67.5C1401.1,6796.3,1132.5,6703.7,1099.6,6809.3z"/>
	<path class="st15" d="M2673.2,6911.8c-37.5-121.4-142.2-217.7-259.6-231.6c-132.2-15.6-269,73.9-318.6,208.6
		c-20.5-50-79.5-76.4-126.2-56.5c-35.7,15.2-58.9,37.7-61.3,79.1C1919.3,6911.3,2666.8,6911.8,2673.2,6911.8z"/>
	<path class="st15" d="M2884.6,6945.9c-9.2-18.6-31.9-17-40.8,0.4c-31.5-155-206.6-111.8-225.2-34.5
		c-144.9-76.2-355.4-69.5-559.6-8.9c-34.1-30.1-115.5-32.5-150.3-3.1c-33.2-37.5-63.8-48.1-113.5-54.9s-105.6,17.6-123.9,64.3
		c-18.3,46.7-17,81.5,33.1,80.9c0,0,772,0,1180,0c0.2-0.7-0.2-1.9,0-2.5C2884.2,6986.2,2884.6,6945.9,2884.6,6945.9z"/>
	<path class="st15" d="M1731.3,6990.4c-104.4-92.4-180.8-95.2-315.3-20.8c-121.5-205.8-353.2-84.9-588.1-84.9
		c-45.9-77.7-165.5-43.2-250.6-13.4c-85.2,29.8-151.9,29.3-139.4,118.7C437.8,6990.1,1478.8,6990.4,1731.3,6990.4z"/>
	<path class="st15" d="M478.9,6892.7c26.3-12.6,105.8,97.5,76.5,97.5c-245,0.1-268.1-0.1-268.1-0.1c0-40.6,0-150.4,0-259
		c0-26.2,99.6-58.4,139.5,127"/>
</g>
<g id="Nubes_frente_highlights" class="st1">
	<path class="st16" d="M1086,6783.6c-34.8,15.7-69.6,31.4-104.4,47.1C928.7,6708,799.3,6622.5,665.7,6622
		c68.7-52.3,164.1-67.5,245.7-39.4C993.1,6610.7,1058.7,6681.5,1086,6783.6z"/>
	<path class="st16" d="M1355.2,6951.2c21.5,0,57.4,6.5,60.3,6.5c0-52.7-62.5-114.6-91.2-136.7c-66.5-51.2-183.7-79.8-221.1-20.8
		C1203.9,6758.8,1332,6848.7,1355.2,6951.2z"/>
	<path class="st16" d="M2656.2,6867.6c-32.9-59.5-54.1-99.7-109.6-138.9c-55.6-39.2-112.4-56.4-180-48.2
		c-67.6,8.1-162.1,34.9-190.8,96.7c193.9-33.3,346.4,39.9,414.1,107.7C2621,6861.5,2657.3,6858.9,2656.2,6867.6z"/>
	<path class="st17" d="M429,6860.6c-2.7-68.4-89-213.9-141.7-126.9c51.6,7.6,101.8,72.6,60.5,116.8c48.9,6.8,75.6,22.6,94.9,67.9
		c44.7-48,109.8-52.5,134.6-14.3C570.8,6741.7,429,6816.9,429,6860.6z"/>
	<path class="st18" d="M1655.7,6937.2c-72.4-40-175-19.9-231.1,40.8c90.8-41.3,169.1-25.7,268-1.6
		C1692.5,6976.4,1666.7,6943.2,1655.7,6937.2z"/>
	<path class="st19" d="M1689,6883.4c-2.8,3.3-5.6,6.5-8,10c2.2-1.1,4.6-2.2,7.1-2.8c0.6-0.3,1.2-0.5,1.9-0.7
		C1689.3,6887.7,1689,6885.5,1689,6883.4z"/>
	<path class="st19" d="M2092.3,6882.4c-17.3-45.7-65.9-56.7-107.9-52.3c-42,4.4-66.4,28.5-75.5,69.7
		c-71.4-71.4-144.7-69.4-192.7-39.3c12.1-1.9,24.6-1.1,36.7,0.8c13.7,2.1,26.6,6.8,39.3,12.2c3.3,1.4,6.4,2.9,9.4,4.6
		c4.3,1.1,8.6,2.6,12.7,4.2c16.3,6.8,30.7,16.7,42.6,29.7c7.4,8.1,13.1,17.7,17.8,27.6c1.3,2.8,2.7,5.8,3.9,9
		c9.3-1.6,19.9-1.9,33,0.2c1.1-6.2,3.2-12.2,5.7-18.1c0.6-1.4,1.2-2.9,1.9-4.3c0.1-0.1,0.1-0.2,0.1-0.3c0.8-2.6,0.5-1.1,0,0
		c-0.1,0.4-0.3,0.8-0.4,1.3c0.9-2.9,2.3-5.7,3.6-8.5c1.6-3.3,3.5-6.3,5.7-9.2c11.3-14.9,26.3-23.9,45.1-25.8
		c15.3-1.6,32.4,3.4,44.8,12.4c7.9,5.8,14.5,12.8,20.1,20.6c7,7.7,13.1,16.4,17.8,25.4c1.4,2.6,2.7,5.2,3.8,7.9
		c0.9,2.1,1.8,4.2,2.7,6.4l0,0c0-0.2,0.1,0,0.4,0.6c0.4,0.5,0.6,1.1,1,1.8c0.3,0.5,0.5,1,0.7,1.5c6.9-3.9,11.8-8,13.4-11.7
		C2085,6933.5,2097.1,6895.3,2092.3,6882.4z"/>
</g>
<g id="Estrellas">
	<circle class="st20" cx="1247.4" cy="899.5" r="9.5"/>
	<circle class="st20" cx="731.5" cy="1149.7" r="7.7"/>
	<circle class="st20" cx="2391" cy="506.4" r="18.9"/>
	<circle class="st20" cx="2742.1" cy="1459.3" r="7"/>
	<circle class="st20" cx="3586.6" cy="884.1" r="11.8"/>
	<circle class="st20" cx="4385.2" cy="816.9" r="18.9"/>
	<circle class="st20" cx="1809.9" cy="1077.4" r="19.5"/>
	<circle class="st20" cx="2627.6" cy="774.2" r="3.5"/>
	<circle class="st20" cx="663.7" cy="607" r="7.7"/>
	<ellipse class="st20" cx="1014.3" cy="1000" rx="1.9" ry="1.7"/>
	<circle class="st20" cx="3345.1" cy="1324.1" r="14"/>
	<ellipse class="st20" cx="3793.4" cy="1163.6" rx="6.8" ry="12.2"/>
	<circle class="st20" cx="4164.6" cy="1016.4" r="2.1"/>
	<circle class="st20" cx="538.8" cy="672.3" r="3.9"/>
	<ellipse class="st20" cx="2041.6" cy="741.8" rx="9.8" ry="8.4"/>
	<circle class="st20" cx="2501.5" cy="1182.7" r="7"/>
	<circle class="st20" cx="3796.8" cy="366.4" r="3.4"/>
</g>
<g id="Estrellas_00000118397688225020580700000015449415656599315130_">
	<circle class="st20" cx="4328.8" cy="2468.5" r="9.5"/>
	<circle class="st20" cx="4849.4" cy="2228.1" r="7.7"/>
	<circle class="st20" cx="3178" cy="2839.7" r="18.9"/>
	<circle class="st20" cx="2845" cy="1880.3" r="7"/>
	<circle class="st20" cx="1989.6" cy="2439.2" r="11.8"/>
	
		<ellipse transform="matrix(0.9951 -9.853747e-02 9.853747e-02 0.9951 -239.6934 129.3737)" class="st20" cx="1189.9" cy="2491.3" rx="18.9" ry="18.9"/>
	<circle class="st20" cx="3769.7" cy="2279.9" r="19.5"/>
	<circle class="st20" cx="2946.5" cy="2567.5" r="3.5"/>
	<circle class="st20" cx="4906.8" cy="2772" r="7.7"/>
	
		<ellipse transform="matrix(1.904473e-02 -0.9998 0.9998 1.904473e-02 2104.7151 6890.1665)" class="st21" cx="4563.7" cy="2372.5" rx="1.7" ry="1.9"/>
	<circle class="st20" cx="2239.5" cy="2004" r="14"/>
	
		<ellipse transform="matrix(1.904473e-02 -0.9998 0.9998 1.904473e-02 -401.3893 3902.873)" class="st21" cx="1788.3" cy="2156" rx="12.2" ry="6.8"/>
	<circle class="st20" cx="1414.3" cy="2295.9" r="2.1"/>
	<ellipse class="st21" cx="5032.9" cy="2709.2" rx="3.9" ry="3.9"/>
	
		<ellipse transform="matrix(1.904473e-02 -0.9998 0.9998 1.904473e-02 853.756 6092.3584)" class="st21" cx="3531.6" cy="2611.1" rx="8.4" ry="9.8"/>
	<circle class="st20" cx="3080.2" cy="2161.4" r="7"/>
	<ellipse class="st21" cx="1769.6" cy="2952.9" rx="3.4" ry="3.4"/>
</g>
<g id="Nubes_top" class="st1">
	<path class="st22" d="M464.8,5585.4c53.2,10.8-166.9-24.6-6.4,51.3c82.8,39-70.2,87-171.3,144.7c0.2,3.7,0.1,66.3,0,72.7
		c162.2-50.4,307.7-101.8,314.2-70.9c5.1,24.3-148.5,102.5-209.3,163.3c114.9-3.6,202.8-105.8,301.7-152.1
		c60.7-28.4,120.2-20.3,190.1-32.3s123.2-48.3,108.9-100.3c72.7,8.7,150.2-28.2,169-80.6L464.8,5585.4z"/>
	
		<linearGradient id="SVGID_00000096755403388529338920000016491429897487682433_" gradientUnits="userSpaceOnUse" x1="279.2389" y1="2684.7324" x2="-249.4614" y2="1816.7682" gradientTransform="matrix(0.8835 0 0 -0.8835 499.9432 8155.0381)">
		<stop  offset="0" style="stop-color:#45A1C9"/>
		<stop  offset="0.1968" style="stop-color:#4AA4CB"/>
		<stop  offset="0.4441" style="stop-color:#58ACCF"/>
		<stop  offset="0.7182" style="stop-color:#6FBAD7"/>
		<stop  offset="1" style="stop-color:#8ECCE2"/>
	</linearGradient>
	
		<path style="display:inline;opacity:0.7294;fill:url(#SVGID_00000096755403388529338920000016491429897487682433_);enable-background:new    ;" d="
		M843.7,5746.2c-58.5,16-301.4,181.6-350.6,210c41.1-3.2,116.2-22.4,93.8,13.4c-80.7,130-319.5,163.1-299.8,212.6
		c27.4,68.9,669.1-303.2,621.4-303.2C636.2,5903.7,871.9,5738.5,843.7,5746.2z"/>
	
		<linearGradient id="SVGID_00000181065104487738228960000003873535844810310817_" gradientUnits="userSpaceOnUse" x1="125.0009" y1="2529.2161" x2="-142.3791" y2="2090.259" gradientTransform="matrix(0.8835 0 0 -0.8835 499.9432 8155.0381)">
		<stop  offset="0" style="stop-color:#45A1C9"/>
		<stop  offset="0.1968" style="stop-color:#4AA4CB"/>
		<stop  offset="0.4441" style="stop-color:#58ACCF"/>
		<stop  offset="0.7182" style="stop-color:#6FBAD7"/>
		<stop  offset="1" style="stop-color:#8ECCE2"/>
	</linearGradient>
	<path style="display:inline;fill:url(#SVGID_00000181065104487738228960000003873535844810310817_);" d="M500.2,6116.6
		c18.6-34.5,37.4-69,56-103.5c-49.8,42.8-99.7,85.5-149.5,128.2c40.7-2.1,77.4-26.1,105.8-55.3c28.4-29.2,50.2-64.1,75.6-95.9
		c25.5-31.8,56.2-61.4,94.7-74.7c-21.6-12.5-50.3-2-67.6,15.9s-26.6,41.9-38.3,64c-11.8,22.1-27.8,43.9-51.5,51.6"/>
	
		<linearGradient id="SVGID_00000108288027110876839560000017670251506060320420_" gradientUnits="userSpaceOnUse" x1="128.3645" y1="2601.614" x2="18.3886" y2="2421.0667" gradientTransform="matrix(0.8835 0 0 -0.8835 499.9432 8155.0381)">
		<stop  offset="0" style="stop-color:#4397BC"/>
		<stop  offset="0.1969" style="stop-color:#489ABE"/>
		<stop  offset="0.4442" style="stop-color:#56A4C5"/>
		<stop  offset="0.7183" style="stop-color:#6FB5D1"/>
		<stop  offset="1" style="stop-color:#8ECCE2"/>
	</linearGradient>
	<path style="display:inline;fill:url(#SVGID_00000108288027110876839560000017670251506060320420_);" d="M600.2,5929.4
		c-25.9,4.6-51.8,9.2-77.7,13.7c42.6-28.1,85.2-56.2,127.7-84.3C631.4,5883.9,612.6,5908.9,600.2,5929.4z"/>
	
		<linearGradient id="SVGID_00000127752754762509737190000010264449945989289887_" gradientUnits="userSpaceOnUse" x1="85.8494" y1="2838.1721" x2="-223.862" y2="2329.7205" gradientTransform="matrix(0.8835 0 0 -0.8835 499.9432 8155.0381)">
		<stop  offset="0" style="stop-color:#8ECCE2"/>
		<stop  offset="1" style="stop-color:#8ECCE2"/>
	</linearGradient>
	
		<path style="display:inline;opacity:9.020000e-02;fill:url(#SVGID_00000127752754762509737190000010264449945989289887_);enable-background:new    ;" d="
		M287.3,5854.1c105.7-51.2,209.6-77.5,327-83.1c-72,55.9-143.9,111.8-215.9,167.8c122.3-51.4,235.8-123.9,333.9-213.1
		c17.5-15.9,0.4-51.5-23-47.8c-84.3,13.3-168.7,26.7-252.9,40c29.6,6.7,61.9-14.1,70.2-43.4c8.3-29.2-6.4-62.5-32.4-78.3
		c-26-15.7-60.6-14.1-86.6,1.6c27.7,4.3,70.6,31.6,74,59.5c3.4,27.8-33,53.8-58.8,64.8c-54.2,23-81.2,39.7-135.4,62.5"/>
</g>
<g id="Estrellas_00000141445481834772920540000007331959311306493611_">
	<circle class="st20" cx="1001.3" cy="3937.9" r="9.5"/>
	<circle class="st20" cx="439.1" cy="4051" r="7.7"/>
	<circle class="st20" cx="2206.9" cy="3843.7" r="18.9"/>
	<circle class="st20" cx="2308.3" cy="4854.1" r="7"/>
	<circle class="st20" cx="3269.9" cy="4508.7" r="11.8"/>
	<circle class="st20" cx="4059.9" cy="4643.6" r="18.9"/>
	<circle class="st20" cx="1501.4" cy="4251" r="19.5"/>
	<circle class="st20" cx="2368.9" cy="4162.1" r="3.5"/>
	
		<ellipse transform="matrix(3.327783e-02 -0.9994 0.9994 3.327783e-02 -3014.3152 3900.9968)" class="st20" cx="509.4" cy="3508.7" rx="7.7" ry="7.7"/>
	
		<ellipse transform="matrix(0.2504 -0.9681 0.9681 0.2504 -3287.5916 3707.9468)" class="st27" cx="750.7" cy="3977" rx="1.7" ry="1.9"/>
	<circle class="st20" cx="2925.8" cy="4874.2" r="14"/>
	
		<ellipse transform="matrix(0.2504 -0.9681 0.9681 0.2504 -2128.1714 6913.4561)" class="st27" cx="3400.4" cy="4831" rx="12.2" ry="6.8"/>
	<circle class="st20" cx="3796.3" cy="4781.5" r="2.1"/>
	
		<ellipse transform="matrix(0.2504 -0.9681 0.9681 0.2504 -3148.8728 3014.6382)" class="st27" cx="372.3" cy="3540.7" rx="3.9" ry="3.9"/>
	
		<ellipse transform="matrix(0.2504 -0.9681 0.9681 0.2504 -2500.4336 4738.8193)" class="st27" cx="1809.9" cy="3984.1" rx="8.4" ry="9.8"/>
	<circle class="st20" cx="2144.6" cy="4526.1" r="7"/>
	
		<ellipse transform="matrix(0.2504 -0.9681 0.9681 0.2504 -1229.6667 6532.0249)" class="st27" cx="3603.3" cy="4060.1" rx="3.4" ry="3.4"/>
</g>
<g id="Estrellas_00000023961531180803889080000014975457386596811160_">
	<circle class="st20" cx="3885.1" cy="6152.9" r="10.2"/>
	<circle class="st20" cx="3531.3" cy="6653.7" r="8.2"/>
	<circle class="st20" cx="4752.9" cy="5194.1" r="20.1"/>
	<circle class="st20" cx="5573.9" cy="5905" r="7.5"/>
	<circle class="st20" cx="6067.7" cy="4930.2" r="12.7"/>
	<circle class="st20" cx="6780.8" cy="4454.7" r="20.1"/>
	<circle class="st20" cx="4503.8" cy="6028.8" r="20.9"/>
	<circle class="st20" cx="5112.7" cy="5322.6" r="3.7"/>
	<circle class="st20" cx="3187.4" cy="6180.5" r="8.2"/>
	
		<ellipse transform="matrix(0.8756 -0.483 0.483 0.8756 -2612.8501 2588.1414)" class="st21" cx="3718.7" cy="6367.2" rx="1.9" ry="1.8"/>
	<circle class="st20" cx="6068.7" cy="5467" r="14.9"/>
	
		<ellipse transform="matrix(0.8756 -0.483 0.483 0.8756 -1659.3268 3726.3958)" class="st21" cx="6405.5" cy="5084.9" rx="7.3" ry="13"/>
	<circle class="st20" cx="6677.3" cy="4755.6" r="2.2"/>
	
		<ellipse transform="matrix(0.8756 -0.483 0.483 0.8756 -2659.7463 2283.675)" class="st21" cx="3104.1" cy="6306" rx="4.2" ry="4.2"/>
	
		<ellipse transform="matrix(0.8756 -0.483 0.483 0.8756 -2136.6838 2892.2607)" class="st21" cx="4547.3" cy="5594.7" rx="10.4" ry="8.9"/>
	<circle class="st20" cx="5205.8" cy="5770.3" r="7.5"/>
	<ellipse class="st21" cx="5997" cy="4336.7" rx="3.6" ry="3.6"/>
</g>
</svg>
