<?xml version="1.0" encoding="UTF-8"?>
<svg id="Layer_1_copy" data-name="Layer 1 copy" xmlns="http://www.w3.org/2000/svg" viewBox="0 0 1941.5 3783.2">
  <defs>
    <style>
      .cls-1 {
        fill: #ffecac;
      }
    </style>
  </defs>
  <g id="Layer_8" data-name="Layer 8">
    <g id="Layer_4" data-name="Layer 4">
      <path class="cls-1" d="m1910.11,3454.64c-256.07-190.29-557.86-360.89-838.2-540.62-278.23-177.98-541.68-368.62-694.69-588.11-79.14-113.61-130.5-235.31-136.48-357.02-6.68-137.53,56.98-271.9,147.03-399.58,90.75-129.09,207.53-251.85,312.35-377.42,88.99-106.93,172.7-214.91,269.08-319.73,186.07-202.6,425.25-406.26,801.26-520.93,47.84-14.42,97.08-27.44,147.73-38.69,18.29-4.22,10.2-20.4-8.44-16.18-404.5,89.69-678.86,277.52-882.16,478.37-103.41,102-191.35,208.23-277.87,314.81-102,125.22-213.86,247.98-314.46,373.55-100.6,125.22-186.77,254.66-215.62,390.78-27.08,126.98,4.22,256.77,68.24,379.53,118.89,226.87,362.29,426.31,633.84,608.86,279.63,187.83,592.33,361.24,865.63,551.88,32.71,22.86,64.72,45.73,96.03,69.29,11.26,8.44,38.69,0,26.73-8.79h0Z"/>
      <path class="cls-1" d="m1910.46,2999.84c-148.79-151.6-350.68-285.26-531.83-425.96-179.74-139.64-342.24-289.83-395.36-459.37-14.42-46.08-21.81-93.56-18.29-139.99,3.87-50.3,21.1-100.25,45.02-148.79,47.13-96.03,118.54-188.18,167.78-283.85,52.76-102.71,46.78-207.53,40.8-312.7-6.33-108.34-7.03-216.67,57.69-320.79,100.95-162.5,256.42-326.06,539.57-417.52,34.47-11.26,70.7-20.75,107.63-29.55,18.64-4.22,2.46-18.64-15.83-14.42-302.85,69.64-498.06,224.06-613.79,383.75-33.06,45.37-63.66,92.51-81.96,139.99-20.4,52.41-26.73,105.87-27.79,158.99-1.76,108.69,20.75,217.73-4.22,326.06-11.96,51.71-41.86,101.65-71.4,150.9-29.19,48.19-61.55,96.03-90.4,144.57-57.33,96.38-94.27,193.11-80.9,294.41,22.86,174.11,164.97,332.39,340.13,476.61,176.93,145.62,385.51,279.99,549.07,430.18,19.7,18.29,39.04,36.58,56.98,55.22,9.5,10.2,36.58,1.76,27.08-7.74h0Z"/>
      <path class="cls-1" d="m1903.43,1444.44c-94.62,56.28-171.3,121-226.87,190.64-54.52,68.59-88.64,141.4-105.17,215.26-16.88,74.92-15.12,151.25,1.76,226.17,16.88,75.62,48.54,150.54,93.91,223,44.67,71.05,102,139.99,171.65,205.06,8.44,7.74,41.51,40.1,50.3,47.84,10.55,9.15,37.64.7,27.08-8.44-71.4-62.96-155.47-154.06-202.25-223.35-47.84-70.35-82.66-143.51-103.06-217.73-20.05-73.51-25.68-148.08-14.07-222.3,11.26-72.81,40.45-144.92,88.64-213.15,48.54-68.59,117.48-133.31,205.06-189.94,11.26-7.39,22.86-14.42,34.82-21.46,13.72-7.74-8.44-19.7-21.81-11.61h0Z"/>
    </g>
  </g>
</svg>