<?xml version="1.0" encoding="UTF-8"?>
<svg id="Layer_1_copy" data-name="Layer 1 copy" xmlns="http://www.w3.org/2000/svg" viewBox="0 0 1941.5 4880.09">
  <defs>
    <style>
      .cls-1 {
        fill: #ffecac;
      }
    </style>
  </defs>
  <g id="Layer_8" data-name="Layer 8">
    <g id="Layer_4" data-name="Layer 4">
      <path class="cls-1" d="m36.6,4756.37s160.31-108.23,194.89-137.52,72.83-59.4,100.5-90.73c59.81-68.36,133.46-133.46,198.56-200.18,67.13-69.17,131.42-138.74,197.33-208.32,32.55-34.18,54.93-69.58,83.82-104.57,26.45-32.14,52.08-64.69,76.9-97.24,209.54-275.05,359.68-563.11,428.44-858.1,8.14-35.4,19.12-71.61,19.12-107.41,0-38.65,10.17-76.9,15.05-115.15,10.17-80.56,11.39-161.12,6.92-241.28-4.48-80.56-15.05-161.12-28.07-241.28-2.44-16.28-2.44-33.36-8.54-49.23-7.32-19.12-15.87-37.43-18.72-57.37-5.7-36.62-14.24-73.24-24.41-109.45-21.56-76.09-53.71-150.54-85.85-225.82-15.05-35.4-30.52-70.8-46.79-106.19-8.14-17.9-16.28-35.4-23.19-53.3-6.1-15.05-19.12-27.67-26.45-42.72-71.2-144.03-158.27-285.22-257.96-423.96-194.89-271.39-437.8-531.79-694.94-787.71-32.14-31.74-64.29-63.47-96.43-95.21-11.39-10.99-42.72-1.22-31.33,9.77,258.77,253.48,507.78,510.22,712.85,777.95,102.94,134.27,194.89,270.98,272.61,410.13,37.03,66.32,74.46,132.23,104.97,198.96,32.55,72.42,65.91,144.85,94.8,217.68,29.7,74.46,52.89,149.73,65.51,225.82,2.44,15.46,0,34.18,8.54,48.83,11.39,19.12,15.46,37.03,18.72,57.37,6.51,39.47,12.21,78.93,17.09,118.4,9.76,78.93,15.46,157.87,14.24,237.21-.81,39.47-3.25,78.93-7.73,118.4-4.07,37.84-16.28,76.49-16.28,114.33,0,73.24-24.01,147.7-45.57,219.71-21.56,72.42-48.01,144.44-78.53,215.64-61.85,142.81-141.59,283.19-236.39,420.3-49.23,70.8-102.13,141.19-158.68,210.35-27.67,33.77-49.23,68.36-80.15,100.91-32.55,34.18-64.69,68.76-96.84,102.94-64.29,68.36-128.57,136.3-197.74,203.03-64.69,62.66-123.28,126.54-194.08,187.57-36.21,31.33-144.44,99.28-186.76,128.57-15.87,9.76,10.58,28.48,10.58,28.89h0Z"/>
      <path class="cls-1" d="m39.86,1356.93c125.72,122.88,226.22,253.08,299.46,387.75,72.83,133.86,120.03,271.39,139.15,410.54,20.34,145.66,10.58,292.54-20.75,437.8-31.74,147.29-85.44,292.54-147.7,436.98-8.14,19.12-16.68,38.25-25.23,56.96-2.44,5.7-7.32,8.95-12.21,13.83-6.92,6.92-8.14,16.28-11.39,24.01-14.65,35.4-31.74,70.39-50.45,105.38-36.62,67.95-79.34,135.08-118.4,203.03-9.77,16.68-76.09,78.53-85.04,95.21-6.51,12.21,28.48,17.09,34.99,5.29,37.03-69.17,137.52-181.87,176.99-250.64,19.94-34.18,38.65-68.76,55.34-103.35,8.95-18.31,17.09-36.62,24.41-55.34,2.85-6.92,4.48-12.61,11.39-18.72,6.92-6.1,9.36-12.21,12.21-19.12,64.69-145.66,122.06-292.14,159.09-440.65,36.62-146.88,52.49-295.8,38.25-443.9-13.43-139.96-54.11-279.52-121.66-415.01-67.54-135.9-161.53-267.72-281.56-392.63-14.65-15.46-30.11-30.92-45.57-45.98-10.99-12.2-42.72-2.44-31.33,8.55h0Z"/>
    </g>
  </g>
</svg>