<?xml version="1.0" encoding="utf-8"?>
<!-- Generator: Adobe Illustrator 27.6.1, SVG Export Plug-In . SVG Version: 6.00 Build 0)  -->
<svg version="1.1" id="Layer_1" xmlns="http://www.w3.org/2000/svg" xmlns:xlink="http://www.w3.org/1999/xlink" x="0px" y="0px"
	 viewBox="0 0 1924.2 916.9" style="enable-background:new 0 0 1924.2 916.9;" xml:space="preserve">
<style type="text/css">
	.st0{fill:#1876BD;}
	.st1{fill:#FFECAC;}
</style>
<g id="Layer_1-2">
	<path class="st0" d="M1921.8,564.8c0-153.9,4.9-196.8,0.7-406.6c-41.4-163.9-448.9-196.1-539.4,72.3c-4.5,13.5,3.2,26.1-10.5,12.5
		c-129-129-451.4-49.6-531,51c-14.7,18.6-33.6,11.6-40.1-0.6c-85.7-160.1-289.9-178.5-369-128.9c-26.2,16.5-16.8,14.2-21.1-6.3
		C374.3-21.4,2.5-71.2,2.5,131.2c0,0.7-0.2,422.9-0.1,769.4c0,7.7-4.8,13.4,2.9,13.4l1912.6,0.5c7.7,0,4.6-5.7,4.6-13.3
		C1922.7,845.9,1921.8,648.3,1921.8,564.8z"/>
</g>
<g id="Layer_2_00000026879920020107851250000016803913801513490621_">
	<path class="st1" d="M4.6,165.9c10.7-15.1,25.8-25.9,41.6-35.1c16.9-9.8,33.9-17.8,53-22.2c20.3-4.6,40.6-6.7,61.2-2.5
		c9.9,2,19.5,5.2,28.6,9.5c4.3,2,7.6,5.1,11.6,7.5c4,2.5,7.8,5.4,11.2,8.6c6.2,5.8,13.7,13.7,16.3,21.9c0.5,1.6,1.1,2.8,1.9,4.2
		c0.9,1.6,0.6,2.8,1.4,4.4c0.4,0.9,1.3,1.5,1.8,2.4c0.7,1.3,0.9,3.2,1.2,4.7c0.7,2.8,1.2,5.7,1.7,8.6c3.4,21.6,0.6,44.7-6.6,65.3
		c-6.8,19.3-16,37-25.8,54.9c-10.3,18.6-20.3,37.3-30.5,56c-11.4,20.9-22.8,41.8-34.6,62.5c-12.1,21.1-25.3,41.5-37.1,62.7
		c-1.1,1.9,0.7,4.2,2.8,3.7c2.2-0.6,4.2-2.7,3.5-5.1c-0.3-1.2-1.3-1.7-2.4-1.8c-1.9-0.2-3.1,1.9-3.9,3.3c-1.1,1.8,0.7,4.5,2.8,3.7
		c2.1-0.8,4.5,0,6.8-0.3c2.2-0.3,3.8-1.2,5.3-2.8s0.4-4.2-1.8-4.3c-4.8-0.1-9.1-0.5-12.7,3.2c-1.4,1.5-0.5,4.4,1.8,4.3
		c3.5-0.3,8.4,0.1,11.7-1.4c2.6-1.1,2.4-4.2-0.3-5c-3.1-0.9-10.9-0.4-13.1,2.2c-1.3,1.5-0.6,4.4,1.8,4.3c45-3.2,96,9.5,120.9,50.5
		c11.7,19.2,17,43.3,10,65.2c-6.7,20.7-25.8,38.7-23.6,61.8c0.9,9.2,5.3,17.5,12.9,22.9c8.5,6,19,8.1,29,10
		c24.3,4.8,48.9,8.3,73,14.4c22.3,5.7,44.5,14.2,62.5,28.9c16.6,13.6,30.5,32.2,34.6,53.5c5.1,26.8-9.4,51.4-25.3,71.7
		c-14.9,19-32.5,35.5-51.5,50.3c-2.5,2,1,5.5,3.5,3.5c17.5-13.7,33.7-28.7,47.8-45.8c14.2-17.3,27.8-37,30.8-59.7
		c6-45.9-34.3-82.6-73-98.2c-23.1-9.3-47.9-13.8-72.3-18.2c-12.2-2.2-24.4-4.2-36.5-6.9c-10.9-2.5-22.7-6.5-28-17.2
		c-5.5-11.3-1.9-24.1,3.4-34.7c5.2-10.4,11.8-20,16-31c8.1-21.1,5.1-44.6-4.5-64.7c-23.2-48.4-79.7-64.9-129.7-61.3
		c0.6,1.4,1.2,2.8,1.8,4.3c0.3-0.3,3.2-0.6,4.3-0.7c1-0.1,2-0.1,3-0.1c0.8,0,1.7,0.4,0.8-0.2c-0.4-0.7-0.8-1.4-1.2-2.2
		c-0.1-6.7,2.7-1.7,1.1-2.1c-0.5-0.1-1.4,0.2-1.9,0.3c-2.6,0.3-5.2,0.5-7.7,0.7c0.6,1.4,1.2,2.8,1.8,4.3c2.5-2.6,5.9-1.8,9.2-1.8
		c-0.6-1.4-1.2-2.8-1.8-4.3c-2.5,2.7-6.7,0.7-9.8,1.9c0.9,1.2,1.9,2.5,2.8,3.7c-0.1-0.3-0.2-0.5-0.4-0.8c-0.8-0.6-1.6-1.2-2.4-1.8
		v-1c0.9,1.2,1.9,2.5,2.8,3.7c11.2-20.1,23.6-39.4,35.1-59.3c11.3-19.5,22.2-39.3,32.9-59.1s21.4-39.6,32.2-59.3
		c10.3-18.7,20.3-37.3,27.5-57.5c7.4-20.7,10.6-43.6,7.9-65.5c-0.7-5.5-1.7-10.9-3.1-16.3c-0.5-1.9-1.3-3-2.1-4.7
		c-0.4-0.8-0.6-2.6-1.1-3.8c-0.8-1.8-1.9-3.3-2.6-5.2c-0.6-2-1.6-3.6-2.7-5.3c-2.6-4-5.5-7.9-8.7-11.6c-2.8-3.3-5.9-6.3-9.2-9.1
		c-3.8-3.2-8-5.4-11.9-8.4c-2.1-1.6-3.5-3.1-5.9-4.3c-2.2-1.1-4.4-2.1-6.6-3.1c-4.6-2-9.3-3.8-14.1-5.2c-20.1-6.1-40.7-6.8-61.3-3.2
		c-11.4,2-22.7,4.5-33.6,8.4c-10.6,3.8-20.5,9-30.3,14.5c-18.3,10.2-35.7,22.2-48,39.5C-1.6,166,2.7,168.5,4.6,165.9L4.6,165.9
		L4.6,165.9z"/>
	<path class="st1" d="M10.5,242.2c14.6-16.3,32-30.1,50.2-42.1c8.3-5.5,17.5-10.2,26.7-14.1c9.4-4,19.5-7,29.8-7.2
		c9.8-0.2,21.2,2.2,28.3,9.3c5.6,5.6,9.2,12.7,10.9,20.4c3.5,15.9-1,33-8.7,47c-5,9.2-11.2,17.8-16.8,26.6
		c-5.9,9.3-11.7,18.6-17.4,28c-11.2,18.4-22.1,37-32.5,55.8c-10.5,18.8-20.5,37.9-30.1,57.2c-4.9,9.8-9.6,19.7-14.2,29.7
		c-4.4,9.5-9.1,19-12.1,29.1c-5.5,18.5-6.6,39.8,4.1,56.7c9.4,14.8,24.1,22.4,41.1,24.7c21.1,2.8,43.9,0,63.6,9.6
		c7.2,3.5,14.5,8.2,18.3,15.5c4.6,8.8,3.1,19.8-0.2,28.7c-6.7,18.3-20.6,33.5-30.6,50c-9.3,15.3-17.2,32.7-15.3,51
		c0.9,8.5,3.3,17.2,8.6,24.1c4.8,6.3,11.7,10.7,18.9,13.7c9.2,3.9,19.2,5.8,28.9,7.9c10.9,2.4,21.8,4.5,32.6,6.8
		c10.8,2.3,21.6,4.7,32.3,7.7c9.4,2.6,18.4,6.8,25.9,13.2c15.6,13.3,11.4,33.9-0.5,48c-5.7,6.7-12.6,12.4-19.9,17.3
		c-3.8,2.5-7.1,5.7-10.9,7.9c-5.1,3-10.1,6-15.3,8.9c-18.6,10.6-37.6,20.3-57.5,28.2c-9.8,3.8-19.7,7.2-29.8,10
		c-3.1,0.9-1.8,5.7,1.3,4.8c20.9-5.8,40.9-14,60.3-23.6c10-4.9,19.7-10.2,29.4-15.7c4.7-2.7,9.4-5.4,14.1-8.2c2.3-1.4,4.1-2.7,6-4.5
		c2-1.8,4.4-3.1,6.6-4.7c13.4-9.3,27.2-22.2,30.7-38.8c1.7-8.1,0.9-17.3-3.4-24.5c-4.6-7.7-12.6-13.3-20.4-17.5
		c-9.2-5-20-7.1-30.1-9.5c-11.2-2.7-22.5-4.9-33.8-7.2c-11.5-2.4-23-4.7-34.3-7.7c-8.3-2.2-16.7-5.5-23.2-11.3
		c-14.6-13.1-13.8-36-7.5-53c6.9-18.5,19.5-34.2,30.2-50.5c9.9-15,20.3-35.4,11.6-53.3c-7.7-16-28.3-22.9-44.6-25.1
		c-10.8-1.5-21.7-1.6-32.6-2.4c-10.2-0.8-20.6-2-29.6-7.2c-17.6-10-25.5-29.2-24-48.8c1.8-22.9,13-43.4,22.7-63.8
		c9.6-20.1,19.8-39.9,30.4-59.4c21.4-39.4,44.8-77.8,69.1-115.5c8.9-13.8,14.9-29.9,14.5-46.4c-0.4-14.9-7.1-32.4-21.4-39.2
		c-18.7-8.9-39.3-4.8-57.5,3.2c-19.5,8.6-37.6,20.9-54,34.5c-8,6.7-15.8,14.2-22.8,22C4.9,241.1,8.4,244.6,10.5,242.2L10.5,242.2
		L10.5,242.2z"/>
	<path class="st1" d="M1369.7,910.8c-12.1-28.3-30.6-54.5-53.9-74.6c-11-9.5-23.3-17.6-36.8-23.2c-14.6-6-30.9-8.4-46.7-7.5
		c-9.1,0.5-17.9,2.9-26.6,5.6c-7.7,2.4-14.7,6-21.3,10.6c-12.3,8.4-22.7,19.3-31.8,31.1c-4.7,6-8.5,12.9-14.3,18
		c-2.7,2.3-5.8,4.2-9.3,5.2c-4.2,1.2-8.9,0.7-13.2,0.6c-18.6-0.4-37.2-3.5-55.9-2.3c-9,0.6-18.1,1.8-27.1,3s-18.1,2.8-26.8,5.5
		c-17.2,5.4-34,12.3-50.5,19.7c-4,1.8-7.9,3.6-11.9,5.5c-2.9,1.4-0.4,5.7,2.5,4.3c16-7.5,32.2-14.6,48.8-20.5
		c8.6-3.1,17.3-5.9,26.3-7.6c8.8-1.7,17.6-2.7,26.5-3.7c9-1,17.8-1.7,26.9-1.5c9.2,0.3,18.3,1.2,27.5,1.8c4.7,0.3,9.3,0.6,14,0.7
		c4.2,0.1,8.7,0.4,12.9-0.5c7.1-1.5,12.9-6.2,17.5-11.6c2.5-2.9,4.4-6.2,6.7-9.2c2.3-3.1,4.6-6.2,7.1-9.2
		c4.6-5.6,9.5-10.9,14.9-15.8c5.5-5,11.4-9.4,17.8-13.1c3.4-2,6.8-3.8,10.6-5.1c4.2-1.4,8.5-2.7,12.8-3.8c4.5-1.2,8.9-2.3,13.6-2.7
		c4.2-0.4,8.5-0.4,12.8-0.2c8.1,0.4,16.2,1.3,24,3.6c13.5,3.8,25.9,10.8,37.2,19.1c24.3,18,43.5,43.2,56.8,70.2
		c1.6,3.3,3.2,6.7,4.6,10C1366.7,916.3,1370.9,913.8,1369.7,910.8L1369.7,910.8L1369.7,910.8z"/>
	<path class="st1" d="M1309.7,910.8c-4.6-10.8-12.7-20.1-21.9-27.3c-9.3-7.3-20.1-13-31.7-15.8c-27.6-6.5-56.3,2.6-80.5,15.7
		c-14.4,7.8-27.9,17.1-41.2,26.5c-1.1,0.8-1.6,2.2-0.9,3.4c0.6,1.1,2.3,1.7,3.4,0.9c22.8-15.9,46.3-32.3,73.4-39.7
		c12.9-3.6,26.6-5,39.9-2.8c11.1,1.8,21.6,6.6,30.8,13c10.3,7.2,19.4,16.9,24.3,28.6c0.5,1.2,2.4,1.5,3.4,0.9
		C1310.1,913.5,1310.2,912.1,1309.7,910.8L1309.7,910.8L1309.7,910.8z"/>
	<path class="st1" d="M1923.1,366c-16.4-41.7-42.1-79.7-73.7-111.4c-31.7-31.7-70.2-57.7-113.1-71.2c-21-6.6-43-10-64.9-9.5
		c-21.2,0.5-44,3.8-62.8,14c-33.8,18.4-53.9,56.1-54.9,94.1c-0.6,20.7,5,40.8,14.8,59c12,22.2,29.6,40.4,46.5,58.9
		c32.2,35.2,61.3,74.7,81.1,118.3c19.4,42.7,28.9,91.7,12.4,136.9c-1.8,4.8-4.7,8.9-10.4,8.9c-5.2,0-7.9-4.3-11.3-7.5
		c-5.9-5.7-12.7-10.4-20.4-13.3c-14.3-5.3-28.8-0.9-38,11.1c-12.6,16.4-13.6,39-16.3,58.8c-2.9,21-5.4,42.2-9,63.1
		c-7.1,40.7-18.6,82.6-46.3,114.5c-6.9,7.9-14.7,15.1-23.1,21.4c-2.6,1.9-0.1,6.2,2.5,4.3c16.6-12.4,30.4-27.8,41-45.6
		c10.3-17.3,17.4-36.4,22.6-55.8c10.9-40.4,13.8-82.3,20.5-123.4c2.7-16.5,8-39.3,26.5-44.7c16.3-4.8,30.2,7.2,40.9,17.7
		c6.1,5.9,16.1,6,21.8-0.5c3.2-3.6,4.5-9,6-13.5c1.8-5.5,3.2-11.2,4.2-16.9c4.1-22.2,2.9-45.1-1.9-67.1
		c-10.1-46.3-34.9-88.8-63.1-126.4c-13.9-18.6-29.1-36-44.8-53c-17.1-18.6-33.8-38.1-43.3-61.8c-14.5-36-8.5-79,16.3-109.2
		c12.6-15.4,29.4-26.6,48.7-31.5c21.7-5.5,44.4-6.8,66.6-4.2c44.6,5.3,86.5,26.2,121.2,54.1c35.2,28.2,64.7,63.9,85.6,103.8
		c5,9.5,9.5,19.2,13.4,29.2C1919.4,370.3,1924.3,369,1923.1,366L1923.1,366L1923.1,366z"/>
	<path class="st1" d="M1923.4,474.7c-15-33.8-34.5-66-56.9-95.4c-23-30.2-50.6-60.4-85.3-77.2c-7.5-3.6-15.3-6.6-23.3-8.5
		c-3.9-0.9-7.9-1.6-12-2c-3.5-0.3-6.7,1-9.8,2.5c-11.6,5.6-17.5,17.2-19.2,29.5c-2.1,15,0.3,30.4,3.6,45
		c3.5,15.4,8.3,30.5,13.4,45.4c5.2,15.4,10.6,30.6,16.8,45.7c9.2,22.2,19,44,28.7,65.9c19.5,44.4,38.4,89.7,47.2,137.6
		c4.3,23.6,5.9,47.8,3.9,71.7c-1.8,20.9-5.9,42.2-15.5,61c-8,15.7-20.5,30.5-38.5,34.2c-8.2,1.7-16.8,1.1-24.3-2.8
		c-6.4-3.3-11.7-8.2-16.7-13.3c-8.9-9-18.2-21.2-31.6-23.2c-12-1.8-24.8,5.7-32.5,14.6c-7.1,8.2-10.8,18.7-14.6,28.7
		c-6,15.9-12.3,31.6-20.1,46.7c-5.7,10.9-12,21.6-18.7,31.9c-1.8,2.7,2.6,5.2,4.3,2.5c12-18.6,22.4-38,30.9-58.3
		c5-12,8.8-24.6,14.4-36.4c4.4-9.2,10.5-16.3,19.6-21.3c6.1-3.3,12.9-4.9,19.6-2.6c6,2,10.9,6.6,15.4,11
		c9.9,9.8,18.9,21.4,32.4,26.3c16.3,5.9,34.9-0.4,47.2-11.8c13.1-12,21.1-29,26.1-45.8c6.6-21.7,8.7-45.2,8.2-67.8
		c-1-47.6-15.1-93.7-32.4-137.6c-17.6-44.5-38.9-87.4-56.1-132.1c-4.8-12.4-8.8-25.3-12.9-38c-4.9-15.2-9.4-30.7-11.9-46.5
		c-2.1-13.2-3.3-28.2,1.9-40.9c2.2-5.3,5.8-10,10.7-13.1c2.4-1.5,5.7-3.4,8.6-3.8c3.6-0.4,8.1,0.9,11.6,1.6
		c35.7,7.9,65.2,35,88.6,61.5c25.7,29.1,47.3,62.1,65,96.6c3.5,6.9,6.9,13.8,10,20.9C1920.3,480.1,1924.7,477.6,1923.4,474.7
		L1923.4,474.7L1923.4,474.7z"/>
</g>
</svg>
