<?xml version="1.0" encoding="utf-8"?>
<!-- Generator: Adobe Illustrator 27.6.1, SVG Export Plug-In . SVG Version: 6.00 Build 0)  -->
<svg version="1.1" id="Layer_1" xmlns="http://www.w3.org/2000/svg" xmlns:xlink="http://www.w3.org/1999/xlink" x="0px" y="0px"
	 viewBox="0 0 1480.1 1138.6" style="enable-background:new 0 0 1480.1 1138.6;" xml:space="preserve">
<style type="text/css">
	.st0{display:none;}
	.st1{display:inline;fill:#FFDE70;}
	.st2{fill:#FFEDAB;}
	.st3{fill:#FFF3C9;}
	.st4{fill:#EDA901;}
	.st5{fill:#FFE796;stroke:#FFDE70;stroke-miterlimit:10;}
	.st6{fill:#FFE89E;stroke:#FFDE70;stroke-miterlimit:10;}
	.st7{fill:#FFE796;stroke:#D98116;stroke-miterlimit:10;}
	.st8{fill:#9BB159;}
	.st9{fill:#9BB159;stroke:#728F38;stroke-width:3;stroke-miterlimit:10;}
	.st10{opacity:0.58;fill:#9BB159;stroke:#5F8217;stroke-width:5;stroke-miterlimit:10;enable-background:new    ;}
	.st11{opacity:0.56;fill:#9BB159;enable-background:new    ;}
	.st12{opacity:0.62;fill:#9BB159;enable-background:new    ;}
	.st13{fill:#95CFFF;}
	.st14{fill:#5BA2D9;}
	.st15{fill:#FFFFFF;}
	.st16{font-family:'Avenir-Roman';}
	.st17{font-size:292.02px;}
	.st18{fill:#3085C7;}
	.st19{font-size:280.8501px;}
	.st20{font-size:284.3072px;}
	.st21{letter-spacing:-9.4;}
	.st22{font-size:276.21px;}
	.st23{font-family:'Avenir-Book';}
	.st24{font-size:80.8px;}
	.st25{letter-spacing:-2;}
	.st26{letter-spacing:-8.1;}
	.st27{fill:#74B4E8;}
	.st28{fill:#74B4E8;stroke:#FFFFFF;stroke-miterlimit:10;}
	.st29{fill:#95CFFF;stroke:#5BA2D9;stroke-width:3;stroke-miterlimit:10;}
	.st30{fill:#FFFFFF;stroke:#5BA2D9;stroke-width:5;stroke-miterlimit:10;}
	.st31{fill:#9BB159;stroke:#658030;stroke-width:4;stroke-miterlimit:10;}
	.st32{fill:#728F38;stroke:#607521;stroke-width:3;stroke-miterlimit:10;}
	.st33{fill:#7C9434;}
	.st34{fill:#D98116;}
	.st35{fill:#75AED9;}
	.st36{fill:#FFECAC;}
	.st37{fill:#FFDE70;}
	.st38{fill:#728F38;}
	.st39{fill:#1775BD;}
	.st40{fill:#E8A323;}
	.st41{fill:#EDA901;stroke:#EDA901;stroke-width:3;stroke-miterlimit:10;}
	.st42{fill:#EBA701;stroke:#EDA901;stroke-width:3;stroke-miterlimit:10;}
	.st43{fill:#F2F9FF;}
	.st44{fill:#F2F9FF;stroke:#5BA2D9;stroke-miterlimit:10;}
	.st45{fill:#F2F9FF;stroke:#728F38;stroke-miterlimit:10;}
	.st46{fill:#FFFFFF;stroke:#728F38;stroke-miterlimit:10;}
	.st47{fill:#FFF3C9;stroke:#FFDE70;stroke-miterlimit:10;}
	.st48{fill:#FFF3C9;stroke:#3085C7;stroke-miterlimit:10;}
	.st49{fill:#FFF3C9;stroke:#EDA901;stroke-miterlimit:10;}
	.st50{clip-path:url(#SVGID_00000054972901194620137920000016450402951329181358_);}
	.st51{clip-path:url(#SVGID_00000041982089268770329950000011040981819820962987_);}
	.st52{fill:none;stroke:#FFECAC;stroke-miterlimit:10;}
</style>
<g id="Layer_21" class="st0">
	<path class="st1" d="M108.2,806.2C4.6,833.4-37,986.8,38.8,1062.6s229.2,34.3,256.4-69.4c65.3,94.1,180.9,150.8,295.3,145
		s223.6-74.1,279-174.3c59.7,38.9,153.1-23.8,139.7-93.7c327.7,104.4,453.7-97.3,468.9-312.8c19.2-271.5-108-434.6-322.6-458.9
		C1045,21.2,903-9.5,770.5,15.3s-253.9,104.6-329,216.6c-144.6-17.1-309.3,30.8-380.6,157.8C-6.5,509.4,34.3,723.6,108.2,806.2
		L108.2,806.2z"/>
</g>
<g id="Base_de_color">
	<path class="st2" d="M1361.3,737.7l-60.5-501.5c-15.6-10.8-24.6-29.2-37.7-42.8c-5.2,0.9-236.7,28.1-241.5,29.5
		c2.3-0.3-0.3,0.1-2.5,0.4c-6.1,0.5-11.1,3.3-17,3.8l0,0c-16.8,2.8-39.3,7.9-55.8,16.5c-4.3,3.5-5.6,9.9-11.5,11.7
		c-7.3,15.8-27.5,9.9-32.2-4.2c-2.5-0.2-6.3-1-8.6-1.1c-23.9-1.7-47.9,5.2-71.3,7.3c-24.5,4.2-48,4.6-71.9,10.4
		c-13.5,2.5-36.8,10.1-48.6,2.3c-64,4.4-127.2,18.9-191.2,24.3c-38.6,0-77.2,12.1-115.6,8.4c-63.8,8.3-131,17.3-195.3,26.1
		c-15.1,0.3-25,10.1-37.5,17.5c-0.6,0.5-1.9,1.3-3.4,2.1c-0.8,3.2-2.4,6.2-4.9,8.5c-0.5,0.4-0.9,0.8-1.4,1.2l58.9,487.6
		c24.9,12.5,49.7,25.6,74.8,37.9c12.8,0.5,24.5,8.6,37.4,10.3c11.7-1.8,23.6,4.5,35.2,3.8c32.9,0.8,65.6-3.7,98.5-4.3
		c12.5,0.2,25.9-4.1,38-1l81.8-9.9c29.4-11.3,62-14.3,93-19.6c36.7-5.5,73.6-10.2,110.3-15.8c29.8-4,59.8-10.9,89.7-11
		c5.2-3.6,15-3.2,19.9-3.4c5.1-0.8,13.2-1.8,19.1-2.5c14.1-0.7,29.5-6.9,43.9-4.6c5.8-6.8,13.2-11.6,22.5-12.6
		c3.7-2.3,8.2-3.3,12.2-2.2c7.9,2.7,18.5-0.1,22.3,7.6c15.9,2.5,31.5-1.5,47.6-2.8c9.1-1.2,18.6-4.3,27.8-5.7
		c1.5-1.5,3.4,0.8,5.6,0.5c19.5-2.9,38.4-3.2,57.9-5.5c14.2-2.5,28.5-5.2,42.7-7.7c10.9,0.2,21.4,0.7,32.2-1.6
		c1.7-1.7,3.8-3,6.1-3.4c30.7-6.3,66.2-7.2,95.8-7.6c2.2,0.2,4.2,0.8,6.1,1.7c2.8-1.5,4.7-3.6,6.9-6.8c-0.5-6.7,4.7-13,8.5-17.9
		C1351.7,753.6,1356.4,745.6,1361.3,737.7L1361.3,737.7z"/>
	<path class="st2" d="M1315.4,373.3c13.9,12.5,29,23.9,44.9,33.8c2,1.2,2.4,4.4,0.8,6.1c-17,17.7-31.2,38.2-41.8,60.4"/>
	<path class="st2" d="M1322.6,456.3c-4.6,1.2,7.7,7.9,11.7,10.5c14.4,9.6,26.6,20,41,29.6c-17.3,17.6-31.3,38.4-41.1,61"/>
	<path class="st2" d="M1342.3,533.6c1.1-2.5,6.6,15.6,12.1,20.4s13.2,8.9,18.4,14.1s10.3,12.2,4,19.8
		c-50.8,60.8-49.8,23.7-61.4,40.1"/>
	<path class="st2" d="M1366.3,599.8c-10.7,6-14.6,15.2-12.9,27.4c1.7,12.1,2.8,14.2,14.7,17.1c9.4,2.3,22.9,22,21.3,31.5
		s-8,17.5-14.8,24.3s-14.4,13.1-19.4,21.3c-20.6-14-34.5-37.5-36.9-62.3s6.7-50.5,24.2-68.2"/>
	<path class="st2" d="M157,362c-3.1,1.4-5.9,3.1-8.4,5.1c1,4.2,1.3,8.8,1.5,13c0.3,1.2,0.5,2.5,0.4,3.8c-0.3,5.5-1.6,10.7-5.1,14.5
		c-2.6,4.1-5.5,7.9-8.4,11.7c-2.1,2.8-4.4,5.5-6.6,8.3c-0.9,1.1-1.8,2.1-2.7,3.2c-0.2,0.2-1.5,1.8-1.4,1.6c-0.6,0.7-1.1,1.4-1.6,2.1
		c-1.1,1.4-2.5,2.3-4.1,3c-0.3,2.9-0.5,4.6-0.5,4.6s4.7,11.6,12,18.4c6.8,6.2,15.2,10.4,21.1,17.4c5.9,7,4.1,16,1.1,24.7
		c-5.4,15.7-18.6,34.8-18.6,34.8s32.1,37.5,47.5,32.2L157,362L157,362z"/>
	<path class="st2" d="M182.7,546.6c-15.5,14-31,28-46.5,42c20.1,16.6,40.2,33.2,60.3,49.8"/>
	<path class="st2" d="M198.1,613.9l-45.2,43.3c-8.5,8.2-7.4,24.2,2.3,31c19.1,13.6,38.3,27.2,57.4,40.9"/>
	<path class="st2" d="M206.5,698.8c-12.7,16.3-25.4,32.6-38,48.9c-6.2,7.9-4,21,4.5,26.5c16.4,10.6,32.8,21.2,49.1,31.7"/>
	<path class="st2" d="M221.9,772.2c-15.7,15.2-31.4,30.5-47,45.7c-5.2,5-3.4,14.2,1.6,19.4s12.3,7.3,19.2,9.5s14.1,4.9,18.4,10.6"/>
	<path class="st2" d="M185.2,694.8c12.2,5.1,20.4,18.5,19.4,31.7c-0.2,3.1-2.8,5.8-5.8,6.2s-6.2-1.5-7.4-4.3
		C187.2,717.2,182.9,706.1,185.2,694.8L185.2,694.8z"/>
	<path class="st2" d="M167.6,605.1c7.1,2,13.3,6.8,17,13.2c3.7,6.3,4.9,14.1,3.1,21.3c-0.8,3.3-4.3,5.8-7.7,5.3s-6.2-3.6-6.2-7
		C174,628.2,172.5,618.5,167.6,605.1L167.6,605.1z"/>
	<path class="st2" d="M1294.9,237.3c11.8,7.2,23.6,14.5,35.4,21.7c5.2,3.2,6.5,11.2,2.6,15.9c-10.3,12.2-12.1,29.3-22.5,41.5
		c2,0.6-4.5-3.6-2.4-3"/>
	<path class="st2" d="M1305.3,303.9c11.1,8.4,29.8,22.8,40.9,31.2c2.3,1.8,2.8,5.6,0.9,7.8c-12.3,14.9-24.7,29.8-37.1,44.7"/>
	<path class="st3" d="M1033.4,391.1c1.9,0,1.9-3,0-3S1031.5,391.1,1033.4,391.1L1033.4,391.1z"/>
	<path class="st3" d="M939.8,337.6c1.9,0,1.9-3,0-3S937.9,337.6,939.8,337.6L939.8,337.6z"/>
	<path class="st3" d="M1025.7,385.5c1.9,0,1.9-3,0-3S1023.8,385.5,1025.7,385.5L1025.7,385.5z"/>
</g>
<g id="Naranja">
	<path class="st4" d="M386,861.6c5,18.1,7,20.8,16.1,36.7c145-14.6,377.8-53.2,512.5-67.6c-0.1,0,4.7-0.7,3.2-0.5
		c13.7-2,26.9-2.2,39.4-8.6c8.4-7.2,20.1-18.2,31-9.1c1.2,0.2,4.4,0.7,5.1,1.2c7.1-0.2,12.7,4.3,17,9.3l320.4-39.7
		c19.1-16.2,18.3-31,30.8-47.1C1115.4,763.8,572.6,840.8,386,861.6L386,861.6z"/>
</g>
<g id="Layer_22">
	<path class="st5" d="M331.2,838.2c-20.3,18.3-53.5,17.2-76,1.7s-35.2-42.3-39.4-69.3s-5.1-89.5,13.3-53.6
		c20.3,39.6,53.1,26.9,84.7,54.3C331,786.2,337.4,812.1,331.2,838.2L331.2,838.2z"/>
	<path class="st5" d="M526.6,528.9c-7.6,24.4,6.9,53.4,31.2,62.5s54.9-3.1,65.8-26.3c10.9-23.2,0.5-53.8-22.4-66.1
		S538.3,491.5,526.6,528.9z"/>
	<path class="st5" d="M144.3,419.6c4.2,13.3,8.4,26.6,12.7,39.9c-6.8-2.9-13.7-5.9-19-11s-8.8-12.8-6.9-19.8
		S143.1,415.8,144.3,419.6L144.3,419.6z"/>
	<path class="st5" d="M157.5,515.7c0.8,12.5,5.3,24.8,12.8,34.9c-6.3-1.8-12.8-3.7-18.1-7.7s-9-10.6-7.7-17.1
		S153.8,514.5,157.5,515.7L157.5,515.7z"/>
	<path class="st5" d="M169,583.2c0.4,13.3,5.3,26.5,13.8,36.8c-7.7-2.2-15.7-4.5-21.9-9.6s-10.2-13.7-7.6-21.3
		S168.8,577.4,169,583.2L169,583.2z"/>
	<path class="st5" d="M152.2,676.7c8.6-2.6,17.2-5.2,25.8-7.8c-0.1,12.4,3.6,24.7,10.6,35C173.3,699.2,160.1,688.5,152.2,676.7z"/>
	<path class="st5" d="M166.4,761.8c7.9-2.4,15.8-4.8,23.7-7.2c0.4,12.3,5.6,24.4,14.1,33.3C187.8,785.3,173.1,773.9,166.4,761.8
		L166.4,761.8z"/>
	<path class="st5" d="M181.4,833.4l21.7-8.9c3.8,7,7.5,14.1,11.3,21.1C203,850.8,187.9,844.9,181.4,833.4L181.4,833.4z"/>
	<path class="st5" d="M1388.4,675.6c-6,13.5-16,25.2-28.4,33.2c0.3-13,0.5-26.1,0.8-39.2c2.9,4.7,8.4,7.5,13.9,7.1
		S1385.2,672.7,1388.4,675.6L1388.4,675.6z"/>
	<path class="st5" d="M1378.5,586.1c-10,11.2-19.9,22.4-29.9,33.6c0.4-13,0.9-25.9,1.3-38.9C1356.9,589.4,1371.9,589.5,1378.5,586.1
		L1378.5,586.1z"/>
	<path class="st5" d="M1371.4,504.5c-10.1,10.7-20.2,21.3-30.3,32c-0.6-12.1-1.2-24.1-1.8-36.2
		C1347,509.2,1362.6,509.4,1371.4,504.5L1371.4,504.5z"/>
	<path class="st5" d="M1357.4,418.4c-9.3,10.4-18.5,20.9-27.8,31.3c-1-11.8-2.1-23.7-3.1-35.5
		C1336.3,421.7,1352.4,419.2,1357.4,418.4z"/>
	<path class="st5" d="M1345.4,346.4c-10.4,9-20.8,18.1-31.2,27.1c0.5-11.2,1-22.4,1.5-33.5C1324.5,347.9,1339.5,347.5,1345.4,346.4
		L1345.4,346.4z"/>
	<path class="st5" d="M1334.5,275.2c-8.4,9.3-16.9,18.6-25.4,27.9c-1.4-11.3-2.7-22.5-4.1-33.8c4.4,3.8,10.5,5.6,16.2,4.8
		c5.8-0.8,11.1-4.1,14.3-9C1334.5,268.8,1333.5,272.3,1334.5,275.2z"/>
	<path class="st5" d="M1228.5,654.7c21.9-21.8,36.5-50.8,40.8-81.4c1.2-8.8,13.4-13.8,20.4-8.4c30.5,23.2,45.2,65.4,35.7,102.5
		c-9.4,37.2-42.5,67.1-80.4,73c-20.8,3.2-42.7-12.4-46.5-33.1S1213.5,669.5,1228.5,654.7L1228.5,654.7z"/>
	<path class="st5" d="M1154.5,280.6c31.1-7.3,65-1,91.4,16.9s44.8,47.2,49.5,78.7c1.5,10,1.6,20.5-2.1,29.8
		c-3.7,9.4-12,17.4-22,18.7s-21-5.8-22.1-15.8c-5.9-55-52-103.1-106.7-111.5c-7.8-1.2-12.2-12-7.5-18.3
		C1139.9,272.8,1151.4,274,1154.5,280.6L1154.5,280.6z"/>
	<path class="st6" d="M262.8,521.2c-17.2,22.9-60.4,16.6-70.5-10.2c-10.2-27-17.4-55.8-14.7-84.4s16.4-57.2,40.8-72.8
		s60.1-15.1,81,5.1s19.7,59.7-5.1,74.8C265,451.6,248.6,488,262.8,521.2L262.8,521.2z"/>
	<path class="st6" d="M279.9,704.6c-20.9-4.7-39.1-19.9-47.6-39.5c-3.4-7.9-2-17.7,3.5-24.3s14.9-9.8,23.3-7.8
		c31.4,7.3,60.1,8.8,95.3,24.5c10.1,4.5,3.3,22.2-3,31.3C344.1,699.3,300.8,709.3,279.9,704.6L279.9,704.6z"/>
	<path class="st6" d="M887,432.5c-17.6-20.9-46.1-30-73.4-29.9s-53.8,8.2-79.8,16.6c-7.9,2.6-10.7,13.4-6.8,20.8
		s12.1,11.5,20.2,13.1s16.6,1.2,24.8,2.3c28.8,3.7,54.1,26.9,60.3,55.3c3,13.7,17.7,23.7,31.5,21.4S904.6,453.4,887,432.5L887,432.5
		z"/>
	<path class="st6" d="M945.3,350c-10,1.7-24.9,3.2-35,4.9c15.6,141.6,33.8,288.7,48.7,434.2c10.5-1.3,21.4-4.4,31.9-5.6
		C976.7,644.6,959.9,482.5,945.3,350L945.3,350z"/>
	<polygon class="st7" points="400.2,881.5 397.6,876.8 1347.7,755 1345.6,760.9 	"/>
	<path class="st5" d="M919.3,769.4c18.4-16.7,25-45.2,15.8-68.3c-2.2-5.5-2.6-11.6-4-17.4c-1.4-5.8-4.2-11.7-9.5-14.4
		s-13.2-0.3-14.3,5.5c-8,42.3-38.1,79.9-77.7,96.9c-3.2,1.4-3.1,14.7,0.3,17.4C848.1,803,901,786.1,919.3,769.4L919.3,769.4z"/>
</g>
<g id="Verde">
	<path class="st8" d="M901,254.6c-0.5-1.1-0.9-2.3-1.2-3.5C899.8,252.3,900.4,253.6,901,254.6z"/>
	<path class="st9" d="M1194.3,206.3l-237.6,29.8c-1.4,2.6-3.4,4.9-5.8,6.6c3-2.3-0.1,0.3-0.6,0.6c-1.2,0.9-2.4,1.8-3.6,2.6
		c0.1-0.1-1.3,1-1.7,1.4c-0.7,0.6-1.3,1.4-2,1.9l0,0c0,0,0,0.1-0.1,0.1c0,0,0,0,0,0.1c-0.8,2.1-1.5,3.8-2.8,5.5
		c-0.6,0.7-0.9,1.2-1.1,1.5c-0.3,0.4-0.3,0.4,0,0c0.2-0.3,0.5-0.8,0.9-1.3c-2.7,3.9-6.6,6.6-10.8,7.3c-8.2,5.2-21.5-2.2-28.2-7.7
		c-4.2-18.5-108.5,6.8-137.4,8.7c-51.7,10.3-105.7,14.9-158.2,19.2c-25.5,1.3-51.9,11.2-77.6,7.4l-266.6,33.4
		c-39.6,6.7-1.3,137.8-1.3,137.8l962.5-126.9C1222.3,334.2,1213.1,210.8,1194.3,206.3L1194.3,206.3z"/>
	<polygon class="st10" points="353.3,833.4 328.9,706.9 891.3,621.8 911.6,750.8 	"/>
	<polygon class="st11" points="1026.3,737.6 1022.4,655.8 1232,655.2 1234,733.6 	"/>
	<polygon class="st12" points="1005.6,471 989.2,390.7 1196.2,358 1210.2,435.1 	"/>
	<path class="st3" d="M456.7,747.3c-4.8,0.5-9.6,1.1-14.5,1.5c-6.4,0.5-6.4,10.5,0,10c4.8-0.4,9.6-1.1,14.5-1.5c2.7-0.2,5-2.1,5-5
		C461.7,749.8,459.4,747,456.7,747.3L456.7,747.3z"/>
	<path class="st3" d="M488.9,743.1c-5.3,0.6-10.6,1.2-15.9,1.7c-2.7,0.3-5,2.1-5,5c0,2.5,2.3,5.3,5,5c5.3-0.5,10.6-1.1,15.9-1.7
		c2.7-0.3,5-2.1,5-5C493.9,745.6,491.6,742.8,488.9,743.1L488.9,743.1z"/>
	<path class="st3" d="M520,739.1c-5.1,0.7-10.1,1.4-15.2,2c-2.7,0.3-5,2-5,5c0,2.4,2.3,5.3,5,5c6-0.8,11.9-1.5,17.9-2.4
		c2.7-0.4,4.2-3.8,3.5-6.2C525.3,739.7,522.6,738.8,520,739.1L520,739.1L520,739.1z"/>
	<path class="st3" d="M556.9,733.7c-7.8,1.2-15.5,2.3-23.3,3.5c-6.3,0.9-3.7,10.5,2.7,9.6c7.8-1.1,15.5-2.3,23.3-3.5
		C565.9,742.4,563.2,732.8,556.9,733.7L556.9,733.7z"/>
	<path class="st3" d="M592,728.9c-6.4,0.8-12.8,1.7-19.2,2.6c-2.7,0.4-4.1,3.8-3.5,6.2c0.8,2.9,3.5,3.9,6.2,3.5
		c5.5-0.8,11.1-1.5,16.6-2.3c2.7-0.4,5-2,5-5C597,731.5,594.7,728.5,592,728.9L592,728.9L592,728.9z"/>
	<path class="st3" d="M626.6,723.9c-6.7,1-13.4,1.9-20,2.9c-2.7,0.4-4.1,3.8-3.5,6.2c0.8,2.9,3.5,3.9,6.2,3.5c6.7-1,13.4-1.9,20-2.9
		c2.7-0.4,4.1-3.8,3.5-6.2C632,724.5,629.3,723.5,626.6,723.9L626.6,723.9z"/>
	<path class="st3" d="M659.6,719.2c-5.5,0.8-11,1.6-16.5,2.3c-2.7,0.4-4.2,3.8-3.5,6.2c0.8,2.9,3.5,3.9,6.2,3.5
		c5.5-0.8,11-1.6,16.5-2.3c2.7-0.4,4.2-3.8,3.5-6.2C665,719.8,662.3,718.8,659.6,719.2L659.6,719.2z"/>
	<path class="st3" d="M693.7,714.4c-5.5,0.7-10.9,1.5-16.4,2.2c-2.7,0.4-4.2,3.8-3.5,6.2c0.8,2.9,3.5,3.9,6.2,3.5
		c5.5-0.8,10.9-1.5,16.4-2.2c2.7-0.4,4.2-3.8,3.5-6.2C699.1,715,696.4,714.1,693.7,714.4L693.7,714.4z"/>
	<path class="st3" d="M731.4,709c-7,1-14,2-20.9,3c-6.3,0.9-3.7,10.5,2.7,9.6c7-1,14-2,20.9-3C740.4,717.7,737.7,708.1,731.4,709
		L731.4,709z"/>
	<path class="st8" d="M908,274.4c-7.8-5.8-15.7-11.6-23.5-17.4c-2.6-2-3.3-6.1-1.4-8.8s6-3.5,8.8-1.6c8.3,5.5,16.5,11,24.8,16.5
		c4.3,2.9,10.3,1.5,14.5-1.5s7.1-7.5,10.5-11.5c3.3-4,7.5-7.7,12.6-8.5c2.8-0.4,5.2,3.4,3.6,5.7C947.3,263,930.6,274.4,908,274.4
		L908,274.4z"/>
</g>
<g id="Layer_9">
	<path class="st8" d="M1026.3,737.3c27.1-1.1,54.2-1.5,81.3-1.8c26.8-0.3,53.7-0.4,80.5-0.9c15.2-0.3,30.5-0.7,45.8-1.3
		c0.8,0,1.5-0.7,1.5-1.5c-0.4-20.5-1-41-1.6-61.5c-0.1-5.6-0.3-11.2-0.4-16.8c0-0.8-0.7-1.6-1.5-1.5c-26.8,2.3-53.7,4.4-80.5,6.7
		c-26.6,2.2-53.1,4.6-79.7,7.3c-15.2,1.5-30.4,3.2-45.5,4.9c-0.8,0.1-1.5,0.6-1.5,1.5c0,16.5-1,33.1-0.6,49.6
		c0.1,4.6,0.3,9.2,0.7,13.9c0.1,1.9,3.1,1.9,3,0c-1.2-16.2-0.6-32.3-0.2-48.5c0.1-5,0.2-10,0.2-14.9l-1.5,1.5
		c26.8-3.1,53.6-5.8,80.4-8.3c26.6-2.4,53.1-4.7,79.7-6.9c15.2-1.3,30.4-2.5,45.7-3.8l-1.5-1.5c0.4,20.5,1,41,1.6,61.5
		c0.1,5.6,0.3,11.2,0.4,16.8l1.5-1.5c-27.1,1.1-54.2,1.5-81.3,1.8c-26.8,0.3-53.7,0.4-80.5,0.9c-15.2,0.3-30.5,0.7-45.8,1.3
		C1024.4,734.4,1024.4,737.4,1026.3,737.3L1026.3,737.3L1026.3,737.3z"/>
	<path class="st8" d="M1002.2,388.2c25.4-4.1,50.9-8.1,76.3-12.1c25.1-3.9,50.1-7.9,75.2-11.7c14.3-2.2,28.7-4.4,43-6.6l-1.8-1
		c3.9,17,6.5,34.3,9.3,51.6c0.3-0.6,0.7-1.2,1.1-1.9c-20.8,5.9-42.1,10.2-63.3,14.6c-21.2,4.3-42.4,8.7-63.3,14.6
		c-10.4,3-20.9,5.9-31.4,8.6c-5.2,1.3-10.4,2.5-15.6,3.7c-2.7,0.6-5.4,1.1-8.1,1.7c-2.6,0.5-5.2,1.1-7.8,1.4c-1,0.1-2,0.1-3-0.4
		c-0.5-0.2-1-0.5-1.5-0.7c-1.2-0.4-2.6-0.5-3.9-0.7c-1.4-0.2-2.8-0.4-4.1-0.9c-0.1,0-0.3-0.2-0.4-0.2c-0.1,0,0.2,0,0.2,0.3
		c0-0.8-0.4-1.8-0.5-2.5c-1.5-7.5-3.1-15.1-4.7-22.6c-2.3-11.1-4.6-22.1-6.9-33.2c0-0.2-0.1-0.4-0.1-0.6l-1,1.9
		c4.4-1.2,8.8-2.5,13.2-3.2c1.9-0.3,1.1-3.2-0.8-2.9c-4.5,0.8-8.9,2-13.2,3.2c-0.8,0.2-1.2,1-1,1.9c2,9.6,4,19.3,6,29
		c1.6,7.8,3.2,15.5,4.8,23.3c0.4,1.8,0.7,3.5,1.1,5.3c0.3,1.4,0.5,2.4,1.9,3.1c2.5,1.2,5.5,1.2,8.2,1.9c1.3,0.3,2.5,1.1,4.1,1.3
		c2.4,0.2,4.9-0.5,7.2-0.9c5.5-1,11-2.2,16.4-3.4c10.7-2.5,21.4-5.4,32-8.3s21.2-6,31.9-8.5s21.4-4.8,32.2-7
		c21.5-4.4,43.1-8.6,64.3-14.2c2.7-0.7,5.3-1.4,8-2.2c0.8-0.2,1.2-1,1.1-1.9c-2.8-17.2-5.4-34.5-9.3-51.6c-0.2-0.9-1.1-1.2-1.8-1
		c-25.4,3.9-50.9,7.9-76.3,11.8c-25.1,3.9-50.1,7.8-75.1,11.8c-14.3,2.3-28.7,4.5-43,6.8C999.5,385.6,1000.3,388.5,1002.2,388.2
		L1002.2,388.2L1002.2,388.2z"/>
</g>
<g id="Layer_8">
	<rect x="998.9" y="398" class="st13" width="210.7" height="295.1"/>
</g>
<g id="Layer_10">
	<path class="st14" d="M1209.6,396.5c-27.3-1.4-54.6-1.6-81.9-1.5c-27.6,0.1-55.2,0.7-82.8,1.1c-15.2,0.2-30.3,0.4-45.5,0.4
		c-0.8,0-1.5,0.7-1.5,1.5c-0.2,22.2-0.2,44.5-0.3,66.7c-0.1,25.2-0.1,50.4-0.2,75.5c0,24-0.1,47.9-0.1,71.8c0,18.3,0,36.6,0,54.8
		c0,8.2-0.2,16.5,0,24.7c0,0.1,0,0.2,0,0.3c0,0.8,0.7,1.5,1.5,1.5c1.5,0,3,0.1,4.5,0.1c5.7,0.1,11.3,0.2,17,0.3
		c11.4,0.1,22.8,0.2,34.2,0.3c18.9,0.1,37.9,0.2,56.8,0.3c27.9,0.1,55.9,0.1,83.8,0.1c4.2,0,8.5,0,12.7,0c0.8,0,1.5-0.7,1.5-1.5
		c0-38.4,0.2-76.7,0.5-115.1c0.3-38.3,0.7-76.6,0.9-114.9c0.1-21.7,0.2-43.4,0.2-65.1c0-1.9-3-1.9-3,0c0,38.5-0.2,76.9-0.5,115.4
		c-0.3,38.3-0.7,76.5-0.9,114.8c-0.1,21.6-0.2,43.3-0.2,64.9l1.5-1.5c-29.3,0-58.7,0-88-0.1c-19.9-0.1-39.9-0.1-59.9-0.3
		c-12.2-0.1-24.4-0.2-36.6-0.3c-6.3-0.1-12.5-0.2-18.8-0.3c-1.4,0-2.8-0.1-4.2-0.1c-0.5,0-1.1-0.1-1.6,0c0,0,0,0-0.1,0l1.5,1.5
		c0-6.8,0-13.5,0-20.3c0-17.3,0-34.5,0-51.8c0-23.5,0-47,0.1-70.5c0-25.3,0.1-50.6,0.2-76c0.1-22.7,0.2-45.4,0.3-68.2
		c0-2.4,0-4.8,0-7.3l-1.5,1.5c27.2,0,54.4-0.5,81.7-1c27.6-0.4,55.2-0.8,82.9-0.4c15.2,0.2,30.4,0.6,45.6,1.4
		C1211.5,399.6,1211.5,396.6,1209.6,396.5L1209.6,396.5L1209.6,396.5z"/>
</g>
<g id="Layer_11">
	<text transform="matrix(0.5112 -7.093912e-02 0.1374 0.9905 296.6096 681.519)" class="st15 st16 st17">NC</text>
	<text transform="matrix(0.5194 -7.041227e-02 0.1406 0.9901 302.6599 674.1301)" class="st18 st16 st19">NC</text>
	<text transform="matrix(0.6315 -8.392945e-02 0.1317 0.9913 668.4004 625.2401)" class="st15 st16 st20 st21">PH</text>
	<text transform="matrix(0.6311 -8.756549e-02 0.1374 0.9905 673.7606 617.9685)" class="st18 st16 st22 st21">PH</text>
	<text transform="matrix(0.9829 -0.1193 0.1205 0.9927 286.8801 417.2906)" class="st3 st23 st24 st25">BOARDING </text>
	<text transform="matrix(0.9829 -0.1193 0.1205 0.9927 706.2823 366.3884)" class="st3 st23 st24 st26">P</text>
	<text transform="matrix(0.9829 -0.1193 0.1205 0.9927 744.5615 361.7423)" class="st3 st23 st24 st25">ASS</text>
</g>
<g id="Layer_7">
	<path class="st27" d="M807.9,844c-64.9,10.6-202.5,30.3-202.5,30.3s-17,14.9-22.7,28.1c-22.5,51.9-86,91.6-144.6,88.4
		c-6.8-0.4-3.4,13.5,2.8,16.3c51,23.2,119.5,37.9,192.1,37.9s142.4-45.8,163.7-111.8"/>
	<path class="st13" d="M445.2,1006.9c-27.1-63.2-44.1-122.8-81.3-189.5c-17.1-30.6-51-62.3-84.5-33.5c-18,15.5-46.1,27.9-38.6,58.9
		c3.9,4.2,1.8-17.2,19.3,1.8c8,8.7-3.5-4.4,2.7,2.6c39.5,44.9,79.4,86.3,119,131.2"/>
	<path class="st13" d="M198.9,911.6c17.8-22.2,44.9-71.8,59-99.7c-33.4,13.3-56.5,43.4-81.2,69.5s-56.9,50.8-92.7,47.3
		c-7.8-0.8-13.9,8.8-11.6,16.3s10.3,12.2,18.2,12.9s15.6-1.7,23.1-4.2s15.2-5.1,23.1-4.7"/>
	<path class="st13" d="M73.9,929.9c-2-2.2-1.5-5.7,0-8.2s4-4.3,5.9-6.5s4.8-9.7,4.1-12.5s-5.9-0.2-8,1.8c-4.7,4.5-9.3,9.1-14,13.7
		c-6.6,6.5-17.9,13.3-2.8,25.4c7.2,5.8,90.8,18.1,99.4,14.6"/>
	<path class="st14" d="M243.5,866.1c2.1-11-1.9-28.8-1.9-28.8S145.2,955.9,60.8,944.8c38.8,36.4,102,51.2,149.6,45.4
		C228.7,988,234,972,235,953.6"/>
	<path class="st13" d="M564.9,234.6c87.4-56.3,191.7-78.4,293.5-99.5c-85.6-27.6-195.1,2.7-270.9,60.8"/>
	<path class="st27" d="M532.7,289.7c7.6-14.7,15.4-33.6,23-48.4c-21.9,11.9-40.3,30.2-52.1,52.1"/>
	<path class="st28" d="M968.7,94.3c-7.9,3.2-10.1,5-19.1,8.5l-8.7-14.4c-0.9-1.5-3.1-1.4-3.8,0.2l-6.4,13.1c-5-2.8-8.9-4.2-13.4-6.3
		c-1.4-0.7-3,0.7-2.5,2.2c3.6,9.8,4.1,8.3,15.8,32.8c11.3-2.8,43.3-14.5,54.9-16.3c1.6,15.1,4.2,24,6.4,36.8c0.9,5.5,6.6,5.2,9.5,0
		c9.3-15.9,12.9-29.4,19.3-42.8c21.9-7.5,35.2-9.5,53-19.3c7.6-4.2,5.2-14-2.7-17.4c-13.8-5.9-38.3,1.5-63.6,6
		c-27.2-14-36.2-20-58.2-29.2c-5.9-2.5-14.6,0.8-9.9,7.5c9.6,13.6,13.6,18.3,29.9,35.9C970,92.5,969.7,93.8,968.7,94.3L968.7,94.3z"
		/>
</g>
<g id="Layer_17">
	<path class="st29" d="M559.6,542.7c-6.9,2.4-8.9,4-16.7,6.6l-5.2-15.4c-0.5-1.6-2.3-1.7-3.1-0.2l-6.9,12.5
		c-3.7-3.4-6.7-5.1-10.1-7.8c-1.1-0.8-2.5,0.4-2.3,2c1.7,10.3,2.2,8.8,8.6,34.7c9.5-1.7,37.2-10,46.8-10.7
		c-0.7,15.4,0.3,24.6,0.4,37.8c0,5.6,4.7,5.9,7.8,1c9.6-15.1,14.4-28.3,21.3-41.1c18.8-5.3,29.9-5.8,45.7-13.9
		c6.7-3.5,6-13.5,0-17.8c-10.4-7.4-31.4-2.5-52.6-0.6c-20.3-17-26.8-23.9-43.6-35.6c-4.5-3.1-12-0.8-9,6.5
		c6,14.7,8.7,19.9,19.7,39.4C560.9,541.1,560.5,542.4,559.6,542.7L559.6,542.7z"/>
	<ellipse class="st30" cx="825.7" cy="693.8" rx="79.5" ry="80.7"/>
	<path class="st31" d="M400.1,821.7c36.5-41,34.5-140-23.2-132.6C327,695.5,352.7,804.1,400.1,821.7L400.1,821.7z"/>
	<ellipse class="st32" cx="386" cy="733.9" rx="16.5" ry="17"/>
</g>
<g id="Líneas">
	<path class="st18" d="M893.7,243.4c-51.2,6.1-102.3,12.3-153.4,18.5c-45.4,5.5-90.7,11-136.1,16.5c-42.6,5.2-85.1,10.4-127.7,15.5
		c-43.2,5.3-86.5,10.5-129.7,15.7c-46.9,5.7-93.8,11.3-140.7,17c-6.2,0.7-12.3,1.5-18.5,2.2c-3.2,0.4-3.2,5.4,0,5
		c47.6-5.7,95.1-11.4,142.6-17.2c43.5-5.3,87-10.5,130.6-15.8s84.9-10.3,127.4-15.5c44.9-5.5,89.8-10.9,134.6-16.3
		c50.3-6.1,100.5-12.1,150.8-18.2c6.7-0.8,13.4-1.6,20.1-2.4C896.8,248,896.9,243,893.7,243.4L893.7,243.4L893.7,243.4z"/>
	<path class="st18" d="M893.8,248.6c5.5,4.1,10.8,8.4,16.2,12.6c3,2.3,6.1,4.8,9.8,6c7.7,2.5,14.1-5,18.9-9.8
		c6.4-6.4,12.8-12.8,19.5-19c2.4-2.2-1.2-5.7-3.5-3.5c-6,5.6-11.8,11.3-17.5,17.1c-1.9,1.9-3.7,3.7-5.7,5.5
		c-0.8,0.7-1.5,1.4-2.4,2.1c-0.3,0.3-0.7,0.5-1,0.8s0,0,0.1-0.1c-0.1,0.1-0.2,0.1-0.3,0.2c-0.2,0.1-0.4,0.3-0.6,0.4
		c-0.6,0.4-1.2,0.8-1.9,1.2c-0.1,0.1-0.3,0.1-0.4,0.2c-0.5,0.2,0.5-0.1,0.1,0c-0.3,0.1-0.6,0.2-0.9,0.3c-0.3,0.1-0.6,0.1-0.8,0.2
		c-0.1,0,0.7,0,0.2,0c-0.2,0-0.3,0-0.5,0c-0.3,0-0.6,0-0.8,0c0.3,0,0.6,0.1,0.2,0c-0.2,0-0.3-0.1-0.5-0.1c-0.3-0.1-0.6-0.1-0.8-0.2
		s-0.3-0.1-0.5-0.2c-0.3-0.1,0.5,0.3-0.1,0c-0.7-0.3-1.4-0.7-2-1.1c-1.7-1-3.3-2.2-4.8-3.4c-0.7-0.5-0.7-0.5-1.3-1s-1.2-0.9-1.8-1.4
		c-1.3-1-2.6-2-3.9-3.1c-3.4-2.7-6.8-5.3-10.3-7.9c-1.1-0.8-2.8-0.2-3.4,0.9C892.1,246.4,892.7,247.7,893.8,248.6L893.8,248.6
		L893.8,248.6z"/>
	<path class="st18" d="M957.1,239c19.2-3.6,38.5-6.8,57.8-9.7s39.5-5.7,59.3-8.2s40.2-4.9,60.4-7.3c20.2-2.3,40.4-4.6,60.6-6.8
		c20.1-2.3,40.1-4.5,60.2-6.9c2.5-0.3,5-0.6,7.4-0.9c1.3-0.2,2.5-1,2.5-2.5c0-1.2-1.2-2.7-2.5-2.5c-20.1,2.4-40.2,4.8-60.3,7
		s-40.6,4.5-60.9,6.9c-20.2,2.3-40.3,4.7-60.4,7.2c-20,2.5-40,5.2-60,8.1c-19.5,2.9-38.9,6-58.3,9.6c-2.4,0.4-4.7,0.9-7.1,1.3
		C952.6,234.7,953.9,239.6,957.1,239L957.1,239L957.1,239z"/>
	<path class="st18" d="M1262.2,198.3c9.8,11.6,19.2,23.6,28.8,35.4c2.4,2.9,4.8,5.8,7.2,8.7c0.9,1,2.6,0.9,3.5,0c1-1,0.9-2.5,0-3.5
		c-9.8-11.6-19.2-23.6-28.8-35.4c-2.4-2.9-4.8-5.8-7.2-8.7c-0.9-1-2.6-0.9-3.5,0C1261.2,195.8,1261.3,197.3,1262.2,198.3
		L1262.2,198.3z"/>
	<path class="st14" d="M1301,259.3c1.7,9,3,18,3.7,27.1c0.1,1.4,1.1,2.5,2.5,2.5c1.3,0,2.6-1.1,2.5-2.5c-0.8-9.5-2-19-3.9-28.5
		c-0.3-1.3-1.8-2.1-3.1-1.8C1301.3,256.6,1300.7,257.9,1301,259.3L1301,259.3L1301,259.3z"/>
	<path class="st14" d="M1309.9,333.1c1.5,9,2.2,18,2.3,27.1c0,3.2,5,3.2,5,0c-0.1-9.5-0.9-19-2.4-28.5c-0.2-1.3-1.9-2.1-3.1-1.8
		C1310.3,330.5,1309.7,331.8,1309.9,333.1L1309.9,333.1L1309.9,333.1z"/>
	<path class="st14" d="M1320.2,395.4c2.8,12.4,4.5,25,5,37.7c0.1,3.2,5.1,3.2,5,0c-0.6-13.1-2.3-26.2-5.2-39
		C1324.3,390.9,1319.5,392.3,1320.2,395.4L1320.2,395.4L1320.2,395.4z"/>
	<path class="st14" d="M1331.9,487.2c1.8,12.8,3.5,25.5,5.3,38.2c0.2,1.3,1.9,2.1,3.1,1.8c1.4-0.4,1.9-1.7,1.8-3.1
		c-1.8-12.8-3.5-25.5-5.3-38.2c-0.2-1.3-1.9-2.1-3.1-1.8C1332.2,484.5,1331.7,485.9,1331.9,487.2L1331.9,487.2z"/>
	<path class="st14" d="M1342.9,568.4c1.6,11.8,2.6,23.6,3,35.5c0.1,3.2,5.1,3.2,5,0c-0.5-12.3-1.6-24.6-3.2-36.8
		c-0.2-1.3-1.9-2.1-3.1-1.8C1343.2,565.7,1342.7,567.1,1342.9,568.4L1342.9,568.4L1342.9,568.4z"/>
	<path class="st14" d="M1352.1,654.8c3.5,14.2,5.2,28.7,4.9,43.3c-0.1,3.2,4.9,3.2,5,0c0.2-15-1.5-30.1-5.1-44.7
		C1356.1,650.4,1351.3,651.7,1352.1,654.8L1352.1,654.8L1352.1,654.8z"/>
	<path class="st18" d="M1299.4,243.5c7.4,3.8,14.9,7.4,22.2,11.3c2.4,1.3,4.8,2.6,7,4.1c0.4,0.3,0.9,0.6,1.3,0.9
		c0.2,0.1,0.4,0.3,0.6,0.4c0.2,0.2-0.1-0.1-0.1-0.1c0.1,0.1,0.2,0.2,0.4,0.3c0.7,0.6,1.4,1.2,2,1.8c0.2,0.2,0.8,1,0.4,0.4
		c0.2,0.3,0.4,0.6,0.6,0.9c0.1,0.2,0.5,1,0.3,0.6s0.2,0.5,0.2,0.7c0.1,0.5,0.1,0.9,0.1,0.4c0,0.3,0.1,0.7,0,1c0,0.1,0,0.3,0,0.5
		c0,0.6,0.1-0.3,0,0c-0.1,0.4-0.1,0.8-0.2,1.1c-0.1,0.4-0.2,0.7-0.3,1c-0.1,0.2-0.2,0.4-0.2,0.6c-0.1,0.2-0.3,0.7-0.1,0.2
		c-0.4,0.9-0.8,1.7-1.2,2.5c-1.1,2.1-2.4,4.1-3.8,6.1c-3.9,5.9-7.9,11.8-11.8,17.7c-1.2,1.9-2.3,3.9-3.6,5.8c-1.4,2-2.3,4-1.9,6.5
		s2.2,3.9,4,5.4c2.5,2,4.9,4,7.3,6.1c4.8,4,9.6,8,14.4,11.9c2.4,2,4.7,3.9,7.1,5.9c0.9,0.7,1.8,1.4,2.7,2.1c0.1,0.1-0.5-0.4-0.1,0
		c0.3,0.2-0.4-0.5-0.1-0.1c0.2,0.2-0.2-0.6-0.1-0.1c0.1,0.4-0.1-0.7,0-0.2c0,0.4-0.1,0.2,0-0.1c-0.1,0.2-0.1,0.4-0.2,0.6
		c-0.1,0.3-0.2,0.4,0,0c-0.1,0.2-0.2,0.4-0.3,0.6c-0.2,0.4-0.4,0.8-0.7,1.1c-0.2,0.2-0.3,0.4-0.4,0.6c-0.1,0.1-0.5,0.6-0.2,0.2
		c-0.4,0.5-0.8,1-1.2,1.4c-0.8,1-1.7,2-2.6,2.9c-4.4,4.7-9.1,9.1-13.3,14c-3.7,4.3-7.9,9.5-8.9,15.3c-0.2,1.2-0.3,2.5-0.2,3.8
		c0.2,1.4,1,2.4,2.5,2.5c3.9,0.3,7.1,2.8,9.8,5.3c3.2,2.9,6.1,6.1,9.4,8.9c3.5,2.9,7.3,5.5,11.3,7.7c2,1.1,4,2.1,6.1,3
		c0.8,0.3,2.7,0.7,2.1,1.7s-1.6,1.9-2.3,2.8c-0.8,1-1.6,1.9-2.3,2.9c-1.6,2-3.1,3.9-4.6,5.9c-3,4-5.9,8-8.6,12.1s-5.5,8.3-8,12.5
		c-2.3,3.9-4.9,7.8-6.5,12c-0.9,2.5-1.4,5.3-0.1,7.8c1.1,2.1,3.2,3.2,5.3,4c2.3,0.9,4.6,1.6,6.7,2.7c3.4,1.7,6.4,4.4,9.3,6.8
		c6.9,5.9,13.4,12.2,21.2,17c0.9,0.6,1.9,1.2,2.9,1.6c0.2,0.1,0.4,0.4,0.3,0.1c0-0.2-0.6,0.8-0.8,0.9c-1.6,2.1-3.1,4.3-4.6,6.4
		c-3.1,4.3-6.2,8.6-9.2,12.9c-3.1,4.3-6.2,8.6-9.2,12.9c-1.9,2.6-3.8,4.8-4.9,7.8c-1.7,4.8-1.3,11.9,4.6,13.5c1.6,0.4,3.2,0.3,4.8,0
		c1.3-0.2,2.1-1.9,1.8-3.1c-0.4-1.4-1.7-2-3.1-1.8c-0.6,0.1-1.2,0.1-1.7,0.1c-0.2,0-0.9-0.3-1-0.3c-0.4-0.2,0.1,0.1-0.3-0.2
		c-0.1-0.1-0.5-0.5-0.2-0.2c-0.4-0.6-0.4-0.7-0.6-1.1c-0.4-1.8-0.1-4.2,0.7-6.2c0.4-1,1.2-2.3,1.8-3c1.4-1.7,2.7-3.5,4-5.3
		c3.1-4.3,6.2-8.6,9.2-12.9s6.2-8.6,9.2-12.9c0.8-1.1,1.5-2.1,2.3-3.2c0.7-1,1.6-1.9,1.9-3c0.7-2.2-0.4-4.3-2.2-5.6
		s-3.9-2.2-5.7-3.4c-1.8-1.2-3.6-2.5-5.3-3.9c-3.4-2.8-6.7-5.7-10-8.6s-6.7-5.9-10.3-8.3c-2.4-1.6-5.1-2.6-7.8-3.6
		c-1.1-0.4-2-0.7-2.8-1.1c-0.4-0.2-0.8-0.4-1.2-0.6c-0.1-0.1-0.2-0.2-0.3-0.2c0,0,0.3,0.3,0.1,0.1c-0.2-0.2-0.3-0.3-0.5-0.5
		c0.3,0.3,0.1,0.1-0.1-0.1c-0.2-0.4,0.1,0.4-0.1-0.1c0-0.1-0.2-0.8-0.1-0.5c0,0.2,0-0.4,0-0.6c0-0.9,0.5-2.3,0.9-3.4
		c1.8-4.3,4.5-8.3,7-12.3c2.6-4.1,5.2-8.2,8-12.2c2.8-4.1,5.7-8.1,8.7-12c1.5-2,3-3.9,4.6-5.8c1.4-1.7,3.4-3.4,4.1-5.5
		c0.6-1.9,0.1-3.9-1.2-5.3c-1.4-1.5-3.6-2-5.4-2.9c-4.1-1.9-8-4.2-11.7-6.9s-6.6-5.5-9.6-8.5c-2.9-2.9-5.9-5.9-9.7-7.6
		c-1.9-0.9-3.9-1.4-6.1-1.5c0.8,0.8,1.7,1.7,2.5,2.5c-0.1-0.5-0.1-1.1-0.1-1.6c0-0.9,0-0.4,0.2-1.4c0.3-1.3,0.7-2.4,1.1-3.3
		c1.2-2.6,3-5.1,4.7-7.3c4.1-5.1,8.8-9.7,13.4-14.4c1.8-1.9,3.7-3.8,5.3-5.9c1.2-1.6,2.6-3.4,3-5.4c0.5-2.3-0.5-3.9-2.3-5.3
		c-5-3.9-9.8-8.1-14.7-12.1s-9.6-8-14.4-11.9c-1-0.9-2.2-1.6-3.2-2.6c-0.5-0.5-0.8-1-0.7-1.7c0.1-1,0.8-1.8,1.3-2.5
		c0.7-1,1.3-2.1,2-3.1c4-6.4,8.3-12.6,12.4-18.8c3.9-5.9,10.6-14.5,6-21.7c-2.3-3.6-6.2-6-9.8-8.1c-6.4-3.8-13.1-7-19.7-10.3
		c-2.2-1.1-4.4-2.2-6.5-3.3C1299,237.8,1296.5,242.1,1299.4,243.5L1299.4,243.5L1299.4,243.5z"/>
	<path class="st18" d="M1352.7,551.4c6.7,6.7,13.8,13,20.7,19.5c1,1,2,1.9,3,2.9c0.4,0.4,0.8,0.8,1.1,1.2c0.2,0.2,0.4,0.4,0.6,0.6
		c0.1,0.1,0.6,0.8,0.3,0.4c-0.3-0.4,0.2,0.2,0.2,0.3c0.1,0.2,0.2,0.3,0.3,0.5c0.2,0.4,0.4,0.7,0.6,1.1c0.2,0.4-0.2-0.6,0,0
		c0.1,0.2,0.1,0.3,0.2,0.5c0,0.2,0,0.3,0.1,0.5s0-0.7,0,0c0,0.3,0,0.7,0,1c0-0.5,0.1-0.5,0-0.1c-0.1,0.2-0.1,0.4-0.2,0.6
		s-0.1,0.4-0.2,0.6c-0.2,0.6,0.3-0.5,0,0c-0.2,0.4-0.4,0.8-0.7,1.2c-0.5,0.9-1.2,1.8-1.8,2.7c-0.2,0.2-0.3,0.5-0.5,0.7
		c-0.1,0.1-0.2,0.2-0.2,0.3c-0.4,0.5,0.3-0.4-0.1,0.1c-0.5,0.6-0.9,1.2-1.4,1.8c-5.7,7.1-11.5,14.1-16.8,21.5c-1.4,2-3,3.8-4.3,5.8
		s-2.3,4.1-3.1,6.3c-1.5,4.2-1.8,9.2,0.8,13c0.7,1,1.4,1.8,2.3,2.5c1.1,0.9,2.4,1.4,3.7,2.1c2.2,1.2,4.3,2.6,6.2,4.2
		c4.1,3.4,7.6,7.3,11.1,11.3c1.8,2,3.5,4,5.4,5.8c1.7,1.8,3.6,3.3,5.3,5.1c0.3,0.3,0.6,0.6,0.9,0.9c0.1,0.1,0.7,0.9,0.5,0.6
		c0.5,0.7,0.9,1.3,1.3,2.1c0.2,0.3,0.3,0.6,0.5,0.9c-0.2-0.5,0.1,0.4,0.2,0.5c0.2,0.7,0.4,1.4,0.5,2.1c-0.1-0.7,0,0.3,0,0.5
		c0,0.3,0,0.6,0,0.9s0,0.6-0.1,0.9c0,0.1-0.1,0.8,0,0.1c0,0.2-0.1,0.4-0.1,0.6c-0.1,0.6-0.3,1.3-0.5,1.9c-0.1,0.3-0.2,0.6-0.3,0.9
		c0,0.1-0.3,0.7-0.1,0.2c-0.1,0.2-0.2,0.4-0.2,0.6c-0.6,1.4-1.4,2.7-2.2,3.9c-1,1.5-1.6,2.3-2.7,3.6c-4.6,5.6-10,10.5-14.9,15.8
		c-4.4,4.8-9.1,10.3-10.7,16.8c-0.3,1.5-0.5,3-0.5,4.6c0.1,3.2,5.1,3.2,5,0c0-0.7,0-1.4,0.1-2c0-0.4-0.1,0.6,0,0
		c0-0.2,0.1-0.4,0.1-0.6c0.1-0.4,0.2-0.7,0.2-1.1c0.2-0.7,0.4-1.4,0.7-2c0-0.1,0.2-0.4,0,0c0.1-0.2,0.2-0.4,0.3-0.6
		c0.2-0.4,0.4-0.8,0.6-1.2c1.6-3,3.3-5.3,5.4-7.7c4.8-5.6,10.3-10.5,15.2-16c4.2-4.6,8.7-10.1,9.6-16.4c0.5-3.3,0-6.5-1.6-9.4
		c-1.9-3.7-5.2-6.2-8.1-9.1c-7.5-7.6-13.8-16.7-23.2-22.1c-1.9-1.1-4.2-1.8-5.5-3.6c-1.1-1.5-1.4-3.1-1.3-5.1
		c0.2-3.9,2.5-8.1,5-11.2c3.3-4.2,6.4-8.8,9.8-13c2.5-3.2,5.1-6.4,7.7-9.5c1.8-2.3,3.7-4.5,5.3-6.9c1.1-1.6,2.1-3.3,2.5-5.2
		c0.9-4.4-1.9-7.9-4.8-10.8c-5.4-5.6-11.6-10.7-17.2-16.1c-2.2-2.1-4.3-4.2-6.5-6.3C1354,545.5,1350.4,549.1,1352.7,551.4
		L1352.7,551.4L1352.7,551.4z"/>
	<path class="st18" d="M1358.2,726c-0.3-0.2,0.2,0.2,0.3,0.2c0.2,0.2,0.4,0.4,0.6,0.5c0.2,0.2,0.3,0.3,0.4,0.5
		c0.2,0.2-0.1-0.1-0.1-0.1c0.1,0.1,0.2,0.3,0.3,0.4c0.2,0.3,0.4,0.7,0.6,1.1c-0.2-0.4-0.1-0.2,0,0.1c0.1,0.2,0.1,0.4,0.2,0.6
		c0.1,0.3,0.1,0.6,0,0.1c0,0.2,0,0.3,0,0.5c0,0.4,0,0.8,0,1.2c0-0.4,0.1-0.3,0,0c0,0.2-0.1,0.4-0.1,0.6c-0.1,0.4-0.2,0.8-0.3,1.1
		c-0.1,0.2-0.1,0.3-0.2,0.5c-0.1,0.3,0.1-0.2,0.1-0.2c-0.1,0.1-0.1,0.2-0.1,0.3c-0.2,0.3-0.3,0.7-0.5,1c-0.3,0.6-0.7,1.2-1.1,1.8
		c-0.6,0.9-1.3,1.8-1.9,2.7c-0.3,0.4-0.6,0.8-0.7,1.3c-0.4,1.3,0.4,3,1.8,3.2c1.3,0.2,2.7-0.4,3.1-1.8c0.3-1.2-0.4-2.8-1.8-3.1
		c-0.2,0,0,0,0.5,0.2l0.9,0.9c0.3,0.4,0.3,1.4,0.2,1.8c0,0.1-0.4,0.7-0.2,0.4c0.1-0.1,0.2-0.2,0.2-0.3c0.2-0.4,0.5-0.7,0.8-1.1
		c0.7-1,1.5-2,2.1-3.1c1.7-3,2.8-6.5,1.9-9.9c-0.7-2.5-2.4-4.3-4.4-5.9c-1.1-0.8-2.8-0.2-3.4,0.9
		C1356.6,723.9,1357.1,725.2,1358.2,726L1358.2,726L1358.2,726z"/>
	<path class="st18" d="M185,329.6c-17.4,8.5-38.7,21.5-38.7,43.5c0,7.2,2.6,14.8-0.2,21.8c-0.5,1.2,0.6,2.8,1.8,3.1
		c1.4,0.4,2.6-0.5,3.1-1.8c2.5-6.1,1.2-12.7,0.6-19.1c-0.4-5.1,0-10.1,2.1-14.9c3.8-8.8,11.5-15.2,19.4-20.2c4.7-3,9.6-5.6,14.6-8
		c1.2-0.6,1.5-2.3,0.9-3.4C187.8,329.3,186.3,329,185,329.6L185,329.6L185,329.6z"/>
	<path class="st14" d="M148.9,413.7c-0.2,11.1,1.7,22.2,5.7,32.6c0.5,1.3,1.7,2.1,3.1,1.8c1.2-0.3,2.2-1.8,1.8-3.1
		c-3.9-10-5.8-20.5-5.5-31.2C154,410.5,149,410.5,148.9,413.7L148.9,413.7L148.9,413.7z"/>
	<path class="st14" d="M160.6,504.7c-1.3,12.5,1,25,6.3,36.3c0.6,1.2,2.3,1.5,3.4,0.9c1.2-0.7,1.5-2.2,0.9-3.4
		c-5-10.5-6.8-22.3-5.6-33.8c0.1-1.3-1.2-2.5-2.5-2.5C161.7,502.2,160.8,503.3,160.6,504.7L160.6,504.7L160.6,504.7z"/>
	<path class="st14" d="M172.9,575.8c-1.1,10.3,1,20.8,5.7,30.1c1.5,2.9,5.8,0.3,4.3-2.5c-4.3-8.5-6-18.1-5-27.5
		c0.1-1.3-1.2-2.5-2.5-2.5C174,573.3,173.1,574.4,172.9,575.8L172.9,575.8L172.9,575.8z"/>
	<path class="st14" d="M182.7,656.6c-3.6,10.1-2.2,21.9,3.8,30.8c1.8,2.7,6.1,0.2,4.3-2.5c-5.3-7.9-6.6-18-3.3-26.9
		c0.5-1.3-0.5-2.7-1.8-3.1C184.3,654.4,183.1,655.3,182.7,656.6L182.7,656.6L182.7,656.6z"/>
	<path class="st14" d="M191.5,735.6c-2.9,13.1-1.1,27,5.3,38.8c1.5,2.8,5.8,0.3,4.3-2.5c-5.7-10.6-7.4-23.2-4.8-35
		C197,733.8,192.2,732.4,191.5,735.6L191.5,735.6L191.5,735.6z"/>
	<path class="st14" d="M201.6,812c0.8,8.2,3.1,16.2,6.7,23.6c0.6,1.2,2.3,1.5,3.4,0.9c1.2-0.7,1.5-2.2,0.9-3.4
		c-3.2-6.6-5.3-13.8-6-21.1c-0.1-1.3-1.1-2.5-2.5-2.5C202.8,809.5,201.4,810.7,201.6,812L201.6,812L201.6,812z"/>
	<path class="st18" d="M146.5,393.7c-5.4,7.4-11,14.6-16.8,21.7c-3.2,3.9-6.6,7.8-9.5,12c-1.6,2.2-3.2,4.8-3.1,7.6s2,4.9,3.9,6.6
		c3.1,2.8,6.4,5.3,9.6,8c5.3,4.6,10.8,9.4,15.2,14.8c5.9,7.1,10.9,16.8,8.4,26.2c-2,7.6-7.8,13.6-12.4,19.7
		c-4.7,6.1-13.5,17.9-4.9,24.3c10.5,7.7,20.8,15.8,31.1,23.7l-0.5-3.9c-10,9.6-20,19.4-30.2,28.8c-4.5,4.1-1.4,9.5,2,13
		c5.1,5.2,11.3,9.3,16.9,14c5.6,4.7,11.9,10.2,14.6,17.2c0.7,1.7,0.6,2.6,0.1,4.3s-1.3,3.4-2.2,5c-2.2,3.9-5.1,7.4-7.9,10.8
		c-5.8,6.9-12.9,13.7-16.7,22c-0.8,1.6-1.5,3.3-1.7,5.1c-0.4,2.8,1.1,5.5,2.8,7.5s4.2,3.6,6.5,5.1c2.6,1.6,5.3,3.3,7.8,5.1
		c5.1,3.6,9.8,7.8,14.1,12.3c2.2,2.3,4.3,4.7,6.2,7.2c1.2,1.5,2.8,3.2,3.4,4.9c1,2.6,0.3,5.5-0.9,8.1c-1.7,3.5-4.1,6.7-6.6,9.7
		c-5.3,6.5-11.8,12.6-15.4,20.2c-0.7,1.5-1.4,3.1-1.7,4.8c-0.6,3.1,4.2,4.5,4.8,1.3c0.7-3.4,2.6-6.3,4.5-9c2.4-3.4,5.2-6.5,7.9-9.7
		c4.9-5.7,11.2-12.3,12.5-20c0.6-3.5,0-7-2.2-9.9c-3.6-4.9-7.6-9.5-11.9-13.7s-9.4-8.3-14.5-11.8c-2.4-1.6-4.9-3-7.3-4.7
		c-2-1.3-4.3-3-5-5.4c-0.4-1.4,0.4-3.1,1.1-4.5c0.9-1.8,2-3.6,3.1-5.3c2.6-3.8,5.7-7.3,8.7-10.8c5.7-6.6,12.5-13.6,15.3-22.1
		c0.6-1.8,1.1-3.9,0.7-5.7c-0.4-1.7-1.2-3.5-2-5c-1.8-3.4-4.3-6.5-6.9-9.3c-5.5-5.8-12.1-10.5-18.3-15.6c-2.4-2-4.9-4-6.9-6.3
		c-0.8-0.9-1.2-1.3-1.8-2.6c-0.3-0.5,0,0.2-0.1-0.2c-0.1-0.2-0.1-0.5-0.2-0.7c-0.1-0.5,0.1,0.5,0-0.1c0-0.2,0.1-1,0-0.2
		c0-0.2,0.1-0.4,0.1-0.5c0,0-0.2,0.3,0.1-0.1c0.4-0.5-0.1,0.1,0.2-0.2c0.2-0.2,0.4-0.4,0.6-0.6c0.3-0.2-0.1,0.1,0.4-0.3
		c0.6-0.5,1.2-1.1,1.8-1.6l4.2-4c5.3-5.1,10.6-10.2,15.9-15.3c2.6-2.5,5.2-5,7.8-7.5c1.3-1.2,0.7-3-0.5-3.9
		c-9.1-6.9-18.1-13.8-27.2-20.7c-1-0.7-1.9-1.5-2.9-2.2c-0.8-0.6-1.7-1.1-2.1-2.1c-0.7-1.7,0.4-3.9,1.1-5.4c1.5-3.6,3.8-6.8,6.1-9.9
		c4.7-6.2,10-12,12.8-19.4c3.4-8.9,0.9-18.4-3.8-26.3c-6.7-11.1-17.3-19.5-27.2-27.6c-1.2-1-2.3-1.9-3.4-3c-0.2-0.2-0.4-0.5-0.7-0.7
		c-0.1-0.1-0.6-0.8-0.3-0.4s-0.2-0.3-0.3-0.4c-0.1-0.2-0.2-0.5-0.4-0.7c0.2,0.4,0.1,0.4,0-0.1c-0.2-0.7-0.1-0.1,0-0.1
		c0-0.2,0-0.4,0-0.6s0.1-0.6,0,0.2c0-0.2,0-0.3,0.1-0.5s0.1-0.4,0.2-0.6c0.2-0.8-0.2,0.2,0.1-0.3c0.3-0.6,0.6-1.2,1-1.8
		c2.6-4.2,6-7.8,9.2-11.8c6.2-7.6,12.3-15.4,18.1-23.4C152.8,393.6,148.4,391.1,146.5,393.7L146.5,393.7L146.5,393.7z"/>
	<path class="st18" d="M160.7,765.6c8.4,6.4,16.8,12.9,25.2,19.3c1.9,1.4,3.9,2.8,5.6,4.4c0.7,0.6,1.4,1.3,1.8,2.1
		c0.3,0.6,0.2,1.1,0.1,1.5c-0.7,2.9-2.5,5.4-4.6,7.7c-2.5,2.8-5.3,5.3-8,7.8c-1.3,1.2-2.6,2.4-3.8,3.7c-1.1,1.1-2.1,2.6-3.1,3.6
		c-5.2,4.9-8.1,13.2-2.3,18.9c1.8,1.7,4.1,2.8,6.1,4.2c2.5,1.6,4.9,3.2,7.4,4.8c5,3.3,10.1,6.5,15.1,9.8c2.7,1.8,5.2-2.6,2.5-4.3
		c-8.7-5.6-17.3-11.4-26.1-16.8c-1.3-0.8-2.4-1.8-2.9-3.2c-0.4-0.9-0.5-2.3-0.3-3.3c0.4-1.6,1-2.8,1.9-4.1c0.4-0.6,0.9-1.2,1.5-1.7
		c0.6-0.6,1.4-1.5,1.8-2c4.5-5.6,10.6-9.7,15.1-15.2c2.1-2.6,4.1-5.6,4.7-8.9c0.4-2.3-0.1-4.1-1.5-6s-3.2-3.2-5.1-4.5
		c-9.5-7.3-19-14.6-28.5-21.8c-1.1-0.8-2.8-0.2-3.4,0.9C159.1,763.5,159.7,764.8,160.7,765.6L160.7,765.6L160.7,765.6z"/>
	<path class="st33" d="M920.6,277.9c0,10.2,1.6,20.4,4.7,30.1c1,3,5.8,1.8,4.8-1.3c-3-9.3-4.5-19-4.5-28.8
		C925.6,274.7,920.6,274.7,920.6,277.9L920.6,277.9L920.6,277.9z"/>
	<path class="st33" d="M928.1,338.4c0.1,10.3,1.4,20.6,3.9,30.6c0.8,3.1,5.6,1.8,4.8-1.3c-2.4-9.6-3.6-19.4-3.7-29.3
		C933.1,335.2,928.1,335.2,928.1,338.4L928.1,338.4L928.1,338.4z"/>
	<path class="st14" d="M932.5,401.5c0.5,7.7,1.6,15.5,3.4,23c0.8,3.1,5.6,1.8,4.8-1.3c-1.7-7.1-2.8-14.4-3.2-21.7
		c-0.1-1.4-1.1-2.5-2.5-2.5C933.7,399,932.4,400.2,932.5,401.5L932.5,401.5z"/>
	<path class="st14" d="M939,466.4c-0.1,8.9,0.5,17.8,1.7,26.7c0.2,1.3,1,2.5,2.5,2.5c1.2,0,2.7-1.1,2.5-2.5
		c-1.2-8.9-1.7-17.8-1.7-26.7C944,463.1,939,463.1,939,466.4L939,466.4z"/>
	<path class="st14" d="M948.2,540.6c-0.4,9.3,0.6,18.7,2.9,27.8c0.8,3.1,5.6,1.8,4.8-1.3c-2.2-8.6-3.1-17.5-2.7-26.4
		C953.4,537.4,948.4,537.4,948.2,540.6L948.2,540.6z"/>
	<path class="st14" d="M957.5,622.7c0,8.2,0.7,16.5,2.2,24.6c0.2,1.3,1.9,2.1,3.1,1.8c1.4-0.4,2-1.7,1.8-3.1c-1.4-7.7-2-15.4-2-23.2
		C962.6,619.4,957.6,619.4,957.5,622.7L957.5,622.7L957.5,622.7z"/>
	<path class="st14" d="M963.8,696.4c-0.7,7.9,0,15.9,2,23.5c0.8,3.1,5.6,1.8,4.8-1.3c-1.9-7.3-2.5-14.7-1.8-22.2
		c0.1-1.3-1.2-2.5-2.5-2.5C964.9,693.9,963.9,695.1,963.8,696.4L963.8,696.4z"/>
	<path class="st34" d="M1355.9,739.8c-3.3,5.1-6.1,10.7-8.9,16.1c-3.2,6.2-6.5,12.5-10,18.5c-0.8,1.5-1.7,2.9-2.6,4.3
		c-0.4,0.6-0.8,1.2-1.3,1.9c-0.2,0.3-0.4,0.5-0.6,0.8c-0.1,0.1-0.2,0.2-0.3,0.4c-0.3,0.4,0.2-0.2-0.2,0.2l1.8-0.7
		c-11.6,0.8-23.2,1.3-34.8,2.1c-1.3,0.1-2.5,1.1-2.5,2.5c0,1.3,1.2,2.6,2.5,2.5c6.3-0.4,12.7-0.8,19-1.1c3.2-0.2,6.5-0.4,9.7-0.6
		c1.3-0.1,2.6-0.2,3.8-0.2c0.6,0,1.3-0.1,1.9-0.1c1.3-0.1,2-0.6,2.7-1.6c3-3.9,5.4-8.2,7.7-12.5c2.8-5.1,5.4-10.2,8.1-15.3
		c2.6-4.9,5.1-9.9,8.1-14.5C1362,739.7,1357.6,737.2,1355.9,739.8L1355.9,739.8L1355.9,739.8z"/>
	<path class="st34" d="M1303.4,782.9c-22.4,2.3-44.7,4.8-67.1,7.4c-25.4,3-50.7,6-76,9.1c-24,3-48,5.9-71.9,9
		c-18.2,2.3-36.4,4.6-54.6,7c-8.3,1.1-16.5,2.1-24.8,3.2c-0.1,0-0.2,0-0.3,0c-1.3,0.2-2.5,1-2.5,2.5c0,1.2,1.2,2.7,2.5,2.5
		c6.7-0.9,13.5-1.8,20.2-2.6c17.3-2.2,34.6-4.5,51.9-6.7c23.5-3,47.1-5.9,70.6-8.8c25.3-3.1,50.6-6.2,75.8-9.2
		c22.9-2.7,45.9-5.3,68.9-7.7c2.4-0.3,4.9-0.5,7.3-0.8c1.3-0.1,2.5-1,2.5-2.5C1305.9,784.1,1304.7,782.7,1303.4,782.9L1303.4,782.9
		L1303.4,782.9z"/>
	<path class="st34" d="M1009.9,819c-6.6-3.9-13.4-7.6-20.8-9.8c-4.4-1.4-9.2-2-13.8-1.1c-7.2,1.4-12.3,7.1-18.2,10.9
		c-1,0.6-1.9,1.2-2.9,1.8c-0.5,0.3-1.1,0.6-1.7,0.8c-0.3,0.2-0.6,0.3-0.9,0.4c-0.1,0-0.9,0.4-0.5,0.2c-2.7,1.1-5.6,1.9-8.5,2.5
		c-1.3,0.2-2.1,1.8-1.8,3.1c0.4,1.4,1.7,2,3.1,1.8c4.8-0.9,9.5-2.6,13.8-5.1c3.2-1.9,6.1-4.2,9-6.4c1.3-1,2.7-2,4.1-2.8
		c0.7-0.4,1.4-0.8,2.1-1.1c0.2-0.1,0.3-0.2,0.5-0.2c-0.4,0.2-0.2,0.1,0.1,0c0.4-0.2,0.8-0.3,1.2-0.4c0.8-0.3,1.7-0.4,2.5-0.6
		c0.5-0.1-0.5,0,0.1,0c0.2,0,0.4,0,0.6-0.1c0.5,0,1-0.1,1.4-0.1c1,0,2,0.1,3,0.2c-0.5-0.1,0.2,0,0.3,0.1c0.3,0,0.5,0.1,0.8,0.1
		c0.7,0.1,1.3,0.3,1.9,0.4c7.7,1.9,14.8,5.9,21.7,9.9C1010.2,825,1012.7,820.7,1009.9,819L1009.9,819L1009.9,819z"/>
	<path class="st18" d="M296.4,879.7c-12.1-5.2-24.1-10.9-36.3-15.9c-4.6-1.9-9.3-3.7-13.9-5.5c-1.3-0.5-2.7,0.5-3.1,1.8
		c-0.4,1.4,0.5,2.6,1.8,3.1c7.1,2.7,14.2,5.5,21,8.5c5.1,2.2,10.2,4.6,15.4,6.9c4.2,1.9,8.5,3.7,12.7,5.5c1.2,0.5,2.7,0.4,3.4-0.9
		C297.9,882.1,297.6,880.3,296.4,879.7L296.4,879.7L296.4,879.7z"/>
	<path class="st18" d="M596.9,873.5c-5.5,14.2-12.5,27.8-20.8,40.6c-8,12.2-17.3,23.7-27.8,33.9c-9.8,9.6-20.7,18.1-32.7,25
		c-11.2,6.5-23.2,11.5-35.8,14.3c-11.9,2.7-24.5,3.3-36.6,1.4c-1.5-0.2-3-0.5-4.6-0.8c-1.3-0.3-2.7,0.4-3.1,1.8
		c-0.3,1.2,0.4,2.8,1.8,3.1c12.7,2.7,25.8,2.7,38.6,0.5c13.1-2.3,25.7-7,37.5-13.2c12.5-6.6,24-15,34.3-24.6
		c11.1-10.2,20.9-21.7,29.5-34s16.3-26.6,22.3-41c0.8-1.8,1.5-3.7,2.2-5.5c0.5-1.3-0.5-2.7-1.8-3.1
		C598.6,871.4,597.4,872.3,596.9,873.5L596.9,873.5L596.9,873.5z"/>
	<path class="st18" d="M805.4,844c-0.7,21.9-2.9,43.8-7.7,65.2c-4,17.4-9.7,34.5-17.9,50.3c-7,13.5-15.8,26.1-26.4,36.9
		c-9.9,10.1-21.3,18.6-33.7,25.4c-12.3,6.7-25.5,11.5-39,14.9c-14.2,3.5-28.7,5.5-43.2,6.2c-15.4,0.8-30.8,0.3-46.1-1.2
		c-15.7-1.5-31.2-3.9-46.7-7c-15.7-3.2-31.2-7.1-46.6-11.6c-15-4.4-29.9-9.3-44.6-14.6c-3.5-1.3-6.9-2.5-10.4-3.8
		c-3-1.1-4.3,3.7-1.3,4.8c14.6,5.5,29.5,10.7,44.4,15.3c15.4,4.8,31,9,46.7,12.5c15.8,3.6,31.9,6.4,48,8.3
		c15.5,1.9,31.2,2.9,46.8,2.6c15.1-0.2,30.2-1.6,45.1-4.6s28-7.2,41.1-13.3c13-6.1,25.2-13.9,35.9-23.5c11.3-10.1,21-22,28.9-34.9
		c9.1-15,15.7-31.3,20.5-48.1c5.8-20.3,9-41.3,10.5-62.3c0.4-5.9,0.7-11.7,0.9-17.6C810.5,840.7,805.5,840.7,805.4,844L805.4,844
		L805.4,844z"/>
	<path class="st34" d="M943.4,824.5c-34.3,2.2-68.5,5.7-102.5,10c-34.6,4.4-69.1,9.6-103.6,15c-35.1,5.6-70.1,11.4-105.1,17
		c-35.3,5.6-70.6,11-106.1,15.7c-35.6,4.7-71.4,8.5-107.2,11.1c-4.5,0.3-9,0.6-13.5,0.9c-3.2,0.2-3.2,5.2,0,5
		c35.9-2.3,71.6-5.9,107.3-10.3c35.4-4.4,70.7-9.7,106-15.2c35.1-5.5,70.2-11.4,105.3-17c34.6-5.5,69.2-10.9,103.9-15.5
		c34.1-4.5,68.4-8.3,102.7-10.8c4.3-0.3,8.5-0.6,12.8-0.9C946.6,829.3,946.6,824.3,943.4,824.5L943.4,824.5L943.4,824.5z"/>
	<path class="st34" d="M1357.9,736.4c-54.8,6.8-109.5,13.7-164.3,20.6c-67,8.5-134,17-201,25.5c-71.5,9.1-143,18.2-214.5,27.3
		c-68.5,8.7-136.9,17.4-205.4,26c-56.5,7.1-112.9,14.2-169.4,21.2c-5.8,0.7-11.6,1.4-17.4,2.2c-3.1,0.4-3.2,5.4,0,5
		c54.9-6.8,109.8-13.7,164.6-20.6c67-8.5,134.1-17,201.1-25.5c71.5-9.1,143-18.2,214.5-27.3c68.4-8.7,136.8-17.4,205.2-26
		c56.3-7.1,112.7-14.2,169.1-21.2c5.8-0.7,11.6-1.4,17.4-2.2C1361.1,741,1361.1,736,1357.9,736.4L1357.9,736.4L1357.9,736.4z"/>
	<path class="st34" d="M972,770.8c0.1,7.9,1.2,15.8,3.2,23.5c0.8,3.1,5.6,1.8,4.8-1.3c-1.9-7.3-2.9-14.7-3-22.2
		C976.9,767.6,971.9,767.6,972,770.8L972,770.8z"/>
	<path class="st18" d="M205.5,846.8c-14.9,14.6-29.2,29.8-44.9,43.6s-34.1,27.7-54.7,34.5c-10.4,3.4-21.5,4.9-32.4,3
		c-1.3-0.2-2.7,0.4-3.1,1.8c-0.3,1.2,0.4,2.8,1.8,3.1c21.2,3.7,42-3.9,60-14.8c19.5-11.8,36.5-27.5,52.7-43.4
		c8.1-8,16-16.2,24.2-24.2C211.3,848.1,207.8,844.6,205.5,846.8L205.5,846.8L205.5,846.8z"/>
	<path class="st18" d="M442.9,1004.6c-9-2.4-17.5-6.3-25.8-10.3c-9.2-4.5-18.1-9.3-27-14.4c-4.3-2.5-8.6-5-12.9-7.6
		c-2.8-1.7-5.3,2.6-2.5,4.3c17,10.3,34.4,20.3,52.8,27.9c4.6,1.9,9.2,3.6,14,5C444.7,1010.3,446.1,1005.5,442.9,1004.6L442.9,1004.6
		L442.9,1004.6z"/>
	<path class="st35" d="M440.4,989.6c-9.6-25.7-19.4-51.2-29.7-76.6c-8-19.7-16.4-39.3-25.5-58.5c-6.7-14.1-13.8-28.1-21.9-41.5
		c-5.8-9.5-12.2-18.9-19.9-27c-5.4-5.7-11.6-10.8-18.8-13.9c-6.3-2.7-13-3.5-19.8-2.5s-13.5,4-19.5,7.5c-7.6,4.4-14.5,9.9-21.2,15.5
		c-8.1,6.9-15.9,14.2-23.6,21.5c-9.2,8.7-18.3,17.4-27.6,26c-2.5,2.3-5,4.6-7.4,6.8s1.2,5.7,3.5,3.5c9.6-8.8,19.1-17.7,28.5-26.7
		c8-7.6,16.1-15.2,24.3-22.6c3.6-3.2,7.2-6.3,11-9.3c0.4-0.3,0.9-0.7,1.3-1c0.2-0.2,0.4-0.3,0.6-0.5c0.1-0.1,0.2-0.2,0.3-0.3
		c0.4-0.3-0.5,0.4,0.1,0c0.8-0.6,1.7-1.3,2.5-1.9c1.7-1.2,3.4-2.5,5.1-3.6c3.1-2.1,6.4-4,9.8-5.7c0.8-0.4,1.6-0.8,2.4-1.1
		c0.2-0.1,0.4-0.2,0.6-0.3c0.6-0.3-0.2,0.1,0,0c0.4-0.2,0.8-0.3,1.2-0.5c1.5-0.6,3.1-1.1,4.6-1.5s3-0.8,4.6-1c0.2,0,1-0.1,0,0
		c0.2,0,0.3,0,0.5-0.1c0.4,0,0.8-0.1,1.2-0.1c0.8-0.1,1.5-0.1,2.3-0.1c1.5,0,3,0.1,4.5,0.2c0.6,0.1-0.7-0.1,0,0c0.2,0,0.3,0,0.5,0.1
		c0.4,0.1,0.8,0.1,1.2,0.2c0.8,0.2,1.5,0.3,2.3,0.5s1.5,0.5,2.3,0.7c0.4,0.1,0.7,0.3,1.1,0.4c0.2,0.1,0.3,0.1,0.5,0.2
		c0.7,0.3-0.5-0.2,0.2,0.1c1.5,0.7,3,1.4,4.4,2.3c1.6,0.9,3.1,2,4.6,3.1c0.2,0.1,0.3,0.2,0.5,0.4c0.4,0.3-0.5-0.4-0.1-0.1
		c0.1,0.1,0.2,0.2,0.3,0.2c0.4,0.3,0.8,0.7,1.2,1c0.8,0.7,1.6,1.3,2.3,2c3.4,3.1,6.5,6.5,9.4,10c0.4,0.5,0.8,1,1.1,1.4
		c0.2,0.2,0.4,0.4,0.5,0.7c0.1,0.2,0.9,1.1,0.5,0.6c0.8,1,1.6,2.1,2.4,3.2c1.7,2.3,3.3,4.7,4.9,7.1c8,12,14.8,24.8,21.2,37.8
		c8.6,17.4,16.5,35.3,24,53.2c9.9,23.7,19.2,47.6,28.4,71.5c2.5,6.7,5,13.3,7.5,20c0.5,1.3,1.7,2.1,3.1,1.8
		C439.9,992.4,440.9,990.9,440.4,989.6L440.4,989.6L440.4,989.6z"/>
	<path class="st18" d="M377.8,972.7C364,955.8,350.1,939,336,922.4c-14.2-16.6-28.7-32.9-43.7-48.8c-7.5-7.9-15.1-15.8-22.9-23.4
		c-3.8-3.8-7.7-7.5-11.6-11.2c-2-1.9-3.9-3.8-6-5.6c-0.9-0.8-1.7-1.1-2.8-1.2c-4.7-0.3-6.6,5.3-7.6,9c-1.7,6.9-2.2,14.1-2.6,21.1
		c-0.6,9.7-0.9,19.4-1.3,29.2c-0.4,10.8-0.8,21.7-1.6,32.5c-0.4,5.3-0.8,10.6-1.4,15.8c-0.1,1.3-0.3,2.6-0.4,3.8
		c-0.1,0.6-0.2,1.2-0.2,1.8s0-0.2-0.1,0.4c-0.1,0.3-0.1,0.7-0.1,1.1c-0.3,2.4-0.7,4.8-1.1,7.1c-0.8,4.4-1.7,8.8-3,13.1
		c-0.6,1.9-1.2,3.8-1.9,5.7c-0.1,0.4-0.3,0.8-0.5,1.2c0,0.1-0.3,0.8-0.2,0.4c0.1-0.4-0.1,0.3-0.2,0.4c-0.4,0.8-0.8,1.7-1.2,2.5
		c-0.7,1.4-1.6,2.8-2.5,4.1c-0.1,0.2-0.9,1.2-0.4,0.5c-0.2,0.3-0.5,0.6-0.7,0.9c-0.5,0.5-1,1.1-1.5,1.5c-0.2,0.2-0.5,0.5-0.8,0.7
		c-0.1,0.1-0.2,0.2-0.4,0.3c-0.2,0.2,0.5-0.3-0.1,0s-1.1,0.7-1.6,1c-0.3,0.2-0.6,0.3-0.9,0.4c-0.6,0.3,0.3-0.1,0,0
		c-0.2,0-0.3,0.1-0.5,0.2c-0.6,0.2-1.2,0.4-1.9,0.5c-0.4,0.1-1.2,0.1-0.4,0.1c-0.3,0-0.6,0.1-1,0.1c-0.7,0-1.4,0-2,0
		c-1.4-0.1-2.5,1.2-2.5,2.5c0,1.4,1.1,2.4,2.5,2.5c9.8,0.8,16.4-7.2,19.9-15.4c5.2-12,7.1-25.5,8.5-38.4c1.7-15.4,2.3-30.9,2.9-46.3
		c0.5-13.2,0.7-26.5,2.1-39.6c0.1-1.3,0.3-2.5,0.4-3.8c-0.1,0.9,0-0.1,0.1-0.3c0-0.3,0.1-0.5,0.1-0.8c0.1-0.6,0.2-1.1,0.3-1.7
		c0.3-1.9,0.7-3.7,1.3-5.5c0.1-0.4,0.2-0.7,0.4-1.1c0.1-0.2,0.1-0.3,0.2-0.5c0,0.1-0.3,0.5,0,0s0.6-1,0.9-1.6
		c0.2-0.4-0.5,0.5-0.1,0.2c0.1-0.1,0.2-0.2,0.2-0.3c0.1-0.1,0.2-0.2,0.2-0.2c0.3-0.4-0.6,0.3-0.2,0.1c0.1,0,0.2-0.1,0.3-0.2
		c0.5-0.2-0.3,0.1-0.3,0.1l0.3-0.1c0.6-0.2-0.1,0.2-0.3,0h0.6c-0.2,0.2-0.8-0.2-0.3,0c0.1,0,0.2,0.1,0.3,0.1l-1.1-0.6
		c18,16.6,35.1,34.2,51.6,52.2c16.6,18.1,32.6,36.8,48.4,55.6c8.8,10.5,17.5,21.2,26.2,31.8c0.9,1,2.6,0.9,3.5,0
		C378.8,975.2,378.6,973.7,377.8,972.7L377.8,972.7L377.8,972.7z"/>
	<path class="st18" d="M211.2,987.5c-19.2,0.4-38.5-0.2-57.5-3c-18-2.6-36-7.1-52.6-14.7c-16.4-7.5-31.3-17.8-43.6-31.1
		c-1.5-1.7-3-3.6-3.6-5.8c-0.6-2.1,0.2-3.8,1.7-5.2c1.3-1.3,2.9-2.3,4.3-3.6c1.2-1.1,2.4-2.3,3.5-3.5c4.8-5.1,9.1-10.8,14.6-15.2
		c0.2-0.2,0.6-0.5,1.2-0.8c0.2-0.2,0.5-0.3,0.8-0.5c0.1-0.1,0.9-0.4,0.6-0.3c-0.3,0.1,0.4-0.1,0.5-0.1c0.3-0.1,0.7,0,0.1,0
		c0.2,0,0.4,0,0.6,0c-1.4,0.2-0.1-0.1-0.2,0c0.1,0,0.6,0.2,0.1,0c-0.4-0.2,0.5,0.6-0.1-0.1c0.1,0.2,0.3,0.3,0.4,0.4
		c-0.4-0.5,0,0.1,0.1,0.2c0.3,0.5-0.1-0.3,0,0c0.1,0.2,0.1,0.4,0.2,0.6c0,0.1,0.1,0.5,0.1,0.2c-0.1-0.4,0,0.3,0,0.3
		c0,0.3,0,0.6,0,0.8c0,0.5,0,0.1,0,0c0,0.2-0.1,0.3-0.1,0.4c-0.1,0.4-0.2,0.8-0.3,1.1c-0.4,1.5-1,2.5-1.9,4
		c-0.9,1.6-1.9,3.1-2.9,4.6c-1.9,2.9-4,5.8-5.4,9.1c-0.7,1.6-1.2,3.1-1.4,4.8c-0.2,1.3,1.3,2.5,2.5,2.5c1.5,0,2.3-1.2,2.5-2.5
		c-0.1,0.6,0.1-0.5,0.2-0.6c0.1-0.3,0.2-0.6,0.3-0.9c0.3-0.9,0.4-1,0.9-2c0.8-1.7,1.8-3.2,2.8-4.8c2.1-3.2,4.3-6.3,6-9.8
		c1.4-2.9,2.6-6.3,1.4-9.4c-1.1-2.9-3.7-4.8-6.8-4.1c-2.8,0.6-5.2,2.8-7.3,4.6c-2.7,2.5-5.2,5.3-7.6,8s-5,5.6-7.7,8.2
		c-3.1,2.9-7.4,5.2-8.5,9.7c-1.3,5.6,2.5,10.4,6.1,14.2c3.3,3.5,6.8,6.8,10.5,9.9c7.3,6.2,15.3,11.6,23.7,16.2
		c16.8,9.1,35.3,14.9,54.1,18.4c19.9,3.7,40.1,4.9,60.3,4.8c2.5,0,5,0,7.6-0.1C214.4,992.5,214.4,987.5,211.2,987.5L211.2,987.5
		L211.2,987.5z"/>
	<path class="st18" d="M863.4,134.6c-17.7,1.9-35.3,4.6-52.7,7.8c-25.3,4.6-50.4,10.2-75.2,16.9c-28.6,7.7-56.8,16.8-84.3,27.8
		s-55.6,24.4-81.2,40.8c-23.9,15.3-46.3,33.5-64.2,55.6c-2.1,2.6-4.1,5.2-6.1,7.9s2.4,5.1,4.3,2.5c16.4-22.5,37.7-41.1,60.7-56.7
		c24.6-16.7,51.4-30.3,78.8-41.8c27.4-11.4,55.6-20.9,84.1-28.9c25.1-7.1,50.6-13,76.2-17.9c10.3-2,20.7-3.8,31.1-5.4
		c8.3-1.3,15.6-2.3,23.8-3.3c1.5-0.2,3.1-0.4,4.6-0.5C866.5,139.3,866.6,134.3,863.4,134.6L863.4,134.6L863.4,134.6z"/>
	<path class="st18" d="M862.8,134c-22.6-9.6-47.4-12.8-71.9-12.1c-26.4,0.7-52.6,5.4-77.9,12.5c-24.9,6.9-49.2,16.2-72.5,27.4
		c-19.1,9.2-37.8,19.7-54.6,32.7c-2.8,2.2-5,5.7-7.2,8.5c-2.5,3.3-5,6.6-7.4,10c-4.8,6.8-9.4,13.8-13.7,20.9
		c-8.5,14.1-16,28.8-22.6,43.8c-1.6,3.8-3.2,7.6-4.8,11.4c-0.5,1.3,0.5,2.7,1.8,3.1c1.4,0.4,2.6-0.5,3.1-1.8
		c12.1-30.1,28-59.1,47.9-84.8c2-2.6,4.1-5.8,6.7-7.8c1.7-1.3,3.5-2.6,5.2-3.9c3.9-2.8,7.9-5.4,11.9-8c9.3-5.9,18.9-11.2,28.7-16.2
		c22.2-11.3,45.4-20.6,69.2-27.8c24.9-7.6,50.6-13,76.6-14.7c24-1.5,48.6,0.1,71.5,8.1c2.5,0.9,5.1,1.9,7.5,2.9
		c1.2,0.5,2.7,0.4,3.4-0.9C864.3,136.4,864.1,134.5,862.8,134L862.8,134L862.8,134z"/>
	<path class="st18" d="M910.6,129c-8.8-2.6-17.6,0.3-25.7,3.7c-1.2,0.5-2.1,1.6-1.8,3.1c0.3,1.2,1.8,2.3,3.1,1.8
		c7.2-3,15.2-6.1,23-3.7C912.3,134.8,913.6,129.9,910.6,129L910.6,129L910.6,129z"/>
	<path class="st34" d="M1274.3,748.6c-9.7,14.3-19.2,28.9-30.3,42.2c-1.2,1.5,0.9,3.6,2.1,2.1c11.3-13.5,20.9-28.3,30.8-42.8
		C1278,748.5,1275.4,747,1274.3,748.6L1274.3,748.6L1274.3,748.6z"/>
	<path class="st34" d="M1238.2,794.1c1.9,0,1.9-3,0-3S1236.3,794.1,1238.2,794.1L1238.2,794.1z"/>
</g>
<g id="Layer_15">
	<path class="st15" d="M1071,446.6c-3.6,1.5-7.2,3-10.9,4.5c-39.1-44.3-125.4,8.6-73.5,67.4c4.1,4.6,6.9,10,10.7,14.9
		s10.3,8.8,15.8,6c21.3-10.8,42.6-21.6,63.9-32.4"/>
	<path class="st15" d="M986.3,506.9c-9,19.6-11.5,57.8-2.6,73.5c3.7,6.6,12.4,9.3,15.2,20.4s0.9,30.4,12.4,36.8
		c22.4-11,33.9-35.6,37.4-57.7"/>
	<path class="st15" d="M1243.5,545.9c-16,14.7-34.6,26.4-54.8,34.5c-13.8,76.4-135.1,95.8-165,30.6"/>
	<path class="st15" d="M1219.5,564.5c7.2-4.6,22.8-13.1,29.6-20.8c1.4-1.6,2.4-3.6,1.6-5.6c-2.2-5.4-3.5-17.9-9.4-23.1
		c-14.3-12.4-25.2-20.3-39.1-29.2c-13.7-8.8-40-11.8-52.1,2.4"/>
	<path class="st15" d="M1067.8,457.5c0-38,35.9-46,60.6-42.4s45.6,25.3,48.3,50.1c0.7,6,11.8,12.1,16.8,15.6
		c5.3,3.7,25.2,12.1,19.6,20.3"/>
</g>
<g id="Layer_16">
	<path class="st14" d="M1062.2,451.8c2.6-0.9,5.1-1.7,7.7-2.6c0.7-0.2,1.3-1,1.1-1.9c-0.2-0.7-1.1-1.3-1.8-1
		c-2.6,0.9-5.1,1.7-7.7,2.6c-0.7,0.2-1.3,1-1.1,1.9C1060.6,451.5,1061.4,452.1,1062.2,451.8L1062.2,451.8z"/>
	<path class="st14" d="M1070.8,446.2c0.8-9.9,7.3-18.3,15.4-23.6c8.5-5.6,18.7-8.5,28.8-8.9c19.3-0.8,38.2,8.3,49.2,24.2
		c6.7,9.6,9.7,21,12.7,32.2c0.5,1.9,3.4,1.1,2.9-0.8c-2.8-10.7-5.8-21.6-11.7-31c-5.1-8.1-12.3-14.9-20.6-19.7
		c-18.4-10.6-42.5-10.7-60.9,0.1c-10,5.9-17.8,15.6-18.8,27.5C1067.6,448.1,1070.6,448.1,1070.8,446.2L1070.8,446.2L1070.8,446.2z"
		/>
	<path class="st14" d="M1113.2,558.1c1.9,0,1.9-3,0-3S1111.3,558.1,1113.2,558.1L1113.2,558.1z"/>
	<path class="st14" d="M1177.9,470.4c10.1,9.5,21.9,16.6,33.5,24c5.8,3.6,11.5,7.3,17,11.4s11.1,8.5,14.6,14.5
		c3.8,6.6,5.3,14.1,8.2,21c0.3,0.8,1.4,0.9,2.1,0.5c0.8-0.4,0.8-1.3,0.5-2c-2.7-6.3-4.2-13.1-7.3-19.2c-3.1-6.2-8.2-10.8-13.6-15.1
		c-10.9-8.5-22.9-15.2-34.4-22.9c-6.5-4.3-12.8-9-18.5-14.3C1178.6,466.9,1176.5,469,1177.9,470.4L1177.9,470.4L1177.9,470.4z"/>
	<path class="st14" d="M1251.2,539.7c-1.6,2.9-4.3,5.3-6.9,7.5c-3.9,3.3-8,6.2-12.2,9c-9.6,6.4-19.6,12.1-29.8,17.2
		c-4.3,2.1-8.6,4.2-13.1,5.7c-1.8,0.6-1,3.5,0.8,2.9c9.4-3.2,18.2-8.1,26.8-12.9c9.9-5.6,19.8-11.6,28.6-18.8
		c3.1-2.6,6.6-5.5,8.5-9.1C1254.7,539.5,1252.1,538,1251.2,539.7L1251.2,539.7L1251.2,539.7z"/>
	<path class="st14" d="M1186.8,581.8c-3.7,9.5-7.3,19-12.2,27.9c-3.3,6-7.7,11.1-12.9,15.5c-12.4,10.5-28.2,16.5-44,19.8
		c-13.1,2.8-26.5,3.8-39.8,3.8c-1.9,0-1.9,3,0,3c21.9,0,44.3-2.7,64.6-11.4c12.7-5.5,25.4-14,32.9-26c6.2-9.8,10.2-21,14.3-31.8
		C1190.4,580.8,1187.5,580,1186.8,581.8L1186.8,581.8L1186.8,581.8z"/>
	<path class="st14" d="M1078.4,648.9c-14.2-2.5-26.6-10.9-37.6-19.8c-3.2-2.6-6.3-5.3-9.3-8c-1.4-1.3-3.6,0.8-2.1,2.1
		c11.1,9.8,22.7,19.5,36.5,25.2c3.8,1.5,7.7,2.7,11.7,3.4C1079.5,652.1,1080.3,649.2,1078.4,648.9L1078.4,648.9L1078.4,648.9z"/>
	<path class="st14" d="M1078,615.1c1.9,0,1.9-3,0-3S1076.1,615.1,1078,615.1L1078,615.1z"/>
	<path class="st14" d="M1028,621.8c-3.9,3.9-7.9,7.5-12.1,11.1c-1.5,1.2-3.9,3.8-6,2.5c-1.7-1-2.4-3.4-3-5.1c-1.8-5.1-3-10.3-4-15.6
		s-1.6-10.4-2.7-15.6c-0.5-2.3-1.3-4.6-2.7-6.5s-3.3-3.3-5-4.8c-3.3-3-6.1-6.6-8.2-10.5c-4.4-8.1-6.2-17.4-6.3-26.5
		c-0.1-12.5,2.9-24.8,5.8-36.9c0.5-1.9-2.4-2.7-2.9-0.8c-5,20.7-9.9,43.3-0.3,63.5c2,4.2,4.6,8.1,7.9,11.5c1.7,1.8,3.6,3.2,5.4,4.9
		c1.9,1.8,2.9,4,3.5,6.5c1.3,5.5,1.8,11.2,2.9,16.7c1.1,5.5,2.4,11,4.4,16.2c0.8,2.2,1.9,4.5,4,5.7c2.5,1.4,5.2,0.3,7.3-1.2
		c5.1-3.9,9.8-8.4,14.3-12.9C1031.5,622.6,1029.4,620.4,1028,621.8L1028,621.8L1028,621.8z"/>
	<path class="st14" d="M1062.9,449.3c-5.7-6.8-14.1-10.9-22.7-12.9c-9.7-2.3-19.8-2.2-29.5-0.2s-19,5.9-26.7,12.2
		c-7.5,6.2-12.9,14.8-14.5,24.5c-2.1,12.5,1.5,25.2,7.1,36.3c0.9,1.8,1.9,3.6,2.9,5.3s3.5,0.2,2.6-1.5
		c-6.2-10.9-11.1-23.4-10.1-36.2c0.7-9.3,5-17.8,11.7-24.1c6.8-6.5,15.5-10.6,24.5-12.9s18.7-2.8,27.9-1.2
		c8.3,1.5,16.6,4.7,22.7,10.7c0.7,0.7,1.3,1.4,2,2.2C1062,452.9,1064.1,450.8,1062.9,449.3L1062.9,449.3L1062.9,449.3z"/>
</g>
<g id="Layer_13">
	<path class="st27" d="M1054.6,465.3c1.7-3.3,2.4-7.4-0.4-9.7c-12.4-10-30.7-12-44.9-4.9s-23.7,22.9-23.2,38.8c-1.8,1-2.7,3.4-2,5.3
		c13.5,4.2,28.5,3.5,41.4-2.1C1038.5,487.1,1048.9,476.5,1054.6,465.3L1054.6,465.3z"/>
	<path class="st27" d="M1158,453.9c-2.5-12.4-13.5-22-25.7-25.5s-25.3-1.6-37.4,2.2c-6,1.9-10.5,8-10.5,14.3
		c-0.1,6.3,4.3,12.4,10.3,14.5C1115.2,466.4,1138.4,465.1,1158,453.9L1158,453.9z"/>
	<path class="st8" d="M1004.9,515.3c-9.2-2.2-16.7-10-18.6-19.2c14.5,4.1,30.6,2.3,43.9-4.9s23.7-19.6,28.3-34
		c9.1,6.4,10.2,21.3,2.2,29c-13.2,12.7-29.4,22.4-46.8,28"/>
	<path class="st8" d="M1069.3,475c-2.1-5-4.3-10-6.4-14.9c7.2,1.3,15-1,20.2-6.2c0.7,3.1,1.4,6.2,2.2,9.4c-0.5,2.8,1.5,5.9,4.2,6.6
		c-3.1,0.8-6.3,1.3-9.5,1.5"/>
	<path class="st8" d="M1156.3,457.4c2.9-1,3.6-4.9,5.3-7.3c5.5,6.6,5.4,17.2-0.2,23.7c2.7-0.5,5.2,2.8,4.1,5.3s-5.2,2.7-6.7,0.4
		c-0.8-1.3-2.6-1.9-4-1.3c-9.6,4.1-19.7,7.5-30.1,8.1s-25.3-3.8-33.7-10.1s-9.7-14.8-8.3-25.1C1102.8,466.6,1135,464.5,1156.3,457.4
		L1156.3,457.4z"/>
	<path class="st8" d="M1012.8,513.4c-2-0.7-4-1.1-6-1.4s-4-0.3-5.8,0.8c-1.4,0.9-2.8,2.2-3.9,3.5s-2.2,2.8-2.5,4.6
		c-0.1,0.8,0.2,1.6,1,1.8c0.7,0.2,1.7-0.2,1.8-1c0.2-1.3,0.9-2.4,1.8-3.4s2-2.1,3.2-2.9c1.3-0.8,2.9-0.6,4.3-0.4
		c1.7,0.2,3.5,0.7,5.1,1.3C1013.8,516.9,1014.6,514,1012.8,513.4L1012.8,513.4L1012.8,513.4z"/>
	<path class="st8" d="M1013.7,523.2c1.5-3.5,0-8.1-3.4-10s-8.1-0.8-10.3,2.3c-7.2,10.2-10.7,23.1-9.5,35.6s6.9,24.5,15.9,33.2
		C1004.4,563.6,1005.7,542,1013.7,523.2L1013.7,523.2z"/>
	<path class="st36" d="M1026.1,585c-0.9-4.4-1.8-8.8-2.7-13.2C1023,575.6,1022.6,579.4,1026.1,585z"/>
	<path class="st37" d="M1026.4,605.6c23.2,24.3,60.1,34.5,92.4,25.5c32.4-9,58.8-36.7,66.1-69.5c2-8.7-3.8-18.5-12.4-21
		c-40.8-12-84.5-13.9-126.2-5.5c-13.8,2.8-25.7,13.8-29.5,27.3S1014.9,593.6,1026.4,605.6L1026.4,605.6z"/>
	<path class="st37" d="M1027.4,603.2c-4.8,6-9.6,11.9-14.4,17.9c-8.7-30.5-8.9-70.5,0.1-100.9c3.6-12.2,4.2-3.2,27.2-17.9
		c16.6-10.6,11.7-6.4,23.2-19.7c4.5-5.2,17.7-13.9,23.2-10.7s4.7,11.6,0.2,16.1"/>
	<path class="st37" d="M1088.6,472.4c3.9,10.1,15.7,10.8,27.1,13.8c10.5,2.8,21.2-4.6,32-5.5s23.2,2.1,28.4,11.7
		c7,13,14.2,26.8,14,41.5s-10.4,30.6-25.2,31.3c-40.2,2.1-80.9-7.3-116.1-26.7"/>
	<path class="st37" d="M1181.4,568.2c17.2-6.2,33.7-14.6,48.9-24.9c3.8-2.6,5.1-12.2,1.6-15.2c-22.9-20.1-39.7-37.2-71.7-48.5
		c-5.5-1.9-12.4,2.1-12.1,8"/>
</g>
<g id="Layer_12">
	<path class="st38" d="M1081.1,445c-0.2,2.8-0.2,5.6,0.1,8.4s0.4,6.2,2.2,8.6c0.6,0.7,0.5,1,0.4,1.9c-0.1,0.7,0,1.3,0.2,1.9
		c0.5,1.2,1.5,1.8,2.5,2.6c2.2,1.8,1.6,4.9,1,7.4c-0.4,1.9,2.5,2.7,2.9,0.8c0.6-2.7,1.1-5.6-0.1-8.2c-0.6-1.2-1.6-2-2.7-2.8
		c-0.4-0.3-0.8-0.6-0.9-1.1c-0.1-0.8,0.3-1.5,0.1-2.3c-0.3-1.4-1.6-2.3-1.9-3.7c-0.4-1.6-0.5-3.3-0.8-4.9c-0.4-2.9-0.3-5.7-0.1-8.6
		C1084.2,443.1,1081.2,443.1,1081.1,445L1081.1,445L1081.1,445z"/>
	<path class="st38" d="M1161.9,452c1.5,0.4,1.9,2.1,2.2,3.4c0.3,2,0.2,4.1,0,6.2s-0.4,4.2-0.8,6.3c-0.3,1.6-0.8,3.5-2.2,4.6
		c-1.3,1-0.6,3.2,1.2,2.7c1.3-0.3,1.8,1.2,1.9,2.2c0.1,1.2-0.1,2.4-1.6,2c-1.8-0.5-2.9-2.6-4.5-3.4s-3.6-0.1-5.2,0.6
		c-1.2,0.5-3.3,1.3-3.7,2.7c-0.5,1.9,2.3,2.6,2.9,0.8c-0.2,0.8-0.2,0.4-0.2,0.4c0.1,0,0.5-0.3,0.5-0.3c0.5-0.3,0.9-0.5,1.4-0.8
		c0.7-0.3,1.8-1,2.6-0.8c0.9,0.1,1.7,1.3,2.3,1.8c0.9,0.8,1.9,1.6,3.1,1.9c1.5,0.3,3,0.2,4.1-1c1-1,1.2-2.6,1.1-4
		c-0.2-3-2.4-5.9-5.7-5.1l1.2,2.7c1.9-1.4,2.9-3.4,3.4-5.7c0.7-2.7,0.9-5.5,1.1-8.3c0.2-3.9,0.6-10.8-4.4-12
		C1160.8,448.6,1160,451.5,1161.9,452L1161.9,452L1161.9,452z"/>
	<path class="st38" d="M1149.8,478.4c-7.5,3.8-15.9,5.7-24.2,5.9c-4.2,0.1-8.5-0.2-12.7-1s-8.1-2-12-3.3s-8.3-1.6-11.2-5
		c-1.2-1.5-3.3,0.6-2.1,2.1c2.6,3.2,6.4,4.1,10.2,5.2c4.2,1.1,8.3,2.7,12.6,3.6c8.8,1.8,17.9,1.9,26.7,0.1c4.9-1,9.7-2.7,14.3-5
		C1153,480.1,1151.5,477.5,1149.8,478.4L1149.8,478.4L1149.8,478.4z"/>
	<path class="st38" d="M1086.9,469.4c-4-1.6-8.6,0.5-12.4,2s-7.5,3.3-10.4,6.2c-1.3,1.4,0.8,3.5,2.1,2.1c2.5-2.6,5.7-4.2,9-5.4
		c1.7-0.6,3.4-1.3,5.2-1.8c1.9-0.6,3.7-0.9,5.6-0.1c0.8,0.3,1.6-0.3,1.8-1C1088.2,470.4,1087.7,469.7,1086.9,469.4L1086.9,469.4
		L1086.9,469.4z"/>
	<path class="st38" d="M1058.9,457c-0.1,0.1,0.1,0,0.2,0.2c0.3,0.3,0.5,0.6,0.7,1c0.4,0.8,0.8,1.6,1.2,2.4c0.8,1.7,1.6,3.4,2.4,5.2
		s1.5,3.5,2.3,5.2c0.3,0.6,0.9,1.6,0.7,2.3s-0.9,1.3-1.4,1.7c-1.4,1.3,0.7,3.4,2.1,2.1c0.8-0.8,1.6-1.6,2-2.6
		c0.5-1.2,0.3-2.4-0.2-3.6c-1-2.5-2.1-4.9-3.2-7.4s-2.1-4.9-3.4-7.1c-1.1-2-3.5-3.2-5.4-1.5C1055.3,456.1,1057.4,458.2,1058.9,457
		L1058.9,457L1058.9,457z"/>
	<path class="st38" d="M1081.6,453.3c-2.7,1.9-5.9,3.1-9,4s-6.5,1.6-9.8,1.4c-1.9-0.1-1.9,2.9,0,3c3.6,0.2,7.2-0.5,10.6-1.5
		s6.8-2.3,9.8-4.3C1084.7,454.9,1083.2,452.3,1081.6,453.3L1081.6,453.3L1081.6,453.3z"/>
	<path class="st38" d="M1063.8,481.6c0.3,0.6-1.8,1.5-2.2,1.7c-1.1,0.6-2,1.4-2.9,2.2c-1.8,1.6-3.5,3.3-5.3,4.9
		c-3.9,3.3-8,6.3-12.4,9c-4.3,2.7-8.8,5.2-13.3,7.5c-4.6,2.4-9.6,4.5-14.8,5.2c-1.4,0.2-2.8,0.2-4.2,0.1s-2.7-0.4-4.1-0.3
		c-1.5,0.1-2.3,0.9-3.6,1.5c-0.9,0.4-1.8,0-2.2-0.9c-0.8-1.8-3.4-0.2-2.6,1.5c1,2,3.5,3.1,5.5,2.3c1.1-0.4,1.9-1.4,3.2-1.4
		c1.4-0.1,2.9,0.3,4.3,0.3c5.9,0.1,11.7-1.9,17-4.4c10.4-4.9,20.7-10.9,29.3-18.5c2.3-2,4.3-4.4,6.8-6c1.1-0.8,2.5-1.2,3.4-2.2
		c1-1.1,1.2-2.6,0.5-4C1065.5,478.4,1062.9,479.9,1063.8,481.6L1063.8,481.6L1063.8,481.6z"/>
	<path class="st38" d="M1065.9,477.8c-1.2-3.2-2.8-6.3-4.8-9.1c-1.2-1.7-4.2-6.6-6.7-3.8c-0.4,0.5-0.6,1.1-0.8,1.6
		c-0.4,0.8-0.8,1.5-1.3,2.2c-1,1.4-2.2,2.6-3.3,3.9c-2.2,2.3-4.5,4.5-6.9,6.5c-4.9,4.1-10.3,7.6-15.9,10.6c-5.9,3.1-12.2,6-18.8,7.4
		c-3.9,0.8-7.8,0.8-11.5-0.8c-3.5-1.4-7.2-3.4-11-1.8c-0.8,0.3-1.6,1.4-0.9,2.2c4.5,5.8,8.6,11.8,12.5,18c1,1.6,3.6,0.1,2.6-1.5
		c-3.9-6.2-8.1-12.2-12.5-18l-0.9,2.2c3.3-1.4,6.6,0.7,9.7,1.9s6.4,1.5,9.6,1.2c6.4-0.7,12.5-3.2,18.3-5.9
		c11-5.1,21.3-12.3,29.4-21.4c1.1-1.2,2.2-2.6,3.1-4c0.2-0.4,0.4-0.7,0.6-1.1c0.1-0.2,0.2-0.5,0.3-0.7c0.3-0.5,0.2-0.5-0.4-0.1
		c-0.1,0.2,1.5,1.7,1.6,2c2.2,2.9,4,6.1,5.2,9.4C1063.7,480.3,1066.6,479.6,1065.9,477.8L1065.9,477.8L1065.9,477.8z"/>
	<path class="st38" d="M1056.4,466.7c1.3-1.3,2-3,2.3-4.8c0.3-2.1,0-4.2-0.3-6.3c-0.1-0.8-1.1-1.3-1.8-1c-0.8,0.3-1.2,1-1.1,1.9
		c0.3,1.6,0.5,3.3,0.3,5c0-0.3,0,0.2,0,0.2c0,0.2-0.1,0.4-0.1,0.6c0,0.1-0.1,0.3-0.1,0.5c0,0-0.2,0.6-0.1,0.4
		c-0.1,0.3-0.3,0.6-0.5,0.9c0,0-0.3,0.4-0.1,0.2c-0.1,0.2-0.3,0.3-0.4,0.5c-0.6,0.6-0.6,1.5,0,2.1S1055.9,467.2,1056.4,466.7
		L1056.4,466.7L1056.4,466.7z"/>
	<path class="st38" d="M1161.4,448.9c-2.4,0.1-3,2.3-2.8,4.4c0,0.2-0.1,0.3,0,0c0,0.1-0.1,0.2-0.2,0.3c-0.2,0.3,0.2-0.2,0,0
		c-0.1,0.1-0.2,0.2-0.3,0.3c-0.1,0.1-0.2,0.2-0.3,0.3c0.1,0,0.1,0-0.2,0.1c-0.3,0.2-0.7,0.4-1,0.6c-0.7,0.4-1.6,0.8-2.2,1.1
		c-4.9,2-10.2,3.1-15.4,4c-6.7,1.1-13.5,1.6-20.3,1.6s-13.1-0.6-19.4-2.4c-2.9-0.9-6.2-2-8.6-4c-1.8-1.5-3.2-3.3-4.4-5.3
		c-1.1-1.8-2.1-3.8-2.2-5.9c-0.1-1.9-3.1-1.9-3,0c0.3,4.1,2.7,7.9,5.2,10.9c2.3,2.7,5.1,4.4,8.3,5.7c6,2.5,12.7,3.4,19.2,3.7
		c7.2,0.4,14.4,0,21.5-0.9c5.9-0.8,11.9-1.9,17.6-3.8c2.1-0.7,4.3-1.5,6.1-2.8c0.7-0.5,1.4-1,1.9-1.8c0.2-0.3,0.4-0.6,0.5-0.9
		s0.3-2.4,0-2.4C1163.3,451.7,1163.3,448.7,1161.4,448.9L1161.4,448.9L1161.4,448.9z"/>
	<path class="st39" d="M1085.3,445.8c-0.8-1.7-1.6-2.9-0.8-4.6c1.1-2.5,2.6-5,4.8-6.7c2.5-1.9,5.5-3,8.4-4c3.3-1.1,6.6-2,10-2.7
		c6.8-1.3,13.6-1.2,20.3,0.5s12.5,4.5,17.9,8.1c5.7,3.8,11.4,9.9,9.8,17.3c-0.4,1.9,2.5,2.7,2.9,0.8c1.6-7.1-2.4-13.8-7.8-18.2
		c-5.7-4.6-12.5-8-19.5-10.1c-7.3-2.2-14.8-2.8-22.3-1.6c-4,0.6-7.8,1.6-11.6,2.9c-3.3,1.1-6.6,2.2-9.5,4.3
		c-2.9,2.1-4.9,5.1-6.3,8.5c-1,2.6,0,4.6,1.1,7C1083.5,449,1086.1,447.5,1085.3,445.8L1085.3,445.8L1085.3,445.8z"/>
	<path class="st39" d="M1055.4,454.2c-6.7-4.5-14.2-7.7-22.2-8.7c-6.8-0.9-13.9,0-20.3,2.3c-11.5,4.2-21.7,13-26.4,24.5
		c-2.3,5.6-3,11.9-1.3,17.8l0.7-1.7c-1.3,1-3.2,2.2-3.6,3.9s0.8,3.1,1.7,4.4c1,1.6,3.7,0.1,2.6-1.5c-0.3-0.5-1.4-1.7-1.3-2.2
		c0.1-0.6,1.7-1.6,2.2-2s0.9-1,0.7-1.7c-2.9-10.1,2.2-20.8,9.2-28c8.6-8.9,20.8-13.8,33.2-13.1c8.5,0.5,16.5,3.8,23.5,8.5
		C1055.4,457.9,1057,455.3,1055.4,454.2L1055.4,454.2L1055.4,454.2z"/>
	<path class="st38" d="M997.6,514.5c-3,4.2-4.7,9.2-6,14.1c-1.3,5.3-2,10.8-2.4,16.3c-0.3,4.5-0.4,9-0.1,13.6
		c0.1,1.4,0.2,2.8,0.3,4.3c0.1,0.8,0.2,1.7,0.6,2.5c1,1.8,2.4,3.5,3.5,5.3c1.2,1.9,2.4,3.8,3.5,5.7c2.3,3.7,4.5,7.4,7,11
		c0.8,1.1,2.9,0.9,2.8-0.8c-1.3-15.9-1.1-32.2,2.8-47.8c1-4.1,2.4-8.2,3.9-12.1c0.8-2.1,1.9-4.2,2.3-6.5c0.2-1.1,0-1.9-0.4-2.9
		c0,0,0,0,0-0.1c0.2,0.5,0,0,0.1-0.2c0.1-0.4,0.1-0.9,0.2-1.3c0.1-0.9,0-1.9-0.9-2.5c-2.3-1.6-5-0.1-7.5-0.6
		c-1.9-0.4-2.7,2.5-0.8,2.9c1.2,0.2,2.2,0.3,3.4,0.1c0.5-0.1,1-0.1,1.5-0.2c0.2,0,0.5,0,0.8,0c0.2,0,1.6,0.4,0.8,0
		c-0.4-0.2-0.2-0.3-0.3,0.4c0,0.3-0.1,0.7-0.1,1c-0.1,0.7,0,1.3,0.4,1.9c0.1,0.2,0.3,0.6,0,0c0,0.1,0.1,0.3,0.1,0.4
		c0.1-0.8-0.2,1,0,0.2c-0.4,2.2-1.4,4.3-2.2,6.3c-3.8,9.7-6,19.7-6.9,30c-1,10.2-0.8,20.6,0,30.8l2.8-0.8c-4.4-6.1-8-12.7-12.1-19
		c-0.5-0.7-0.9-1.4-1.4-2.1c-0.2-0.3-0.4-0.6-0.6-0.8c-0.2-0.2,0.1,0.2,0.1,0.2c-0.1-0.3-0.1-0.6-0.2-0.9c0-0.1,0-0.2,0-0.3
		c0-0.3,0,0,0-0.1c0-0.3-0.1-0.6-0.1-0.9c-0.1-0.7-0.1-1.4-0.2-2.1c-0.6-9.3-0.1-19,1.9-28.1c1.2-5.5,2.9-10.9,6.2-15.5
		C1001.3,514.5,998.7,513,997.6,514.5L997.6,514.5L997.6,514.5z"/>
	<path class="st4" d="M1164.4,481.2c-2.9-0.3-6.4,0.8-8.9,2.2c-1.2,0.7-2.4,1.6-3,2.9c-0.8,1.9-0.4,4.1,0.4,5.9c0.9,2,2.5,3.8,4,5.4
		c1.7,1.9,3.5,3.8,5.2,5.6c3.6,3.8,7.2,7.5,10.9,11.2c4.1,4.1,8.3,8.2,12.5,12.2l0.7-2.5c-2.6,0.5-4.3,2.7-5.7,4.8
		c-1.7,2.5-3.2,5.2-4.5,7.9c-0.8,1.7,1.8,3.3,2.6,1.5c1.1-2.3,2.3-4.6,3.8-6.8c1.2-1.8,2.4-4.1,4.7-4.5c1.1-0.2,1.4-1.8,0.7-2.5
		c-6.7-6.3-13.2-12.8-19.6-19.5c-3.2-3.3-6.4-6.7-9.5-10.1c-1.7-1.8-5.4-6.2-2.5-8.4c2.1-1.6,5.6-2.6,8.3-2.4
		C1166.4,484.4,1166.3,481.4,1164.4,481.2L1164.4,481.2L1164.4,481.2z"/>
	<path class="st40" d="M1165.7,484.2c7.1,0.6,13.6,4.7,19.4,8.6c5.9,4,11.4,8.6,16.9,13.1c5.5,4.6,10.9,9.2,16.7,13.4
		c5.2,3.8,12.1,7.2,14.2,13.8c0.9,3,0.7,6.4-1.6,8.7c-2.4,2.4-5.9,3.6-8.9,5.1c-7.3,3.5-14.5,7.1-21.8,10.7
		c-3.6,1.8-7.3,3.5-10.9,5.3c-3.2,1.5-7,2.7-8.6,6.1c-1.3,3-2.4,6-3.7,9s-3,6.1-4.7,9c-7.4,12.9-17.4,24.3-29.2,33.4
		c-0.7,0.5-1,1.3-0.5,2c0.4,0.6,1.4,1,2.1,0.5c10.9-8.4,20.4-18.7,27.8-30.3c3.7-5.8,6.8-12,9.4-18.3c0.6-1.5,1.1-3.2,1.9-4.7
		c0.9-1.6,3.1-2.2,4.6-3c3.8-1.8,7.6-3.7,11.3-5.5c7.6-3.7,15.1-7.4,22.7-11.1c3.3-1.6,6.9-3,9.7-5.3c2.6-2.1,3.9-5.2,3.9-8.5
		c-0.1-7.2-5.7-12.2-11.1-16c-6.1-4.2-11.9-8.7-17.6-13.5s-11.3-9.6-17.3-13.9s-12.3-8.7-19.4-10.7c-1.7-0.5-3.5-0.8-5.3-0.9
		C1163.7,481,1163.7,484,1165.7,484.2L1165.7,484.2L1165.7,484.2z"/>
	<path class="st40" d="M1141.6,621.6c-16.1,7.2-33.7,11.7-51.5,11.2c-15.5-0.3-30.9-4.7-43.8-13.4c-7-4.7-13.2-10.7-17.9-17.7
		c-0.6-0.9-2-1-2.6,0c-3.6,6.8-8.2,12.8-13.3,18.5l2.5,0.7c-3.7-10.8-6-21.9-7.4-33.2c-0.2-1.9-3.2-1.9-3,0
		c1.4,11.6,3.6,22.9,7.5,34c0.3,1,1.7,1.6,2.5,0.7c5.3-5.9,10.1-12.2,13.8-19.2h-2.6c8.8,13,22,22.4,36.7,27.6
		c16.3,5.8,34.1,6.2,51,2.8c10.2-2,20.1-5.3,29.6-9.5C1144.9,623.4,1143.4,620.8,1141.6,621.6L1141.6,621.6L1141.6,621.6z"/>
	<path class="st39" d="M1066.9,524.5c-5.7-5.3-14.8-6-21-1.2c-2.9,2.3-5.1,5.5-6.1,9.1c-0.2,1-0.4,1.9-0.5,2.9c0,0.1-0.1,0.9,0,0.9
		c0.5-0.4,0.5-0.6-0.1-0.5c-0.3,0-0.6,0-0.9,0c-2.5-0.1-5.1-0.2-7.6-0.5c0.2,0.9,0.5,1.9,0.8,2.8c2-1.3,5.2-3.5,7.4-1.4l1.1-2.6
		h-2.9l1.1,2.6c1-0.8,2-1.6,3-2.4c1.3-1-0.2-2.7-1.5-2.5l-2.3,0.4l1.2,2.7c0.8-0.5,1.5-0.9,2.4-1.1c1.9-0.4,1.1-3.3-0.8-2.9
		c-1.1,0.3-2.2,0.7-3.1,1.4c-1.4,1-0.6,3,1.2,2.7l2.3-0.4l-1.5-2.5c-1,0.8-2,1.6-3,2.4c-1.1,0.8-0.1,2.5,1.1,2.6h2.9
		c1.3,0,2-1.7,1.1-2.6c-3.3-3.2-7.8-1.2-11.1,0.9c-1.3,0.8-0.7,2.7,0.8,2.8c2.4,0.2,4.7,0.4,7.1,0.5c1.7,0,3.9,0.3,4.4-1.7
		c0.2-0.8,0.1-1.6,0.2-2.4c0.1-1,0.4-1.9,0.7-2.8c0.6-1.6,1.5-3.1,2.6-4.3c4.9-5.5,13.6-5.9,19.1-0.9
		C1066.2,527.9,1068.3,525.8,1066.9,524.5L1066.9,524.5L1066.9,524.5z"/>
	<path class="st39" d="M1119.6,521.8c0.1-3,2.3-5.8,5.1-6.8c3.2-1.2,6.6-0.2,9.3,1.8c1.3,1,2.5,2.1,3.6,3.3c1,1.1,2.1,2.5,3.3,3.2
		c1.6,0.9,3-0.1,4.3-1c1.7-1.1,3.3-2.3,5-3.4c1.4-1,0.5-3.1-1.2-2.7c-3.2,0.6-6.3,1.2-9.5,1.9c-1.6,0.3-1.3,2.5,0,2.9
		c0.6,0.2,1.2,0.4,1.9,0.6c1.4,0.5,2.6-1.5,1.5-2.5c-4.2-3.4-9.1-8.4-14.9-8.1c-4.8,0.2-9.1,3.7-10.3,8.3c-0.5,1.9,2.4,2.7,2.9,0.8
		c0.9-3.6,4.3-6.3,8.1-6.1c2.2,0.1,4.2,1.2,5.9,2.4c2.2,1.5,4.2,3.2,6.2,4.8l1.5-2.5c-0.6-0.2-1.2-0.4-1.9-0.6v2.9
		c3.2-0.6,6.3-1.2,9.5-1.9c-0.4-0.9-0.8-1.8-1.2-2.7c-1.7,1.2-3.5,2.4-5.2,3.6c-0.2,0.2-1,0.8-1.2,0.8s-0.7-0.7-0.8-0.8
		c-0.6-0.6-1.1-1.2-1.7-1.8c-2.5-2.5-5.2-5-8.6-6c-6.8-2-14.4,2.4-14.7,9.8C1116.5,523.8,1119.5,523.8,1119.6,521.8L1119.6,521.8
		L1119.6,521.8z"/>
	<ellipse class="st41" cx="1050.8" cy="562.5" rx="9.8" ry="9.2"/>
	<circle class="st42" cx="1139.8" cy="547.8" r="8.6"/>
	<path class="st4" d="M1101.3,553.2c-2-1.9-4.2-3.7-7-4.4s-5.6-0.1-7.8,1.7c-2.1,1.7-3.1,4.2-3.6,6.8c-0.3,1.7,1,2.6,2.6,2.5
		s3.2-0.4,4.7-0.7c3.3-0.6,6.6-1.5,9.9-2.4c0.8-0.2,1.2-1,1.1-1.8c-0.3-1.4-1.3-2.5-2.6-3.2c-0.6-0.3-1.4-0.3-1.8,0.2
		c-0.6,0.7-1.1,1.4-1.4,2.3l2.5-0.7c-0.6-0.6-1.2-1.2-1.9-1.7c-0.6-0.5-1.5-0.7-2.1,0c-0.5,0.5-0.9,1.1-1.2,1.8l2.5-0.7
		c-0.6-0.7-1.3-1.2-2-1.7c-0.8-0.6-1.9,0-2.2,0.9c-0.3,0.8-0.4,1.7-0.5,2.6l2.8-0.8l-1.4-1.9c-0.7-1-2.4-1-2.7,0.4
		c-0.2,0.9-0.5,1.7-0.8,2.6l2.7-0.4c-0.6-0.8-1.2-1.4-2-1.9c-0.6-0.4-1.8-0.2-2.1,0.5c-0.2,0.5-0.4,1-0.7,1.5l0.9-0.7
		c-0.2,0.1-0.3,0.1-0.4-0.1c-0.7-0.9-2.3-0.4-2.5,0.7c-0.1,0.3-0.2,0.7-0.2,1c-0.4,1.9,2.5,2.7,2.9,0.8c0.1-0.3,0.2-0.7,0.2-1
		l-2.5,0.7c0.6,0.8,1.8,1.1,2.7,1c1.4-0.2,1.7-1.2,2.2-2.3l-2.1,0.5c0.3,0.2,0.7,0.5,0.9,0.8c0.8,1.1,2.3,0.9,2.7-0.4
		c0.3-0.8,0.6-1.7,0.8-2.6l-2.7,0.4l1.4,1.9c0.9,1.2,2.7,0.8,2.8-0.8c0-0.6,0.2-1.2,0.3-1.8l-2.2,0.9c0.5,0.4,1,0.8,1.4,1.3
		c0.8,0.9,2.1,0.3,2.5-0.7c0.1-0.2,0.2-0.4,0.4-0.5h-2.1c0.7,0.5,1.3,1.1,1.9,1.7c0.8,0.9,2.1,0.3,2.5-0.7c0.2-0.4,0.4-0.7,0.7-1
		l-1.8,0.2c0.6,0.3,1.1,0.7,1.2,1.4l1.1-1.8c-2.5,0.7-4.9,1.3-7.4,1.9c-1.2,0.3-2.5,0.5-3.7,0.8c-0.6,0.1-1.2,0.2-1.8,0.3
		c-0.3,0-0.5,0.1-0.8,0.1c-0.2,0-0.3,0-0.5,0c-0.3,0-0.3,0,0.1,0.1l0.5,0.5l-0.1-0.2l0.2,0.8c0-0.6,0.3-1.6,0.6-2.2
		c0.2-0.7,0.6-1.4,1-2c0.8-1.1,2-1.8,3.3-2.1c3.4-0.8,6.2,1.5,8.4,3.7C1100.6,556.6,1102.7,554.5,1101.3,553.2L1101.3,553.2
		L1101.3,553.2z"/>
	<path class="st39" d="M1072.8,632.1c0,9.6,0.4,19.2,0,28.9l2.3-1.3c-5.2-3.7-11.3-5.7-16.4-9.3c-1.6-1.1-3.1,1.5-1.5,2.6
		c5.2,3.7,11.3,5.7,16.4,9.3c1,0.7,2.2-0.2,2.3-1.3c0.4-9.6,0-19.2,0-28.9C1075.8,630.2,1072.8,630.2,1072.8,632.1L1072.8,632.1
		L1072.8,632.1z"/>
	<path class="st39" d="M1141.3,624c2,8.2,4.1,16.4,6.9,24.3c0.4,1,1.7,1.5,2.5,0.7c3.9-4.1,8.8-7.2,12-12c1.1-1.6-1.5-3.1-2.6-1.5
		c-3,4.5-7.8,7.5-11.5,11.4l2.5,0.7c-2.8-7.9-4.9-16.2-6.9-24.3C1143.8,621.3,1140.9,622.1,1141.3,624L1141.3,624L1141.3,624z"/>
</g>
<g id="Layer_14">
	<path class="st43" d="M1026.6,451.5c-0.7-12.2,30.8,2.4,27.2,8.3C1051,464.6,1026.8,455,1026.6,451.5z"/>
	<path class="st43" d="M1024.5,449.3c-3.5-1.3-7.6-1-11,0.8c-0.6,0.3-1,1.2-0.7,1.8s1,1.1,1.7,1c2.9-0.5,5.8-0.9,8.7-1.4
		C1024.2,451.4,1024.8,450.1,1024.5,449.3L1024.5,449.3z"/>
	<path class="st43" d="M1136.9,436.8c0.1-2,2.3-3.6,4.3-3.1c4.8,1.4,9.1,4.5,11.9,8.6c1.2,1.8,2.1,3.9,2.1,6c0,2.2-1.1,4.4-3.1,5.3
		s-4.7-0.1-5.3-2.2C1145.2,445.6,1141.2,440.4,1136.9,436.8L1136.9,436.8z"/>
	<path class="st43" d="M1131.3,430.8c1.1,0.8,2.2,1.7,3.3,2.5c0.9,0.7,2.3-0.3,2.2-1.4s-1.1-2-2.2-2.1S1132.5,429.8,1131.3,430.8
		L1131.3,430.8z"/>
	<path class="st44" d="M380.6,859.7c0.9,1.2,2.8-0.2,2.2-1.6c-8.7-21.8-38-80-68.8-83.6c-18.9-2.2-39.7,15.1-55.2,30.6
		C280.9,798,350.1,821.6,380.6,859.7L380.6,859.7z"/>
	<path class="st43" d="M1007.4,77.5c-7.3,5-15.3,7.3-21.2,2.4C973.6,69.6,960,58,947.4,47.7C968.1,55.3,989.2,65.5,1007.4,77.5
		L1007.4,77.5z"/>
	<path class="st43" d="M1078.5,81.7c1-7.4-9-12-16.3-12.7c-9.4-0.9-15.7-0.5-22.5,2.2C1051.9,66.9,1069.4,72.4,1078.5,81.7
		L1078.5,81.7z"/>
	<path class="st15" d="M931,102.2c-1.2,2.7-3.1,4-3.9,6.1c-3.3-3.7-9.1-8.8-11-12.7C915.5,94.6,925,99.2,931,102.2z"/>
	<path class="st45" d="M1278.6,251.1c-16.5-23.4-46.1-36.8-74.6-33.8c-30.8,3.3-61.6,6.6-92.4,9.9c-6.5,0.7-11.8,7-11.4,13.5
		s6.5,12.1,13,12c58.4-0.9,115.4,37,137.2,91.2c4.1,10.1,16.2,11.7,27.1,10.9C1302.1,352.9,1295.1,274.5,1278.6,251.1L1278.6,251.1z
		"/>
	<path class="st45" d="M1086.2,249.6c-2,5.6-9.2,7.7-15.1,8.6s-11.9,0.2-17.8-0.6c-2.9-0.4-5.4-2.6-6.1-5.4s1.2-5.2,2.7-7.7
		C1061.1,225.5,1095.3,224.1,1086.2,249.6L1086.2,249.6z"/>
	<path class="st13" d="M464.2,998.2c80.9,32.5,174.4,44.3,235.4,21.1c32.8-12.4,59.9-53.7,61.1-86.1
		c-62.4,31.2-136.6,47.1-199.9,17.6C533.5,980.6,508.7,996.6,464.2,998.2L464.2,998.2z"/>
	<path class="st46" d="M1281,715.8c45.5,4.2,64.3-33.5,50.9-75.7c-1.9-6.1-6.5-11.8-12.9-11.8s-12.4,5.3-13,11.7
		c-2.2,22.2-18.8,39.2-36.6,52.6C1258.9,700.6,1277.7,715.5,1281,715.8L1281,715.8z"/>
</g>
<g id="Layer_18">
	<path class="st3" d="M244,332.1c38.8-5.2,77.5-10.3,116.3-15.1c33.3-4.2,66.6-8.2,100-12.1c26.3-3.1,52.6-6.1,78.9-9.1
		c17.7-2,35.4-4,53.1-6.1c5.3-0.6,10.5-1.3,15.8-2c2.3-0.3,4.8-0.5,7.1-1.2c0.6-0.2,1-0.4,1.5-0.8c2.5-2-1.1-5.5-3.5-3.5
		c0.3-0.2,1.4-0.6,0.5-0.4c-0.4,0.1-0.7,0.2-1.1,0.2c-1.2,0.2-2.5,0.4-3.8,0.6c-0.9,0.1-1.8,0.2-2.6,0.4c-0.2,0-0.5,0.1-0.7,0.1
		c-0.7,0.1,0,0-0.2,0c-0.6,0.1-1.2,0.2-1.8,0.2c-2.6,0.3-5.2,0.7-7.9,1c-16.7,2-33.4,3.9-50.2,5.8c-25.4,2.9-50.7,5.8-76.1,8.8
		c-32.5,3.8-64.9,7.7-97.4,11.7c-38.1,4.7-76.3,9.6-114.4,14.7c-5,0.7-10,1.3-14.9,2c-1.4,0.2-2.1,1.9-1.8,3.1
		C241.3,331.8,242.7,332.3,244,332.1L244,332.1L244,332.1z"/>
	<path class="st47" d="M268.9,675c-8.8,15.4-12.2,14.3-25.4,16.9c11.3,8,15.5,10.5,15.9,25c5.8-12.4,12.2-13.7,23.5-16.1
		C275.3,695.6,268.1,693,268.9,675L268.9,675z"/>
	<path class="st47" d="M231,703.5c4.7,28.7-0.6,30.7-14.4,47.2c22.1-1,30-2.1,45,16.1c-5.4-21.8,1.2-29.9,12.9-44.2
		C259.8,723.4,248.3,727.3,231,703.5L231,703.5z"/>
	<path class="st47" d="M235.8,516.6c-16.1,17.8-20.4,15.4-38.8,14.8c12.8,13.9,17.8,18.6,14.1,37.8c11.3-14.7,20.2-14.6,35.9-14.3
		C238.5,545.7,229.7,540.2,235.8,516.6L235.8,516.6z"/>
	<path class="st48" d="M914.4,863.7c-21.6,21.9-27.1,18.5-51.2,16.6c16.4,18.7,22.8,25,17.6,49.5c15.1-18.2,26.8-17.5,47.4-16.1
		C917.2,901.3,905.8,893.7,914.4,863.7L914.4,863.7z"/>
	<path class="st47" d="M1233.9,432.6c4.7,21.1,0.3,23.2-10.6,37.4c18.3-3.5,24.8-5.2,37.7,6.7c-5.1-15.8,0.2-22.7,9.4-34.9
		C1258.3,444.1,1248.9,448.4,1233.9,432.6L1233.9,432.6z"/>
	<path class="st37" d="M642.4,578.9c-7.9,9.4-10.2,8.2-19.8,8.2c7.1,6.9,9.8,9.2,8.5,19.1c5.5-7.7,10.1-7.8,18.3-7.9
		C644.6,593.8,639.9,591.1,642.4,578.9L642.4,578.9z"/>
	<path class="st37" d="M504.9,481.9c5.5,11.4,3.4,13.1-0.7,22.3c9.6-3.9,13-5.6,21.8-0.2c-5-8.4-3.1-12.9,0.3-20.8
		C520,485.9,515.4,489.3,504.9,481.9L504.9,481.9z"/>
	<path class="st47" d="M1162.9,663c4.3,21.9-0.1,23.9-11.5,37.9c18.5-2.7,25.1-4.1,37.9,8.8c-4.8-16.5,0.6-23.3,10.2-35.5
		C1187.2,676.1,1177.7,680.1,1162.9,663L1162.9,663z"/>
	<path class="st49" d="M918.5,186.1c-23.1,2.6-24.6-1.9-37.6-14.1c0.4,18.3,1.1,24.9-13.8,36.5c17.5-3.5,23.9,2.3,35.2,12.6
		C901.9,208.9,899.1,199.3,918.5,186.1L918.5,186.1z"/>
</g>
<g id="Layer_19">
	<path class="st27" d="M533.4,286.2l-33.2,5.8c15.4-20.1,34.2-37.5,55.4-51.2C548.6,255.5,541.7,270.2,533.4,286.2L533.4,286.2z"/>
	<path class="st13" d="M560,236.7c45.2-28.9,76.1-42.4,147-69.5c5.8-2.2,4.3-8.2,3.5-14.4s6.4-14.4-7-10.5
		C637.8,161.2,585.3,181.9,560,236.7L560,236.7z"/>
	<g>
		<g>
			<defs>
				
					<rect id="SVGID_1_" x="713.5" y="577.7" transform="matrix(0.9152 -0.4029 0.4029 0.9152 -207.5446 390.485)" width="221.7" height="221.7"/>
			</defs>
			<clipPath id="SVGID_00000097485662112659692360000000055485330464525449_">
				<use xlink:href="#SVGID_1_"  style="overflow:visible;"/>
			</clipPath>
			<g style="clip-path:url(#SVGID_00000097485662112659692360000000055485330464525449_);">
				<g>
					<g>
						<defs>
							
								<rect id="SVGID_00000052090821031018502650000005993294653715624851_" x="713.5" y="577.7" transform="matrix(0.9152 -0.4029 0.4029 0.9152 -207.5446 390.485)" width="221.7" height="221.7"/>
						</defs>
						<clipPath id="SVGID_00000130608988289462446090000008263958164863891617_">
							<use xlink:href="#SVGID_00000052090821031018502650000005993294653715624851_"  style="overflow:visible;"/>
						</clipPath>
						<g style="clip-path:url(#SVGID_00000130608988289462446090000008263958164863891617_);">
							<path class="st4" d="M871,738c-2.5,1.1-5.3,2-8.2,2.6c-12.5,2.4-25.5-1.7-38.7-12.2c-12.2-10-22.6-13.6-30.9-10.7
								c-12,4.2-16.1,20.9-16.4,22.3c18.9,18.7,48.9,24.7,75.8,12.9c10-4.4,18.4-10.7,25-18.3C875.5,735.7,873.4,737,871,738"/>
							<path class="st4" d="M791.8,713.8c9.8-3.5,21.6,0.3,35,11.4c12.2,9.7,24.1,13.6,35.3,11.4c13.2-2.5,22-12.8,25.5-17.3
								c5.4-11.1,7.7-23.4,6.3-35.7c-3.6,5.3-10.3,13.3-20,17.5c-2.2,1-4.5,1.7-6.9,2.2c-12.5,2.6-25.9-1.7-39.8-12.9
								c-13.7-9.5-26.8-12.8-38.9-9.7c-16.8,4.4-26.9,20.1-29.4,24.3c0.8,5.2,2.3,10.3,4.5,15.3c2.6,5.9,6,11.2,10.1,15.9
								C775.2,730.5,780.4,717.9,791.8,713.8"/>
							<path class="st36" d="M797.3,644.4c14.2-2.8,28.5,0.5,42.6,9.8c19.6,13.1,30.3,13.1,35.8,10.8c0.1,0,0.1,0,0.2-0.1
								c5.8-2.5,7.4-8.3,7.7-9.4c-17.5-26.1-52.8-36.3-83.8-22.6c-13.1,5.8-23.6,15-30.8,26C775.8,653,785.4,646.8,797.3,644.4"/>
							<path class="st36" d="M886.5,660.4c-1.5,2.9-4.1,6.5-8.9,8.6c-0.1,0-0.2,0.1-0.3,0.1c-9.5,4-23.1,0.3-40.2-11.2
								c-13.1-8.7-26.2-11.7-39.2-9.1c-19.1,3.8-32.3,19-35.9,23.6c-3.1,8.4-4.5,17.3-4,26.3c4.8-6.9,14.6-18,29.1-21.8
								c13.4-3.5,27.7,0,42.5,10.3c13.1,10.4,25.3,14.5,36.5,12.1c15.2-3.2,24.2-17.5,26.6-21.8l0.1-0.2c-0.9-4.1-2.2-8.2-4-12.2
								C888.2,663.5,887.4,661.9,886.5,660.4"/>
							<path class="st52" d="M886.5,660.4c-1.5,2.9-4.1,6.5-8.9,8.6c-0.1,0-0.2,0.1-0.3,0.1c-9.5,4-23.1,0.3-40.2-11.2
								c-13.1-8.7-26.2-11.7-39.2-9.1c-19.1,3.8-32.3,19-35.9,23.6c-3.1,8.4-4.5,17.3-4,26.3c4.8-6.9,14.6-18,29.1-21.8
								c13.4-3.5,27.7,0,42.5,10.3c13.1,10.4,25.3,14.5,36.5,12.1c15.2-3.2,24.2-17.5,26.6-21.8l0.1-0.2c-0.9-4.1-2.2-8.2-4-12.2
								C888.2,663.5,887.4,661.9,886.5,660.4L886.5,660.4z"/>
						</g>
					</g>
				</g>
			</g>
		</g>
	</g>
</g>
<g id="Layer_24">
	<path class="st13" d="M642,165.8c68-40.9,173.8-54.8,221.3-28.7c-98,14.4-174.4,28.4-272.1,80.8c10.5-13.1,19-22,29.5-35.1"/>
</g>
</svg>
