<?xml version="1.0" encoding="utf-8"?>
<!-- Generator: Adobe Illustrator 27.6.1, SVG Export Plug-In . SVG Version: 6.00 Build 0)  -->
<svg version="1.1" id="Layer_2_00000172425605201008411030000013315120531267011497_"
	 xmlns="http://www.w3.org/2000/svg" xmlns:xlink="http://www.w3.org/1999/xlink" x="0px" y="0px" viewBox="0 0 1920 565.8"
	 style="enable-background:new 0 0 1920 565.8;" xml:space="preserve">
<style type="text/css">
	.st0{fill:#B1E0EF;}
	.st1{fill:#A2D2DD;}
</style>
<path class="st0" d="M1920,7c-124.2-36.8-270.2,76.8-262.7,206.1c-87.2-43.5-200.8-26.4-271.3,40.8c-27.1-71-133.1-95.2-188.3-42.9
	C1134.2,104.3,994.1,49.9,875.2,86C756.3,122,670,245.1,676.5,369.1c-59.1-14-125,33.1-131,93.6c-6,60.5-8.6,103.1,52.1,103.1H1920"
	/>
<path class="st0" d="M601.8,565.8c-38.2-71-114.6-124.1-195.2-126.9S245.4,478.8,202.4,547c-28.2-33-73.8-50.1-116.7-43.9
	S0,520.1,0,565.9"/>
<path class="st1" d="M389.7,306.5c7.3,10.5-99,64.1-172.1,24.6c-98.5-53.3-124.2,26.5-116.1,27.7c197.1,29,312.8,7,476-4.4
	c34.5-2.4,67.3-39.9,53.2-71.5c-20-44.8-77.1-37.6-98.2-10.1C519.2,157,344.3,240.9,389.7,306.5L389.7,306.5z"/>
</svg>
